G04 #@! TF.GenerationSoftware,KiCad,Pcbnew,(5.1.7)-1*
G04 #@! TF.CreationDate,2021-04-06T08:53:53-07:00*
G04 #@! TF.ProjectId,EsperDNS,45737065-7244-44e5-932e-6b696361645f,rev?*
G04 #@! TF.SameCoordinates,Original*
G04 #@! TF.FileFunction,Copper,L3,Inr*
G04 #@! TF.FilePolarity,Positive*
%FSLAX46Y46*%
G04 Gerber Fmt 4.6, Leading zero omitted, Abs format (unit mm)*
G04 Created by KiCad (PCBNEW (5.1.7)-1) date 2021-04-06 08:53:53*
%MOMM*%
%LPD*%
G01*
G04 APERTURE LIST*
G04 #@! TA.AperFunction,Profile*
%ADD10C,0.100000*%
G04 #@! TD*
G04 #@! TA.AperFunction,ComponentPad*
%ADD11C,1.450000*%
G04 #@! TD*
G04 #@! TA.AperFunction,ComponentPad*
%ADD12O,1.200000X1.900000*%
G04 #@! TD*
G04 #@! TA.AperFunction,ComponentPad*
%ADD13C,0.500000*%
G04 #@! TD*
G04 #@! TA.AperFunction,ComponentPad*
%ADD14C,2.100000*%
G04 #@! TD*
G04 #@! TA.AperFunction,ComponentPad*
%ADD15C,1.750000*%
G04 #@! TD*
G04 #@! TA.AperFunction,ComponentPad*
%ADD16R,1.900000X1.900000*%
G04 #@! TD*
G04 #@! TA.AperFunction,ComponentPad*
%ADD17C,1.900000*%
G04 #@! TD*
G04 #@! TA.AperFunction,ComponentPad*
%ADD18C,1.890000*%
G04 #@! TD*
G04 #@! TA.AperFunction,ComponentPad*
%ADD19C,2.600000*%
G04 #@! TD*
G04 #@! TA.AperFunction,ComponentPad*
%ADD20C,4.400000*%
G04 #@! TD*
G04 #@! TA.AperFunction,ViaPad*
%ADD21C,0.600000*%
G04 #@! TD*
G04 #@! TA.AperFunction,Conductor*
%ADD22C,0.127000*%
G04 #@! TD*
G04 #@! TA.AperFunction,Conductor*
%ADD23C,0.100000*%
G04 #@! TD*
G04 APERTURE END LIST*
D10*
X-25500000Y-19050000D02*
G75*
G03*
X-20550000Y-24000000I4950000J0D01*
G01*
X20550000Y-24000000D02*
G75*
G03*
X25500000Y-19050000I0J4950000D01*
G01*
X25500000Y19050000D02*
G75*
G03*
X20550000Y24000000I-4950000J0D01*
G01*
X-20550000Y24000000D02*
G75*
G03*
X-25500000Y19050000I0J-4950000D01*
G01*
X25500000Y19050000D02*
X25500000Y-19050000D01*
X-20550000Y24000000D02*
X20550000Y24000000D01*
X-25500000Y19050000D02*
X-25500000Y-19050000D01*
X-20550000Y-24000000D02*
X20550000Y-24000000D01*
D11*
X-12406000Y-19873500D03*
X-7406000Y-19873500D03*
D12*
X-13406000Y-22573500D03*
X-6406000Y-22573500D03*
D13*
X13550000Y6950000D03*
X12500000Y6950000D03*
X11450000Y6950000D03*
X13550000Y8000000D03*
X12500000Y8000000D03*
X11450000Y8000000D03*
X13550000Y9050000D03*
X12500000Y9050000D03*
X11450000Y9050000D03*
D14*
X-20210000Y-5540000D03*
D15*
X-22700000Y-6800000D03*
X-22700000Y-11300000D03*
D14*
X-20210000Y-12550000D03*
D16*
X8020000Y-8000000D03*
D17*
X9290000Y-5460000D03*
X10560000Y-8000000D03*
X11830000Y-5460000D03*
X13100000Y-8000000D03*
X14370000Y-5460000D03*
X15640000Y-8000000D03*
X16910000Y-5460000D03*
D18*
X18790000Y-17720000D03*
X16250000Y-19240000D03*
X8680000Y-17720000D03*
X6140000Y-19240000D03*
D19*
X4690000Y-11290000D03*
X20240000Y-11290000D03*
D20*
X20550000Y19050000D03*
X-20550000Y-19050000D03*
D21*
X-11430000Y-13208000D03*
X-11430000Y-11176000D03*
X-13208000Y-13208000D03*
X-12192000Y-11938000D03*
X-13208000Y-10922000D03*
X-16500000Y5500000D03*
X-17500000Y6000000D03*
X-16500000Y6500000D03*
X-17500000Y7000000D03*
X-15000000Y5500000D03*
X-14000000Y6000000D03*
X-15000000Y6500000D03*
X-14000000Y7000000D03*
X-15000000Y7500000D03*
X-16500000Y7500000D03*
X-17500000Y8000000D03*
X-14000000Y8000000D03*
X-15000000Y8500000D03*
X-16500000Y8500000D03*
X-14000000Y9000000D03*
X-17500000Y9000000D03*
X500000Y12600000D03*
X300000Y10200000D03*
X-1600000Y5700000D03*
X-20100000Y900000D03*
X-20500000Y2800000D03*
X14500000Y14300000D03*
X12600000Y13200000D03*
X-800000Y2800000D03*
X-21200000Y14900000D03*
X-2200000Y11500000D03*
X16200000Y14700000D03*
X2500000Y22700000D03*
X16700000Y5400000D03*
X18440000Y10660000D03*
X13300000Y-1200000D03*
X8600000Y4000000D03*
X10900000Y18600000D03*
X8800000Y19500000D03*
X2000000Y-17800000D03*
X-5500000Y-17600000D03*
X-7400000Y-17600000D03*
X1300000Y-14400000D03*
X-8100000Y14900000D03*
X14300000Y12200000D03*
X1900000Y-7000000D03*
X-19200000Y-700000D03*
X-13000000Y-5000000D03*
X21000000Y-8000000D03*
X-2500000Y-1400000D03*
X2900000Y-1300000D03*
X16500000Y1799994D03*
X18800000Y4200000D03*
X-8382000Y-18034000D03*
X-11430000Y-8382000D03*
X-11430000Y-6604000D03*
X-16510000Y-12446000D03*
X-21200000Y13600000D03*
X900000Y-18500000D03*
X900000Y-19900000D03*
X-3200000Y-20000000D03*
X-3200000Y-18400000D03*
X13300000Y12200000D03*
X-2000000Y9500000D03*
X5700000Y14900000D03*
X-1000000Y-18400000D03*
X-1000000Y-20000000D03*
X-1125000Y-12265000D03*
X-11430000Y-5334000D03*
X-14129000Y-8128000D03*
X-7620000Y-11684000D03*
X-7112000Y-5334000D03*
X-8382000Y-11009000D03*
X-6858000Y-3302000D03*
X-21200000Y3450000D03*
X15200000Y13800000D03*
X-21200000Y2200000D03*
X16200000Y13800000D03*
X-8300000Y4700000D03*
X5400000Y3800000D03*
X5800000Y10600000D03*
X9093750Y12093750D03*
X9500000Y6500000D03*
X-2300000Y6400000D03*
X9500000Y7300000D03*
X-2300000Y8700000D03*
X9500000Y5699994D03*
X-2200000Y12300000D03*
X16000000Y8800000D03*
X-1400000Y2300000D03*
X-8200000Y2000000D03*
X-10900000Y3000000D03*
X-9600000Y14600000D03*
X-2600000Y14600000D03*
X-14500000Y2800000D03*
X-4000000Y7300000D03*
X-15700000Y3800000D03*
X-4300000Y10600000D03*
X-5440000Y-20976000D03*
X-15134000Y-20976000D03*
X9500000Y8777001D03*
X2300000Y200000D03*
X-18900000Y6700000D03*
X-21200000Y900000D03*
X11700000Y13100000D03*
X9500006Y8050000D03*
X16700000Y6400000D03*
X12300000Y-3700000D03*
X17700000Y-1300000D03*
X7500000Y-3800000D03*
X13300000Y-3700000D03*
X11300000Y-3800000D03*
X10900000Y17600000D03*
X6600000Y18600000D03*
X8400000Y200000D03*
X4600000Y-1900000D03*
X20000000Y4200000D03*
X-900000Y-8180000D03*
X-9950000Y-18078000D03*
X-12192000Y-7366000D03*
X-10600000Y-17340000D03*
X-12700000Y-8636000D03*
D22*
X21361231Y23558639D02*
X22146823Y23343726D01*
X22881939Y22993093D01*
X23543347Y22517824D01*
X24110137Y21932940D01*
X24564396Y21256932D01*
X24891765Y20511165D01*
X25082574Y19716385D01*
X25132500Y19036525D01*
X25132501Y-10936500D01*
X21818873Y-10936500D01*
X21795340Y-10818193D01*
X21673410Y-10523827D01*
X21496394Y-10258904D01*
X21271096Y-10033606D01*
X21006173Y-9856590D01*
X20711807Y-9734660D01*
X20399310Y-9672500D01*
X20080690Y-9672500D01*
X19768193Y-9734660D01*
X19473827Y-9856590D01*
X19208904Y-10033606D01*
X18983606Y-10258904D01*
X18806590Y-10523827D01*
X18684660Y-10818193D01*
X18661127Y-10936500D01*
X6268873Y-10936500D01*
X6245340Y-10818193D01*
X6123410Y-10523827D01*
X5946394Y-10258904D01*
X5721096Y-10033606D01*
X5456173Y-9856590D01*
X5161807Y-9734660D01*
X4849310Y-9672500D01*
X4530690Y-9672500D01*
X4218193Y-9734660D01*
X3923827Y-9856590D01*
X3658904Y-10033606D01*
X3433606Y-10258904D01*
X3256590Y-10523827D01*
X3134660Y-10818193D01*
X3111127Y-10936500D01*
X-1936500Y-10936500D01*
X-1936500Y-6939182D01*
X1282500Y-6939182D01*
X1282500Y-7060818D01*
X1306230Y-7180118D01*
X1352778Y-7292496D01*
X1420356Y-7393633D01*
X1506367Y-7479644D01*
X1607504Y-7547222D01*
X1719882Y-7593770D01*
X1839182Y-7617500D01*
X1960818Y-7617500D01*
X2080118Y-7593770D01*
X2192496Y-7547222D01*
X2293633Y-7479644D01*
X2379644Y-7393633D01*
X2447222Y-7292496D01*
X2493770Y-7180118D01*
X2517500Y-7060818D01*
X2517500Y-7050000D01*
X6750964Y-7050000D01*
X6750964Y-8950000D01*
X6757094Y-9012241D01*
X6775249Y-9072090D01*
X6804731Y-9127247D01*
X6844407Y-9175593D01*
X6892753Y-9215269D01*
X6947910Y-9244751D01*
X7007759Y-9262906D01*
X7070000Y-9269036D01*
X8970000Y-9269036D01*
X9032241Y-9262906D01*
X9092090Y-9244751D01*
X9147247Y-9215269D01*
X9195593Y-9175593D01*
X9235269Y-9127247D01*
X9264751Y-9072090D01*
X9282906Y-9012241D01*
X9289036Y-8950000D01*
X9289036Y-7875162D01*
X9292500Y-7875162D01*
X9292500Y-8124838D01*
X9341209Y-8369716D01*
X9436756Y-8600386D01*
X9575468Y-8807984D01*
X9752016Y-8984532D01*
X9959614Y-9123244D01*
X10190284Y-9218791D01*
X10435162Y-9267500D01*
X10684838Y-9267500D01*
X10929716Y-9218791D01*
X11160386Y-9123244D01*
X11367984Y-8984532D01*
X11464341Y-8888175D01*
X12301628Y-8888175D01*
X12403682Y-9066434D01*
X12625112Y-9181787D01*
X12864792Y-9251725D01*
X13113511Y-9273561D01*
X13361710Y-9246454D01*
X13599852Y-9171447D01*
X13796318Y-9066434D01*
X13898372Y-8888175D01*
X13100000Y-8089803D01*
X12301628Y-8888175D01*
X11464341Y-8888175D01*
X11544532Y-8807984D01*
X11683244Y-8600386D01*
X11778791Y-8369716D01*
X11827500Y-8124838D01*
X11827500Y-8023226D01*
X11853546Y-8261710D01*
X11928553Y-8499852D01*
X12033566Y-8696318D01*
X12211825Y-8798372D01*
X13010197Y-8000000D01*
X13189803Y-8000000D01*
X13988175Y-8798372D01*
X14166434Y-8696318D01*
X14281787Y-8474888D01*
X14351725Y-8235208D01*
X14372500Y-7998574D01*
X14372500Y-8124838D01*
X14421209Y-8369716D01*
X14516756Y-8600386D01*
X14655468Y-8807984D01*
X14832016Y-8984532D01*
X15039614Y-9123244D01*
X15270284Y-9218791D01*
X15515162Y-9267500D01*
X15764838Y-9267500D01*
X16009716Y-9218791D01*
X16240386Y-9123244D01*
X16447984Y-8984532D01*
X16624532Y-8807984D01*
X16763244Y-8600386D01*
X16858791Y-8369716D01*
X16907500Y-8124838D01*
X16907500Y-7939182D01*
X20382500Y-7939182D01*
X20382500Y-8060818D01*
X20406230Y-8180118D01*
X20452778Y-8292496D01*
X20520356Y-8393633D01*
X20606367Y-8479644D01*
X20707504Y-8547222D01*
X20819882Y-8593770D01*
X20939182Y-8617500D01*
X21060818Y-8617500D01*
X21180118Y-8593770D01*
X21292496Y-8547222D01*
X21393633Y-8479644D01*
X21479644Y-8393633D01*
X21547222Y-8292496D01*
X21593770Y-8180118D01*
X21617500Y-8060818D01*
X21617500Y-7939182D01*
X21593770Y-7819882D01*
X21547222Y-7707504D01*
X21479644Y-7606367D01*
X21393633Y-7520356D01*
X21292496Y-7452778D01*
X21180118Y-7406230D01*
X21060818Y-7382500D01*
X20939182Y-7382500D01*
X20819882Y-7406230D01*
X20707504Y-7452778D01*
X20606367Y-7520356D01*
X20520356Y-7606367D01*
X20452778Y-7707504D01*
X20406230Y-7819882D01*
X20382500Y-7939182D01*
X16907500Y-7939182D01*
X16907500Y-7875162D01*
X16858791Y-7630284D01*
X16763244Y-7399614D01*
X16624532Y-7192016D01*
X16447984Y-7015468D01*
X16240386Y-6876756D01*
X16009716Y-6781209D01*
X15764838Y-6732500D01*
X15515162Y-6732500D01*
X15270284Y-6781209D01*
X15039614Y-6876756D01*
X14832016Y-7015468D01*
X14655468Y-7192016D01*
X14516756Y-7399614D01*
X14421209Y-7630284D01*
X14372500Y-7875162D01*
X14372500Y-7976774D01*
X14346454Y-7738290D01*
X14271447Y-7500148D01*
X14166434Y-7303682D01*
X13988175Y-7201628D01*
X13189803Y-8000000D01*
X13010197Y-8000000D01*
X12211825Y-7201628D01*
X12033566Y-7303682D01*
X11918213Y-7525112D01*
X11848275Y-7764792D01*
X11827500Y-8001426D01*
X11827500Y-7875162D01*
X11778791Y-7630284D01*
X11683244Y-7399614D01*
X11544532Y-7192016D01*
X11464341Y-7111825D01*
X12301628Y-7111825D01*
X13100000Y-7910197D01*
X13898372Y-7111825D01*
X13796318Y-6933566D01*
X13574888Y-6818213D01*
X13335208Y-6748275D01*
X13086489Y-6726439D01*
X12838290Y-6753546D01*
X12600148Y-6828553D01*
X12403682Y-6933566D01*
X12301628Y-7111825D01*
X11464341Y-7111825D01*
X11367984Y-7015468D01*
X11160386Y-6876756D01*
X10929716Y-6781209D01*
X10684838Y-6732500D01*
X10435162Y-6732500D01*
X10190284Y-6781209D01*
X9959614Y-6876756D01*
X9752016Y-7015468D01*
X9575468Y-7192016D01*
X9436756Y-7399614D01*
X9341209Y-7630284D01*
X9292500Y-7875162D01*
X9289036Y-7875162D01*
X9289036Y-7050000D01*
X9282906Y-6987759D01*
X9264751Y-6927910D01*
X9235269Y-6872753D01*
X9195593Y-6824407D01*
X9147247Y-6784731D01*
X9092090Y-6755249D01*
X9032241Y-6737094D01*
X8970000Y-6730964D01*
X7070000Y-6730964D01*
X7007759Y-6737094D01*
X6947910Y-6755249D01*
X6892753Y-6784731D01*
X6844407Y-6824407D01*
X6804731Y-6872753D01*
X6775249Y-6927910D01*
X6757094Y-6987759D01*
X6750964Y-7050000D01*
X2517500Y-7050000D01*
X2517500Y-6939182D01*
X2493770Y-6819882D01*
X2447222Y-6707504D01*
X2379644Y-6606367D01*
X2293633Y-6520356D01*
X2192496Y-6452778D01*
X2080118Y-6406230D01*
X1960818Y-6382500D01*
X1839182Y-6382500D01*
X1719882Y-6406230D01*
X1607504Y-6452778D01*
X1506367Y-6520356D01*
X1420356Y-6606367D01*
X1352778Y-6707504D01*
X1306230Y-6819882D01*
X1282500Y-6939182D01*
X-1936500Y-6939182D01*
X-1936500Y-5335162D01*
X8022500Y-5335162D01*
X8022500Y-5584838D01*
X8071209Y-5829716D01*
X8166756Y-6060386D01*
X8305468Y-6267984D01*
X8482016Y-6444532D01*
X8689614Y-6583244D01*
X8920284Y-6678791D01*
X9165162Y-6727500D01*
X9414838Y-6727500D01*
X9659716Y-6678791D01*
X9890386Y-6583244D01*
X10097984Y-6444532D01*
X10194341Y-6348175D01*
X11031628Y-6348175D01*
X11133682Y-6526434D01*
X11355112Y-6641787D01*
X11594792Y-6711725D01*
X11843511Y-6733561D01*
X12091710Y-6706454D01*
X12329852Y-6631447D01*
X12526318Y-6526434D01*
X12628372Y-6348175D01*
X11830000Y-5549803D01*
X11031628Y-6348175D01*
X10194341Y-6348175D01*
X10274532Y-6267984D01*
X10413244Y-6060386D01*
X10508791Y-5829716D01*
X10557500Y-5584838D01*
X10557500Y-5483226D01*
X10583546Y-5721710D01*
X10658553Y-5959852D01*
X10763566Y-6156318D01*
X10941825Y-6258372D01*
X11740197Y-5460000D01*
X11919803Y-5460000D01*
X12718175Y-6258372D01*
X12896434Y-6156318D01*
X13011787Y-5934888D01*
X13081725Y-5695208D01*
X13102500Y-5458574D01*
X13102500Y-5584838D01*
X13151209Y-5829716D01*
X13246756Y-6060386D01*
X13385468Y-6267984D01*
X13562016Y-6444532D01*
X13769614Y-6583244D01*
X14000284Y-6678791D01*
X14245162Y-6727500D01*
X14494838Y-6727500D01*
X14739716Y-6678791D01*
X14970386Y-6583244D01*
X15177984Y-6444532D01*
X15354532Y-6267984D01*
X15493244Y-6060386D01*
X15588791Y-5829716D01*
X15637500Y-5584838D01*
X15637500Y-5335162D01*
X15642500Y-5335162D01*
X15642500Y-5584838D01*
X15691209Y-5829716D01*
X15786756Y-6060386D01*
X15925468Y-6267984D01*
X16102016Y-6444532D01*
X16309614Y-6583244D01*
X16540284Y-6678791D01*
X16785162Y-6727500D01*
X17034838Y-6727500D01*
X17279716Y-6678791D01*
X17510386Y-6583244D01*
X17717984Y-6444532D01*
X17894532Y-6267984D01*
X18033244Y-6060386D01*
X18128791Y-5829716D01*
X18177500Y-5584838D01*
X18177500Y-5335162D01*
X18128791Y-5090284D01*
X18033244Y-4859614D01*
X17894532Y-4652016D01*
X17717984Y-4475468D01*
X17510386Y-4336756D01*
X17279716Y-4241209D01*
X17034838Y-4192500D01*
X16785162Y-4192500D01*
X16540284Y-4241209D01*
X16309614Y-4336756D01*
X16102016Y-4475468D01*
X15925468Y-4652016D01*
X15786756Y-4859614D01*
X15691209Y-5090284D01*
X15642500Y-5335162D01*
X15637500Y-5335162D01*
X15588791Y-5090284D01*
X15493244Y-4859614D01*
X15354532Y-4652016D01*
X15177984Y-4475468D01*
X14970386Y-4336756D01*
X14739716Y-4241209D01*
X14494838Y-4192500D01*
X14245162Y-4192500D01*
X14000284Y-4241209D01*
X13769614Y-4336756D01*
X13562016Y-4475468D01*
X13385468Y-4652016D01*
X13246756Y-4859614D01*
X13151209Y-5090284D01*
X13102500Y-5335162D01*
X13102500Y-5436774D01*
X13076454Y-5198290D01*
X13001447Y-4960148D01*
X12896434Y-4763682D01*
X12718175Y-4661628D01*
X11919803Y-5460000D01*
X11740197Y-5460000D01*
X10941825Y-4661628D01*
X10763566Y-4763682D01*
X10648213Y-4985112D01*
X10578275Y-5224792D01*
X10557500Y-5461426D01*
X10557500Y-5335162D01*
X10508791Y-5090284D01*
X10413244Y-4859614D01*
X10274532Y-4652016D01*
X10194341Y-4571825D01*
X11031628Y-4571825D01*
X11830000Y-5370197D01*
X12628372Y-4571825D01*
X12526318Y-4393566D01*
X12304888Y-4278213D01*
X12065208Y-4208275D01*
X11816489Y-4186439D01*
X11568290Y-4213546D01*
X11330148Y-4288553D01*
X11133682Y-4393566D01*
X11031628Y-4571825D01*
X10194341Y-4571825D01*
X10097984Y-4475468D01*
X9890386Y-4336756D01*
X9659716Y-4241209D01*
X9414838Y-4192500D01*
X9165162Y-4192500D01*
X8920284Y-4241209D01*
X8689614Y-4336756D01*
X8482016Y-4475468D01*
X8305468Y-4652016D01*
X8166756Y-4859614D01*
X8071209Y-5090284D01*
X8022500Y-5335162D01*
X-1936500Y-5335162D01*
X-1936500Y-1653197D01*
X-1906230Y-1580118D01*
X-1882500Y-1460818D01*
X-1882500Y-1339182D01*
X-1902391Y-1239182D01*
X2282500Y-1239182D01*
X2282500Y-1360818D01*
X2306230Y-1480118D01*
X2352778Y-1592496D01*
X2420356Y-1693633D01*
X2506367Y-1779644D01*
X2607504Y-1847222D01*
X2719882Y-1893770D01*
X2839182Y-1917500D01*
X2960818Y-1917500D01*
X3080118Y-1893770D01*
X3192496Y-1847222D01*
X3293633Y-1779644D01*
X3379644Y-1693633D01*
X3447222Y-1592496D01*
X3493770Y-1480118D01*
X3517500Y-1360818D01*
X3517500Y-1239182D01*
X3497609Y-1139182D01*
X12682500Y-1139182D01*
X12682500Y-1260818D01*
X12706230Y-1380118D01*
X12752778Y-1492496D01*
X12820356Y-1593633D01*
X12906367Y-1679644D01*
X13007504Y-1747222D01*
X13119882Y-1793770D01*
X13239182Y-1817500D01*
X13360818Y-1817500D01*
X13480118Y-1793770D01*
X13592496Y-1747222D01*
X13693633Y-1679644D01*
X13779644Y-1593633D01*
X13847222Y-1492496D01*
X13893770Y-1380118D01*
X13917500Y-1260818D01*
X13917500Y-1139182D01*
X13893770Y-1019882D01*
X13847222Y-907504D01*
X13779644Y-806367D01*
X13693633Y-720356D01*
X13592496Y-652778D01*
X13480118Y-606230D01*
X13360818Y-582500D01*
X13239182Y-582500D01*
X13119882Y-606230D01*
X13007504Y-652778D01*
X12906367Y-720356D01*
X12820356Y-806367D01*
X12752778Y-907504D01*
X12706230Y-1019882D01*
X12682500Y-1139182D01*
X3497609Y-1139182D01*
X3493770Y-1119882D01*
X3447222Y-1007504D01*
X3379644Y-906367D01*
X3293633Y-820356D01*
X3192496Y-752778D01*
X3080118Y-706230D01*
X2960818Y-682500D01*
X2839182Y-682500D01*
X2719882Y-706230D01*
X2607504Y-752778D01*
X2506367Y-820356D01*
X2420356Y-906367D01*
X2352778Y-1007504D01*
X2306230Y-1119882D01*
X2282500Y-1239182D01*
X-1902391Y-1239182D01*
X-1906230Y-1219882D01*
X-1936500Y-1146803D01*
X-1936500Y260818D01*
X1682500Y260818D01*
X1682500Y139182D01*
X1706230Y19882D01*
X1752778Y-92496D01*
X1820356Y-193633D01*
X1906367Y-279644D01*
X2007504Y-347222D01*
X2119882Y-393770D01*
X2239182Y-417500D01*
X2360818Y-417500D01*
X2480118Y-393770D01*
X2592496Y-347222D01*
X2693633Y-279644D01*
X2779644Y-193633D01*
X2847222Y-92496D01*
X2893770Y19882D01*
X2917500Y139182D01*
X2917500Y260818D01*
X2893770Y380118D01*
X2847222Y492496D01*
X2779644Y593633D01*
X2693633Y679644D01*
X2592496Y747222D01*
X2480118Y793770D01*
X2360818Y817500D01*
X2239182Y817500D01*
X2119882Y793770D01*
X2007504Y747222D01*
X1906367Y679644D01*
X1820356Y593633D01*
X1752778Y492496D01*
X1706230Y380118D01*
X1682500Y260818D01*
X-1936500Y260818D01*
X-1936500Y936433D01*
X10112626Y923673D01*
X10125015Y924880D01*
X10136931Y928481D01*
X10147916Y934337D01*
X10157360Y942038D01*
X11085754Y1860812D01*
X15882500Y1860812D01*
X15882500Y1739176D01*
X15906230Y1619876D01*
X15952778Y1507498D01*
X16020356Y1406361D01*
X16106367Y1320350D01*
X16207504Y1252772D01*
X16319882Y1206224D01*
X16439182Y1182494D01*
X16560818Y1182494D01*
X16680118Y1206224D01*
X16792496Y1252772D01*
X16893633Y1320350D01*
X16979644Y1406361D01*
X17047222Y1507498D01*
X17093770Y1619876D01*
X17117500Y1739176D01*
X17117500Y1860812D01*
X17093770Y1980112D01*
X17047222Y2092490D01*
X16979644Y2193627D01*
X16893633Y2279638D01*
X16792496Y2347216D01*
X16680118Y2393764D01*
X16560818Y2417494D01*
X16439182Y2417494D01*
X16319882Y2393764D01*
X16207504Y2347216D01*
X16106367Y2279638D01*
X16020356Y2193627D01*
X15952778Y2092490D01*
X15906230Y1980112D01*
X15882500Y1860812D01*
X11085754Y1860812D01*
X13510890Y4260818D01*
X18182500Y4260818D01*
X18182500Y4139182D01*
X18206230Y4019882D01*
X18252778Y3907504D01*
X18320356Y3806367D01*
X18406367Y3720356D01*
X18507504Y3652778D01*
X18619882Y3606230D01*
X18739182Y3582500D01*
X18860818Y3582500D01*
X18980118Y3606230D01*
X19092496Y3652778D01*
X19193633Y3720356D01*
X19279644Y3806367D01*
X19347222Y3907504D01*
X19393770Y4019882D01*
X19417500Y4139182D01*
X19417500Y4260818D01*
X19393770Y4380118D01*
X19347222Y4492496D01*
X19279644Y4593633D01*
X19193633Y4679644D01*
X19092496Y4747222D01*
X18980118Y4793770D01*
X18860818Y4817500D01*
X18739182Y4817500D01*
X18619882Y4793770D01*
X18507504Y4747222D01*
X18406367Y4679644D01*
X18320356Y4593633D01*
X18252778Y4492496D01*
X18206230Y4380118D01*
X18182500Y4260818D01*
X13510890Y4260818D01*
X14723456Y5460818D01*
X16082500Y5460818D01*
X16082500Y5339182D01*
X16106230Y5219882D01*
X16152778Y5107504D01*
X16220356Y5006367D01*
X16306367Y4920356D01*
X16407504Y4852778D01*
X16519882Y4806230D01*
X16639182Y4782500D01*
X16760818Y4782500D01*
X16880118Y4806230D01*
X16992496Y4852778D01*
X17093633Y4920356D01*
X17179644Y5006367D01*
X17247222Y5107504D01*
X17293770Y5219882D01*
X17317500Y5339182D01*
X17317500Y5460818D01*
X17293770Y5580118D01*
X17247222Y5692496D01*
X17179644Y5793633D01*
X17093633Y5879644D01*
X16992496Y5947222D01*
X16880118Y5993770D01*
X16760818Y6017500D01*
X16639182Y6017500D01*
X16519882Y5993770D01*
X16407504Y5947222D01*
X16306367Y5879644D01*
X16220356Y5793633D01*
X16152778Y5692496D01*
X16106230Y5580118D01*
X16082500Y5460818D01*
X14723456Y5460818D01*
X17344667Y8054865D01*
X17352614Y8064447D01*
X17358539Y8075394D01*
X17362214Y8087288D01*
X17363498Y8099508D01*
X17383818Y10720818D01*
X17822500Y10720818D01*
X17822500Y10599182D01*
X17846230Y10479882D01*
X17892778Y10367504D01*
X17960356Y10266367D01*
X18046367Y10180356D01*
X18147504Y10112778D01*
X18259882Y10066230D01*
X18379182Y10042500D01*
X18500818Y10042500D01*
X18620118Y10066230D01*
X18732496Y10112778D01*
X18833633Y10180356D01*
X18919644Y10266367D01*
X18987222Y10367504D01*
X19033770Y10479882D01*
X19057500Y10599182D01*
X19057500Y10720818D01*
X19033770Y10840118D01*
X18987222Y10952496D01*
X18919644Y11053633D01*
X18833633Y11139644D01*
X18732496Y11207222D01*
X18620118Y11253770D01*
X18500818Y11277500D01*
X18379182Y11277500D01*
X18259882Y11253770D01*
X18147504Y11207222D01*
X18046367Y11139644D01*
X17960356Y11053633D01*
X17892778Y10952496D01*
X17846230Y10840118D01*
X17822500Y10720818D01*
X17383818Y10720818D01*
X17413498Y14549508D01*
X17412374Y14561905D01*
X17408853Y14573845D01*
X17403070Y14584868D01*
X17397323Y14592341D01*
X15697323Y16492341D01*
X15688153Y16500760D01*
X15677517Y16507228D01*
X15665824Y16511497D01*
X15650000Y16513500D01*
X-336500Y16513500D01*
X-336500Y18660818D01*
X10282500Y18660818D01*
X10282500Y18539182D01*
X10306230Y18419882D01*
X10352778Y18307504D01*
X10420356Y18206367D01*
X10506367Y18120356D01*
X10607504Y18052778D01*
X10719882Y18006230D01*
X10839182Y17982500D01*
X10960818Y17982500D01*
X11080118Y18006230D01*
X11192496Y18052778D01*
X11293633Y18120356D01*
X11379644Y18206367D01*
X11447222Y18307504D01*
X11493770Y18419882D01*
X11517500Y18539182D01*
X11517500Y18660818D01*
X11493770Y18780118D01*
X11447222Y18892496D01*
X11379644Y18993633D01*
X11293633Y19079644D01*
X11192496Y19147222D01*
X11080118Y19193770D01*
X10960818Y19217500D01*
X10839182Y19217500D01*
X10719882Y19193770D01*
X10607504Y19147222D01*
X10506367Y19079644D01*
X10420356Y18993633D01*
X10352778Y18892496D01*
X10306230Y18780118D01*
X10282500Y18660818D01*
X-336500Y18660818D01*
X-336500Y19560818D01*
X8182500Y19560818D01*
X8182500Y19439182D01*
X8206230Y19319882D01*
X8252778Y19207504D01*
X8320356Y19106367D01*
X8406367Y19020356D01*
X8507504Y18952778D01*
X8619882Y18906230D01*
X8739182Y18882500D01*
X8860818Y18882500D01*
X8980118Y18906230D01*
X9092496Y18952778D01*
X9193633Y19020356D01*
X9279644Y19106367D01*
X9347222Y19207504D01*
X9384686Y19297952D01*
X18032500Y19297952D01*
X18032500Y18802048D01*
X18129246Y18315672D01*
X18319021Y17857517D01*
X18594530Y17445187D01*
X18945187Y17094530D01*
X19357517Y16819021D01*
X19815672Y16629246D01*
X20302048Y16532500D01*
X20797952Y16532500D01*
X21284328Y16629246D01*
X21742483Y16819021D01*
X22154813Y17094530D01*
X22505470Y17445187D01*
X22780979Y17857517D01*
X22970754Y18315672D01*
X23067500Y18802048D01*
X23067500Y19297952D01*
X22970754Y19784328D01*
X22780979Y20242483D01*
X22505470Y20654813D01*
X22154813Y21005470D01*
X21742483Y21280979D01*
X21284328Y21470754D01*
X20797952Y21567500D01*
X20302048Y21567500D01*
X19815672Y21470754D01*
X19357517Y21280979D01*
X18945187Y21005470D01*
X18594530Y20654813D01*
X18319021Y20242483D01*
X18129246Y19784328D01*
X18032500Y19297952D01*
X9384686Y19297952D01*
X9393770Y19319882D01*
X9417500Y19439182D01*
X9417500Y19560818D01*
X9393770Y19680118D01*
X9347222Y19792496D01*
X9279644Y19893633D01*
X9193633Y19979644D01*
X9092496Y20047222D01*
X8980118Y20093770D01*
X8860818Y20117500D01*
X8739182Y20117500D01*
X8619882Y20093770D01*
X8507504Y20047222D01*
X8406367Y19979644D01*
X8320356Y19893633D01*
X8252778Y19792496D01*
X8206230Y19680118D01*
X8182500Y19560818D01*
X-336500Y19560818D01*
X-336500Y22760818D01*
X1882500Y22760818D01*
X1882500Y22639182D01*
X1906230Y22519882D01*
X1952778Y22407504D01*
X2020356Y22306367D01*
X2106367Y22220356D01*
X2207504Y22152778D01*
X2319882Y22106230D01*
X2439182Y22082500D01*
X2560818Y22082500D01*
X2680118Y22106230D01*
X2792496Y22152778D01*
X2893633Y22220356D01*
X2979644Y22306367D01*
X3047222Y22407504D01*
X3093770Y22519882D01*
X3117500Y22639182D01*
X3117500Y22760818D01*
X3093770Y22880118D01*
X3047222Y22992496D01*
X2979644Y23093633D01*
X2893633Y23179644D01*
X2792496Y23247222D01*
X2680118Y23293770D01*
X2560818Y23317500D01*
X2439182Y23317500D01*
X2319882Y23293770D01*
X2207504Y23247222D01*
X2106367Y23179644D01*
X2020356Y23093633D01*
X1952778Y22992496D01*
X1906230Y22880118D01*
X1882500Y22760818D01*
X-336500Y22760818D01*
X-336500Y23632500D01*
X20533634Y23632500D01*
X21361231Y23558639D01*
G04 #@! TA.AperFunction,Conductor*
D23*
G36*
X21361231Y23558639D02*
G01*
X22146823Y23343726D01*
X22881939Y22993093D01*
X23543347Y22517824D01*
X24110137Y21932940D01*
X24564396Y21256932D01*
X24891765Y20511165D01*
X25082574Y19716385D01*
X25132500Y19036525D01*
X25132501Y-10936500D01*
X21818873Y-10936500D01*
X21795340Y-10818193D01*
X21673410Y-10523827D01*
X21496394Y-10258904D01*
X21271096Y-10033606D01*
X21006173Y-9856590D01*
X20711807Y-9734660D01*
X20399310Y-9672500D01*
X20080690Y-9672500D01*
X19768193Y-9734660D01*
X19473827Y-9856590D01*
X19208904Y-10033606D01*
X18983606Y-10258904D01*
X18806590Y-10523827D01*
X18684660Y-10818193D01*
X18661127Y-10936500D01*
X6268873Y-10936500D01*
X6245340Y-10818193D01*
X6123410Y-10523827D01*
X5946394Y-10258904D01*
X5721096Y-10033606D01*
X5456173Y-9856590D01*
X5161807Y-9734660D01*
X4849310Y-9672500D01*
X4530690Y-9672500D01*
X4218193Y-9734660D01*
X3923827Y-9856590D01*
X3658904Y-10033606D01*
X3433606Y-10258904D01*
X3256590Y-10523827D01*
X3134660Y-10818193D01*
X3111127Y-10936500D01*
X-1936500Y-10936500D01*
X-1936500Y-6939182D01*
X1282500Y-6939182D01*
X1282500Y-7060818D01*
X1306230Y-7180118D01*
X1352778Y-7292496D01*
X1420356Y-7393633D01*
X1506367Y-7479644D01*
X1607504Y-7547222D01*
X1719882Y-7593770D01*
X1839182Y-7617500D01*
X1960818Y-7617500D01*
X2080118Y-7593770D01*
X2192496Y-7547222D01*
X2293633Y-7479644D01*
X2379644Y-7393633D01*
X2447222Y-7292496D01*
X2493770Y-7180118D01*
X2517500Y-7060818D01*
X2517500Y-7050000D01*
X6750964Y-7050000D01*
X6750964Y-8950000D01*
X6757094Y-9012241D01*
X6775249Y-9072090D01*
X6804731Y-9127247D01*
X6844407Y-9175593D01*
X6892753Y-9215269D01*
X6947910Y-9244751D01*
X7007759Y-9262906D01*
X7070000Y-9269036D01*
X8970000Y-9269036D01*
X9032241Y-9262906D01*
X9092090Y-9244751D01*
X9147247Y-9215269D01*
X9195593Y-9175593D01*
X9235269Y-9127247D01*
X9264751Y-9072090D01*
X9282906Y-9012241D01*
X9289036Y-8950000D01*
X9289036Y-7875162D01*
X9292500Y-7875162D01*
X9292500Y-8124838D01*
X9341209Y-8369716D01*
X9436756Y-8600386D01*
X9575468Y-8807984D01*
X9752016Y-8984532D01*
X9959614Y-9123244D01*
X10190284Y-9218791D01*
X10435162Y-9267500D01*
X10684838Y-9267500D01*
X10929716Y-9218791D01*
X11160386Y-9123244D01*
X11367984Y-8984532D01*
X11464341Y-8888175D01*
X12301628Y-8888175D01*
X12403682Y-9066434D01*
X12625112Y-9181787D01*
X12864792Y-9251725D01*
X13113511Y-9273561D01*
X13361710Y-9246454D01*
X13599852Y-9171447D01*
X13796318Y-9066434D01*
X13898372Y-8888175D01*
X13100000Y-8089803D01*
X12301628Y-8888175D01*
X11464341Y-8888175D01*
X11544532Y-8807984D01*
X11683244Y-8600386D01*
X11778791Y-8369716D01*
X11827500Y-8124838D01*
X11827500Y-8023226D01*
X11853546Y-8261710D01*
X11928553Y-8499852D01*
X12033566Y-8696318D01*
X12211825Y-8798372D01*
X13010197Y-8000000D01*
X13189803Y-8000000D01*
X13988175Y-8798372D01*
X14166434Y-8696318D01*
X14281787Y-8474888D01*
X14351725Y-8235208D01*
X14372500Y-7998574D01*
X14372500Y-8124838D01*
X14421209Y-8369716D01*
X14516756Y-8600386D01*
X14655468Y-8807984D01*
X14832016Y-8984532D01*
X15039614Y-9123244D01*
X15270284Y-9218791D01*
X15515162Y-9267500D01*
X15764838Y-9267500D01*
X16009716Y-9218791D01*
X16240386Y-9123244D01*
X16447984Y-8984532D01*
X16624532Y-8807984D01*
X16763244Y-8600386D01*
X16858791Y-8369716D01*
X16907500Y-8124838D01*
X16907500Y-7939182D01*
X20382500Y-7939182D01*
X20382500Y-8060818D01*
X20406230Y-8180118D01*
X20452778Y-8292496D01*
X20520356Y-8393633D01*
X20606367Y-8479644D01*
X20707504Y-8547222D01*
X20819882Y-8593770D01*
X20939182Y-8617500D01*
X21060818Y-8617500D01*
X21180118Y-8593770D01*
X21292496Y-8547222D01*
X21393633Y-8479644D01*
X21479644Y-8393633D01*
X21547222Y-8292496D01*
X21593770Y-8180118D01*
X21617500Y-8060818D01*
X21617500Y-7939182D01*
X21593770Y-7819882D01*
X21547222Y-7707504D01*
X21479644Y-7606367D01*
X21393633Y-7520356D01*
X21292496Y-7452778D01*
X21180118Y-7406230D01*
X21060818Y-7382500D01*
X20939182Y-7382500D01*
X20819882Y-7406230D01*
X20707504Y-7452778D01*
X20606367Y-7520356D01*
X20520356Y-7606367D01*
X20452778Y-7707504D01*
X20406230Y-7819882D01*
X20382500Y-7939182D01*
X16907500Y-7939182D01*
X16907500Y-7875162D01*
X16858791Y-7630284D01*
X16763244Y-7399614D01*
X16624532Y-7192016D01*
X16447984Y-7015468D01*
X16240386Y-6876756D01*
X16009716Y-6781209D01*
X15764838Y-6732500D01*
X15515162Y-6732500D01*
X15270284Y-6781209D01*
X15039614Y-6876756D01*
X14832016Y-7015468D01*
X14655468Y-7192016D01*
X14516756Y-7399614D01*
X14421209Y-7630284D01*
X14372500Y-7875162D01*
X14372500Y-7976774D01*
X14346454Y-7738290D01*
X14271447Y-7500148D01*
X14166434Y-7303682D01*
X13988175Y-7201628D01*
X13189803Y-8000000D01*
X13010197Y-8000000D01*
X12211825Y-7201628D01*
X12033566Y-7303682D01*
X11918213Y-7525112D01*
X11848275Y-7764792D01*
X11827500Y-8001426D01*
X11827500Y-7875162D01*
X11778791Y-7630284D01*
X11683244Y-7399614D01*
X11544532Y-7192016D01*
X11464341Y-7111825D01*
X12301628Y-7111825D01*
X13100000Y-7910197D01*
X13898372Y-7111825D01*
X13796318Y-6933566D01*
X13574888Y-6818213D01*
X13335208Y-6748275D01*
X13086489Y-6726439D01*
X12838290Y-6753546D01*
X12600148Y-6828553D01*
X12403682Y-6933566D01*
X12301628Y-7111825D01*
X11464341Y-7111825D01*
X11367984Y-7015468D01*
X11160386Y-6876756D01*
X10929716Y-6781209D01*
X10684838Y-6732500D01*
X10435162Y-6732500D01*
X10190284Y-6781209D01*
X9959614Y-6876756D01*
X9752016Y-7015468D01*
X9575468Y-7192016D01*
X9436756Y-7399614D01*
X9341209Y-7630284D01*
X9292500Y-7875162D01*
X9289036Y-7875162D01*
X9289036Y-7050000D01*
X9282906Y-6987759D01*
X9264751Y-6927910D01*
X9235269Y-6872753D01*
X9195593Y-6824407D01*
X9147247Y-6784731D01*
X9092090Y-6755249D01*
X9032241Y-6737094D01*
X8970000Y-6730964D01*
X7070000Y-6730964D01*
X7007759Y-6737094D01*
X6947910Y-6755249D01*
X6892753Y-6784731D01*
X6844407Y-6824407D01*
X6804731Y-6872753D01*
X6775249Y-6927910D01*
X6757094Y-6987759D01*
X6750964Y-7050000D01*
X2517500Y-7050000D01*
X2517500Y-6939182D01*
X2493770Y-6819882D01*
X2447222Y-6707504D01*
X2379644Y-6606367D01*
X2293633Y-6520356D01*
X2192496Y-6452778D01*
X2080118Y-6406230D01*
X1960818Y-6382500D01*
X1839182Y-6382500D01*
X1719882Y-6406230D01*
X1607504Y-6452778D01*
X1506367Y-6520356D01*
X1420356Y-6606367D01*
X1352778Y-6707504D01*
X1306230Y-6819882D01*
X1282500Y-6939182D01*
X-1936500Y-6939182D01*
X-1936500Y-5335162D01*
X8022500Y-5335162D01*
X8022500Y-5584838D01*
X8071209Y-5829716D01*
X8166756Y-6060386D01*
X8305468Y-6267984D01*
X8482016Y-6444532D01*
X8689614Y-6583244D01*
X8920284Y-6678791D01*
X9165162Y-6727500D01*
X9414838Y-6727500D01*
X9659716Y-6678791D01*
X9890386Y-6583244D01*
X10097984Y-6444532D01*
X10194341Y-6348175D01*
X11031628Y-6348175D01*
X11133682Y-6526434D01*
X11355112Y-6641787D01*
X11594792Y-6711725D01*
X11843511Y-6733561D01*
X12091710Y-6706454D01*
X12329852Y-6631447D01*
X12526318Y-6526434D01*
X12628372Y-6348175D01*
X11830000Y-5549803D01*
X11031628Y-6348175D01*
X10194341Y-6348175D01*
X10274532Y-6267984D01*
X10413244Y-6060386D01*
X10508791Y-5829716D01*
X10557500Y-5584838D01*
X10557500Y-5483226D01*
X10583546Y-5721710D01*
X10658553Y-5959852D01*
X10763566Y-6156318D01*
X10941825Y-6258372D01*
X11740197Y-5460000D01*
X11919803Y-5460000D01*
X12718175Y-6258372D01*
X12896434Y-6156318D01*
X13011787Y-5934888D01*
X13081725Y-5695208D01*
X13102500Y-5458574D01*
X13102500Y-5584838D01*
X13151209Y-5829716D01*
X13246756Y-6060386D01*
X13385468Y-6267984D01*
X13562016Y-6444532D01*
X13769614Y-6583244D01*
X14000284Y-6678791D01*
X14245162Y-6727500D01*
X14494838Y-6727500D01*
X14739716Y-6678791D01*
X14970386Y-6583244D01*
X15177984Y-6444532D01*
X15354532Y-6267984D01*
X15493244Y-6060386D01*
X15588791Y-5829716D01*
X15637500Y-5584838D01*
X15637500Y-5335162D01*
X15642500Y-5335162D01*
X15642500Y-5584838D01*
X15691209Y-5829716D01*
X15786756Y-6060386D01*
X15925468Y-6267984D01*
X16102016Y-6444532D01*
X16309614Y-6583244D01*
X16540284Y-6678791D01*
X16785162Y-6727500D01*
X17034838Y-6727500D01*
X17279716Y-6678791D01*
X17510386Y-6583244D01*
X17717984Y-6444532D01*
X17894532Y-6267984D01*
X18033244Y-6060386D01*
X18128791Y-5829716D01*
X18177500Y-5584838D01*
X18177500Y-5335162D01*
X18128791Y-5090284D01*
X18033244Y-4859614D01*
X17894532Y-4652016D01*
X17717984Y-4475468D01*
X17510386Y-4336756D01*
X17279716Y-4241209D01*
X17034838Y-4192500D01*
X16785162Y-4192500D01*
X16540284Y-4241209D01*
X16309614Y-4336756D01*
X16102016Y-4475468D01*
X15925468Y-4652016D01*
X15786756Y-4859614D01*
X15691209Y-5090284D01*
X15642500Y-5335162D01*
X15637500Y-5335162D01*
X15588791Y-5090284D01*
X15493244Y-4859614D01*
X15354532Y-4652016D01*
X15177984Y-4475468D01*
X14970386Y-4336756D01*
X14739716Y-4241209D01*
X14494838Y-4192500D01*
X14245162Y-4192500D01*
X14000284Y-4241209D01*
X13769614Y-4336756D01*
X13562016Y-4475468D01*
X13385468Y-4652016D01*
X13246756Y-4859614D01*
X13151209Y-5090284D01*
X13102500Y-5335162D01*
X13102500Y-5436774D01*
X13076454Y-5198290D01*
X13001447Y-4960148D01*
X12896434Y-4763682D01*
X12718175Y-4661628D01*
X11919803Y-5460000D01*
X11740197Y-5460000D01*
X10941825Y-4661628D01*
X10763566Y-4763682D01*
X10648213Y-4985112D01*
X10578275Y-5224792D01*
X10557500Y-5461426D01*
X10557500Y-5335162D01*
X10508791Y-5090284D01*
X10413244Y-4859614D01*
X10274532Y-4652016D01*
X10194341Y-4571825D01*
X11031628Y-4571825D01*
X11830000Y-5370197D01*
X12628372Y-4571825D01*
X12526318Y-4393566D01*
X12304888Y-4278213D01*
X12065208Y-4208275D01*
X11816489Y-4186439D01*
X11568290Y-4213546D01*
X11330148Y-4288553D01*
X11133682Y-4393566D01*
X11031628Y-4571825D01*
X10194341Y-4571825D01*
X10097984Y-4475468D01*
X9890386Y-4336756D01*
X9659716Y-4241209D01*
X9414838Y-4192500D01*
X9165162Y-4192500D01*
X8920284Y-4241209D01*
X8689614Y-4336756D01*
X8482016Y-4475468D01*
X8305468Y-4652016D01*
X8166756Y-4859614D01*
X8071209Y-5090284D01*
X8022500Y-5335162D01*
X-1936500Y-5335162D01*
X-1936500Y-1653197D01*
X-1906230Y-1580118D01*
X-1882500Y-1460818D01*
X-1882500Y-1339182D01*
X-1902391Y-1239182D01*
X2282500Y-1239182D01*
X2282500Y-1360818D01*
X2306230Y-1480118D01*
X2352778Y-1592496D01*
X2420356Y-1693633D01*
X2506367Y-1779644D01*
X2607504Y-1847222D01*
X2719882Y-1893770D01*
X2839182Y-1917500D01*
X2960818Y-1917500D01*
X3080118Y-1893770D01*
X3192496Y-1847222D01*
X3293633Y-1779644D01*
X3379644Y-1693633D01*
X3447222Y-1592496D01*
X3493770Y-1480118D01*
X3517500Y-1360818D01*
X3517500Y-1239182D01*
X3497609Y-1139182D01*
X12682500Y-1139182D01*
X12682500Y-1260818D01*
X12706230Y-1380118D01*
X12752778Y-1492496D01*
X12820356Y-1593633D01*
X12906367Y-1679644D01*
X13007504Y-1747222D01*
X13119882Y-1793770D01*
X13239182Y-1817500D01*
X13360818Y-1817500D01*
X13480118Y-1793770D01*
X13592496Y-1747222D01*
X13693633Y-1679644D01*
X13779644Y-1593633D01*
X13847222Y-1492496D01*
X13893770Y-1380118D01*
X13917500Y-1260818D01*
X13917500Y-1139182D01*
X13893770Y-1019882D01*
X13847222Y-907504D01*
X13779644Y-806367D01*
X13693633Y-720356D01*
X13592496Y-652778D01*
X13480118Y-606230D01*
X13360818Y-582500D01*
X13239182Y-582500D01*
X13119882Y-606230D01*
X13007504Y-652778D01*
X12906367Y-720356D01*
X12820356Y-806367D01*
X12752778Y-907504D01*
X12706230Y-1019882D01*
X12682500Y-1139182D01*
X3497609Y-1139182D01*
X3493770Y-1119882D01*
X3447222Y-1007504D01*
X3379644Y-906367D01*
X3293633Y-820356D01*
X3192496Y-752778D01*
X3080118Y-706230D01*
X2960818Y-682500D01*
X2839182Y-682500D01*
X2719882Y-706230D01*
X2607504Y-752778D01*
X2506367Y-820356D01*
X2420356Y-906367D01*
X2352778Y-1007504D01*
X2306230Y-1119882D01*
X2282500Y-1239182D01*
X-1902391Y-1239182D01*
X-1906230Y-1219882D01*
X-1936500Y-1146803D01*
X-1936500Y260818D01*
X1682500Y260818D01*
X1682500Y139182D01*
X1706230Y19882D01*
X1752778Y-92496D01*
X1820356Y-193633D01*
X1906367Y-279644D01*
X2007504Y-347222D01*
X2119882Y-393770D01*
X2239182Y-417500D01*
X2360818Y-417500D01*
X2480118Y-393770D01*
X2592496Y-347222D01*
X2693633Y-279644D01*
X2779644Y-193633D01*
X2847222Y-92496D01*
X2893770Y19882D01*
X2917500Y139182D01*
X2917500Y260818D01*
X2893770Y380118D01*
X2847222Y492496D01*
X2779644Y593633D01*
X2693633Y679644D01*
X2592496Y747222D01*
X2480118Y793770D01*
X2360818Y817500D01*
X2239182Y817500D01*
X2119882Y793770D01*
X2007504Y747222D01*
X1906367Y679644D01*
X1820356Y593633D01*
X1752778Y492496D01*
X1706230Y380118D01*
X1682500Y260818D01*
X-1936500Y260818D01*
X-1936500Y936433D01*
X10112626Y923673D01*
X10125015Y924880D01*
X10136931Y928481D01*
X10147916Y934337D01*
X10157360Y942038D01*
X11085754Y1860812D01*
X15882500Y1860812D01*
X15882500Y1739176D01*
X15906230Y1619876D01*
X15952778Y1507498D01*
X16020356Y1406361D01*
X16106367Y1320350D01*
X16207504Y1252772D01*
X16319882Y1206224D01*
X16439182Y1182494D01*
X16560818Y1182494D01*
X16680118Y1206224D01*
X16792496Y1252772D01*
X16893633Y1320350D01*
X16979644Y1406361D01*
X17047222Y1507498D01*
X17093770Y1619876D01*
X17117500Y1739176D01*
X17117500Y1860812D01*
X17093770Y1980112D01*
X17047222Y2092490D01*
X16979644Y2193627D01*
X16893633Y2279638D01*
X16792496Y2347216D01*
X16680118Y2393764D01*
X16560818Y2417494D01*
X16439182Y2417494D01*
X16319882Y2393764D01*
X16207504Y2347216D01*
X16106367Y2279638D01*
X16020356Y2193627D01*
X15952778Y2092490D01*
X15906230Y1980112D01*
X15882500Y1860812D01*
X11085754Y1860812D01*
X13510890Y4260818D01*
X18182500Y4260818D01*
X18182500Y4139182D01*
X18206230Y4019882D01*
X18252778Y3907504D01*
X18320356Y3806367D01*
X18406367Y3720356D01*
X18507504Y3652778D01*
X18619882Y3606230D01*
X18739182Y3582500D01*
X18860818Y3582500D01*
X18980118Y3606230D01*
X19092496Y3652778D01*
X19193633Y3720356D01*
X19279644Y3806367D01*
X19347222Y3907504D01*
X19393770Y4019882D01*
X19417500Y4139182D01*
X19417500Y4260818D01*
X19393770Y4380118D01*
X19347222Y4492496D01*
X19279644Y4593633D01*
X19193633Y4679644D01*
X19092496Y4747222D01*
X18980118Y4793770D01*
X18860818Y4817500D01*
X18739182Y4817500D01*
X18619882Y4793770D01*
X18507504Y4747222D01*
X18406367Y4679644D01*
X18320356Y4593633D01*
X18252778Y4492496D01*
X18206230Y4380118D01*
X18182500Y4260818D01*
X13510890Y4260818D01*
X14723456Y5460818D01*
X16082500Y5460818D01*
X16082500Y5339182D01*
X16106230Y5219882D01*
X16152778Y5107504D01*
X16220356Y5006367D01*
X16306367Y4920356D01*
X16407504Y4852778D01*
X16519882Y4806230D01*
X16639182Y4782500D01*
X16760818Y4782500D01*
X16880118Y4806230D01*
X16992496Y4852778D01*
X17093633Y4920356D01*
X17179644Y5006367D01*
X17247222Y5107504D01*
X17293770Y5219882D01*
X17317500Y5339182D01*
X17317500Y5460818D01*
X17293770Y5580118D01*
X17247222Y5692496D01*
X17179644Y5793633D01*
X17093633Y5879644D01*
X16992496Y5947222D01*
X16880118Y5993770D01*
X16760818Y6017500D01*
X16639182Y6017500D01*
X16519882Y5993770D01*
X16407504Y5947222D01*
X16306367Y5879644D01*
X16220356Y5793633D01*
X16152778Y5692496D01*
X16106230Y5580118D01*
X16082500Y5460818D01*
X14723456Y5460818D01*
X17344667Y8054865D01*
X17352614Y8064447D01*
X17358539Y8075394D01*
X17362214Y8087288D01*
X17363498Y8099508D01*
X17383818Y10720818D01*
X17822500Y10720818D01*
X17822500Y10599182D01*
X17846230Y10479882D01*
X17892778Y10367504D01*
X17960356Y10266367D01*
X18046367Y10180356D01*
X18147504Y10112778D01*
X18259882Y10066230D01*
X18379182Y10042500D01*
X18500818Y10042500D01*
X18620118Y10066230D01*
X18732496Y10112778D01*
X18833633Y10180356D01*
X18919644Y10266367D01*
X18987222Y10367504D01*
X19033770Y10479882D01*
X19057500Y10599182D01*
X19057500Y10720818D01*
X19033770Y10840118D01*
X18987222Y10952496D01*
X18919644Y11053633D01*
X18833633Y11139644D01*
X18732496Y11207222D01*
X18620118Y11253770D01*
X18500818Y11277500D01*
X18379182Y11277500D01*
X18259882Y11253770D01*
X18147504Y11207222D01*
X18046367Y11139644D01*
X17960356Y11053633D01*
X17892778Y10952496D01*
X17846230Y10840118D01*
X17822500Y10720818D01*
X17383818Y10720818D01*
X17413498Y14549508D01*
X17412374Y14561905D01*
X17408853Y14573845D01*
X17403070Y14584868D01*
X17397323Y14592341D01*
X15697323Y16492341D01*
X15688153Y16500760D01*
X15677517Y16507228D01*
X15665824Y16511497D01*
X15650000Y16513500D01*
X-336500Y16513500D01*
X-336500Y18660818D01*
X10282500Y18660818D01*
X10282500Y18539182D01*
X10306230Y18419882D01*
X10352778Y18307504D01*
X10420356Y18206367D01*
X10506367Y18120356D01*
X10607504Y18052778D01*
X10719882Y18006230D01*
X10839182Y17982500D01*
X10960818Y17982500D01*
X11080118Y18006230D01*
X11192496Y18052778D01*
X11293633Y18120356D01*
X11379644Y18206367D01*
X11447222Y18307504D01*
X11493770Y18419882D01*
X11517500Y18539182D01*
X11517500Y18660818D01*
X11493770Y18780118D01*
X11447222Y18892496D01*
X11379644Y18993633D01*
X11293633Y19079644D01*
X11192496Y19147222D01*
X11080118Y19193770D01*
X10960818Y19217500D01*
X10839182Y19217500D01*
X10719882Y19193770D01*
X10607504Y19147222D01*
X10506367Y19079644D01*
X10420356Y18993633D01*
X10352778Y18892496D01*
X10306230Y18780118D01*
X10282500Y18660818D01*
X-336500Y18660818D01*
X-336500Y19560818D01*
X8182500Y19560818D01*
X8182500Y19439182D01*
X8206230Y19319882D01*
X8252778Y19207504D01*
X8320356Y19106367D01*
X8406367Y19020356D01*
X8507504Y18952778D01*
X8619882Y18906230D01*
X8739182Y18882500D01*
X8860818Y18882500D01*
X8980118Y18906230D01*
X9092496Y18952778D01*
X9193633Y19020356D01*
X9279644Y19106367D01*
X9347222Y19207504D01*
X9384686Y19297952D01*
X18032500Y19297952D01*
X18032500Y18802048D01*
X18129246Y18315672D01*
X18319021Y17857517D01*
X18594530Y17445187D01*
X18945187Y17094530D01*
X19357517Y16819021D01*
X19815672Y16629246D01*
X20302048Y16532500D01*
X20797952Y16532500D01*
X21284328Y16629246D01*
X21742483Y16819021D01*
X22154813Y17094530D01*
X22505470Y17445187D01*
X22780979Y17857517D01*
X22970754Y18315672D01*
X23067500Y18802048D01*
X23067500Y19297952D01*
X22970754Y19784328D01*
X22780979Y20242483D01*
X22505470Y20654813D01*
X22154813Y21005470D01*
X21742483Y21280979D01*
X21284328Y21470754D01*
X20797952Y21567500D01*
X20302048Y21567500D01*
X19815672Y21470754D01*
X19357517Y21280979D01*
X18945187Y21005470D01*
X18594530Y20654813D01*
X18319021Y20242483D01*
X18129246Y19784328D01*
X18032500Y19297952D01*
X9384686Y19297952D01*
X9393770Y19319882D01*
X9417500Y19439182D01*
X9417500Y19560818D01*
X9393770Y19680118D01*
X9347222Y19792496D01*
X9279644Y19893633D01*
X9193633Y19979644D01*
X9092496Y20047222D01*
X8980118Y20093770D01*
X8860818Y20117500D01*
X8739182Y20117500D01*
X8619882Y20093770D01*
X8507504Y20047222D01*
X8406367Y19979644D01*
X8320356Y19893633D01*
X8252778Y19792496D01*
X8206230Y19680118D01*
X8182500Y19560818D01*
X-336500Y19560818D01*
X-336500Y22760818D01*
X1882500Y22760818D01*
X1882500Y22639182D01*
X1906230Y22519882D01*
X1952778Y22407504D01*
X2020356Y22306367D01*
X2106367Y22220356D01*
X2207504Y22152778D01*
X2319882Y22106230D01*
X2439182Y22082500D01*
X2560818Y22082500D01*
X2680118Y22106230D01*
X2792496Y22152778D01*
X2893633Y22220356D01*
X2979644Y22306367D01*
X3047222Y22407504D01*
X3093770Y22519882D01*
X3117500Y22639182D01*
X3117500Y22760818D01*
X3093770Y22880118D01*
X3047222Y22992496D01*
X2979644Y23093633D01*
X2893633Y23179644D01*
X2792496Y23247222D01*
X2680118Y23293770D01*
X2560818Y23317500D01*
X2439182Y23317500D01*
X2319882Y23293770D01*
X2207504Y23247222D01*
X2106367Y23179644D01*
X2020356Y23093633D01*
X1952778Y22992496D01*
X1906230Y22880118D01*
X1882500Y22760818D01*
X-336500Y22760818D01*
X-336500Y23632500D01*
X20533634Y23632500D01*
X21361231Y23558639D01*
G37*
G04 #@! TD.AperFunction*
D22*
X-576394Y16186008D02*
X-521502Y16156668D01*
X-461941Y16138601D01*
X-400000Y16132500D01*
X15508043Y16132500D01*
X16237254Y15317500D01*
X16139182Y15317500D01*
X16019882Y15293770D01*
X15907504Y15247222D01*
X15806367Y15179644D01*
X15720356Y15093633D01*
X15652778Y14992496D01*
X15606230Y14880118D01*
X15582500Y14760818D01*
X15582500Y14639182D01*
X15606230Y14519882D01*
X15652778Y14407504D01*
X15720356Y14306367D01*
X15776723Y14250000D01*
X15720356Y14193633D01*
X15700000Y14163168D01*
X15679644Y14193633D01*
X15593633Y14279644D01*
X15492496Y14347222D01*
X15380118Y14393770D01*
X15260818Y14417500D01*
X15139182Y14417500D01*
X15107480Y14411194D01*
X15093770Y14480118D01*
X15047222Y14592496D01*
X14979644Y14693633D01*
X14893633Y14779644D01*
X14792496Y14847222D01*
X14680118Y14893770D01*
X14560818Y14917500D01*
X14439182Y14917500D01*
X14319882Y14893770D01*
X14207504Y14847222D01*
X14106367Y14779644D01*
X14020356Y14693633D01*
X13952778Y14592496D01*
X13906230Y14480118D01*
X13882500Y14360818D01*
X13882500Y14239182D01*
X13906230Y14119882D01*
X13952778Y14007504D01*
X14020356Y13906367D01*
X14106367Y13820356D01*
X14207504Y13752778D01*
X14319882Y13706230D01*
X14439182Y13682500D01*
X14560818Y13682500D01*
X14592520Y13688806D01*
X14606230Y13619882D01*
X14652778Y13507504D01*
X14720356Y13406367D01*
X14806367Y13320356D01*
X14907504Y13252778D01*
X15019882Y13206230D01*
X15139182Y13182500D01*
X15260818Y13182500D01*
X15380118Y13206230D01*
X15492496Y13252778D01*
X15593633Y13320356D01*
X15679644Y13406367D01*
X15700000Y13436832D01*
X15720356Y13406367D01*
X15806367Y13320356D01*
X15907504Y13252778D01*
X16019882Y13206230D01*
X16139182Y13182500D01*
X16260818Y13182500D01*
X16380118Y13206230D01*
X16492496Y13252778D01*
X16593633Y13320356D01*
X16679644Y13406367D01*
X16747222Y13507504D01*
X16793770Y13619882D01*
X16817500Y13739182D01*
X16817500Y13860818D01*
X16793770Y13980118D01*
X16747222Y14092496D01*
X16679644Y14193633D01*
X16623277Y14250000D01*
X16679644Y14306367D01*
X16747222Y14407504D01*
X16793770Y14519882D01*
X16817500Y14639182D01*
X16817500Y14668989D01*
X17031559Y14429747D01*
X16983526Y8233498D01*
X9982287Y1304811D01*
X-1999664Y1317500D01*
X-2061941Y1311399D01*
X-2121502Y1293332D01*
X-2176394Y1263992D01*
X-2224506Y1224506D01*
X-2263992Y1176394D01*
X-2293332Y1121502D01*
X-2311399Y1061941D01*
X-2317500Y1000000D01*
X-2317500Y-807217D01*
X-2319882Y-806230D01*
X-2439182Y-782500D01*
X-2560818Y-782500D01*
X-2680118Y-806230D01*
X-2792496Y-852778D01*
X-2893633Y-920356D01*
X-2979644Y-1006367D01*
X-3047222Y-1107504D01*
X-3093770Y-1219882D01*
X-3117500Y-1339182D01*
X-3117500Y-1460818D01*
X-3093770Y-1580118D01*
X-3047222Y-1692496D01*
X-2979644Y-1793633D01*
X-2893633Y-1879644D01*
X-2792496Y-1947222D01*
X-2680118Y-1993770D01*
X-2560818Y-2017500D01*
X-2439182Y-2017500D01*
X-2319882Y-1993770D01*
X-2317500Y-1992783D01*
X-2317500Y-11000000D01*
X-2311399Y-11061941D01*
X-2293332Y-11121502D01*
X-2263992Y-11176394D01*
X-2224506Y-11224506D01*
X-2176394Y-11263992D01*
X-2121502Y-11293332D01*
X-2061941Y-11311399D01*
X-2000000Y-11317500D01*
X3072500Y-11317500D01*
X3072500Y-11449310D01*
X3134660Y-11761807D01*
X3256590Y-12056173D01*
X3433606Y-12321096D01*
X3658904Y-12546394D01*
X3923827Y-12723410D01*
X4218193Y-12845340D01*
X4530690Y-12907500D01*
X4849310Y-12907500D01*
X5161807Y-12845340D01*
X5456173Y-12723410D01*
X5721096Y-12546394D01*
X5946394Y-12321096D01*
X6123410Y-12056173D01*
X6245340Y-11761807D01*
X6307500Y-11449310D01*
X6307500Y-11317500D01*
X18622500Y-11317500D01*
X18622500Y-11449310D01*
X18684660Y-11761807D01*
X18806590Y-12056173D01*
X18983606Y-12321096D01*
X19208904Y-12546394D01*
X19473827Y-12723410D01*
X19768193Y-12845340D01*
X20080690Y-12907500D01*
X20399310Y-12907500D01*
X20711807Y-12845340D01*
X21006173Y-12723410D01*
X21271096Y-12546394D01*
X21496394Y-12321096D01*
X21673410Y-12056173D01*
X21795340Y-11761807D01*
X21857500Y-11449310D01*
X21857500Y-11317500D01*
X25132501Y-11317500D01*
X25132501Y-19033623D01*
X25058639Y-19861231D01*
X24843726Y-20646823D01*
X24493093Y-21381939D01*
X24017824Y-22043347D01*
X23432944Y-22610135D01*
X22756932Y-23064396D01*
X22011165Y-23391765D01*
X21216385Y-23582574D01*
X20536525Y-23632500D01*
X-5823656Y-23632500D01*
X-5754091Y-23575409D01*
X-5639436Y-23435702D01*
X-5554239Y-23276311D01*
X-5501776Y-23103361D01*
X-5488500Y-22968569D01*
X-5488500Y-22178431D01*
X-5501776Y-22043639D01*
X-5554239Y-21870689D01*
X-5639436Y-21711298D01*
X-5754091Y-21571591D01*
X-5893799Y-21456936D01*
X-6053190Y-21371739D01*
X-6226140Y-21319276D01*
X-6406000Y-21301561D01*
X-6585861Y-21319276D01*
X-6758811Y-21371739D01*
X-6918202Y-21456936D01*
X-7057909Y-21571591D01*
X-7172564Y-21711299D01*
X-7257761Y-21870690D01*
X-7310224Y-22043640D01*
X-7323500Y-22178432D01*
X-7323500Y-22968569D01*
X-7310224Y-23103361D01*
X-7257760Y-23276311D01*
X-7172563Y-23435702D01*
X-7057908Y-23575409D01*
X-6988343Y-23632500D01*
X-12823657Y-23632500D01*
X-12754091Y-23575409D01*
X-12639436Y-23435702D01*
X-12554239Y-23276311D01*
X-12501776Y-23103361D01*
X-12488500Y-22968569D01*
X-12488500Y-22178431D01*
X-12501776Y-22043639D01*
X-12554239Y-21870689D01*
X-12639436Y-21711298D01*
X-12754091Y-21571591D01*
X-12893798Y-21456936D01*
X-13053189Y-21371739D01*
X-13226139Y-21319276D01*
X-13406000Y-21301561D01*
X-13585860Y-21319276D01*
X-13758810Y-21371739D01*
X-13918201Y-21456936D01*
X-14057908Y-21571591D01*
X-14172563Y-21711298D01*
X-14257760Y-21870689D01*
X-14310224Y-22043639D01*
X-14323500Y-22178431D01*
X-14323500Y-22968568D01*
X-14310224Y-23103360D01*
X-14257761Y-23276310D01*
X-14172564Y-23435701D01*
X-14057909Y-23575409D01*
X-13988344Y-23632500D01*
X-20533634Y-23632500D01*
X-21361231Y-23558639D01*
X-22146823Y-23343726D01*
X-22881939Y-22993093D01*
X-23543347Y-22517824D01*
X-24110135Y-21932944D01*
X-24564396Y-21256932D01*
X-24891765Y-20511165D01*
X-25082574Y-19716385D01*
X-25132500Y-19036525D01*
X-25132500Y-18802048D01*
X-23067500Y-18802048D01*
X-23067500Y-19297952D01*
X-22970754Y-19784328D01*
X-22780979Y-20242483D01*
X-22505470Y-20654813D01*
X-22154813Y-21005470D01*
X-21742483Y-21280979D01*
X-21284328Y-21470754D01*
X-20797952Y-21567500D01*
X-20302048Y-21567500D01*
X-19815672Y-21470754D01*
X-19357517Y-21280979D01*
X-18945187Y-21005470D01*
X-18854899Y-20915182D01*
X-15751500Y-20915182D01*
X-15751500Y-21036818D01*
X-15727770Y-21156118D01*
X-15681222Y-21268496D01*
X-15613644Y-21369633D01*
X-15527633Y-21455644D01*
X-15426496Y-21523222D01*
X-15314118Y-21569770D01*
X-15194818Y-21593500D01*
X-15073182Y-21593500D01*
X-14953882Y-21569770D01*
X-14841504Y-21523222D01*
X-14740367Y-21455644D01*
X-14654356Y-21369633D01*
X-14586778Y-21268496D01*
X-14540230Y-21156118D01*
X-14516500Y-21036818D01*
X-14516500Y-20915182D01*
X-14540230Y-20795882D01*
X-14586778Y-20683504D01*
X-14654356Y-20582367D01*
X-14740367Y-20496356D01*
X-14841504Y-20428778D01*
X-14953882Y-20382230D01*
X-15073182Y-20358500D01*
X-15194818Y-20358500D01*
X-15314118Y-20382230D01*
X-15426496Y-20428778D01*
X-15527633Y-20496356D01*
X-15613644Y-20582367D01*
X-15681222Y-20683504D01*
X-15727770Y-20795882D01*
X-15751500Y-20915182D01*
X-18854899Y-20915182D01*
X-18594530Y-20654813D01*
X-18319021Y-20242483D01*
X-18129246Y-19784328D01*
X-18126560Y-19770823D01*
X-13448500Y-19770823D01*
X-13448500Y-19976177D01*
X-13408437Y-20177586D01*
X-13329851Y-20367309D01*
X-13215762Y-20538055D01*
X-13070555Y-20683262D01*
X-12899809Y-20797351D01*
X-12710086Y-20875937D01*
X-12508677Y-20916000D01*
X-12303323Y-20916000D01*
X-12101914Y-20875937D01*
X-11912191Y-20797351D01*
X-11741445Y-20683262D01*
X-11596238Y-20538055D01*
X-11482149Y-20367309D01*
X-11403563Y-20177586D01*
X-11363500Y-19976177D01*
X-11363500Y-19770823D01*
X-8448500Y-19770823D01*
X-8448500Y-19976177D01*
X-8408437Y-20177586D01*
X-8329851Y-20367309D01*
X-8215762Y-20538055D01*
X-8070555Y-20683262D01*
X-7899809Y-20797351D01*
X-7710086Y-20875937D01*
X-7508677Y-20916000D01*
X-7303323Y-20916000D01*
X-7299211Y-20915182D01*
X-6057500Y-20915182D01*
X-6057500Y-21036818D01*
X-6033770Y-21156118D01*
X-5987222Y-21268496D01*
X-5919644Y-21369633D01*
X-5833633Y-21455644D01*
X-5732496Y-21523222D01*
X-5620118Y-21569770D01*
X-5500818Y-21593500D01*
X-5379182Y-21593500D01*
X-5259882Y-21569770D01*
X-5147504Y-21523222D01*
X-5046367Y-21455644D01*
X-4960356Y-21369633D01*
X-4892778Y-21268496D01*
X-4846230Y-21156118D01*
X-4822500Y-21036818D01*
X-4822500Y-20915182D01*
X-4846230Y-20795882D01*
X-4892778Y-20683504D01*
X-4960356Y-20582367D01*
X-5046367Y-20496356D01*
X-5147504Y-20428778D01*
X-5259882Y-20382230D01*
X-5379182Y-20358500D01*
X-5500818Y-20358500D01*
X-5620118Y-20382230D01*
X-5732496Y-20428778D01*
X-5833633Y-20496356D01*
X-5919644Y-20582367D01*
X-5987222Y-20683504D01*
X-6033770Y-20795882D01*
X-6057500Y-20915182D01*
X-7299211Y-20915182D01*
X-7101914Y-20875937D01*
X-6912191Y-20797351D01*
X-6741445Y-20683262D01*
X-6596238Y-20538055D01*
X-6482149Y-20367309D01*
X-6403563Y-20177586D01*
X-6363500Y-19976177D01*
X-6363500Y-19770823D01*
X-6403563Y-19569414D01*
X-6482149Y-19379691D01*
X-6596238Y-19208945D01*
X-6689528Y-19115655D01*
X4877500Y-19115655D01*
X4877500Y-19364345D01*
X4926017Y-19608258D01*
X5021187Y-19838018D01*
X5159352Y-20044797D01*
X5335203Y-20220648D01*
X5541982Y-20358813D01*
X5771742Y-20453983D01*
X6015655Y-20502500D01*
X6264345Y-20502500D01*
X6508258Y-20453983D01*
X6738018Y-20358813D01*
X6944797Y-20220648D01*
X7120648Y-20044797D01*
X7258813Y-19838018D01*
X7353983Y-19608258D01*
X7402500Y-19364345D01*
X7402500Y-19115655D01*
X14987500Y-19115655D01*
X14987500Y-19364345D01*
X15036017Y-19608258D01*
X15131187Y-19838018D01*
X15269352Y-20044797D01*
X15445203Y-20220648D01*
X15651982Y-20358813D01*
X15881742Y-20453983D01*
X16125655Y-20502500D01*
X16374345Y-20502500D01*
X16618258Y-20453983D01*
X16848018Y-20358813D01*
X17054797Y-20220648D01*
X17230648Y-20044797D01*
X17368813Y-19838018D01*
X17463983Y-19608258D01*
X17512500Y-19364345D01*
X17512500Y-19115655D01*
X17463983Y-18871742D01*
X17368813Y-18641982D01*
X17230648Y-18435203D01*
X17054797Y-18259352D01*
X16848018Y-18121187D01*
X16618258Y-18026017D01*
X16374345Y-17977500D01*
X16125655Y-17977500D01*
X15881742Y-18026017D01*
X15651982Y-18121187D01*
X15445203Y-18259352D01*
X15269352Y-18435203D01*
X15131187Y-18641982D01*
X15036017Y-18871742D01*
X14987500Y-19115655D01*
X7402500Y-19115655D01*
X7353983Y-18871742D01*
X7258813Y-18641982D01*
X7120648Y-18435203D01*
X6944797Y-18259352D01*
X6738018Y-18121187D01*
X6508258Y-18026017D01*
X6264345Y-17977500D01*
X6015655Y-17977500D01*
X5771742Y-18026017D01*
X5541982Y-18121187D01*
X5335203Y-18259352D01*
X5159352Y-18435203D01*
X5021187Y-18641982D01*
X4926017Y-18871742D01*
X4877500Y-19115655D01*
X-6689528Y-19115655D01*
X-6741445Y-19063738D01*
X-6912191Y-18949649D01*
X-7101914Y-18871063D01*
X-7303323Y-18831000D01*
X-7508677Y-18831000D01*
X-7710086Y-18871063D01*
X-7899809Y-18949649D01*
X-8070555Y-19063738D01*
X-8215762Y-19208945D01*
X-8329851Y-19379691D01*
X-8408437Y-19569414D01*
X-8448500Y-19770823D01*
X-11363500Y-19770823D01*
X-11403563Y-19569414D01*
X-11482149Y-19379691D01*
X-11596238Y-19208945D01*
X-11741445Y-19063738D01*
X-11912191Y-18949649D01*
X-12101914Y-18871063D01*
X-12303323Y-18831000D01*
X-12508677Y-18831000D01*
X-12710086Y-18871063D01*
X-12899809Y-18949649D01*
X-13070555Y-19063738D01*
X-13215762Y-19208945D01*
X-13329851Y-19379691D01*
X-13408437Y-19569414D01*
X-13448500Y-19770823D01*
X-18126560Y-19770823D01*
X-18032500Y-19297952D01*
X-18032500Y-18802048D01*
X-18129246Y-18315672D01*
X-18319021Y-17857517D01*
X-18594530Y-17445187D01*
X-18760535Y-17279182D01*
X-11217500Y-17279182D01*
X-11217500Y-17400818D01*
X-11193770Y-17520118D01*
X-11147222Y-17632496D01*
X-11079644Y-17733633D01*
X-10993633Y-17819644D01*
X-10892496Y-17887222D01*
X-10780118Y-17933770D01*
X-10660818Y-17957500D01*
X-10555629Y-17957500D01*
X-10567500Y-18017182D01*
X-10567500Y-18138818D01*
X-10543770Y-18258118D01*
X-10497222Y-18370496D01*
X-10429644Y-18471633D01*
X-10343633Y-18557644D01*
X-10242496Y-18625222D01*
X-10130118Y-18671770D01*
X-10010818Y-18695500D01*
X-9889182Y-18695500D01*
X-9769882Y-18671770D01*
X-9657504Y-18625222D01*
X-9556367Y-18557644D01*
X-9470356Y-18471633D01*
X-9402778Y-18370496D01*
X-9356230Y-18258118D01*
X-9332500Y-18138818D01*
X-9332500Y-18017182D01*
X-9341252Y-17973182D01*
X-8999500Y-17973182D01*
X-8999500Y-18094818D01*
X-8975770Y-18214118D01*
X-8929222Y-18326496D01*
X-8861644Y-18427633D01*
X-8775633Y-18513644D01*
X-8674496Y-18581222D01*
X-8562118Y-18627770D01*
X-8442818Y-18651500D01*
X-8321182Y-18651500D01*
X-8201882Y-18627770D01*
X-8089504Y-18581222D01*
X-7988367Y-18513644D01*
X-7902356Y-18427633D01*
X-7834778Y-18326496D01*
X-7788230Y-18214118D01*
X-7765254Y-18098607D01*
X-7692496Y-18147222D01*
X-7580118Y-18193770D01*
X-7460818Y-18217500D01*
X-7339182Y-18217500D01*
X-7219882Y-18193770D01*
X-7107504Y-18147222D01*
X-7006367Y-18079644D01*
X-6920356Y-17993633D01*
X-6852778Y-17892496D01*
X-6806230Y-17780118D01*
X-6782500Y-17660818D01*
X-6782500Y-17539182D01*
X-6117500Y-17539182D01*
X-6117500Y-17660818D01*
X-6093770Y-17780118D01*
X-6047222Y-17892496D01*
X-5979644Y-17993633D01*
X-5893633Y-18079644D01*
X-5792496Y-18147222D01*
X-5680118Y-18193770D01*
X-5560818Y-18217500D01*
X-5439182Y-18217500D01*
X-5319882Y-18193770D01*
X-5207504Y-18147222D01*
X-5106367Y-18079644D01*
X-5020356Y-17993633D01*
X-4952778Y-17892496D01*
X-4906230Y-17780118D01*
X-4898088Y-17739182D01*
X1382500Y-17739182D01*
X1382500Y-17860818D01*
X1406230Y-17980118D01*
X1452778Y-18092496D01*
X1520356Y-18193633D01*
X1606367Y-18279644D01*
X1707504Y-18347222D01*
X1819882Y-18393770D01*
X1939182Y-18417500D01*
X2060818Y-18417500D01*
X2180118Y-18393770D01*
X2292496Y-18347222D01*
X2393633Y-18279644D01*
X2479644Y-18193633D01*
X2547222Y-18092496D01*
X2593770Y-17980118D01*
X2617500Y-17860818D01*
X2617500Y-17739182D01*
X2593770Y-17619882D01*
X2583735Y-17595655D01*
X7417500Y-17595655D01*
X7417500Y-17844345D01*
X7466017Y-18088258D01*
X7561187Y-18318018D01*
X7699352Y-18524797D01*
X7875203Y-18700648D01*
X8081982Y-18838813D01*
X8311742Y-18933983D01*
X8555655Y-18982500D01*
X8804345Y-18982500D01*
X9048258Y-18933983D01*
X9278018Y-18838813D01*
X9484797Y-18700648D01*
X9660648Y-18524797D01*
X9798813Y-18318018D01*
X9893983Y-18088258D01*
X9942500Y-17844345D01*
X9942500Y-17595655D01*
X17527500Y-17595655D01*
X17527500Y-17844345D01*
X17576017Y-18088258D01*
X17671187Y-18318018D01*
X17809352Y-18524797D01*
X17985203Y-18700648D01*
X18191982Y-18838813D01*
X18421742Y-18933983D01*
X18665655Y-18982500D01*
X18914345Y-18982500D01*
X19158258Y-18933983D01*
X19388018Y-18838813D01*
X19594797Y-18700648D01*
X19770648Y-18524797D01*
X19908813Y-18318018D01*
X20003983Y-18088258D01*
X20052500Y-17844345D01*
X20052500Y-17595655D01*
X20003983Y-17351742D01*
X19908813Y-17121982D01*
X19770648Y-16915203D01*
X19594797Y-16739352D01*
X19388018Y-16601187D01*
X19158258Y-16506017D01*
X18914345Y-16457500D01*
X18665655Y-16457500D01*
X18421742Y-16506017D01*
X18191982Y-16601187D01*
X17985203Y-16739352D01*
X17809352Y-16915203D01*
X17671187Y-17121982D01*
X17576017Y-17351742D01*
X17527500Y-17595655D01*
X9942500Y-17595655D01*
X9893983Y-17351742D01*
X9798813Y-17121982D01*
X9660648Y-16915203D01*
X9484797Y-16739352D01*
X9278018Y-16601187D01*
X9048258Y-16506017D01*
X8804345Y-16457500D01*
X8555655Y-16457500D01*
X8311742Y-16506017D01*
X8081982Y-16601187D01*
X7875203Y-16739352D01*
X7699352Y-16915203D01*
X7561187Y-17121982D01*
X7466017Y-17351742D01*
X7417500Y-17595655D01*
X2583735Y-17595655D01*
X2547222Y-17507504D01*
X2479644Y-17406367D01*
X2393633Y-17320356D01*
X2292496Y-17252778D01*
X2180118Y-17206230D01*
X2060818Y-17182500D01*
X1939182Y-17182500D01*
X1819882Y-17206230D01*
X1707504Y-17252778D01*
X1606367Y-17320356D01*
X1520356Y-17406367D01*
X1452778Y-17507504D01*
X1406230Y-17619882D01*
X1382500Y-17739182D01*
X-4898088Y-17739182D01*
X-4882500Y-17660818D01*
X-4882500Y-17539182D01*
X-4906230Y-17419882D01*
X-4952778Y-17307504D01*
X-5020356Y-17206367D01*
X-5106367Y-17120356D01*
X-5207504Y-17052778D01*
X-5319882Y-17006230D01*
X-5439182Y-16982500D01*
X-5560818Y-16982500D01*
X-5680118Y-17006230D01*
X-5792496Y-17052778D01*
X-5893633Y-17120356D01*
X-5979644Y-17206367D01*
X-6047222Y-17307504D01*
X-6093770Y-17419882D01*
X-6117500Y-17539182D01*
X-6782500Y-17539182D01*
X-6806230Y-17419882D01*
X-6852778Y-17307504D01*
X-6920356Y-17206367D01*
X-7006367Y-17120356D01*
X-7107504Y-17052778D01*
X-7219882Y-17006230D01*
X-7339182Y-16982500D01*
X-7460818Y-16982500D01*
X-7580118Y-17006230D01*
X-7692496Y-17052778D01*
X-7793633Y-17120356D01*
X-7879644Y-17206367D01*
X-7947222Y-17307504D01*
X-7993770Y-17419882D01*
X-8016746Y-17535393D01*
X-8089504Y-17486778D01*
X-8201882Y-17440230D01*
X-8321182Y-17416500D01*
X-8442818Y-17416500D01*
X-8562118Y-17440230D01*
X-8674496Y-17486778D01*
X-8775633Y-17554356D01*
X-8861644Y-17640367D01*
X-8929222Y-17741504D01*
X-8975770Y-17853882D01*
X-8999500Y-17973182D01*
X-9341252Y-17973182D01*
X-9356230Y-17897882D01*
X-9402778Y-17785504D01*
X-9470356Y-17684367D01*
X-9556367Y-17598356D01*
X-9657504Y-17530778D01*
X-9769882Y-17484230D01*
X-9889182Y-17460500D01*
X-9994371Y-17460500D01*
X-9982500Y-17400818D01*
X-9982500Y-17279182D01*
X-10006230Y-17159882D01*
X-10052778Y-17047504D01*
X-10120356Y-16946367D01*
X-10206367Y-16860356D01*
X-10307504Y-16792778D01*
X-10419882Y-16746230D01*
X-10539182Y-16722500D01*
X-10660818Y-16722500D01*
X-10780118Y-16746230D01*
X-10892496Y-16792778D01*
X-10993633Y-16860356D01*
X-11079644Y-16946367D01*
X-11147222Y-17047504D01*
X-11193770Y-17159882D01*
X-11217500Y-17279182D01*
X-18760535Y-17279182D01*
X-18945187Y-17094530D01*
X-19357517Y-16819021D01*
X-19815672Y-16629246D01*
X-20302048Y-16532500D01*
X-20797952Y-16532500D01*
X-21284328Y-16629246D01*
X-21742483Y-16819021D01*
X-22154813Y-17094530D01*
X-22505470Y-17445187D01*
X-22780979Y-17857517D01*
X-22970754Y-18315672D01*
X-23067500Y-18802048D01*
X-25132500Y-18802048D01*
X-25132500Y-14339182D01*
X682500Y-14339182D01*
X682500Y-14460818D01*
X706230Y-14580118D01*
X752778Y-14692496D01*
X820356Y-14793633D01*
X906367Y-14879644D01*
X1007504Y-14947222D01*
X1119882Y-14993770D01*
X1239182Y-15017500D01*
X1360818Y-15017500D01*
X1480118Y-14993770D01*
X1592496Y-14947222D01*
X1693633Y-14879644D01*
X1779644Y-14793633D01*
X1847222Y-14692496D01*
X1893770Y-14580118D01*
X1917500Y-14460818D01*
X1917500Y-14339182D01*
X1893770Y-14219882D01*
X1864278Y-14148680D01*
X4807500Y-14148680D01*
X4807500Y-14531320D01*
X4882149Y-14906606D01*
X5028579Y-15260119D01*
X5241162Y-15578272D01*
X5511728Y-15848838D01*
X5829881Y-16061421D01*
X6183394Y-16207851D01*
X6558680Y-16282500D01*
X6941320Y-16282500D01*
X7316606Y-16207851D01*
X7670119Y-16061421D01*
X7988272Y-15848838D01*
X8258838Y-15578272D01*
X8471421Y-15260119D01*
X8617851Y-14906606D01*
X8692500Y-14531320D01*
X8692500Y-14148680D01*
X16237500Y-14148680D01*
X16237500Y-14531320D01*
X16312149Y-14906606D01*
X16458579Y-15260119D01*
X16671162Y-15578272D01*
X16941728Y-15848838D01*
X17259881Y-16061421D01*
X17613394Y-16207851D01*
X17988680Y-16282500D01*
X18371320Y-16282500D01*
X18746606Y-16207851D01*
X19100119Y-16061421D01*
X19418272Y-15848838D01*
X19688838Y-15578272D01*
X19901421Y-15260119D01*
X20047851Y-14906606D01*
X20122500Y-14531320D01*
X20122500Y-14148680D01*
X20047851Y-13773394D01*
X19901421Y-13419881D01*
X19688838Y-13101728D01*
X19418272Y-12831162D01*
X19100119Y-12618579D01*
X18746606Y-12472149D01*
X18371320Y-12397500D01*
X17988680Y-12397500D01*
X17613394Y-12472149D01*
X17259881Y-12618579D01*
X16941728Y-12831162D01*
X16671162Y-13101728D01*
X16458579Y-13419881D01*
X16312149Y-13773394D01*
X16237500Y-14148680D01*
X8692500Y-14148680D01*
X8617851Y-13773394D01*
X8471421Y-13419881D01*
X8258838Y-13101728D01*
X7988272Y-12831162D01*
X7670119Y-12618579D01*
X7316606Y-12472149D01*
X6941320Y-12397500D01*
X6558680Y-12397500D01*
X6183394Y-12472149D01*
X5829881Y-12618579D01*
X5511728Y-12831162D01*
X5241162Y-13101728D01*
X5028579Y-13419881D01*
X4882149Y-13773394D01*
X4807500Y-14148680D01*
X1864278Y-14148680D01*
X1847222Y-14107504D01*
X1779644Y-14006367D01*
X1693633Y-13920356D01*
X1592496Y-13852778D01*
X1480118Y-13806230D01*
X1360818Y-13782500D01*
X1239182Y-13782500D01*
X1119882Y-13806230D01*
X1007504Y-13852778D01*
X906367Y-13920356D01*
X820356Y-14006367D01*
X752778Y-14107504D01*
X706230Y-14219882D01*
X682500Y-14339182D01*
X-25132500Y-14339182D01*
X-25132500Y-11182549D01*
X-23892500Y-11182549D01*
X-23892500Y-11417451D01*
X-23846673Y-11647839D01*
X-23756780Y-11864861D01*
X-23626275Y-12060174D01*
X-23460174Y-12226275D01*
X-23264861Y-12356780D01*
X-23047839Y-12446673D01*
X-22817451Y-12492500D01*
X-22582549Y-12492500D01*
X-22352161Y-12446673D01*
X-22276451Y-12415313D01*
X-21577500Y-12415313D01*
X-21577500Y-12684687D01*
X-21524948Y-12948885D01*
X-21421863Y-13197754D01*
X-21272207Y-13421731D01*
X-21081731Y-13612207D01*
X-20857754Y-13761863D01*
X-20608885Y-13864948D01*
X-20344687Y-13917500D01*
X-20075313Y-13917500D01*
X-19811115Y-13864948D01*
X-19562246Y-13761863D01*
X-19338269Y-13612207D01*
X-19147793Y-13421731D01*
X-18998137Y-13197754D01*
X-18977190Y-13147182D01*
X-13825500Y-13147182D01*
X-13825500Y-13268818D01*
X-13801770Y-13388118D01*
X-13755222Y-13500496D01*
X-13687644Y-13601633D01*
X-13601633Y-13687644D01*
X-13500496Y-13755222D01*
X-13388118Y-13801770D01*
X-13268818Y-13825500D01*
X-13147182Y-13825500D01*
X-13027882Y-13801770D01*
X-12915504Y-13755222D01*
X-12814367Y-13687644D01*
X-12728356Y-13601633D01*
X-12660778Y-13500496D01*
X-12614230Y-13388118D01*
X-12590500Y-13268818D01*
X-12590500Y-13147182D01*
X-12047500Y-13147182D01*
X-12047500Y-13268818D01*
X-12023770Y-13388118D01*
X-11977222Y-13500496D01*
X-11909644Y-13601633D01*
X-11823633Y-13687644D01*
X-11722496Y-13755222D01*
X-11610118Y-13801770D01*
X-11490818Y-13825500D01*
X-11369182Y-13825500D01*
X-11249882Y-13801770D01*
X-11137504Y-13755222D01*
X-11036367Y-13687644D01*
X-10950356Y-13601633D01*
X-10882778Y-13500496D01*
X-10836230Y-13388118D01*
X-10812500Y-13268818D01*
X-10812500Y-13147182D01*
X-10836230Y-13027882D01*
X-10882778Y-12915504D01*
X-10950356Y-12814367D01*
X-11036367Y-12728356D01*
X-11137504Y-12660778D01*
X-11249882Y-12614230D01*
X-11369182Y-12590500D01*
X-11490818Y-12590500D01*
X-11610118Y-12614230D01*
X-11722496Y-12660778D01*
X-11823633Y-12728356D01*
X-11909644Y-12814367D01*
X-11977222Y-12915504D01*
X-12023770Y-13027882D01*
X-12047500Y-13147182D01*
X-12590500Y-13147182D01*
X-12614230Y-13027882D01*
X-12660778Y-12915504D01*
X-12728356Y-12814367D01*
X-12814367Y-12728356D01*
X-12915504Y-12660778D01*
X-13027882Y-12614230D01*
X-13147182Y-12590500D01*
X-13268818Y-12590500D01*
X-13388118Y-12614230D01*
X-13500496Y-12660778D01*
X-13601633Y-12728356D01*
X-13687644Y-12814367D01*
X-13755222Y-12915504D01*
X-13801770Y-13027882D01*
X-13825500Y-13147182D01*
X-18977190Y-13147182D01*
X-18895052Y-12948885D01*
X-18842500Y-12684687D01*
X-18842500Y-12415313D01*
X-18848493Y-12385182D01*
X-17127500Y-12385182D01*
X-17127500Y-12506818D01*
X-17103770Y-12626118D01*
X-17057222Y-12738496D01*
X-16989644Y-12839633D01*
X-16903633Y-12925644D01*
X-16802496Y-12993222D01*
X-16690118Y-13039770D01*
X-16570818Y-13063500D01*
X-16449182Y-13063500D01*
X-16329882Y-13039770D01*
X-16217504Y-12993222D01*
X-16116367Y-12925644D01*
X-16030356Y-12839633D01*
X-15962778Y-12738496D01*
X-15916230Y-12626118D01*
X-15892500Y-12506818D01*
X-15892500Y-12385182D01*
X-15916230Y-12265882D01*
X-15962778Y-12153504D01*
X-16030356Y-12052367D01*
X-16116367Y-11966356D01*
X-16217504Y-11898778D01*
X-16269641Y-11877182D01*
X-12809500Y-11877182D01*
X-12809500Y-11998818D01*
X-12785770Y-12118118D01*
X-12739222Y-12230496D01*
X-12671644Y-12331633D01*
X-12585633Y-12417644D01*
X-12484496Y-12485222D01*
X-12372118Y-12531770D01*
X-12252818Y-12555500D01*
X-12131182Y-12555500D01*
X-12011882Y-12531770D01*
X-11899504Y-12485222D01*
X-11798367Y-12417644D01*
X-11712356Y-12331633D01*
X-11644778Y-12230496D01*
X-11598230Y-12118118D01*
X-11574500Y-11998818D01*
X-11574500Y-11877182D01*
X-11595278Y-11772722D01*
X-11490818Y-11793500D01*
X-11369182Y-11793500D01*
X-11249882Y-11769770D01*
X-11137504Y-11723222D01*
X-11036367Y-11655644D01*
X-10950356Y-11569633D01*
X-10882778Y-11468496D01*
X-10836230Y-11356118D01*
X-10812500Y-11236818D01*
X-10812500Y-11115182D01*
X-10836230Y-10995882D01*
X-10855987Y-10948182D01*
X-8999500Y-10948182D01*
X-8999500Y-11069818D01*
X-8975770Y-11189118D01*
X-8929222Y-11301496D01*
X-8861644Y-11402633D01*
X-8775633Y-11488644D01*
X-8674496Y-11556222D01*
X-8562118Y-11602770D01*
X-8442818Y-11626500D01*
X-8321182Y-11626500D01*
X-8234740Y-11609306D01*
X-8237500Y-11623182D01*
X-8237500Y-11744818D01*
X-8213770Y-11864118D01*
X-8167222Y-11976496D01*
X-8099644Y-12077633D01*
X-8013633Y-12163644D01*
X-7912496Y-12231222D01*
X-7800118Y-12277770D01*
X-7680818Y-12301500D01*
X-7559182Y-12301500D01*
X-7439882Y-12277770D01*
X-7327504Y-12231222D01*
X-7226367Y-12163644D01*
X-7140356Y-12077633D01*
X-7072778Y-11976496D01*
X-7026230Y-11864118D01*
X-7002500Y-11744818D01*
X-7002500Y-11623182D01*
X-7026230Y-11503882D01*
X-7072778Y-11391504D01*
X-7140356Y-11290367D01*
X-7226367Y-11204356D01*
X-7327504Y-11136778D01*
X-7439882Y-11090230D01*
X-7559182Y-11066500D01*
X-7680818Y-11066500D01*
X-7767260Y-11083694D01*
X-7764500Y-11069818D01*
X-7764500Y-10948182D01*
X-7788230Y-10828882D01*
X-7834778Y-10716504D01*
X-7902356Y-10615367D01*
X-7988367Y-10529356D01*
X-8089504Y-10461778D01*
X-8201882Y-10415230D01*
X-8321182Y-10391500D01*
X-8442818Y-10391500D01*
X-8562118Y-10415230D01*
X-8674496Y-10461778D01*
X-8775633Y-10529356D01*
X-8861644Y-10615367D01*
X-8929222Y-10716504D01*
X-8975770Y-10828882D01*
X-8999500Y-10948182D01*
X-10855987Y-10948182D01*
X-10882778Y-10883504D01*
X-10950356Y-10782367D01*
X-11036367Y-10696356D01*
X-11137504Y-10628778D01*
X-11249882Y-10582230D01*
X-11369182Y-10558500D01*
X-11490818Y-10558500D01*
X-11610118Y-10582230D01*
X-11722496Y-10628778D01*
X-11823633Y-10696356D01*
X-11909644Y-10782367D01*
X-11977222Y-10883504D01*
X-12023770Y-10995882D01*
X-12047500Y-11115182D01*
X-12047500Y-11236818D01*
X-12026722Y-11341278D01*
X-12131182Y-11320500D01*
X-12252818Y-11320500D01*
X-12372118Y-11344230D01*
X-12484496Y-11390778D01*
X-12585633Y-11458356D01*
X-12671644Y-11544367D01*
X-12739222Y-11645504D01*
X-12785770Y-11757882D01*
X-12809500Y-11877182D01*
X-16269641Y-11877182D01*
X-16329882Y-11852230D01*
X-16449182Y-11828500D01*
X-16570818Y-11828500D01*
X-16690118Y-11852230D01*
X-16802496Y-11898778D01*
X-16903633Y-11966356D01*
X-16989644Y-12052367D01*
X-17057222Y-12153504D01*
X-17103770Y-12265882D01*
X-17127500Y-12385182D01*
X-18848493Y-12385182D01*
X-18895052Y-12151115D01*
X-18998137Y-11902246D01*
X-19147793Y-11678269D01*
X-19338269Y-11487793D01*
X-19562246Y-11338137D01*
X-19811115Y-11235052D01*
X-20075313Y-11182500D01*
X-20344687Y-11182500D01*
X-20608885Y-11235052D01*
X-20857754Y-11338137D01*
X-21081731Y-11487793D01*
X-21272207Y-11678269D01*
X-21421863Y-11902246D01*
X-21524948Y-12151115D01*
X-21577500Y-12415313D01*
X-22276451Y-12415313D01*
X-22135139Y-12356780D01*
X-21939826Y-12226275D01*
X-21773725Y-12060174D01*
X-21643220Y-11864861D01*
X-21553327Y-11647839D01*
X-21507500Y-11417451D01*
X-21507500Y-11182549D01*
X-21553327Y-10952161D01*
X-21591011Y-10861182D01*
X-13825500Y-10861182D01*
X-13825500Y-10982818D01*
X-13801770Y-11102118D01*
X-13755222Y-11214496D01*
X-13687644Y-11315633D01*
X-13601633Y-11401644D01*
X-13500496Y-11469222D01*
X-13388118Y-11515770D01*
X-13268818Y-11539500D01*
X-13147182Y-11539500D01*
X-13027882Y-11515770D01*
X-12915504Y-11469222D01*
X-12814367Y-11401644D01*
X-12728356Y-11315633D01*
X-12660778Y-11214496D01*
X-12614230Y-11102118D01*
X-12590500Y-10982818D01*
X-12590500Y-10861182D01*
X-12614230Y-10741882D01*
X-12660778Y-10629504D01*
X-12728356Y-10528367D01*
X-12814367Y-10442356D01*
X-12915504Y-10374778D01*
X-13027882Y-10328230D01*
X-13147182Y-10304500D01*
X-13268818Y-10304500D01*
X-13388118Y-10328230D01*
X-13500496Y-10374778D01*
X-13601633Y-10442356D01*
X-13687644Y-10528367D01*
X-13755222Y-10629504D01*
X-13801770Y-10741882D01*
X-13825500Y-10861182D01*
X-21591011Y-10861182D01*
X-21643220Y-10735139D01*
X-21773725Y-10539826D01*
X-21939826Y-10373725D01*
X-22135139Y-10243220D01*
X-22352161Y-10153327D01*
X-22582549Y-10107500D01*
X-22817451Y-10107500D01*
X-23047839Y-10153327D01*
X-23264861Y-10243220D01*
X-23460174Y-10373725D01*
X-23626275Y-10539826D01*
X-23756780Y-10735139D01*
X-23846673Y-10952161D01*
X-23892500Y-11182549D01*
X-25132500Y-11182549D01*
X-25132500Y-8575182D01*
X-13317500Y-8575182D01*
X-13317500Y-8696818D01*
X-13293770Y-8816118D01*
X-13247222Y-8928496D01*
X-13179644Y-9029633D01*
X-13093633Y-9115644D01*
X-12992496Y-9183222D01*
X-12880118Y-9229770D01*
X-12760818Y-9253500D01*
X-12639182Y-9253500D01*
X-12519882Y-9229770D01*
X-12407504Y-9183222D01*
X-12306367Y-9115644D01*
X-12220356Y-9029633D01*
X-12152778Y-8928496D01*
X-12106230Y-8816118D01*
X-12082500Y-8696818D01*
X-12082500Y-8575182D01*
X-12106230Y-8455882D01*
X-12152778Y-8343504D01*
X-12167693Y-8321182D01*
X-12047500Y-8321182D01*
X-12047500Y-8442818D01*
X-12023770Y-8562118D01*
X-11977222Y-8674496D01*
X-11909644Y-8775633D01*
X-11823633Y-8861644D01*
X-11722496Y-8929222D01*
X-11610118Y-8975770D01*
X-11490818Y-8999500D01*
X-11369182Y-8999500D01*
X-11249882Y-8975770D01*
X-11137504Y-8929222D01*
X-11036367Y-8861644D01*
X-10950356Y-8775633D01*
X-10882778Y-8674496D01*
X-10836230Y-8562118D01*
X-10812500Y-8442818D01*
X-10812500Y-8321182D01*
X-10836230Y-8201882D01*
X-10882778Y-8089504D01*
X-10950356Y-7988367D01*
X-11036367Y-7902356D01*
X-11137504Y-7834778D01*
X-11249882Y-7788230D01*
X-11369182Y-7764500D01*
X-11490818Y-7764500D01*
X-11610118Y-7788230D01*
X-11722496Y-7834778D01*
X-11823633Y-7902356D01*
X-11909644Y-7988367D01*
X-11977222Y-8089504D01*
X-12023770Y-8201882D01*
X-12047500Y-8321182D01*
X-12167693Y-8321182D01*
X-12220356Y-8242367D01*
X-12306367Y-8156356D01*
X-12407504Y-8088778D01*
X-12519882Y-8042230D01*
X-12639182Y-8018500D01*
X-12760818Y-8018500D01*
X-12880118Y-8042230D01*
X-12992496Y-8088778D01*
X-13093633Y-8156356D01*
X-13179644Y-8242367D01*
X-13247222Y-8343504D01*
X-13293770Y-8455882D01*
X-13317500Y-8575182D01*
X-25132500Y-8575182D01*
X-25132500Y-6682549D01*
X-23892500Y-6682549D01*
X-23892500Y-6917451D01*
X-23846673Y-7147839D01*
X-23756780Y-7364861D01*
X-23626275Y-7560174D01*
X-23460174Y-7726275D01*
X-23264861Y-7856780D01*
X-23047839Y-7946673D01*
X-22817451Y-7992500D01*
X-22582549Y-7992500D01*
X-22352161Y-7946673D01*
X-22135139Y-7856780D01*
X-21939826Y-7726275D01*
X-21773725Y-7560174D01*
X-21643220Y-7364861D01*
X-21618501Y-7305182D01*
X-12809500Y-7305182D01*
X-12809500Y-7426818D01*
X-12785770Y-7546118D01*
X-12739222Y-7658496D01*
X-12671644Y-7759633D01*
X-12585633Y-7845644D01*
X-12484496Y-7913222D01*
X-12372118Y-7959770D01*
X-12252818Y-7983500D01*
X-12131182Y-7983500D01*
X-12011882Y-7959770D01*
X-11899504Y-7913222D01*
X-11798367Y-7845644D01*
X-11712356Y-7759633D01*
X-11644778Y-7658496D01*
X-11598230Y-7546118D01*
X-11574500Y-7426818D01*
X-11574500Y-7305182D01*
X-11595278Y-7200722D01*
X-11490818Y-7221500D01*
X-11369182Y-7221500D01*
X-11249882Y-7197770D01*
X-11137504Y-7151222D01*
X-11036367Y-7083644D01*
X-10950356Y-6997633D01*
X-10882778Y-6896496D01*
X-10836230Y-6784118D01*
X-10812500Y-6664818D01*
X-10812500Y-6543182D01*
X-10836230Y-6423882D01*
X-10882778Y-6311504D01*
X-10950356Y-6210367D01*
X-11036367Y-6124356D01*
X-11137504Y-6056778D01*
X-11249882Y-6010230D01*
X-11369182Y-5986500D01*
X-11490818Y-5986500D01*
X-11610118Y-6010230D01*
X-11722496Y-6056778D01*
X-11823633Y-6124356D01*
X-11909644Y-6210367D01*
X-11977222Y-6311504D01*
X-12023770Y-6423882D01*
X-12047500Y-6543182D01*
X-12047500Y-6664818D01*
X-12026722Y-6769278D01*
X-12131182Y-6748500D01*
X-12252818Y-6748500D01*
X-12372118Y-6772230D01*
X-12484496Y-6818778D01*
X-12585633Y-6886356D01*
X-12671644Y-6972367D01*
X-12739222Y-7073504D01*
X-12785770Y-7185882D01*
X-12809500Y-7305182D01*
X-21618501Y-7305182D01*
X-21553327Y-7147839D01*
X-21507500Y-6917451D01*
X-21507500Y-6682549D01*
X-21553327Y-6452161D01*
X-21643220Y-6235139D01*
X-21773725Y-6039826D01*
X-21939826Y-5873725D01*
X-22135139Y-5743220D01*
X-22352161Y-5653327D01*
X-22582549Y-5607500D01*
X-22817451Y-5607500D01*
X-23047839Y-5653327D01*
X-23264861Y-5743220D01*
X-23460174Y-5873725D01*
X-23626275Y-6039826D01*
X-23756780Y-6235139D01*
X-23846673Y-6452161D01*
X-23892500Y-6682549D01*
X-25132500Y-6682549D01*
X-25132500Y-5405313D01*
X-21577500Y-5405313D01*
X-21577500Y-5674687D01*
X-21524948Y-5938885D01*
X-21421863Y-6187754D01*
X-21272207Y-6411731D01*
X-21081731Y-6602207D01*
X-20857754Y-6751863D01*
X-20608885Y-6854948D01*
X-20344687Y-6907500D01*
X-20075313Y-6907500D01*
X-19811115Y-6854948D01*
X-19562246Y-6751863D01*
X-19338269Y-6602207D01*
X-19147793Y-6411731D01*
X-18998137Y-6187754D01*
X-18895052Y-5938885D01*
X-18842500Y-5674687D01*
X-18842500Y-5405313D01*
X-18895052Y-5141115D01*
X-18978695Y-4939182D01*
X-13617500Y-4939182D01*
X-13617500Y-5060818D01*
X-13593770Y-5180118D01*
X-13547222Y-5292496D01*
X-13479644Y-5393633D01*
X-13393633Y-5479644D01*
X-13292496Y-5547222D01*
X-13180118Y-5593770D01*
X-13060818Y-5617500D01*
X-12939182Y-5617500D01*
X-12819882Y-5593770D01*
X-12707504Y-5547222D01*
X-12606367Y-5479644D01*
X-12520356Y-5393633D01*
X-12452778Y-5292496D01*
X-12444778Y-5273182D01*
X-7729500Y-5273182D01*
X-7729500Y-5394818D01*
X-7705770Y-5514118D01*
X-7659222Y-5626496D01*
X-7591644Y-5727633D01*
X-7505633Y-5813644D01*
X-7404496Y-5881222D01*
X-7292118Y-5927770D01*
X-7172818Y-5951500D01*
X-7051182Y-5951500D01*
X-6931882Y-5927770D01*
X-6819504Y-5881222D01*
X-6718367Y-5813644D01*
X-6632356Y-5727633D01*
X-6564778Y-5626496D01*
X-6518230Y-5514118D01*
X-6494500Y-5394818D01*
X-6494500Y-5273182D01*
X-6518230Y-5153882D01*
X-6564778Y-5041504D01*
X-6632356Y-4940367D01*
X-6718367Y-4854356D01*
X-6819504Y-4786778D01*
X-6931882Y-4740230D01*
X-7051182Y-4716500D01*
X-7172818Y-4716500D01*
X-7292118Y-4740230D01*
X-7404496Y-4786778D01*
X-7505633Y-4854356D01*
X-7591644Y-4940367D01*
X-7659222Y-5041504D01*
X-7705770Y-5153882D01*
X-7729500Y-5273182D01*
X-12444778Y-5273182D01*
X-12406230Y-5180118D01*
X-12382500Y-5060818D01*
X-12382500Y-4939182D01*
X-12406230Y-4819882D01*
X-12452778Y-4707504D01*
X-12520356Y-4606367D01*
X-12606367Y-4520356D01*
X-12707504Y-4452778D01*
X-12819882Y-4406230D01*
X-12939182Y-4382500D01*
X-13060818Y-4382500D01*
X-13180118Y-4406230D01*
X-13292496Y-4452778D01*
X-13393633Y-4520356D01*
X-13479644Y-4606367D01*
X-13547222Y-4707504D01*
X-13593770Y-4819882D01*
X-13617500Y-4939182D01*
X-18978695Y-4939182D01*
X-18998137Y-4892246D01*
X-19147793Y-4668269D01*
X-19338269Y-4477793D01*
X-19562246Y-4328137D01*
X-19811115Y-4225052D01*
X-20075313Y-4172500D01*
X-20344687Y-4172500D01*
X-20608885Y-4225052D01*
X-20857754Y-4328137D01*
X-21081731Y-4477793D01*
X-21272207Y-4668269D01*
X-21421863Y-4892246D01*
X-21524948Y-5141115D01*
X-21577500Y-5405313D01*
X-25132500Y-5405313D01*
X-25132500Y-3241182D01*
X-7475500Y-3241182D01*
X-7475500Y-3362818D01*
X-7451770Y-3482118D01*
X-7405222Y-3594496D01*
X-7337644Y-3695633D01*
X-7251633Y-3781644D01*
X-7150496Y-3849222D01*
X-7038118Y-3895770D01*
X-6918818Y-3919500D01*
X-6797182Y-3919500D01*
X-6677882Y-3895770D01*
X-6565504Y-3849222D01*
X-6464367Y-3781644D01*
X-6378356Y-3695633D01*
X-6310778Y-3594496D01*
X-6264230Y-3482118D01*
X-6240500Y-3362818D01*
X-6240500Y-3241182D01*
X-6264230Y-3121882D01*
X-6310778Y-3009504D01*
X-6378356Y-2908367D01*
X-6464367Y-2822356D01*
X-6565504Y-2754778D01*
X-6677882Y-2708230D01*
X-6797182Y-2684500D01*
X-6918818Y-2684500D01*
X-7038118Y-2708230D01*
X-7150496Y-2754778D01*
X-7251633Y-2822356D01*
X-7337644Y-2908367D01*
X-7405222Y-3009504D01*
X-7451770Y-3121882D01*
X-7475500Y-3241182D01*
X-25132500Y-3241182D01*
X-25132500Y-639182D01*
X-19817500Y-639182D01*
X-19817500Y-760818D01*
X-19793770Y-880118D01*
X-19747222Y-992496D01*
X-19679644Y-1093633D01*
X-19593633Y-1179644D01*
X-19492496Y-1247222D01*
X-19380118Y-1293770D01*
X-19260818Y-1317500D01*
X-19139182Y-1317500D01*
X-19019882Y-1293770D01*
X-18907504Y-1247222D01*
X-18806367Y-1179644D01*
X-18720356Y-1093633D01*
X-18652778Y-992496D01*
X-18606230Y-880118D01*
X-18582500Y-760818D01*
X-18582500Y-639182D01*
X-18606230Y-519882D01*
X-18652778Y-407504D01*
X-18720356Y-306367D01*
X-18806367Y-220356D01*
X-18907504Y-152778D01*
X-19019882Y-106230D01*
X-19139182Y-82500D01*
X-19260818Y-82500D01*
X-19380118Y-106230D01*
X-19492496Y-152778D01*
X-19593633Y-220356D01*
X-19679644Y-306367D01*
X-19747222Y-407504D01*
X-19793770Y-519882D01*
X-19817500Y-639182D01*
X-25132500Y-639182D01*
X-25132500Y960818D01*
X-21817500Y960818D01*
X-21817500Y839182D01*
X-21793770Y719882D01*
X-21747222Y607504D01*
X-21679644Y506367D01*
X-21593633Y420356D01*
X-21492496Y352778D01*
X-21380118Y306230D01*
X-21260818Y282500D01*
X-21139182Y282500D01*
X-21019882Y306230D01*
X-20907504Y352778D01*
X-20806367Y420356D01*
X-20720356Y506367D01*
X-20652778Y607504D01*
X-20650000Y614211D01*
X-20647222Y607504D01*
X-20579644Y506367D01*
X-20493633Y420356D01*
X-20392496Y352778D01*
X-20280118Y306230D01*
X-20160818Y282500D01*
X-20039182Y282500D01*
X-19919882Y306230D01*
X-19807504Y352778D01*
X-19706367Y420356D01*
X-19620356Y506367D01*
X-19552778Y607504D01*
X-19506230Y719882D01*
X-19482500Y839182D01*
X-19482500Y960818D01*
X-19506230Y1080118D01*
X-19552778Y1192496D01*
X-19620356Y1293633D01*
X-19706367Y1379644D01*
X-19807504Y1447222D01*
X-19919882Y1493770D01*
X-20039182Y1517500D01*
X-20160818Y1517500D01*
X-20280118Y1493770D01*
X-20392496Y1447222D01*
X-20493633Y1379644D01*
X-20579644Y1293633D01*
X-20647222Y1192496D01*
X-20650000Y1185789D01*
X-20652778Y1192496D01*
X-20720356Y1293633D01*
X-20806367Y1379644D01*
X-20907504Y1447222D01*
X-21019882Y1493770D01*
X-21139182Y1517500D01*
X-21260818Y1517500D01*
X-21380118Y1493770D01*
X-21492496Y1447222D01*
X-21593633Y1379644D01*
X-21679644Y1293633D01*
X-21747222Y1192496D01*
X-21793770Y1080118D01*
X-21817500Y960818D01*
X-25132500Y960818D01*
X-25132500Y3510818D01*
X-21817500Y3510818D01*
X-21817500Y3389182D01*
X-21793770Y3269882D01*
X-21747222Y3157504D01*
X-21679644Y3056367D01*
X-21593633Y2970356D01*
X-21492496Y2902778D01*
X-21380118Y2856230D01*
X-21260818Y2832500D01*
X-21139182Y2832500D01*
X-21117500Y2836813D01*
X-21117500Y2813187D01*
X-21139182Y2817500D01*
X-21260818Y2817500D01*
X-21380118Y2793770D01*
X-21492496Y2747222D01*
X-21593633Y2679644D01*
X-21679644Y2593633D01*
X-21747222Y2492496D01*
X-21793770Y2380118D01*
X-21817500Y2260818D01*
X-21817500Y2139182D01*
X-21793770Y2019882D01*
X-21747222Y1907504D01*
X-21679644Y1806367D01*
X-21593633Y1720356D01*
X-21492496Y1652778D01*
X-21380118Y1606230D01*
X-21260818Y1582500D01*
X-21139182Y1582500D01*
X-21019882Y1606230D01*
X-20907504Y1652778D01*
X-20806367Y1720356D01*
X-20720356Y1806367D01*
X-20652778Y1907504D01*
X-20606230Y2019882D01*
X-20598088Y2060818D01*
X-8817500Y2060818D01*
X-8817500Y1939182D01*
X-8793770Y1819882D01*
X-8747222Y1707504D01*
X-8679644Y1606367D01*
X-8593633Y1520356D01*
X-8492496Y1452778D01*
X-8380118Y1406230D01*
X-8260818Y1382500D01*
X-8139182Y1382500D01*
X-8019882Y1406230D01*
X-7907504Y1452778D01*
X-7806367Y1520356D01*
X-7720356Y1606367D01*
X-7652778Y1707504D01*
X-7606230Y1819882D01*
X-7582500Y1939182D01*
X-7582500Y2060818D01*
X-7606230Y2180118D01*
X-7652778Y2292496D01*
X-7698429Y2360818D01*
X-2017500Y2360818D01*
X-2017500Y2239182D01*
X-1993770Y2119882D01*
X-1947222Y2007504D01*
X-1879644Y1906367D01*
X-1793633Y1820356D01*
X-1692496Y1752778D01*
X-1580118Y1706230D01*
X-1460818Y1682500D01*
X-1339182Y1682500D01*
X-1219882Y1706230D01*
X-1107504Y1752778D01*
X-1006367Y1820356D01*
X-920356Y1906367D01*
X-852778Y2007504D01*
X-806230Y2119882D01*
X-793775Y2182500D01*
X-739182Y2182500D01*
X-619882Y2206230D01*
X-507504Y2252778D01*
X-406367Y2320356D01*
X-320356Y2406367D01*
X-252778Y2507504D01*
X-206230Y2619882D01*
X-182500Y2739182D01*
X-182500Y2860818D01*
X-206230Y2980118D01*
X-252778Y3092496D01*
X-320356Y3193633D01*
X-406367Y3279644D01*
X-507504Y3347222D01*
X-619882Y3393770D01*
X-739182Y3417500D01*
X-860818Y3417500D01*
X-980118Y3393770D01*
X-1092496Y3347222D01*
X-1193633Y3279644D01*
X-1279644Y3193633D01*
X-1347222Y3092496D01*
X-1393770Y2980118D01*
X-1406225Y2917500D01*
X-1460818Y2917500D01*
X-1580118Y2893770D01*
X-1692496Y2847222D01*
X-1793633Y2779644D01*
X-1879644Y2693633D01*
X-1947222Y2592496D01*
X-1993770Y2480118D01*
X-2017500Y2360818D01*
X-7698429Y2360818D01*
X-7720356Y2393633D01*
X-7806367Y2479644D01*
X-7907504Y2547222D01*
X-8019882Y2593770D01*
X-8139182Y2617500D01*
X-8260818Y2617500D01*
X-8380118Y2593770D01*
X-8492496Y2547222D01*
X-8593633Y2479644D01*
X-8679644Y2393633D01*
X-8747222Y2292496D01*
X-8793770Y2180118D01*
X-8817500Y2060818D01*
X-20598088Y2060818D01*
X-20582500Y2139182D01*
X-20582500Y2186813D01*
X-20560818Y2182500D01*
X-20439182Y2182500D01*
X-20319882Y2206230D01*
X-20207504Y2252778D01*
X-20106367Y2320356D01*
X-20020356Y2406367D01*
X-19952778Y2507504D01*
X-19906230Y2619882D01*
X-19882500Y2739182D01*
X-19882500Y2860818D01*
X-15117500Y2860818D01*
X-15117500Y2739182D01*
X-15093770Y2619882D01*
X-15047222Y2507504D01*
X-14979644Y2406367D01*
X-14893633Y2320356D01*
X-14792496Y2252778D01*
X-14680118Y2206230D01*
X-14560818Y2182500D01*
X-14439182Y2182500D01*
X-14319882Y2206230D01*
X-14207504Y2252778D01*
X-14106367Y2320356D01*
X-14020356Y2406367D01*
X-13952778Y2507504D01*
X-13906230Y2619882D01*
X-13882500Y2739182D01*
X-13882500Y2860818D01*
X-13906230Y2980118D01*
X-13939656Y3060818D01*
X-11517500Y3060818D01*
X-11517500Y2939182D01*
X-11493770Y2819882D01*
X-11447222Y2707504D01*
X-11379644Y2606367D01*
X-11293633Y2520356D01*
X-11192496Y2452778D01*
X-11080118Y2406230D01*
X-10960818Y2382500D01*
X-10839182Y2382500D01*
X-10719882Y2406230D01*
X-10607504Y2452778D01*
X-10506367Y2520356D01*
X-10420356Y2606367D01*
X-10352778Y2707504D01*
X-10306230Y2819882D01*
X-10282500Y2939182D01*
X-10282500Y3060818D01*
X-10306230Y3180118D01*
X-10352778Y3292496D01*
X-10420356Y3393633D01*
X-10506367Y3479644D01*
X-10607504Y3547222D01*
X-10719882Y3593770D01*
X-10839182Y3617500D01*
X-10960818Y3617500D01*
X-11080118Y3593770D01*
X-11192496Y3547222D01*
X-11293633Y3479644D01*
X-11379644Y3393633D01*
X-11447222Y3292496D01*
X-11493770Y3180118D01*
X-11517500Y3060818D01*
X-13939656Y3060818D01*
X-13952778Y3092496D01*
X-14020356Y3193633D01*
X-14106367Y3279644D01*
X-14207504Y3347222D01*
X-14319882Y3393770D01*
X-14439182Y3417500D01*
X-14560818Y3417500D01*
X-14680118Y3393770D01*
X-14792496Y3347222D01*
X-14893633Y3279644D01*
X-14979644Y3193633D01*
X-15047222Y3092496D01*
X-15093770Y2980118D01*
X-15117500Y2860818D01*
X-19882500Y2860818D01*
X-19906230Y2980118D01*
X-19952778Y3092496D01*
X-20020356Y3193633D01*
X-20106367Y3279644D01*
X-20207504Y3347222D01*
X-20319882Y3393770D01*
X-20439182Y3417500D01*
X-20560818Y3417500D01*
X-20582500Y3413187D01*
X-20582500Y3510818D01*
X-20606230Y3630118D01*
X-20652778Y3742496D01*
X-20720356Y3843633D01*
X-20737541Y3860818D01*
X-16317500Y3860818D01*
X-16317500Y3739182D01*
X-16293770Y3619882D01*
X-16247222Y3507504D01*
X-16179644Y3406367D01*
X-16093633Y3320356D01*
X-15992496Y3252778D01*
X-15880118Y3206230D01*
X-15760818Y3182500D01*
X-15639182Y3182500D01*
X-15519882Y3206230D01*
X-15407504Y3252778D01*
X-15306367Y3320356D01*
X-15220356Y3406367D01*
X-15152778Y3507504D01*
X-15106230Y3619882D01*
X-15082500Y3739182D01*
X-15082500Y3860818D01*
X4782500Y3860818D01*
X4782500Y3739182D01*
X4806230Y3619882D01*
X4852778Y3507504D01*
X4920356Y3406367D01*
X5006367Y3320356D01*
X5107504Y3252778D01*
X5219882Y3206230D01*
X5339182Y3182500D01*
X5460818Y3182500D01*
X5580118Y3206230D01*
X5692496Y3252778D01*
X5793633Y3320356D01*
X5879644Y3406367D01*
X5947222Y3507504D01*
X5993770Y3619882D01*
X6017500Y3739182D01*
X6017500Y3860818D01*
X5993770Y3980118D01*
X5960344Y4060818D01*
X7982500Y4060818D01*
X7982500Y3939182D01*
X8006230Y3819882D01*
X8052778Y3707504D01*
X8120356Y3606367D01*
X8206367Y3520356D01*
X8307504Y3452778D01*
X8419882Y3406230D01*
X8539182Y3382500D01*
X8660818Y3382500D01*
X8780118Y3406230D01*
X8892496Y3452778D01*
X8993633Y3520356D01*
X9079644Y3606367D01*
X9147222Y3707504D01*
X9193770Y3819882D01*
X9217500Y3939182D01*
X9217500Y4060818D01*
X9193770Y4180118D01*
X9147222Y4292496D01*
X9079644Y4393633D01*
X8993633Y4479644D01*
X8892496Y4547222D01*
X8780118Y4593770D01*
X8660818Y4617500D01*
X8539182Y4617500D01*
X8419882Y4593770D01*
X8307504Y4547222D01*
X8206367Y4479644D01*
X8120356Y4393633D01*
X8052778Y4292496D01*
X8006230Y4180118D01*
X7982500Y4060818D01*
X5960344Y4060818D01*
X5947222Y4092496D01*
X5879644Y4193633D01*
X5793633Y4279644D01*
X5692496Y4347222D01*
X5580118Y4393770D01*
X5460818Y4417500D01*
X5339182Y4417500D01*
X5219882Y4393770D01*
X5107504Y4347222D01*
X5006367Y4279644D01*
X4920356Y4193633D01*
X4852778Y4092496D01*
X4806230Y3980118D01*
X4782500Y3860818D01*
X-15082500Y3860818D01*
X-15106230Y3980118D01*
X-15152778Y4092496D01*
X-15220356Y4193633D01*
X-15306367Y4279644D01*
X-15407504Y4347222D01*
X-15519882Y4393770D01*
X-15639182Y4417500D01*
X-15760818Y4417500D01*
X-15880118Y4393770D01*
X-15992496Y4347222D01*
X-16093633Y4279644D01*
X-16179644Y4193633D01*
X-16247222Y4092496D01*
X-16293770Y3980118D01*
X-16317500Y3860818D01*
X-20737541Y3860818D01*
X-20806367Y3929644D01*
X-20907504Y3997222D01*
X-21019882Y4043770D01*
X-21139182Y4067500D01*
X-21260818Y4067500D01*
X-21380118Y4043770D01*
X-21492496Y3997222D01*
X-21593633Y3929644D01*
X-21679644Y3843633D01*
X-21747222Y3742496D01*
X-21793770Y3630118D01*
X-21817500Y3510818D01*
X-25132500Y3510818D01*
X-25132500Y4760818D01*
X-8917500Y4760818D01*
X-8917500Y4639182D01*
X-8893770Y4519882D01*
X-8847222Y4407504D01*
X-8779644Y4306367D01*
X-8693633Y4220356D01*
X-8592496Y4152778D01*
X-8480118Y4106230D01*
X-8360818Y4082500D01*
X-8239182Y4082500D01*
X-8119882Y4106230D01*
X-8007504Y4152778D01*
X-7906367Y4220356D01*
X-7820356Y4306367D01*
X-7752778Y4407504D01*
X-7706230Y4519882D01*
X-7682500Y4639182D01*
X-7682500Y4760818D01*
X-7706230Y4880118D01*
X-7752778Y4992496D01*
X-7820356Y5093633D01*
X-7906367Y5179644D01*
X-8007504Y5247222D01*
X-8119882Y5293770D01*
X-8239182Y5317500D01*
X-8360818Y5317500D01*
X-8480118Y5293770D01*
X-8592496Y5247222D01*
X-8693633Y5179644D01*
X-8779644Y5093633D01*
X-8847222Y4992496D01*
X-8893770Y4880118D01*
X-8917500Y4760818D01*
X-25132500Y4760818D01*
X-25132500Y6760818D01*
X-19517500Y6760818D01*
X-19517500Y6639182D01*
X-19493770Y6519882D01*
X-19447222Y6407504D01*
X-19379644Y6306367D01*
X-19293633Y6220356D01*
X-19192496Y6152778D01*
X-19080118Y6106230D01*
X-18960818Y6082500D01*
X-18839182Y6082500D01*
X-18719882Y6106230D01*
X-18607504Y6152778D01*
X-18506367Y6220356D01*
X-18420356Y6306367D01*
X-18352778Y6407504D01*
X-18306230Y6519882D01*
X-18282500Y6639182D01*
X-18282500Y6760818D01*
X-18306230Y6880118D01*
X-18352778Y6992496D01*
X-18420356Y7093633D01*
X-18506367Y7179644D01*
X-18607504Y7247222D01*
X-18719882Y7293770D01*
X-18839182Y7317500D01*
X-18960818Y7317500D01*
X-19080118Y7293770D01*
X-19192496Y7247222D01*
X-19293633Y7179644D01*
X-19379644Y7093633D01*
X-19447222Y6992496D01*
X-19493770Y6880118D01*
X-19517500Y6760818D01*
X-25132500Y6760818D01*
X-25132500Y9060818D01*
X-18117500Y9060818D01*
X-18117500Y8939182D01*
X-18093770Y8819882D01*
X-18047222Y8707504D01*
X-17979644Y8606367D01*
X-17893633Y8520356D01*
X-17863168Y8500000D01*
X-17893633Y8479644D01*
X-17979644Y8393633D01*
X-18047222Y8292496D01*
X-18093770Y8180118D01*
X-18117500Y8060818D01*
X-18117500Y7939182D01*
X-18093770Y7819882D01*
X-18047222Y7707504D01*
X-17979644Y7606367D01*
X-17893633Y7520356D01*
X-17863168Y7500000D01*
X-17893633Y7479644D01*
X-17979644Y7393633D01*
X-18047222Y7292496D01*
X-18093770Y7180118D01*
X-18117500Y7060818D01*
X-18117500Y6939182D01*
X-18093770Y6819882D01*
X-18047222Y6707504D01*
X-17979644Y6606367D01*
X-17893633Y6520356D01*
X-17863168Y6500000D01*
X-17893633Y6479644D01*
X-17979644Y6393633D01*
X-18047222Y6292496D01*
X-18093770Y6180118D01*
X-18117500Y6060818D01*
X-18117500Y5939182D01*
X-18093770Y5819882D01*
X-18047222Y5707504D01*
X-17979644Y5606367D01*
X-17893633Y5520356D01*
X-17792496Y5452778D01*
X-17680118Y5406230D01*
X-17560818Y5382500D01*
X-17439182Y5382500D01*
X-17319882Y5406230D01*
X-17207504Y5452778D01*
X-17117500Y5512917D01*
X-17117500Y5439182D01*
X-17093770Y5319882D01*
X-17047222Y5207504D01*
X-16979644Y5106367D01*
X-16893633Y5020356D01*
X-16792496Y4952778D01*
X-16680118Y4906230D01*
X-16560818Y4882500D01*
X-16439182Y4882500D01*
X-16319882Y4906230D01*
X-16207504Y4952778D01*
X-16106367Y5020356D01*
X-16020356Y5106367D01*
X-15952778Y5207504D01*
X-15906230Y5319882D01*
X-15882500Y5439182D01*
X-15882500Y5560818D01*
X-15906230Y5680118D01*
X-15952778Y5792496D01*
X-16020356Y5893633D01*
X-16106367Y5979644D01*
X-16136832Y6000000D01*
X-16106367Y6020356D01*
X-16020356Y6106367D01*
X-15952778Y6207504D01*
X-15906230Y6319882D01*
X-15882500Y6439182D01*
X-15882500Y6560818D01*
X-15906230Y6680118D01*
X-15952778Y6792496D01*
X-16020356Y6893633D01*
X-16106367Y6979644D01*
X-16136832Y7000000D01*
X-16106367Y7020356D01*
X-16020356Y7106367D01*
X-15952778Y7207504D01*
X-15906230Y7319882D01*
X-15882500Y7439182D01*
X-15882500Y7560818D01*
X-15906230Y7680118D01*
X-15952778Y7792496D01*
X-16020356Y7893633D01*
X-16106367Y7979644D01*
X-16136832Y8000000D01*
X-16106367Y8020356D01*
X-16020356Y8106367D01*
X-15952778Y8207504D01*
X-15906230Y8319882D01*
X-15882500Y8439182D01*
X-15882500Y8560818D01*
X-15617500Y8560818D01*
X-15617500Y8439182D01*
X-15593770Y8319882D01*
X-15547222Y8207504D01*
X-15479644Y8106367D01*
X-15393633Y8020356D01*
X-15363168Y8000000D01*
X-15393633Y7979644D01*
X-15479644Y7893633D01*
X-15547222Y7792496D01*
X-15593770Y7680118D01*
X-15617500Y7560818D01*
X-15617500Y7439182D01*
X-15593770Y7319882D01*
X-15547222Y7207504D01*
X-15479644Y7106367D01*
X-15393633Y7020356D01*
X-15363168Y7000000D01*
X-15393633Y6979644D01*
X-15479644Y6893633D01*
X-15547222Y6792496D01*
X-15593770Y6680118D01*
X-15617500Y6560818D01*
X-15617500Y6439182D01*
X-15593770Y6319882D01*
X-15547222Y6207504D01*
X-15479644Y6106367D01*
X-15393633Y6020356D01*
X-15363168Y6000000D01*
X-15393633Y5979644D01*
X-15479644Y5893633D01*
X-15547222Y5792496D01*
X-15593770Y5680118D01*
X-15617500Y5560818D01*
X-15617500Y5439182D01*
X-15593770Y5319882D01*
X-15547222Y5207504D01*
X-15479644Y5106367D01*
X-15393633Y5020356D01*
X-15292496Y4952778D01*
X-15180118Y4906230D01*
X-15060818Y4882500D01*
X-14939182Y4882500D01*
X-14819882Y4906230D01*
X-14707504Y4952778D01*
X-14606367Y5020356D01*
X-14520356Y5106367D01*
X-14452778Y5207504D01*
X-14406230Y5319882D01*
X-14382500Y5439182D01*
X-14382500Y5512917D01*
X-14292496Y5452778D01*
X-14180118Y5406230D01*
X-14060818Y5382500D01*
X-13939182Y5382500D01*
X-13819882Y5406230D01*
X-13707504Y5452778D01*
X-13606367Y5520356D01*
X-13520356Y5606367D01*
X-13452778Y5707504D01*
X-13406230Y5819882D01*
X-13382500Y5939182D01*
X-13382500Y6060818D01*
X-13406230Y6180118D01*
X-13452778Y6292496D01*
X-13520356Y6393633D01*
X-13587541Y6460818D01*
X-2917500Y6460818D01*
X-2917500Y6339182D01*
X-2893770Y6219882D01*
X-2847222Y6107504D01*
X-2779644Y6006367D01*
X-2693633Y5920356D01*
X-2592496Y5852778D01*
X-2480118Y5806230D01*
X-2360818Y5782500D01*
X-2239182Y5782500D01*
X-2212116Y5787884D01*
X-2217500Y5760818D01*
X-2217500Y5639182D01*
X-2193770Y5519882D01*
X-2147222Y5407504D01*
X-2079644Y5306367D01*
X-1993633Y5220356D01*
X-1892496Y5152778D01*
X-1780118Y5106230D01*
X-1660818Y5082500D01*
X-1539182Y5082500D01*
X-1419882Y5106230D01*
X-1307504Y5152778D01*
X-1206367Y5220356D01*
X-1120356Y5306367D01*
X-1052778Y5407504D01*
X-1006230Y5519882D01*
X-982500Y5639182D01*
X-982500Y5760818D01*
X-1006230Y5880118D01*
X-1052778Y5992496D01*
X-1120356Y6093633D01*
X-1206367Y6179644D01*
X-1307504Y6247222D01*
X-1419882Y6293770D01*
X-1539182Y6317500D01*
X-1660818Y6317500D01*
X-1687884Y6312116D01*
X-1682500Y6339182D01*
X-1682500Y6460818D01*
X-1706230Y6580118D01*
X-1752778Y6692496D01*
X-1820356Y6793633D01*
X-1906367Y6879644D01*
X-2007504Y6947222D01*
X-2119882Y6993770D01*
X-2239182Y7017500D01*
X-2360818Y7017500D01*
X-2480118Y6993770D01*
X-2592496Y6947222D01*
X-2693633Y6879644D01*
X-2779644Y6793633D01*
X-2847222Y6692496D01*
X-2893770Y6580118D01*
X-2917500Y6460818D01*
X-13587541Y6460818D01*
X-13606367Y6479644D01*
X-13636832Y6500000D01*
X-13606367Y6520356D01*
X-13520356Y6606367D01*
X-13452778Y6707504D01*
X-13406230Y6819882D01*
X-13382500Y6939182D01*
X-13382500Y7060818D01*
X-13406230Y7180118D01*
X-13452778Y7292496D01*
X-13498429Y7360818D01*
X-4617500Y7360818D01*
X-4617500Y7239182D01*
X-4593770Y7119882D01*
X-4547222Y7007504D01*
X-4479644Y6906367D01*
X-4393633Y6820356D01*
X-4292496Y6752778D01*
X-4180118Y6706230D01*
X-4060818Y6682500D01*
X-3939182Y6682500D01*
X-3819882Y6706230D01*
X-3707504Y6752778D01*
X-3606367Y6820356D01*
X-3520356Y6906367D01*
X-3452778Y7007504D01*
X-3406230Y7119882D01*
X-3382500Y7239182D01*
X-3382500Y7360818D01*
X-3406230Y7480118D01*
X-3452778Y7592496D01*
X-3520356Y7693633D01*
X-3606367Y7779644D01*
X-3707504Y7847222D01*
X-3819882Y7893770D01*
X-3939182Y7917500D01*
X-4060818Y7917500D01*
X-4180118Y7893770D01*
X-4292496Y7847222D01*
X-4393633Y7779644D01*
X-4479644Y7693633D01*
X-4547222Y7592496D01*
X-4593770Y7480118D01*
X-4617500Y7360818D01*
X-13498429Y7360818D01*
X-13520356Y7393633D01*
X-13606367Y7479644D01*
X-13636832Y7500000D01*
X-13606367Y7520356D01*
X-13520356Y7606367D01*
X-13452778Y7707504D01*
X-13406230Y7819882D01*
X-13382500Y7939182D01*
X-13382500Y8060818D01*
X-13406230Y8180118D01*
X-13452778Y8292496D01*
X-13520356Y8393633D01*
X-13606367Y8479644D01*
X-13636832Y8500000D01*
X-13606367Y8520356D01*
X-13520356Y8606367D01*
X-13452778Y8707504D01*
X-13430695Y8760818D01*
X-2917500Y8760818D01*
X-2917500Y8639182D01*
X-2893770Y8519882D01*
X-2847222Y8407504D01*
X-2779644Y8306367D01*
X-2693633Y8220356D01*
X-2592496Y8152778D01*
X-2480118Y8106230D01*
X-2360818Y8082500D01*
X-2239182Y8082500D01*
X-2119882Y8106230D01*
X-2007504Y8152778D01*
X-1906367Y8220356D01*
X-1820356Y8306367D01*
X-1752778Y8407504D01*
X-1706230Y8519882D01*
X-1682500Y8639182D01*
X-1682500Y8760818D01*
X-1697816Y8837819D01*
X8882500Y8837819D01*
X8882500Y8716183D01*
X8906230Y8596883D01*
X8952778Y8484505D01*
X9000225Y8413496D01*
X8952784Y8342496D01*
X8906236Y8230118D01*
X8882506Y8110818D01*
X8882506Y7989182D01*
X8906236Y7869882D01*
X8952784Y7757504D01*
X9007909Y7675004D01*
X8952778Y7592496D01*
X8906230Y7480118D01*
X8882500Y7360818D01*
X8882500Y7239182D01*
X8906230Y7119882D01*
X8952778Y7007504D01*
X9020356Y6906367D01*
X9026723Y6900000D01*
X9020356Y6893633D01*
X8952778Y6792496D01*
X8906230Y6680118D01*
X8882500Y6560818D01*
X8882500Y6439182D01*
X8906230Y6319882D01*
X8952778Y6207504D01*
X9020356Y6106367D01*
X9026726Y6099997D01*
X9020356Y6093627D01*
X8952778Y5992490D01*
X8906230Y5880112D01*
X8882500Y5760812D01*
X8882500Y5639176D01*
X8906230Y5519876D01*
X8952778Y5407498D01*
X9020356Y5306361D01*
X9106367Y5220350D01*
X9207504Y5152772D01*
X9319882Y5106224D01*
X9439182Y5082494D01*
X9560818Y5082494D01*
X9680118Y5106224D01*
X9792496Y5152772D01*
X9893633Y5220350D01*
X9979644Y5306361D01*
X10047222Y5407498D01*
X10093770Y5519876D01*
X10117500Y5639176D01*
X10117500Y5760812D01*
X10093770Y5880112D01*
X10047222Y5992490D01*
X9979644Y6093627D01*
X9973274Y6099997D01*
X9979644Y6106367D01*
X10047222Y6207504D01*
X10093770Y6319882D01*
X10117500Y6439182D01*
X10117500Y6560818D01*
X10093770Y6680118D01*
X10047222Y6792496D01*
X9979644Y6893633D01*
X9973277Y6900000D01*
X9979644Y6906367D01*
X10047222Y7007504D01*
X10093770Y7119882D01*
X10117500Y7239182D01*
X10117500Y7360818D01*
X10093770Y7480118D01*
X10047222Y7592496D01*
X9992097Y7674996D01*
X10047228Y7757504D01*
X10093776Y7869882D01*
X10117506Y7989182D01*
X10117506Y8110818D01*
X10093776Y8230118D01*
X10047228Y8342496D01*
X9999781Y8413505D01*
X10047222Y8484505D01*
X10093770Y8596883D01*
X10117500Y8716183D01*
X10117500Y8837819D01*
X10093770Y8957119D01*
X10047222Y9069497D01*
X10022903Y9105894D01*
X10882500Y9105894D01*
X10882500Y8994106D01*
X10904309Y8884466D01*
X10947088Y8781188D01*
X11009194Y8688240D01*
X11088240Y8609194D01*
X11181188Y8547088D01*
X11234513Y8525000D01*
X11181188Y8502912D01*
X11088240Y8440806D01*
X11009194Y8361760D01*
X10947088Y8268812D01*
X10904309Y8165534D01*
X10882500Y8055894D01*
X10882500Y7944106D01*
X10904309Y7834466D01*
X10947088Y7731188D01*
X11009194Y7638240D01*
X11088240Y7559194D01*
X11181188Y7497088D01*
X11234513Y7475000D01*
X11181188Y7452912D01*
X11088240Y7390806D01*
X11009194Y7311760D01*
X10947088Y7218812D01*
X10904309Y7115534D01*
X10882500Y7005894D01*
X10882500Y6894106D01*
X10904309Y6784466D01*
X10947088Y6681188D01*
X11009194Y6588240D01*
X11088240Y6509194D01*
X11181188Y6447088D01*
X11284466Y6404309D01*
X11394106Y6382500D01*
X11505894Y6382500D01*
X11615534Y6404309D01*
X11718812Y6447088D01*
X11811760Y6509194D01*
X11890806Y6588240D01*
X11952912Y6681188D01*
X11975000Y6734513D01*
X11997088Y6681188D01*
X12059194Y6588240D01*
X12138240Y6509194D01*
X12231188Y6447088D01*
X12334466Y6404309D01*
X12444106Y6382500D01*
X12555894Y6382500D01*
X12665534Y6404309D01*
X12768812Y6447088D01*
X12861760Y6509194D01*
X12940806Y6588240D01*
X13002912Y6681188D01*
X13025000Y6734513D01*
X13047088Y6681188D01*
X13109194Y6588240D01*
X13188240Y6509194D01*
X13281188Y6447088D01*
X13384466Y6404309D01*
X13494106Y6382500D01*
X13605894Y6382500D01*
X13715534Y6404309D01*
X13818812Y6447088D01*
X13911760Y6509194D01*
X13990806Y6588240D01*
X14052912Y6681188D01*
X14095691Y6784466D01*
X14117500Y6894106D01*
X14117500Y7005894D01*
X14095691Y7115534D01*
X14052912Y7218812D01*
X13990806Y7311760D01*
X13911760Y7390806D01*
X13818812Y7452912D01*
X13765487Y7475000D01*
X13818812Y7497088D01*
X13911760Y7559194D01*
X13990806Y7638240D01*
X14052912Y7731188D01*
X14095691Y7834466D01*
X14117500Y7944106D01*
X14117500Y8055894D01*
X14095691Y8165534D01*
X14052912Y8268812D01*
X13990806Y8361760D01*
X13911760Y8440806D01*
X13818812Y8502912D01*
X13765487Y8525000D01*
X13818812Y8547088D01*
X13911760Y8609194D01*
X13990806Y8688240D01*
X14052912Y8781188D01*
X14085895Y8860818D01*
X15382500Y8860818D01*
X15382500Y8739182D01*
X15406230Y8619882D01*
X15452778Y8507504D01*
X15520356Y8406367D01*
X15606367Y8320356D01*
X15707504Y8252778D01*
X15819882Y8206230D01*
X15939182Y8182500D01*
X16060818Y8182500D01*
X16180118Y8206230D01*
X16292496Y8252778D01*
X16393633Y8320356D01*
X16479644Y8406367D01*
X16547222Y8507504D01*
X16593770Y8619882D01*
X16617500Y8739182D01*
X16617500Y8860818D01*
X16593770Y8980118D01*
X16547222Y9092496D01*
X16479644Y9193633D01*
X16393633Y9279644D01*
X16292496Y9347222D01*
X16180118Y9393770D01*
X16060818Y9417500D01*
X15939182Y9417500D01*
X15819882Y9393770D01*
X15707504Y9347222D01*
X15606367Y9279644D01*
X15520356Y9193633D01*
X15452778Y9092496D01*
X15406230Y8980118D01*
X15382500Y8860818D01*
X14085895Y8860818D01*
X14095691Y8884466D01*
X14117500Y8994106D01*
X14117500Y9105894D01*
X14095691Y9215534D01*
X14052912Y9318812D01*
X13990806Y9411760D01*
X13911760Y9490806D01*
X13818812Y9552912D01*
X13715534Y9595691D01*
X13605894Y9617500D01*
X13494106Y9617500D01*
X13384466Y9595691D01*
X13281188Y9552912D01*
X13188240Y9490806D01*
X13109194Y9411760D01*
X13047088Y9318812D01*
X13025000Y9265487D01*
X13002912Y9318812D01*
X12940806Y9411760D01*
X12861760Y9490806D01*
X12768812Y9552912D01*
X12665534Y9595691D01*
X12555894Y9617500D01*
X12444106Y9617500D01*
X12334466Y9595691D01*
X12231188Y9552912D01*
X12138240Y9490806D01*
X12059194Y9411760D01*
X11997088Y9318812D01*
X11975000Y9265487D01*
X11952912Y9318812D01*
X11890806Y9411760D01*
X11811760Y9490806D01*
X11718812Y9552912D01*
X11615534Y9595691D01*
X11505894Y9617500D01*
X11394106Y9617500D01*
X11284466Y9595691D01*
X11181188Y9552912D01*
X11088240Y9490806D01*
X11009194Y9411760D01*
X10947088Y9318812D01*
X10904309Y9215534D01*
X10882500Y9105894D01*
X10022903Y9105894D01*
X9979644Y9170634D01*
X9893633Y9256645D01*
X9792496Y9324223D01*
X9680118Y9370771D01*
X9560818Y9394501D01*
X9439182Y9394501D01*
X9319882Y9370771D01*
X9207504Y9324223D01*
X9106367Y9256645D01*
X9020356Y9170634D01*
X8952778Y9069497D01*
X8906230Y8957119D01*
X8882500Y8837819D01*
X-1697816Y8837819D01*
X-1706230Y8880118D01*
X-1752778Y8992496D01*
X-1820356Y9093633D01*
X-1906367Y9179644D01*
X-2007504Y9247222D01*
X-2119882Y9293770D01*
X-2239182Y9317500D01*
X-2360818Y9317500D01*
X-2480118Y9293770D01*
X-2592496Y9247222D01*
X-2693633Y9179644D01*
X-2779644Y9093633D01*
X-2847222Y8992496D01*
X-2893770Y8880118D01*
X-2917500Y8760818D01*
X-13430695Y8760818D01*
X-13406230Y8819882D01*
X-13382500Y8939182D01*
X-13382500Y9060818D01*
X-13406230Y9180118D01*
X-13452778Y9292496D01*
X-13520356Y9393633D01*
X-13606367Y9479644D01*
X-13707504Y9547222D01*
X-13819882Y9593770D01*
X-13939182Y9617500D01*
X-14060818Y9617500D01*
X-14180118Y9593770D01*
X-14292496Y9547222D01*
X-14393633Y9479644D01*
X-14479644Y9393633D01*
X-14547222Y9292496D01*
X-14593770Y9180118D01*
X-14617500Y9060818D01*
X-14617500Y8987083D01*
X-14707504Y9047222D01*
X-14819882Y9093770D01*
X-14939182Y9117500D01*
X-15060818Y9117500D01*
X-15180118Y9093770D01*
X-15292496Y9047222D01*
X-15393633Y8979644D01*
X-15479644Y8893633D01*
X-15547222Y8792496D01*
X-15593770Y8680118D01*
X-15617500Y8560818D01*
X-15882500Y8560818D01*
X-15906230Y8680118D01*
X-15952778Y8792496D01*
X-16020356Y8893633D01*
X-16106367Y8979644D01*
X-16207504Y9047222D01*
X-16319882Y9093770D01*
X-16439182Y9117500D01*
X-16560818Y9117500D01*
X-16680118Y9093770D01*
X-16792496Y9047222D01*
X-16882500Y8987083D01*
X-16882500Y9060818D01*
X-16906230Y9180118D01*
X-16952778Y9292496D01*
X-17020356Y9393633D01*
X-17106367Y9479644D01*
X-17207504Y9547222D01*
X-17319882Y9593770D01*
X-17439182Y9617500D01*
X-17560818Y9617500D01*
X-17680118Y9593770D01*
X-17792496Y9547222D01*
X-17893633Y9479644D01*
X-17979644Y9393633D01*
X-18047222Y9292496D01*
X-18093770Y9180118D01*
X-18117500Y9060818D01*
X-25132500Y9060818D01*
X-25132500Y10660818D01*
X-4917500Y10660818D01*
X-4917500Y10539182D01*
X-4893770Y10419882D01*
X-4847222Y10307504D01*
X-4779644Y10206367D01*
X-4693633Y10120356D01*
X-4592496Y10052778D01*
X-4480118Y10006230D01*
X-4360818Y9982500D01*
X-4239182Y9982500D01*
X-4119882Y10006230D01*
X-4007504Y10052778D01*
X-3906367Y10120356D01*
X-3820356Y10206367D01*
X-3783973Y10260818D01*
X-317500Y10260818D01*
X-317500Y10139182D01*
X-293770Y10019882D01*
X-247222Y9907504D01*
X-179644Y9806367D01*
X-93633Y9720356D01*
X7504Y9652778D01*
X119882Y9606230D01*
X239182Y9582500D01*
X360818Y9582500D01*
X480118Y9606230D01*
X592496Y9652778D01*
X693633Y9720356D01*
X779644Y9806367D01*
X847222Y9907504D01*
X893770Y10019882D01*
X917500Y10139182D01*
X917500Y10260818D01*
X893770Y10380118D01*
X847222Y10492496D01*
X779644Y10593633D01*
X712459Y10660818D01*
X5182500Y10660818D01*
X5182500Y10539182D01*
X5206230Y10419882D01*
X5252778Y10307504D01*
X5320356Y10206367D01*
X5406367Y10120356D01*
X5507504Y10052778D01*
X5619882Y10006230D01*
X5739182Y9982500D01*
X5860818Y9982500D01*
X5980118Y10006230D01*
X6092496Y10052778D01*
X6193633Y10120356D01*
X6279644Y10206367D01*
X6347222Y10307504D01*
X6393770Y10419882D01*
X6417500Y10539182D01*
X6417500Y10660818D01*
X6393770Y10780118D01*
X6347222Y10892496D01*
X6279644Y10993633D01*
X6193633Y11079644D01*
X6092496Y11147222D01*
X5980118Y11193770D01*
X5860818Y11217500D01*
X5739182Y11217500D01*
X5619882Y11193770D01*
X5507504Y11147222D01*
X5406367Y11079644D01*
X5320356Y10993633D01*
X5252778Y10892496D01*
X5206230Y10780118D01*
X5182500Y10660818D01*
X712459Y10660818D01*
X693633Y10679644D01*
X592496Y10747222D01*
X480118Y10793770D01*
X360818Y10817500D01*
X239182Y10817500D01*
X119882Y10793770D01*
X7504Y10747222D01*
X-93633Y10679644D01*
X-179644Y10593633D01*
X-247222Y10492496D01*
X-293770Y10380118D01*
X-317500Y10260818D01*
X-3783973Y10260818D01*
X-3752778Y10307504D01*
X-3706230Y10419882D01*
X-3682500Y10539182D01*
X-3682500Y10660818D01*
X-3706230Y10780118D01*
X-3752778Y10892496D01*
X-3820356Y10993633D01*
X-3906367Y11079644D01*
X-4007504Y11147222D01*
X-4119882Y11193770D01*
X-4239182Y11217500D01*
X-4360818Y11217500D01*
X-4480118Y11193770D01*
X-4592496Y11147222D01*
X-4693633Y11079644D01*
X-4779644Y10993633D01*
X-4847222Y10892496D01*
X-4893770Y10780118D01*
X-4917500Y10660818D01*
X-25132500Y10660818D01*
X-25132500Y12360818D01*
X-2817500Y12360818D01*
X-2817500Y12239182D01*
X-2793770Y12119882D01*
X-2747222Y12007504D01*
X-2679644Y11906367D01*
X-2673277Y11900000D01*
X-2679644Y11893633D01*
X-2747222Y11792496D01*
X-2793770Y11680118D01*
X-2817500Y11560818D01*
X-2817500Y11439182D01*
X-2793770Y11319882D01*
X-2747222Y11207504D01*
X-2679644Y11106367D01*
X-2593633Y11020356D01*
X-2492496Y10952778D01*
X-2380118Y10906230D01*
X-2260818Y10882500D01*
X-2139182Y10882500D01*
X-2019882Y10906230D01*
X-1907504Y10952778D01*
X-1806367Y11020356D01*
X-1720356Y11106367D01*
X-1652778Y11207504D01*
X-1606230Y11319882D01*
X-1582500Y11439182D01*
X-1582500Y11560818D01*
X-1606230Y11680118D01*
X-1652778Y11792496D01*
X-1720356Y11893633D01*
X-1726723Y11900000D01*
X-1720356Y11906367D01*
X-1652778Y12007504D01*
X-1606230Y12119882D01*
X-1582500Y12239182D01*
X-1582500Y12360818D01*
X-1606230Y12480118D01*
X-1652778Y12592496D01*
X-1698429Y12660818D01*
X-117500Y12660818D01*
X-117500Y12539182D01*
X-93770Y12419882D01*
X-47222Y12307504D01*
X20356Y12206367D01*
X106367Y12120356D01*
X207504Y12052778D01*
X319882Y12006230D01*
X439182Y11982500D01*
X560818Y11982500D01*
X680118Y12006230D01*
X792496Y12052778D01*
X893633Y12120356D01*
X927845Y12154568D01*
X8476250Y12154568D01*
X8476250Y12032932D01*
X8499980Y11913632D01*
X8546528Y11801254D01*
X8614106Y11700117D01*
X8700117Y11614106D01*
X8801254Y11546528D01*
X8913632Y11499980D01*
X9032932Y11476250D01*
X9154568Y11476250D01*
X9273868Y11499980D01*
X9386246Y11546528D01*
X9487383Y11614106D01*
X9573394Y11700117D01*
X9640972Y11801254D01*
X9687520Y11913632D01*
X9711250Y12032932D01*
X9711250Y12154568D01*
X9690116Y12260818D01*
X13682500Y12260818D01*
X13682500Y12139182D01*
X13706230Y12019882D01*
X13752778Y11907504D01*
X13820356Y11806367D01*
X13906367Y11720356D01*
X14007504Y11652778D01*
X14119882Y11606230D01*
X14239182Y11582500D01*
X14360818Y11582500D01*
X14480118Y11606230D01*
X14592496Y11652778D01*
X14693633Y11720356D01*
X14779644Y11806367D01*
X14847222Y11907504D01*
X14893770Y12019882D01*
X14917500Y12139182D01*
X14917500Y12260818D01*
X14893770Y12380118D01*
X14847222Y12492496D01*
X14779644Y12593633D01*
X14693633Y12679644D01*
X14592496Y12747222D01*
X14480118Y12793770D01*
X14360818Y12817500D01*
X14239182Y12817500D01*
X14119882Y12793770D01*
X14007504Y12747222D01*
X13906367Y12679644D01*
X13820356Y12593633D01*
X13752778Y12492496D01*
X13706230Y12380118D01*
X13682500Y12260818D01*
X9690116Y12260818D01*
X9687520Y12273868D01*
X9640972Y12386246D01*
X9573394Y12487383D01*
X9487383Y12573394D01*
X9386246Y12640972D01*
X9273868Y12687520D01*
X9154568Y12711250D01*
X9032932Y12711250D01*
X8913632Y12687520D01*
X8801254Y12640972D01*
X8700117Y12573394D01*
X8614106Y12487383D01*
X8546528Y12386246D01*
X8499980Y12273868D01*
X8476250Y12154568D01*
X927845Y12154568D01*
X979644Y12206367D01*
X1047222Y12307504D01*
X1093770Y12419882D01*
X1117500Y12539182D01*
X1117500Y12660818D01*
X1093770Y12780118D01*
X1047222Y12892496D01*
X979644Y12993633D01*
X893633Y13079644D01*
X792496Y13147222D01*
X759673Y13160818D01*
X11082500Y13160818D01*
X11082500Y13039182D01*
X11106230Y12919882D01*
X11152778Y12807504D01*
X11220356Y12706367D01*
X11306367Y12620356D01*
X11407504Y12552778D01*
X11519882Y12506230D01*
X11639182Y12482500D01*
X11760818Y12482500D01*
X11880118Y12506230D01*
X11992496Y12552778D01*
X12093633Y12620356D01*
X12179644Y12706367D01*
X12195951Y12730772D01*
X12206367Y12720356D01*
X12307504Y12652778D01*
X12419882Y12606230D01*
X12539182Y12582500D01*
X12660818Y12582500D01*
X12780118Y12606230D01*
X12892496Y12652778D01*
X12993633Y12720356D01*
X13079644Y12806367D01*
X13147222Y12907504D01*
X13193770Y13019882D01*
X13217500Y13139182D01*
X13217500Y13260818D01*
X13193770Y13380118D01*
X13147222Y13492496D01*
X13079644Y13593633D01*
X12993633Y13679644D01*
X12892496Y13747222D01*
X12780118Y13793770D01*
X12660818Y13817500D01*
X12539182Y13817500D01*
X12419882Y13793770D01*
X12307504Y13747222D01*
X12206367Y13679644D01*
X12120356Y13593633D01*
X12104049Y13569228D01*
X12093633Y13579644D01*
X11992496Y13647222D01*
X11880118Y13693770D01*
X11760818Y13717500D01*
X11639182Y13717500D01*
X11519882Y13693770D01*
X11407504Y13647222D01*
X11306367Y13579644D01*
X11220356Y13493633D01*
X11152778Y13392496D01*
X11106230Y13280118D01*
X11082500Y13160818D01*
X759673Y13160818D01*
X680118Y13193770D01*
X560818Y13217500D01*
X439182Y13217500D01*
X319882Y13193770D01*
X207504Y13147222D01*
X106367Y13079644D01*
X20356Y12993633D01*
X-47222Y12892496D01*
X-93770Y12780118D01*
X-117500Y12660818D01*
X-1698429Y12660818D01*
X-1720356Y12693633D01*
X-1806367Y12779644D01*
X-1907504Y12847222D01*
X-2019882Y12893770D01*
X-2139182Y12917500D01*
X-2260818Y12917500D01*
X-2380118Y12893770D01*
X-2492496Y12847222D01*
X-2593633Y12779644D01*
X-2679644Y12693633D01*
X-2747222Y12592496D01*
X-2793770Y12480118D01*
X-2817500Y12360818D01*
X-25132500Y12360818D01*
X-25132500Y14960818D01*
X-21817500Y14960818D01*
X-21817500Y14839182D01*
X-21793770Y14719882D01*
X-21747222Y14607504D01*
X-21679644Y14506367D01*
X-21593633Y14420356D01*
X-21492496Y14352778D01*
X-21380118Y14306230D01*
X-21260818Y14282500D01*
X-21139182Y14282500D01*
X-21019882Y14306230D01*
X-20907504Y14352778D01*
X-20806367Y14420356D01*
X-20720356Y14506367D01*
X-20652778Y14607504D01*
X-20630695Y14660818D01*
X-10217500Y14660818D01*
X-10217500Y14539182D01*
X-10193770Y14419882D01*
X-10147222Y14307504D01*
X-10079644Y14206367D01*
X-9993633Y14120356D01*
X-9892496Y14052778D01*
X-9780118Y14006230D01*
X-9660818Y13982500D01*
X-9539182Y13982500D01*
X-9419882Y14006230D01*
X-9307504Y14052778D01*
X-9206367Y14120356D01*
X-9120356Y14206367D01*
X-9052778Y14307504D01*
X-9006230Y14419882D01*
X-8982500Y14539182D01*
X-8982500Y14660818D01*
X-9006230Y14780118D01*
X-9052778Y14892496D01*
X-9098429Y14960818D01*
X-8717500Y14960818D01*
X-8717500Y14839182D01*
X-8693770Y14719882D01*
X-8647222Y14607504D01*
X-8579644Y14506367D01*
X-8493633Y14420356D01*
X-8392496Y14352778D01*
X-8280118Y14306230D01*
X-8160818Y14282500D01*
X-8039182Y14282500D01*
X-7919882Y14306230D01*
X-7807504Y14352778D01*
X-7706367Y14420356D01*
X-7620356Y14506367D01*
X-7552778Y14607504D01*
X-7530695Y14660818D01*
X-3217500Y14660818D01*
X-3217500Y14539182D01*
X-3193770Y14419882D01*
X-3147222Y14307504D01*
X-3079644Y14206367D01*
X-2993633Y14120356D01*
X-2892496Y14052778D01*
X-2780118Y14006230D01*
X-2660818Y13982500D01*
X-2539182Y13982500D01*
X-2419882Y14006230D01*
X-2307504Y14052778D01*
X-2206367Y14120356D01*
X-2120356Y14206367D01*
X-2052778Y14307504D01*
X-2006230Y14419882D01*
X-1982500Y14539182D01*
X-1982500Y14660818D01*
X-2006230Y14780118D01*
X-2052778Y14892496D01*
X-2120356Y14993633D01*
X-2206367Y15079644D01*
X-2307504Y15147222D01*
X-2419882Y15193770D01*
X-2539182Y15217500D01*
X-2660818Y15217500D01*
X-2780118Y15193770D01*
X-2892496Y15147222D01*
X-2993633Y15079644D01*
X-3079644Y14993633D01*
X-3147222Y14892496D01*
X-3193770Y14780118D01*
X-3217500Y14660818D01*
X-7530695Y14660818D01*
X-7506230Y14719882D01*
X-7482500Y14839182D01*
X-7482500Y14960818D01*
X-7506230Y15080118D01*
X-7552778Y15192496D01*
X-7620356Y15293633D01*
X-7706367Y15379644D01*
X-7807504Y15447222D01*
X-7919882Y15493770D01*
X-8039182Y15517500D01*
X-8160818Y15517500D01*
X-8280118Y15493770D01*
X-8392496Y15447222D01*
X-8493633Y15379644D01*
X-8579644Y15293633D01*
X-8647222Y15192496D01*
X-8693770Y15080118D01*
X-8717500Y14960818D01*
X-9098429Y14960818D01*
X-9120356Y14993633D01*
X-9206367Y15079644D01*
X-9307504Y15147222D01*
X-9419882Y15193770D01*
X-9539182Y15217500D01*
X-9660818Y15217500D01*
X-9780118Y15193770D01*
X-9892496Y15147222D01*
X-9993633Y15079644D01*
X-10079644Y14993633D01*
X-10147222Y14892496D01*
X-10193770Y14780118D01*
X-10217500Y14660818D01*
X-20630695Y14660818D01*
X-20606230Y14719882D01*
X-20582500Y14839182D01*
X-20582500Y14960818D01*
X-20606230Y15080118D01*
X-20652778Y15192496D01*
X-20720356Y15293633D01*
X-20806367Y15379644D01*
X-20907504Y15447222D01*
X-21019882Y15493770D01*
X-21139182Y15517500D01*
X-21260818Y15517500D01*
X-21380118Y15493770D01*
X-21492496Y15447222D01*
X-21593633Y15379644D01*
X-21679644Y15293633D01*
X-21747222Y15192496D01*
X-21793770Y15080118D01*
X-21817500Y14960818D01*
X-25132500Y14960818D01*
X-25132500Y16186500D01*
X-576993Y16186500D01*
X-576394Y16186008D01*
G04 #@! TA.AperFunction,Conductor*
D23*
G36*
X-576394Y16186008D02*
G01*
X-521502Y16156668D01*
X-461941Y16138601D01*
X-400000Y16132500D01*
X15508043Y16132500D01*
X16237254Y15317500D01*
X16139182Y15317500D01*
X16019882Y15293770D01*
X15907504Y15247222D01*
X15806367Y15179644D01*
X15720356Y15093633D01*
X15652778Y14992496D01*
X15606230Y14880118D01*
X15582500Y14760818D01*
X15582500Y14639182D01*
X15606230Y14519882D01*
X15652778Y14407504D01*
X15720356Y14306367D01*
X15776723Y14250000D01*
X15720356Y14193633D01*
X15700000Y14163168D01*
X15679644Y14193633D01*
X15593633Y14279644D01*
X15492496Y14347222D01*
X15380118Y14393770D01*
X15260818Y14417500D01*
X15139182Y14417500D01*
X15107480Y14411194D01*
X15093770Y14480118D01*
X15047222Y14592496D01*
X14979644Y14693633D01*
X14893633Y14779644D01*
X14792496Y14847222D01*
X14680118Y14893770D01*
X14560818Y14917500D01*
X14439182Y14917500D01*
X14319882Y14893770D01*
X14207504Y14847222D01*
X14106367Y14779644D01*
X14020356Y14693633D01*
X13952778Y14592496D01*
X13906230Y14480118D01*
X13882500Y14360818D01*
X13882500Y14239182D01*
X13906230Y14119882D01*
X13952778Y14007504D01*
X14020356Y13906367D01*
X14106367Y13820356D01*
X14207504Y13752778D01*
X14319882Y13706230D01*
X14439182Y13682500D01*
X14560818Y13682500D01*
X14592520Y13688806D01*
X14606230Y13619882D01*
X14652778Y13507504D01*
X14720356Y13406367D01*
X14806367Y13320356D01*
X14907504Y13252778D01*
X15019882Y13206230D01*
X15139182Y13182500D01*
X15260818Y13182500D01*
X15380118Y13206230D01*
X15492496Y13252778D01*
X15593633Y13320356D01*
X15679644Y13406367D01*
X15700000Y13436832D01*
X15720356Y13406367D01*
X15806367Y13320356D01*
X15907504Y13252778D01*
X16019882Y13206230D01*
X16139182Y13182500D01*
X16260818Y13182500D01*
X16380118Y13206230D01*
X16492496Y13252778D01*
X16593633Y13320356D01*
X16679644Y13406367D01*
X16747222Y13507504D01*
X16793770Y13619882D01*
X16817500Y13739182D01*
X16817500Y13860818D01*
X16793770Y13980118D01*
X16747222Y14092496D01*
X16679644Y14193633D01*
X16623277Y14250000D01*
X16679644Y14306367D01*
X16747222Y14407504D01*
X16793770Y14519882D01*
X16817500Y14639182D01*
X16817500Y14668989D01*
X17031559Y14429747D01*
X16983526Y8233498D01*
X9982287Y1304811D01*
X-1999664Y1317500D01*
X-2061941Y1311399D01*
X-2121502Y1293332D01*
X-2176394Y1263992D01*
X-2224506Y1224506D01*
X-2263992Y1176394D01*
X-2293332Y1121502D01*
X-2311399Y1061941D01*
X-2317500Y1000000D01*
X-2317500Y-807217D01*
X-2319882Y-806230D01*
X-2439182Y-782500D01*
X-2560818Y-782500D01*
X-2680118Y-806230D01*
X-2792496Y-852778D01*
X-2893633Y-920356D01*
X-2979644Y-1006367D01*
X-3047222Y-1107504D01*
X-3093770Y-1219882D01*
X-3117500Y-1339182D01*
X-3117500Y-1460818D01*
X-3093770Y-1580118D01*
X-3047222Y-1692496D01*
X-2979644Y-1793633D01*
X-2893633Y-1879644D01*
X-2792496Y-1947222D01*
X-2680118Y-1993770D01*
X-2560818Y-2017500D01*
X-2439182Y-2017500D01*
X-2319882Y-1993770D01*
X-2317500Y-1992783D01*
X-2317500Y-11000000D01*
X-2311399Y-11061941D01*
X-2293332Y-11121502D01*
X-2263992Y-11176394D01*
X-2224506Y-11224506D01*
X-2176394Y-11263992D01*
X-2121502Y-11293332D01*
X-2061941Y-11311399D01*
X-2000000Y-11317500D01*
X3072500Y-11317500D01*
X3072500Y-11449310D01*
X3134660Y-11761807D01*
X3256590Y-12056173D01*
X3433606Y-12321096D01*
X3658904Y-12546394D01*
X3923827Y-12723410D01*
X4218193Y-12845340D01*
X4530690Y-12907500D01*
X4849310Y-12907500D01*
X5161807Y-12845340D01*
X5456173Y-12723410D01*
X5721096Y-12546394D01*
X5946394Y-12321096D01*
X6123410Y-12056173D01*
X6245340Y-11761807D01*
X6307500Y-11449310D01*
X6307500Y-11317500D01*
X18622500Y-11317500D01*
X18622500Y-11449310D01*
X18684660Y-11761807D01*
X18806590Y-12056173D01*
X18983606Y-12321096D01*
X19208904Y-12546394D01*
X19473827Y-12723410D01*
X19768193Y-12845340D01*
X20080690Y-12907500D01*
X20399310Y-12907500D01*
X20711807Y-12845340D01*
X21006173Y-12723410D01*
X21271096Y-12546394D01*
X21496394Y-12321096D01*
X21673410Y-12056173D01*
X21795340Y-11761807D01*
X21857500Y-11449310D01*
X21857500Y-11317500D01*
X25132501Y-11317500D01*
X25132501Y-19033623D01*
X25058639Y-19861231D01*
X24843726Y-20646823D01*
X24493093Y-21381939D01*
X24017824Y-22043347D01*
X23432944Y-22610135D01*
X22756932Y-23064396D01*
X22011165Y-23391765D01*
X21216385Y-23582574D01*
X20536525Y-23632500D01*
X-5823656Y-23632500D01*
X-5754091Y-23575409D01*
X-5639436Y-23435702D01*
X-5554239Y-23276311D01*
X-5501776Y-23103361D01*
X-5488500Y-22968569D01*
X-5488500Y-22178431D01*
X-5501776Y-22043639D01*
X-5554239Y-21870689D01*
X-5639436Y-21711298D01*
X-5754091Y-21571591D01*
X-5893799Y-21456936D01*
X-6053190Y-21371739D01*
X-6226140Y-21319276D01*
X-6406000Y-21301561D01*
X-6585861Y-21319276D01*
X-6758811Y-21371739D01*
X-6918202Y-21456936D01*
X-7057909Y-21571591D01*
X-7172564Y-21711299D01*
X-7257761Y-21870690D01*
X-7310224Y-22043640D01*
X-7323500Y-22178432D01*
X-7323500Y-22968569D01*
X-7310224Y-23103361D01*
X-7257760Y-23276311D01*
X-7172563Y-23435702D01*
X-7057908Y-23575409D01*
X-6988343Y-23632500D01*
X-12823657Y-23632500D01*
X-12754091Y-23575409D01*
X-12639436Y-23435702D01*
X-12554239Y-23276311D01*
X-12501776Y-23103361D01*
X-12488500Y-22968569D01*
X-12488500Y-22178431D01*
X-12501776Y-22043639D01*
X-12554239Y-21870689D01*
X-12639436Y-21711298D01*
X-12754091Y-21571591D01*
X-12893798Y-21456936D01*
X-13053189Y-21371739D01*
X-13226139Y-21319276D01*
X-13406000Y-21301561D01*
X-13585860Y-21319276D01*
X-13758810Y-21371739D01*
X-13918201Y-21456936D01*
X-14057908Y-21571591D01*
X-14172563Y-21711298D01*
X-14257760Y-21870689D01*
X-14310224Y-22043639D01*
X-14323500Y-22178431D01*
X-14323500Y-22968568D01*
X-14310224Y-23103360D01*
X-14257761Y-23276310D01*
X-14172564Y-23435701D01*
X-14057909Y-23575409D01*
X-13988344Y-23632500D01*
X-20533634Y-23632500D01*
X-21361231Y-23558639D01*
X-22146823Y-23343726D01*
X-22881939Y-22993093D01*
X-23543347Y-22517824D01*
X-24110135Y-21932944D01*
X-24564396Y-21256932D01*
X-24891765Y-20511165D01*
X-25082574Y-19716385D01*
X-25132500Y-19036525D01*
X-25132500Y-18802048D01*
X-23067500Y-18802048D01*
X-23067500Y-19297952D01*
X-22970754Y-19784328D01*
X-22780979Y-20242483D01*
X-22505470Y-20654813D01*
X-22154813Y-21005470D01*
X-21742483Y-21280979D01*
X-21284328Y-21470754D01*
X-20797952Y-21567500D01*
X-20302048Y-21567500D01*
X-19815672Y-21470754D01*
X-19357517Y-21280979D01*
X-18945187Y-21005470D01*
X-18854899Y-20915182D01*
X-15751500Y-20915182D01*
X-15751500Y-21036818D01*
X-15727770Y-21156118D01*
X-15681222Y-21268496D01*
X-15613644Y-21369633D01*
X-15527633Y-21455644D01*
X-15426496Y-21523222D01*
X-15314118Y-21569770D01*
X-15194818Y-21593500D01*
X-15073182Y-21593500D01*
X-14953882Y-21569770D01*
X-14841504Y-21523222D01*
X-14740367Y-21455644D01*
X-14654356Y-21369633D01*
X-14586778Y-21268496D01*
X-14540230Y-21156118D01*
X-14516500Y-21036818D01*
X-14516500Y-20915182D01*
X-14540230Y-20795882D01*
X-14586778Y-20683504D01*
X-14654356Y-20582367D01*
X-14740367Y-20496356D01*
X-14841504Y-20428778D01*
X-14953882Y-20382230D01*
X-15073182Y-20358500D01*
X-15194818Y-20358500D01*
X-15314118Y-20382230D01*
X-15426496Y-20428778D01*
X-15527633Y-20496356D01*
X-15613644Y-20582367D01*
X-15681222Y-20683504D01*
X-15727770Y-20795882D01*
X-15751500Y-20915182D01*
X-18854899Y-20915182D01*
X-18594530Y-20654813D01*
X-18319021Y-20242483D01*
X-18129246Y-19784328D01*
X-18126560Y-19770823D01*
X-13448500Y-19770823D01*
X-13448500Y-19976177D01*
X-13408437Y-20177586D01*
X-13329851Y-20367309D01*
X-13215762Y-20538055D01*
X-13070555Y-20683262D01*
X-12899809Y-20797351D01*
X-12710086Y-20875937D01*
X-12508677Y-20916000D01*
X-12303323Y-20916000D01*
X-12101914Y-20875937D01*
X-11912191Y-20797351D01*
X-11741445Y-20683262D01*
X-11596238Y-20538055D01*
X-11482149Y-20367309D01*
X-11403563Y-20177586D01*
X-11363500Y-19976177D01*
X-11363500Y-19770823D01*
X-8448500Y-19770823D01*
X-8448500Y-19976177D01*
X-8408437Y-20177586D01*
X-8329851Y-20367309D01*
X-8215762Y-20538055D01*
X-8070555Y-20683262D01*
X-7899809Y-20797351D01*
X-7710086Y-20875937D01*
X-7508677Y-20916000D01*
X-7303323Y-20916000D01*
X-7299211Y-20915182D01*
X-6057500Y-20915182D01*
X-6057500Y-21036818D01*
X-6033770Y-21156118D01*
X-5987222Y-21268496D01*
X-5919644Y-21369633D01*
X-5833633Y-21455644D01*
X-5732496Y-21523222D01*
X-5620118Y-21569770D01*
X-5500818Y-21593500D01*
X-5379182Y-21593500D01*
X-5259882Y-21569770D01*
X-5147504Y-21523222D01*
X-5046367Y-21455644D01*
X-4960356Y-21369633D01*
X-4892778Y-21268496D01*
X-4846230Y-21156118D01*
X-4822500Y-21036818D01*
X-4822500Y-20915182D01*
X-4846230Y-20795882D01*
X-4892778Y-20683504D01*
X-4960356Y-20582367D01*
X-5046367Y-20496356D01*
X-5147504Y-20428778D01*
X-5259882Y-20382230D01*
X-5379182Y-20358500D01*
X-5500818Y-20358500D01*
X-5620118Y-20382230D01*
X-5732496Y-20428778D01*
X-5833633Y-20496356D01*
X-5919644Y-20582367D01*
X-5987222Y-20683504D01*
X-6033770Y-20795882D01*
X-6057500Y-20915182D01*
X-7299211Y-20915182D01*
X-7101914Y-20875937D01*
X-6912191Y-20797351D01*
X-6741445Y-20683262D01*
X-6596238Y-20538055D01*
X-6482149Y-20367309D01*
X-6403563Y-20177586D01*
X-6363500Y-19976177D01*
X-6363500Y-19770823D01*
X-6403563Y-19569414D01*
X-6482149Y-19379691D01*
X-6596238Y-19208945D01*
X-6689528Y-19115655D01*
X4877500Y-19115655D01*
X4877500Y-19364345D01*
X4926017Y-19608258D01*
X5021187Y-19838018D01*
X5159352Y-20044797D01*
X5335203Y-20220648D01*
X5541982Y-20358813D01*
X5771742Y-20453983D01*
X6015655Y-20502500D01*
X6264345Y-20502500D01*
X6508258Y-20453983D01*
X6738018Y-20358813D01*
X6944797Y-20220648D01*
X7120648Y-20044797D01*
X7258813Y-19838018D01*
X7353983Y-19608258D01*
X7402500Y-19364345D01*
X7402500Y-19115655D01*
X14987500Y-19115655D01*
X14987500Y-19364345D01*
X15036017Y-19608258D01*
X15131187Y-19838018D01*
X15269352Y-20044797D01*
X15445203Y-20220648D01*
X15651982Y-20358813D01*
X15881742Y-20453983D01*
X16125655Y-20502500D01*
X16374345Y-20502500D01*
X16618258Y-20453983D01*
X16848018Y-20358813D01*
X17054797Y-20220648D01*
X17230648Y-20044797D01*
X17368813Y-19838018D01*
X17463983Y-19608258D01*
X17512500Y-19364345D01*
X17512500Y-19115655D01*
X17463983Y-18871742D01*
X17368813Y-18641982D01*
X17230648Y-18435203D01*
X17054797Y-18259352D01*
X16848018Y-18121187D01*
X16618258Y-18026017D01*
X16374345Y-17977500D01*
X16125655Y-17977500D01*
X15881742Y-18026017D01*
X15651982Y-18121187D01*
X15445203Y-18259352D01*
X15269352Y-18435203D01*
X15131187Y-18641982D01*
X15036017Y-18871742D01*
X14987500Y-19115655D01*
X7402500Y-19115655D01*
X7353983Y-18871742D01*
X7258813Y-18641982D01*
X7120648Y-18435203D01*
X6944797Y-18259352D01*
X6738018Y-18121187D01*
X6508258Y-18026017D01*
X6264345Y-17977500D01*
X6015655Y-17977500D01*
X5771742Y-18026017D01*
X5541982Y-18121187D01*
X5335203Y-18259352D01*
X5159352Y-18435203D01*
X5021187Y-18641982D01*
X4926017Y-18871742D01*
X4877500Y-19115655D01*
X-6689528Y-19115655D01*
X-6741445Y-19063738D01*
X-6912191Y-18949649D01*
X-7101914Y-18871063D01*
X-7303323Y-18831000D01*
X-7508677Y-18831000D01*
X-7710086Y-18871063D01*
X-7899809Y-18949649D01*
X-8070555Y-19063738D01*
X-8215762Y-19208945D01*
X-8329851Y-19379691D01*
X-8408437Y-19569414D01*
X-8448500Y-19770823D01*
X-11363500Y-19770823D01*
X-11403563Y-19569414D01*
X-11482149Y-19379691D01*
X-11596238Y-19208945D01*
X-11741445Y-19063738D01*
X-11912191Y-18949649D01*
X-12101914Y-18871063D01*
X-12303323Y-18831000D01*
X-12508677Y-18831000D01*
X-12710086Y-18871063D01*
X-12899809Y-18949649D01*
X-13070555Y-19063738D01*
X-13215762Y-19208945D01*
X-13329851Y-19379691D01*
X-13408437Y-19569414D01*
X-13448500Y-19770823D01*
X-18126560Y-19770823D01*
X-18032500Y-19297952D01*
X-18032500Y-18802048D01*
X-18129246Y-18315672D01*
X-18319021Y-17857517D01*
X-18594530Y-17445187D01*
X-18760535Y-17279182D01*
X-11217500Y-17279182D01*
X-11217500Y-17400818D01*
X-11193770Y-17520118D01*
X-11147222Y-17632496D01*
X-11079644Y-17733633D01*
X-10993633Y-17819644D01*
X-10892496Y-17887222D01*
X-10780118Y-17933770D01*
X-10660818Y-17957500D01*
X-10555629Y-17957500D01*
X-10567500Y-18017182D01*
X-10567500Y-18138818D01*
X-10543770Y-18258118D01*
X-10497222Y-18370496D01*
X-10429644Y-18471633D01*
X-10343633Y-18557644D01*
X-10242496Y-18625222D01*
X-10130118Y-18671770D01*
X-10010818Y-18695500D01*
X-9889182Y-18695500D01*
X-9769882Y-18671770D01*
X-9657504Y-18625222D01*
X-9556367Y-18557644D01*
X-9470356Y-18471633D01*
X-9402778Y-18370496D01*
X-9356230Y-18258118D01*
X-9332500Y-18138818D01*
X-9332500Y-18017182D01*
X-9341252Y-17973182D01*
X-8999500Y-17973182D01*
X-8999500Y-18094818D01*
X-8975770Y-18214118D01*
X-8929222Y-18326496D01*
X-8861644Y-18427633D01*
X-8775633Y-18513644D01*
X-8674496Y-18581222D01*
X-8562118Y-18627770D01*
X-8442818Y-18651500D01*
X-8321182Y-18651500D01*
X-8201882Y-18627770D01*
X-8089504Y-18581222D01*
X-7988367Y-18513644D01*
X-7902356Y-18427633D01*
X-7834778Y-18326496D01*
X-7788230Y-18214118D01*
X-7765254Y-18098607D01*
X-7692496Y-18147222D01*
X-7580118Y-18193770D01*
X-7460818Y-18217500D01*
X-7339182Y-18217500D01*
X-7219882Y-18193770D01*
X-7107504Y-18147222D01*
X-7006367Y-18079644D01*
X-6920356Y-17993633D01*
X-6852778Y-17892496D01*
X-6806230Y-17780118D01*
X-6782500Y-17660818D01*
X-6782500Y-17539182D01*
X-6117500Y-17539182D01*
X-6117500Y-17660818D01*
X-6093770Y-17780118D01*
X-6047222Y-17892496D01*
X-5979644Y-17993633D01*
X-5893633Y-18079644D01*
X-5792496Y-18147222D01*
X-5680118Y-18193770D01*
X-5560818Y-18217500D01*
X-5439182Y-18217500D01*
X-5319882Y-18193770D01*
X-5207504Y-18147222D01*
X-5106367Y-18079644D01*
X-5020356Y-17993633D01*
X-4952778Y-17892496D01*
X-4906230Y-17780118D01*
X-4898088Y-17739182D01*
X1382500Y-17739182D01*
X1382500Y-17860818D01*
X1406230Y-17980118D01*
X1452778Y-18092496D01*
X1520356Y-18193633D01*
X1606367Y-18279644D01*
X1707504Y-18347222D01*
X1819882Y-18393770D01*
X1939182Y-18417500D01*
X2060818Y-18417500D01*
X2180118Y-18393770D01*
X2292496Y-18347222D01*
X2393633Y-18279644D01*
X2479644Y-18193633D01*
X2547222Y-18092496D01*
X2593770Y-17980118D01*
X2617500Y-17860818D01*
X2617500Y-17739182D01*
X2593770Y-17619882D01*
X2583735Y-17595655D01*
X7417500Y-17595655D01*
X7417500Y-17844345D01*
X7466017Y-18088258D01*
X7561187Y-18318018D01*
X7699352Y-18524797D01*
X7875203Y-18700648D01*
X8081982Y-18838813D01*
X8311742Y-18933983D01*
X8555655Y-18982500D01*
X8804345Y-18982500D01*
X9048258Y-18933983D01*
X9278018Y-18838813D01*
X9484797Y-18700648D01*
X9660648Y-18524797D01*
X9798813Y-18318018D01*
X9893983Y-18088258D01*
X9942500Y-17844345D01*
X9942500Y-17595655D01*
X17527500Y-17595655D01*
X17527500Y-17844345D01*
X17576017Y-18088258D01*
X17671187Y-18318018D01*
X17809352Y-18524797D01*
X17985203Y-18700648D01*
X18191982Y-18838813D01*
X18421742Y-18933983D01*
X18665655Y-18982500D01*
X18914345Y-18982500D01*
X19158258Y-18933983D01*
X19388018Y-18838813D01*
X19594797Y-18700648D01*
X19770648Y-18524797D01*
X19908813Y-18318018D01*
X20003983Y-18088258D01*
X20052500Y-17844345D01*
X20052500Y-17595655D01*
X20003983Y-17351742D01*
X19908813Y-17121982D01*
X19770648Y-16915203D01*
X19594797Y-16739352D01*
X19388018Y-16601187D01*
X19158258Y-16506017D01*
X18914345Y-16457500D01*
X18665655Y-16457500D01*
X18421742Y-16506017D01*
X18191982Y-16601187D01*
X17985203Y-16739352D01*
X17809352Y-16915203D01*
X17671187Y-17121982D01*
X17576017Y-17351742D01*
X17527500Y-17595655D01*
X9942500Y-17595655D01*
X9893983Y-17351742D01*
X9798813Y-17121982D01*
X9660648Y-16915203D01*
X9484797Y-16739352D01*
X9278018Y-16601187D01*
X9048258Y-16506017D01*
X8804345Y-16457500D01*
X8555655Y-16457500D01*
X8311742Y-16506017D01*
X8081982Y-16601187D01*
X7875203Y-16739352D01*
X7699352Y-16915203D01*
X7561187Y-17121982D01*
X7466017Y-17351742D01*
X7417500Y-17595655D01*
X2583735Y-17595655D01*
X2547222Y-17507504D01*
X2479644Y-17406367D01*
X2393633Y-17320356D01*
X2292496Y-17252778D01*
X2180118Y-17206230D01*
X2060818Y-17182500D01*
X1939182Y-17182500D01*
X1819882Y-17206230D01*
X1707504Y-17252778D01*
X1606367Y-17320356D01*
X1520356Y-17406367D01*
X1452778Y-17507504D01*
X1406230Y-17619882D01*
X1382500Y-17739182D01*
X-4898088Y-17739182D01*
X-4882500Y-17660818D01*
X-4882500Y-17539182D01*
X-4906230Y-17419882D01*
X-4952778Y-17307504D01*
X-5020356Y-17206367D01*
X-5106367Y-17120356D01*
X-5207504Y-17052778D01*
X-5319882Y-17006230D01*
X-5439182Y-16982500D01*
X-5560818Y-16982500D01*
X-5680118Y-17006230D01*
X-5792496Y-17052778D01*
X-5893633Y-17120356D01*
X-5979644Y-17206367D01*
X-6047222Y-17307504D01*
X-6093770Y-17419882D01*
X-6117500Y-17539182D01*
X-6782500Y-17539182D01*
X-6806230Y-17419882D01*
X-6852778Y-17307504D01*
X-6920356Y-17206367D01*
X-7006367Y-17120356D01*
X-7107504Y-17052778D01*
X-7219882Y-17006230D01*
X-7339182Y-16982500D01*
X-7460818Y-16982500D01*
X-7580118Y-17006230D01*
X-7692496Y-17052778D01*
X-7793633Y-17120356D01*
X-7879644Y-17206367D01*
X-7947222Y-17307504D01*
X-7993770Y-17419882D01*
X-8016746Y-17535393D01*
X-8089504Y-17486778D01*
X-8201882Y-17440230D01*
X-8321182Y-17416500D01*
X-8442818Y-17416500D01*
X-8562118Y-17440230D01*
X-8674496Y-17486778D01*
X-8775633Y-17554356D01*
X-8861644Y-17640367D01*
X-8929222Y-17741504D01*
X-8975770Y-17853882D01*
X-8999500Y-17973182D01*
X-9341252Y-17973182D01*
X-9356230Y-17897882D01*
X-9402778Y-17785504D01*
X-9470356Y-17684367D01*
X-9556367Y-17598356D01*
X-9657504Y-17530778D01*
X-9769882Y-17484230D01*
X-9889182Y-17460500D01*
X-9994371Y-17460500D01*
X-9982500Y-17400818D01*
X-9982500Y-17279182D01*
X-10006230Y-17159882D01*
X-10052778Y-17047504D01*
X-10120356Y-16946367D01*
X-10206367Y-16860356D01*
X-10307504Y-16792778D01*
X-10419882Y-16746230D01*
X-10539182Y-16722500D01*
X-10660818Y-16722500D01*
X-10780118Y-16746230D01*
X-10892496Y-16792778D01*
X-10993633Y-16860356D01*
X-11079644Y-16946367D01*
X-11147222Y-17047504D01*
X-11193770Y-17159882D01*
X-11217500Y-17279182D01*
X-18760535Y-17279182D01*
X-18945187Y-17094530D01*
X-19357517Y-16819021D01*
X-19815672Y-16629246D01*
X-20302048Y-16532500D01*
X-20797952Y-16532500D01*
X-21284328Y-16629246D01*
X-21742483Y-16819021D01*
X-22154813Y-17094530D01*
X-22505470Y-17445187D01*
X-22780979Y-17857517D01*
X-22970754Y-18315672D01*
X-23067500Y-18802048D01*
X-25132500Y-18802048D01*
X-25132500Y-14339182D01*
X682500Y-14339182D01*
X682500Y-14460818D01*
X706230Y-14580118D01*
X752778Y-14692496D01*
X820356Y-14793633D01*
X906367Y-14879644D01*
X1007504Y-14947222D01*
X1119882Y-14993770D01*
X1239182Y-15017500D01*
X1360818Y-15017500D01*
X1480118Y-14993770D01*
X1592496Y-14947222D01*
X1693633Y-14879644D01*
X1779644Y-14793633D01*
X1847222Y-14692496D01*
X1893770Y-14580118D01*
X1917500Y-14460818D01*
X1917500Y-14339182D01*
X1893770Y-14219882D01*
X1864278Y-14148680D01*
X4807500Y-14148680D01*
X4807500Y-14531320D01*
X4882149Y-14906606D01*
X5028579Y-15260119D01*
X5241162Y-15578272D01*
X5511728Y-15848838D01*
X5829881Y-16061421D01*
X6183394Y-16207851D01*
X6558680Y-16282500D01*
X6941320Y-16282500D01*
X7316606Y-16207851D01*
X7670119Y-16061421D01*
X7988272Y-15848838D01*
X8258838Y-15578272D01*
X8471421Y-15260119D01*
X8617851Y-14906606D01*
X8692500Y-14531320D01*
X8692500Y-14148680D01*
X16237500Y-14148680D01*
X16237500Y-14531320D01*
X16312149Y-14906606D01*
X16458579Y-15260119D01*
X16671162Y-15578272D01*
X16941728Y-15848838D01*
X17259881Y-16061421D01*
X17613394Y-16207851D01*
X17988680Y-16282500D01*
X18371320Y-16282500D01*
X18746606Y-16207851D01*
X19100119Y-16061421D01*
X19418272Y-15848838D01*
X19688838Y-15578272D01*
X19901421Y-15260119D01*
X20047851Y-14906606D01*
X20122500Y-14531320D01*
X20122500Y-14148680D01*
X20047851Y-13773394D01*
X19901421Y-13419881D01*
X19688838Y-13101728D01*
X19418272Y-12831162D01*
X19100119Y-12618579D01*
X18746606Y-12472149D01*
X18371320Y-12397500D01*
X17988680Y-12397500D01*
X17613394Y-12472149D01*
X17259881Y-12618579D01*
X16941728Y-12831162D01*
X16671162Y-13101728D01*
X16458579Y-13419881D01*
X16312149Y-13773394D01*
X16237500Y-14148680D01*
X8692500Y-14148680D01*
X8617851Y-13773394D01*
X8471421Y-13419881D01*
X8258838Y-13101728D01*
X7988272Y-12831162D01*
X7670119Y-12618579D01*
X7316606Y-12472149D01*
X6941320Y-12397500D01*
X6558680Y-12397500D01*
X6183394Y-12472149D01*
X5829881Y-12618579D01*
X5511728Y-12831162D01*
X5241162Y-13101728D01*
X5028579Y-13419881D01*
X4882149Y-13773394D01*
X4807500Y-14148680D01*
X1864278Y-14148680D01*
X1847222Y-14107504D01*
X1779644Y-14006367D01*
X1693633Y-13920356D01*
X1592496Y-13852778D01*
X1480118Y-13806230D01*
X1360818Y-13782500D01*
X1239182Y-13782500D01*
X1119882Y-13806230D01*
X1007504Y-13852778D01*
X906367Y-13920356D01*
X820356Y-14006367D01*
X752778Y-14107504D01*
X706230Y-14219882D01*
X682500Y-14339182D01*
X-25132500Y-14339182D01*
X-25132500Y-11182549D01*
X-23892500Y-11182549D01*
X-23892500Y-11417451D01*
X-23846673Y-11647839D01*
X-23756780Y-11864861D01*
X-23626275Y-12060174D01*
X-23460174Y-12226275D01*
X-23264861Y-12356780D01*
X-23047839Y-12446673D01*
X-22817451Y-12492500D01*
X-22582549Y-12492500D01*
X-22352161Y-12446673D01*
X-22276451Y-12415313D01*
X-21577500Y-12415313D01*
X-21577500Y-12684687D01*
X-21524948Y-12948885D01*
X-21421863Y-13197754D01*
X-21272207Y-13421731D01*
X-21081731Y-13612207D01*
X-20857754Y-13761863D01*
X-20608885Y-13864948D01*
X-20344687Y-13917500D01*
X-20075313Y-13917500D01*
X-19811115Y-13864948D01*
X-19562246Y-13761863D01*
X-19338269Y-13612207D01*
X-19147793Y-13421731D01*
X-18998137Y-13197754D01*
X-18977190Y-13147182D01*
X-13825500Y-13147182D01*
X-13825500Y-13268818D01*
X-13801770Y-13388118D01*
X-13755222Y-13500496D01*
X-13687644Y-13601633D01*
X-13601633Y-13687644D01*
X-13500496Y-13755222D01*
X-13388118Y-13801770D01*
X-13268818Y-13825500D01*
X-13147182Y-13825500D01*
X-13027882Y-13801770D01*
X-12915504Y-13755222D01*
X-12814367Y-13687644D01*
X-12728356Y-13601633D01*
X-12660778Y-13500496D01*
X-12614230Y-13388118D01*
X-12590500Y-13268818D01*
X-12590500Y-13147182D01*
X-12047500Y-13147182D01*
X-12047500Y-13268818D01*
X-12023770Y-13388118D01*
X-11977222Y-13500496D01*
X-11909644Y-13601633D01*
X-11823633Y-13687644D01*
X-11722496Y-13755222D01*
X-11610118Y-13801770D01*
X-11490818Y-13825500D01*
X-11369182Y-13825500D01*
X-11249882Y-13801770D01*
X-11137504Y-13755222D01*
X-11036367Y-13687644D01*
X-10950356Y-13601633D01*
X-10882778Y-13500496D01*
X-10836230Y-13388118D01*
X-10812500Y-13268818D01*
X-10812500Y-13147182D01*
X-10836230Y-13027882D01*
X-10882778Y-12915504D01*
X-10950356Y-12814367D01*
X-11036367Y-12728356D01*
X-11137504Y-12660778D01*
X-11249882Y-12614230D01*
X-11369182Y-12590500D01*
X-11490818Y-12590500D01*
X-11610118Y-12614230D01*
X-11722496Y-12660778D01*
X-11823633Y-12728356D01*
X-11909644Y-12814367D01*
X-11977222Y-12915504D01*
X-12023770Y-13027882D01*
X-12047500Y-13147182D01*
X-12590500Y-13147182D01*
X-12614230Y-13027882D01*
X-12660778Y-12915504D01*
X-12728356Y-12814367D01*
X-12814367Y-12728356D01*
X-12915504Y-12660778D01*
X-13027882Y-12614230D01*
X-13147182Y-12590500D01*
X-13268818Y-12590500D01*
X-13388118Y-12614230D01*
X-13500496Y-12660778D01*
X-13601633Y-12728356D01*
X-13687644Y-12814367D01*
X-13755222Y-12915504D01*
X-13801770Y-13027882D01*
X-13825500Y-13147182D01*
X-18977190Y-13147182D01*
X-18895052Y-12948885D01*
X-18842500Y-12684687D01*
X-18842500Y-12415313D01*
X-18848493Y-12385182D01*
X-17127500Y-12385182D01*
X-17127500Y-12506818D01*
X-17103770Y-12626118D01*
X-17057222Y-12738496D01*
X-16989644Y-12839633D01*
X-16903633Y-12925644D01*
X-16802496Y-12993222D01*
X-16690118Y-13039770D01*
X-16570818Y-13063500D01*
X-16449182Y-13063500D01*
X-16329882Y-13039770D01*
X-16217504Y-12993222D01*
X-16116367Y-12925644D01*
X-16030356Y-12839633D01*
X-15962778Y-12738496D01*
X-15916230Y-12626118D01*
X-15892500Y-12506818D01*
X-15892500Y-12385182D01*
X-15916230Y-12265882D01*
X-15962778Y-12153504D01*
X-16030356Y-12052367D01*
X-16116367Y-11966356D01*
X-16217504Y-11898778D01*
X-16269641Y-11877182D01*
X-12809500Y-11877182D01*
X-12809500Y-11998818D01*
X-12785770Y-12118118D01*
X-12739222Y-12230496D01*
X-12671644Y-12331633D01*
X-12585633Y-12417644D01*
X-12484496Y-12485222D01*
X-12372118Y-12531770D01*
X-12252818Y-12555500D01*
X-12131182Y-12555500D01*
X-12011882Y-12531770D01*
X-11899504Y-12485222D01*
X-11798367Y-12417644D01*
X-11712356Y-12331633D01*
X-11644778Y-12230496D01*
X-11598230Y-12118118D01*
X-11574500Y-11998818D01*
X-11574500Y-11877182D01*
X-11595278Y-11772722D01*
X-11490818Y-11793500D01*
X-11369182Y-11793500D01*
X-11249882Y-11769770D01*
X-11137504Y-11723222D01*
X-11036367Y-11655644D01*
X-10950356Y-11569633D01*
X-10882778Y-11468496D01*
X-10836230Y-11356118D01*
X-10812500Y-11236818D01*
X-10812500Y-11115182D01*
X-10836230Y-10995882D01*
X-10855987Y-10948182D01*
X-8999500Y-10948182D01*
X-8999500Y-11069818D01*
X-8975770Y-11189118D01*
X-8929222Y-11301496D01*
X-8861644Y-11402633D01*
X-8775633Y-11488644D01*
X-8674496Y-11556222D01*
X-8562118Y-11602770D01*
X-8442818Y-11626500D01*
X-8321182Y-11626500D01*
X-8234740Y-11609306D01*
X-8237500Y-11623182D01*
X-8237500Y-11744818D01*
X-8213770Y-11864118D01*
X-8167222Y-11976496D01*
X-8099644Y-12077633D01*
X-8013633Y-12163644D01*
X-7912496Y-12231222D01*
X-7800118Y-12277770D01*
X-7680818Y-12301500D01*
X-7559182Y-12301500D01*
X-7439882Y-12277770D01*
X-7327504Y-12231222D01*
X-7226367Y-12163644D01*
X-7140356Y-12077633D01*
X-7072778Y-11976496D01*
X-7026230Y-11864118D01*
X-7002500Y-11744818D01*
X-7002500Y-11623182D01*
X-7026230Y-11503882D01*
X-7072778Y-11391504D01*
X-7140356Y-11290367D01*
X-7226367Y-11204356D01*
X-7327504Y-11136778D01*
X-7439882Y-11090230D01*
X-7559182Y-11066500D01*
X-7680818Y-11066500D01*
X-7767260Y-11083694D01*
X-7764500Y-11069818D01*
X-7764500Y-10948182D01*
X-7788230Y-10828882D01*
X-7834778Y-10716504D01*
X-7902356Y-10615367D01*
X-7988367Y-10529356D01*
X-8089504Y-10461778D01*
X-8201882Y-10415230D01*
X-8321182Y-10391500D01*
X-8442818Y-10391500D01*
X-8562118Y-10415230D01*
X-8674496Y-10461778D01*
X-8775633Y-10529356D01*
X-8861644Y-10615367D01*
X-8929222Y-10716504D01*
X-8975770Y-10828882D01*
X-8999500Y-10948182D01*
X-10855987Y-10948182D01*
X-10882778Y-10883504D01*
X-10950356Y-10782367D01*
X-11036367Y-10696356D01*
X-11137504Y-10628778D01*
X-11249882Y-10582230D01*
X-11369182Y-10558500D01*
X-11490818Y-10558500D01*
X-11610118Y-10582230D01*
X-11722496Y-10628778D01*
X-11823633Y-10696356D01*
X-11909644Y-10782367D01*
X-11977222Y-10883504D01*
X-12023770Y-10995882D01*
X-12047500Y-11115182D01*
X-12047500Y-11236818D01*
X-12026722Y-11341278D01*
X-12131182Y-11320500D01*
X-12252818Y-11320500D01*
X-12372118Y-11344230D01*
X-12484496Y-11390778D01*
X-12585633Y-11458356D01*
X-12671644Y-11544367D01*
X-12739222Y-11645504D01*
X-12785770Y-11757882D01*
X-12809500Y-11877182D01*
X-16269641Y-11877182D01*
X-16329882Y-11852230D01*
X-16449182Y-11828500D01*
X-16570818Y-11828500D01*
X-16690118Y-11852230D01*
X-16802496Y-11898778D01*
X-16903633Y-11966356D01*
X-16989644Y-12052367D01*
X-17057222Y-12153504D01*
X-17103770Y-12265882D01*
X-17127500Y-12385182D01*
X-18848493Y-12385182D01*
X-18895052Y-12151115D01*
X-18998137Y-11902246D01*
X-19147793Y-11678269D01*
X-19338269Y-11487793D01*
X-19562246Y-11338137D01*
X-19811115Y-11235052D01*
X-20075313Y-11182500D01*
X-20344687Y-11182500D01*
X-20608885Y-11235052D01*
X-20857754Y-11338137D01*
X-21081731Y-11487793D01*
X-21272207Y-11678269D01*
X-21421863Y-11902246D01*
X-21524948Y-12151115D01*
X-21577500Y-12415313D01*
X-22276451Y-12415313D01*
X-22135139Y-12356780D01*
X-21939826Y-12226275D01*
X-21773725Y-12060174D01*
X-21643220Y-11864861D01*
X-21553327Y-11647839D01*
X-21507500Y-11417451D01*
X-21507500Y-11182549D01*
X-21553327Y-10952161D01*
X-21591011Y-10861182D01*
X-13825500Y-10861182D01*
X-13825500Y-10982818D01*
X-13801770Y-11102118D01*
X-13755222Y-11214496D01*
X-13687644Y-11315633D01*
X-13601633Y-11401644D01*
X-13500496Y-11469222D01*
X-13388118Y-11515770D01*
X-13268818Y-11539500D01*
X-13147182Y-11539500D01*
X-13027882Y-11515770D01*
X-12915504Y-11469222D01*
X-12814367Y-11401644D01*
X-12728356Y-11315633D01*
X-12660778Y-11214496D01*
X-12614230Y-11102118D01*
X-12590500Y-10982818D01*
X-12590500Y-10861182D01*
X-12614230Y-10741882D01*
X-12660778Y-10629504D01*
X-12728356Y-10528367D01*
X-12814367Y-10442356D01*
X-12915504Y-10374778D01*
X-13027882Y-10328230D01*
X-13147182Y-10304500D01*
X-13268818Y-10304500D01*
X-13388118Y-10328230D01*
X-13500496Y-10374778D01*
X-13601633Y-10442356D01*
X-13687644Y-10528367D01*
X-13755222Y-10629504D01*
X-13801770Y-10741882D01*
X-13825500Y-10861182D01*
X-21591011Y-10861182D01*
X-21643220Y-10735139D01*
X-21773725Y-10539826D01*
X-21939826Y-10373725D01*
X-22135139Y-10243220D01*
X-22352161Y-10153327D01*
X-22582549Y-10107500D01*
X-22817451Y-10107500D01*
X-23047839Y-10153327D01*
X-23264861Y-10243220D01*
X-23460174Y-10373725D01*
X-23626275Y-10539826D01*
X-23756780Y-10735139D01*
X-23846673Y-10952161D01*
X-23892500Y-11182549D01*
X-25132500Y-11182549D01*
X-25132500Y-8575182D01*
X-13317500Y-8575182D01*
X-13317500Y-8696818D01*
X-13293770Y-8816118D01*
X-13247222Y-8928496D01*
X-13179644Y-9029633D01*
X-13093633Y-9115644D01*
X-12992496Y-9183222D01*
X-12880118Y-9229770D01*
X-12760818Y-9253500D01*
X-12639182Y-9253500D01*
X-12519882Y-9229770D01*
X-12407504Y-9183222D01*
X-12306367Y-9115644D01*
X-12220356Y-9029633D01*
X-12152778Y-8928496D01*
X-12106230Y-8816118D01*
X-12082500Y-8696818D01*
X-12082500Y-8575182D01*
X-12106230Y-8455882D01*
X-12152778Y-8343504D01*
X-12167693Y-8321182D01*
X-12047500Y-8321182D01*
X-12047500Y-8442818D01*
X-12023770Y-8562118D01*
X-11977222Y-8674496D01*
X-11909644Y-8775633D01*
X-11823633Y-8861644D01*
X-11722496Y-8929222D01*
X-11610118Y-8975770D01*
X-11490818Y-8999500D01*
X-11369182Y-8999500D01*
X-11249882Y-8975770D01*
X-11137504Y-8929222D01*
X-11036367Y-8861644D01*
X-10950356Y-8775633D01*
X-10882778Y-8674496D01*
X-10836230Y-8562118D01*
X-10812500Y-8442818D01*
X-10812500Y-8321182D01*
X-10836230Y-8201882D01*
X-10882778Y-8089504D01*
X-10950356Y-7988367D01*
X-11036367Y-7902356D01*
X-11137504Y-7834778D01*
X-11249882Y-7788230D01*
X-11369182Y-7764500D01*
X-11490818Y-7764500D01*
X-11610118Y-7788230D01*
X-11722496Y-7834778D01*
X-11823633Y-7902356D01*
X-11909644Y-7988367D01*
X-11977222Y-8089504D01*
X-12023770Y-8201882D01*
X-12047500Y-8321182D01*
X-12167693Y-8321182D01*
X-12220356Y-8242367D01*
X-12306367Y-8156356D01*
X-12407504Y-8088778D01*
X-12519882Y-8042230D01*
X-12639182Y-8018500D01*
X-12760818Y-8018500D01*
X-12880118Y-8042230D01*
X-12992496Y-8088778D01*
X-13093633Y-8156356D01*
X-13179644Y-8242367D01*
X-13247222Y-8343504D01*
X-13293770Y-8455882D01*
X-13317500Y-8575182D01*
X-25132500Y-8575182D01*
X-25132500Y-6682549D01*
X-23892500Y-6682549D01*
X-23892500Y-6917451D01*
X-23846673Y-7147839D01*
X-23756780Y-7364861D01*
X-23626275Y-7560174D01*
X-23460174Y-7726275D01*
X-23264861Y-7856780D01*
X-23047839Y-7946673D01*
X-22817451Y-7992500D01*
X-22582549Y-7992500D01*
X-22352161Y-7946673D01*
X-22135139Y-7856780D01*
X-21939826Y-7726275D01*
X-21773725Y-7560174D01*
X-21643220Y-7364861D01*
X-21618501Y-7305182D01*
X-12809500Y-7305182D01*
X-12809500Y-7426818D01*
X-12785770Y-7546118D01*
X-12739222Y-7658496D01*
X-12671644Y-7759633D01*
X-12585633Y-7845644D01*
X-12484496Y-7913222D01*
X-12372118Y-7959770D01*
X-12252818Y-7983500D01*
X-12131182Y-7983500D01*
X-12011882Y-7959770D01*
X-11899504Y-7913222D01*
X-11798367Y-7845644D01*
X-11712356Y-7759633D01*
X-11644778Y-7658496D01*
X-11598230Y-7546118D01*
X-11574500Y-7426818D01*
X-11574500Y-7305182D01*
X-11595278Y-7200722D01*
X-11490818Y-7221500D01*
X-11369182Y-7221500D01*
X-11249882Y-7197770D01*
X-11137504Y-7151222D01*
X-11036367Y-7083644D01*
X-10950356Y-6997633D01*
X-10882778Y-6896496D01*
X-10836230Y-6784118D01*
X-10812500Y-6664818D01*
X-10812500Y-6543182D01*
X-10836230Y-6423882D01*
X-10882778Y-6311504D01*
X-10950356Y-6210367D01*
X-11036367Y-6124356D01*
X-11137504Y-6056778D01*
X-11249882Y-6010230D01*
X-11369182Y-5986500D01*
X-11490818Y-5986500D01*
X-11610118Y-6010230D01*
X-11722496Y-6056778D01*
X-11823633Y-6124356D01*
X-11909644Y-6210367D01*
X-11977222Y-6311504D01*
X-12023770Y-6423882D01*
X-12047500Y-6543182D01*
X-12047500Y-6664818D01*
X-12026722Y-6769278D01*
X-12131182Y-6748500D01*
X-12252818Y-6748500D01*
X-12372118Y-6772230D01*
X-12484496Y-6818778D01*
X-12585633Y-6886356D01*
X-12671644Y-6972367D01*
X-12739222Y-7073504D01*
X-12785770Y-7185882D01*
X-12809500Y-7305182D01*
X-21618501Y-7305182D01*
X-21553327Y-7147839D01*
X-21507500Y-6917451D01*
X-21507500Y-6682549D01*
X-21553327Y-6452161D01*
X-21643220Y-6235139D01*
X-21773725Y-6039826D01*
X-21939826Y-5873725D01*
X-22135139Y-5743220D01*
X-22352161Y-5653327D01*
X-22582549Y-5607500D01*
X-22817451Y-5607500D01*
X-23047839Y-5653327D01*
X-23264861Y-5743220D01*
X-23460174Y-5873725D01*
X-23626275Y-6039826D01*
X-23756780Y-6235139D01*
X-23846673Y-6452161D01*
X-23892500Y-6682549D01*
X-25132500Y-6682549D01*
X-25132500Y-5405313D01*
X-21577500Y-5405313D01*
X-21577500Y-5674687D01*
X-21524948Y-5938885D01*
X-21421863Y-6187754D01*
X-21272207Y-6411731D01*
X-21081731Y-6602207D01*
X-20857754Y-6751863D01*
X-20608885Y-6854948D01*
X-20344687Y-6907500D01*
X-20075313Y-6907500D01*
X-19811115Y-6854948D01*
X-19562246Y-6751863D01*
X-19338269Y-6602207D01*
X-19147793Y-6411731D01*
X-18998137Y-6187754D01*
X-18895052Y-5938885D01*
X-18842500Y-5674687D01*
X-18842500Y-5405313D01*
X-18895052Y-5141115D01*
X-18978695Y-4939182D01*
X-13617500Y-4939182D01*
X-13617500Y-5060818D01*
X-13593770Y-5180118D01*
X-13547222Y-5292496D01*
X-13479644Y-5393633D01*
X-13393633Y-5479644D01*
X-13292496Y-5547222D01*
X-13180118Y-5593770D01*
X-13060818Y-5617500D01*
X-12939182Y-5617500D01*
X-12819882Y-5593770D01*
X-12707504Y-5547222D01*
X-12606367Y-5479644D01*
X-12520356Y-5393633D01*
X-12452778Y-5292496D01*
X-12444778Y-5273182D01*
X-7729500Y-5273182D01*
X-7729500Y-5394818D01*
X-7705770Y-5514118D01*
X-7659222Y-5626496D01*
X-7591644Y-5727633D01*
X-7505633Y-5813644D01*
X-7404496Y-5881222D01*
X-7292118Y-5927770D01*
X-7172818Y-5951500D01*
X-7051182Y-5951500D01*
X-6931882Y-5927770D01*
X-6819504Y-5881222D01*
X-6718367Y-5813644D01*
X-6632356Y-5727633D01*
X-6564778Y-5626496D01*
X-6518230Y-5514118D01*
X-6494500Y-5394818D01*
X-6494500Y-5273182D01*
X-6518230Y-5153882D01*
X-6564778Y-5041504D01*
X-6632356Y-4940367D01*
X-6718367Y-4854356D01*
X-6819504Y-4786778D01*
X-6931882Y-4740230D01*
X-7051182Y-4716500D01*
X-7172818Y-4716500D01*
X-7292118Y-4740230D01*
X-7404496Y-4786778D01*
X-7505633Y-4854356D01*
X-7591644Y-4940367D01*
X-7659222Y-5041504D01*
X-7705770Y-5153882D01*
X-7729500Y-5273182D01*
X-12444778Y-5273182D01*
X-12406230Y-5180118D01*
X-12382500Y-5060818D01*
X-12382500Y-4939182D01*
X-12406230Y-4819882D01*
X-12452778Y-4707504D01*
X-12520356Y-4606367D01*
X-12606367Y-4520356D01*
X-12707504Y-4452778D01*
X-12819882Y-4406230D01*
X-12939182Y-4382500D01*
X-13060818Y-4382500D01*
X-13180118Y-4406230D01*
X-13292496Y-4452778D01*
X-13393633Y-4520356D01*
X-13479644Y-4606367D01*
X-13547222Y-4707504D01*
X-13593770Y-4819882D01*
X-13617500Y-4939182D01*
X-18978695Y-4939182D01*
X-18998137Y-4892246D01*
X-19147793Y-4668269D01*
X-19338269Y-4477793D01*
X-19562246Y-4328137D01*
X-19811115Y-4225052D01*
X-20075313Y-4172500D01*
X-20344687Y-4172500D01*
X-20608885Y-4225052D01*
X-20857754Y-4328137D01*
X-21081731Y-4477793D01*
X-21272207Y-4668269D01*
X-21421863Y-4892246D01*
X-21524948Y-5141115D01*
X-21577500Y-5405313D01*
X-25132500Y-5405313D01*
X-25132500Y-3241182D01*
X-7475500Y-3241182D01*
X-7475500Y-3362818D01*
X-7451770Y-3482118D01*
X-7405222Y-3594496D01*
X-7337644Y-3695633D01*
X-7251633Y-3781644D01*
X-7150496Y-3849222D01*
X-7038118Y-3895770D01*
X-6918818Y-3919500D01*
X-6797182Y-3919500D01*
X-6677882Y-3895770D01*
X-6565504Y-3849222D01*
X-6464367Y-3781644D01*
X-6378356Y-3695633D01*
X-6310778Y-3594496D01*
X-6264230Y-3482118D01*
X-6240500Y-3362818D01*
X-6240500Y-3241182D01*
X-6264230Y-3121882D01*
X-6310778Y-3009504D01*
X-6378356Y-2908367D01*
X-6464367Y-2822356D01*
X-6565504Y-2754778D01*
X-6677882Y-2708230D01*
X-6797182Y-2684500D01*
X-6918818Y-2684500D01*
X-7038118Y-2708230D01*
X-7150496Y-2754778D01*
X-7251633Y-2822356D01*
X-7337644Y-2908367D01*
X-7405222Y-3009504D01*
X-7451770Y-3121882D01*
X-7475500Y-3241182D01*
X-25132500Y-3241182D01*
X-25132500Y-639182D01*
X-19817500Y-639182D01*
X-19817500Y-760818D01*
X-19793770Y-880118D01*
X-19747222Y-992496D01*
X-19679644Y-1093633D01*
X-19593633Y-1179644D01*
X-19492496Y-1247222D01*
X-19380118Y-1293770D01*
X-19260818Y-1317500D01*
X-19139182Y-1317500D01*
X-19019882Y-1293770D01*
X-18907504Y-1247222D01*
X-18806367Y-1179644D01*
X-18720356Y-1093633D01*
X-18652778Y-992496D01*
X-18606230Y-880118D01*
X-18582500Y-760818D01*
X-18582500Y-639182D01*
X-18606230Y-519882D01*
X-18652778Y-407504D01*
X-18720356Y-306367D01*
X-18806367Y-220356D01*
X-18907504Y-152778D01*
X-19019882Y-106230D01*
X-19139182Y-82500D01*
X-19260818Y-82500D01*
X-19380118Y-106230D01*
X-19492496Y-152778D01*
X-19593633Y-220356D01*
X-19679644Y-306367D01*
X-19747222Y-407504D01*
X-19793770Y-519882D01*
X-19817500Y-639182D01*
X-25132500Y-639182D01*
X-25132500Y960818D01*
X-21817500Y960818D01*
X-21817500Y839182D01*
X-21793770Y719882D01*
X-21747222Y607504D01*
X-21679644Y506367D01*
X-21593633Y420356D01*
X-21492496Y352778D01*
X-21380118Y306230D01*
X-21260818Y282500D01*
X-21139182Y282500D01*
X-21019882Y306230D01*
X-20907504Y352778D01*
X-20806367Y420356D01*
X-20720356Y506367D01*
X-20652778Y607504D01*
X-20650000Y614211D01*
X-20647222Y607504D01*
X-20579644Y506367D01*
X-20493633Y420356D01*
X-20392496Y352778D01*
X-20280118Y306230D01*
X-20160818Y282500D01*
X-20039182Y282500D01*
X-19919882Y306230D01*
X-19807504Y352778D01*
X-19706367Y420356D01*
X-19620356Y506367D01*
X-19552778Y607504D01*
X-19506230Y719882D01*
X-19482500Y839182D01*
X-19482500Y960818D01*
X-19506230Y1080118D01*
X-19552778Y1192496D01*
X-19620356Y1293633D01*
X-19706367Y1379644D01*
X-19807504Y1447222D01*
X-19919882Y1493770D01*
X-20039182Y1517500D01*
X-20160818Y1517500D01*
X-20280118Y1493770D01*
X-20392496Y1447222D01*
X-20493633Y1379644D01*
X-20579644Y1293633D01*
X-20647222Y1192496D01*
X-20650000Y1185789D01*
X-20652778Y1192496D01*
X-20720356Y1293633D01*
X-20806367Y1379644D01*
X-20907504Y1447222D01*
X-21019882Y1493770D01*
X-21139182Y1517500D01*
X-21260818Y1517500D01*
X-21380118Y1493770D01*
X-21492496Y1447222D01*
X-21593633Y1379644D01*
X-21679644Y1293633D01*
X-21747222Y1192496D01*
X-21793770Y1080118D01*
X-21817500Y960818D01*
X-25132500Y960818D01*
X-25132500Y3510818D01*
X-21817500Y3510818D01*
X-21817500Y3389182D01*
X-21793770Y3269882D01*
X-21747222Y3157504D01*
X-21679644Y3056367D01*
X-21593633Y2970356D01*
X-21492496Y2902778D01*
X-21380118Y2856230D01*
X-21260818Y2832500D01*
X-21139182Y2832500D01*
X-21117500Y2836813D01*
X-21117500Y2813187D01*
X-21139182Y2817500D01*
X-21260818Y2817500D01*
X-21380118Y2793770D01*
X-21492496Y2747222D01*
X-21593633Y2679644D01*
X-21679644Y2593633D01*
X-21747222Y2492496D01*
X-21793770Y2380118D01*
X-21817500Y2260818D01*
X-21817500Y2139182D01*
X-21793770Y2019882D01*
X-21747222Y1907504D01*
X-21679644Y1806367D01*
X-21593633Y1720356D01*
X-21492496Y1652778D01*
X-21380118Y1606230D01*
X-21260818Y1582500D01*
X-21139182Y1582500D01*
X-21019882Y1606230D01*
X-20907504Y1652778D01*
X-20806367Y1720356D01*
X-20720356Y1806367D01*
X-20652778Y1907504D01*
X-20606230Y2019882D01*
X-20598088Y2060818D01*
X-8817500Y2060818D01*
X-8817500Y1939182D01*
X-8793770Y1819882D01*
X-8747222Y1707504D01*
X-8679644Y1606367D01*
X-8593633Y1520356D01*
X-8492496Y1452778D01*
X-8380118Y1406230D01*
X-8260818Y1382500D01*
X-8139182Y1382500D01*
X-8019882Y1406230D01*
X-7907504Y1452778D01*
X-7806367Y1520356D01*
X-7720356Y1606367D01*
X-7652778Y1707504D01*
X-7606230Y1819882D01*
X-7582500Y1939182D01*
X-7582500Y2060818D01*
X-7606230Y2180118D01*
X-7652778Y2292496D01*
X-7698429Y2360818D01*
X-2017500Y2360818D01*
X-2017500Y2239182D01*
X-1993770Y2119882D01*
X-1947222Y2007504D01*
X-1879644Y1906367D01*
X-1793633Y1820356D01*
X-1692496Y1752778D01*
X-1580118Y1706230D01*
X-1460818Y1682500D01*
X-1339182Y1682500D01*
X-1219882Y1706230D01*
X-1107504Y1752778D01*
X-1006367Y1820356D01*
X-920356Y1906367D01*
X-852778Y2007504D01*
X-806230Y2119882D01*
X-793775Y2182500D01*
X-739182Y2182500D01*
X-619882Y2206230D01*
X-507504Y2252778D01*
X-406367Y2320356D01*
X-320356Y2406367D01*
X-252778Y2507504D01*
X-206230Y2619882D01*
X-182500Y2739182D01*
X-182500Y2860818D01*
X-206230Y2980118D01*
X-252778Y3092496D01*
X-320356Y3193633D01*
X-406367Y3279644D01*
X-507504Y3347222D01*
X-619882Y3393770D01*
X-739182Y3417500D01*
X-860818Y3417500D01*
X-980118Y3393770D01*
X-1092496Y3347222D01*
X-1193633Y3279644D01*
X-1279644Y3193633D01*
X-1347222Y3092496D01*
X-1393770Y2980118D01*
X-1406225Y2917500D01*
X-1460818Y2917500D01*
X-1580118Y2893770D01*
X-1692496Y2847222D01*
X-1793633Y2779644D01*
X-1879644Y2693633D01*
X-1947222Y2592496D01*
X-1993770Y2480118D01*
X-2017500Y2360818D01*
X-7698429Y2360818D01*
X-7720356Y2393633D01*
X-7806367Y2479644D01*
X-7907504Y2547222D01*
X-8019882Y2593770D01*
X-8139182Y2617500D01*
X-8260818Y2617500D01*
X-8380118Y2593770D01*
X-8492496Y2547222D01*
X-8593633Y2479644D01*
X-8679644Y2393633D01*
X-8747222Y2292496D01*
X-8793770Y2180118D01*
X-8817500Y2060818D01*
X-20598088Y2060818D01*
X-20582500Y2139182D01*
X-20582500Y2186813D01*
X-20560818Y2182500D01*
X-20439182Y2182500D01*
X-20319882Y2206230D01*
X-20207504Y2252778D01*
X-20106367Y2320356D01*
X-20020356Y2406367D01*
X-19952778Y2507504D01*
X-19906230Y2619882D01*
X-19882500Y2739182D01*
X-19882500Y2860818D01*
X-15117500Y2860818D01*
X-15117500Y2739182D01*
X-15093770Y2619882D01*
X-15047222Y2507504D01*
X-14979644Y2406367D01*
X-14893633Y2320356D01*
X-14792496Y2252778D01*
X-14680118Y2206230D01*
X-14560818Y2182500D01*
X-14439182Y2182500D01*
X-14319882Y2206230D01*
X-14207504Y2252778D01*
X-14106367Y2320356D01*
X-14020356Y2406367D01*
X-13952778Y2507504D01*
X-13906230Y2619882D01*
X-13882500Y2739182D01*
X-13882500Y2860818D01*
X-13906230Y2980118D01*
X-13939656Y3060818D01*
X-11517500Y3060818D01*
X-11517500Y2939182D01*
X-11493770Y2819882D01*
X-11447222Y2707504D01*
X-11379644Y2606367D01*
X-11293633Y2520356D01*
X-11192496Y2452778D01*
X-11080118Y2406230D01*
X-10960818Y2382500D01*
X-10839182Y2382500D01*
X-10719882Y2406230D01*
X-10607504Y2452778D01*
X-10506367Y2520356D01*
X-10420356Y2606367D01*
X-10352778Y2707504D01*
X-10306230Y2819882D01*
X-10282500Y2939182D01*
X-10282500Y3060818D01*
X-10306230Y3180118D01*
X-10352778Y3292496D01*
X-10420356Y3393633D01*
X-10506367Y3479644D01*
X-10607504Y3547222D01*
X-10719882Y3593770D01*
X-10839182Y3617500D01*
X-10960818Y3617500D01*
X-11080118Y3593770D01*
X-11192496Y3547222D01*
X-11293633Y3479644D01*
X-11379644Y3393633D01*
X-11447222Y3292496D01*
X-11493770Y3180118D01*
X-11517500Y3060818D01*
X-13939656Y3060818D01*
X-13952778Y3092496D01*
X-14020356Y3193633D01*
X-14106367Y3279644D01*
X-14207504Y3347222D01*
X-14319882Y3393770D01*
X-14439182Y3417500D01*
X-14560818Y3417500D01*
X-14680118Y3393770D01*
X-14792496Y3347222D01*
X-14893633Y3279644D01*
X-14979644Y3193633D01*
X-15047222Y3092496D01*
X-15093770Y2980118D01*
X-15117500Y2860818D01*
X-19882500Y2860818D01*
X-19906230Y2980118D01*
X-19952778Y3092496D01*
X-20020356Y3193633D01*
X-20106367Y3279644D01*
X-20207504Y3347222D01*
X-20319882Y3393770D01*
X-20439182Y3417500D01*
X-20560818Y3417500D01*
X-20582500Y3413187D01*
X-20582500Y3510818D01*
X-20606230Y3630118D01*
X-20652778Y3742496D01*
X-20720356Y3843633D01*
X-20737541Y3860818D01*
X-16317500Y3860818D01*
X-16317500Y3739182D01*
X-16293770Y3619882D01*
X-16247222Y3507504D01*
X-16179644Y3406367D01*
X-16093633Y3320356D01*
X-15992496Y3252778D01*
X-15880118Y3206230D01*
X-15760818Y3182500D01*
X-15639182Y3182500D01*
X-15519882Y3206230D01*
X-15407504Y3252778D01*
X-15306367Y3320356D01*
X-15220356Y3406367D01*
X-15152778Y3507504D01*
X-15106230Y3619882D01*
X-15082500Y3739182D01*
X-15082500Y3860818D01*
X4782500Y3860818D01*
X4782500Y3739182D01*
X4806230Y3619882D01*
X4852778Y3507504D01*
X4920356Y3406367D01*
X5006367Y3320356D01*
X5107504Y3252778D01*
X5219882Y3206230D01*
X5339182Y3182500D01*
X5460818Y3182500D01*
X5580118Y3206230D01*
X5692496Y3252778D01*
X5793633Y3320356D01*
X5879644Y3406367D01*
X5947222Y3507504D01*
X5993770Y3619882D01*
X6017500Y3739182D01*
X6017500Y3860818D01*
X5993770Y3980118D01*
X5960344Y4060818D01*
X7982500Y4060818D01*
X7982500Y3939182D01*
X8006230Y3819882D01*
X8052778Y3707504D01*
X8120356Y3606367D01*
X8206367Y3520356D01*
X8307504Y3452778D01*
X8419882Y3406230D01*
X8539182Y3382500D01*
X8660818Y3382500D01*
X8780118Y3406230D01*
X8892496Y3452778D01*
X8993633Y3520356D01*
X9079644Y3606367D01*
X9147222Y3707504D01*
X9193770Y3819882D01*
X9217500Y3939182D01*
X9217500Y4060818D01*
X9193770Y4180118D01*
X9147222Y4292496D01*
X9079644Y4393633D01*
X8993633Y4479644D01*
X8892496Y4547222D01*
X8780118Y4593770D01*
X8660818Y4617500D01*
X8539182Y4617500D01*
X8419882Y4593770D01*
X8307504Y4547222D01*
X8206367Y4479644D01*
X8120356Y4393633D01*
X8052778Y4292496D01*
X8006230Y4180118D01*
X7982500Y4060818D01*
X5960344Y4060818D01*
X5947222Y4092496D01*
X5879644Y4193633D01*
X5793633Y4279644D01*
X5692496Y4347222D01*
X5580118Y4393770D01*
X5460818Y4417500D01*
X5339182Y4417500D01*
X5219882Y4393770D01*
X5107504Y4347222D01*
X5006367Y4279644D01*
X4920356Y4193633D01*
X4852778Y4092496D01*
X4806230Y3980118D01*
X4782500Y3860818D01*
X-15082500Y3860818D01*
X-15106230Y3980118D01*
X-15152778Y4092496D01*
X-15220356Y4193633D01*
X-15306367Y4279644D01*
X-15407504Y4347222D01*
X-15519882Y4393770D01*
X-15639182Y4417500D01*
X-15760818Y4417500D01*
X-15880118Y4393770D01*
X-15992496Y4347222D01*
X-16093633Y4279644D01*
X-16179644Y4193633D01*
X-16247222Y4092496D01*
X-16293770Y3980118D01*
X-16317500Y3860818D01*
X-20737541Y3860818D01*
X-20806367Y3929644D01*
X-20907504Y3997222D01*
X-21019882Y4043770D01*
X-21139182Y4067500D01*
X-21260818Y4067500D01*
X-21380118Y4043770D01*
X-21492496Y3997222D01*
X-21593633Y3929644D01*
X-21679644Y3843633D01*
X-21747222Y3742496D01*
X-21793770Y3630118D01*
X-21817500Y3510818D01*
X-25132500Y3510818D01*
X-25132500Y4760818D01*
X-8917500Y4760818D01*
X-8917500Y4639182D01*
X-8893770Y4519882D01*
X-8847222Y4407504D01*
X-8779644Y4306367D01*
X-8693633Y4220356D01*
X-8592496Y4152778D01*
X-8480118Y4106230D01*
X-8360818Y4082500D01*
X-8239182Y4082500D01*
X-8119882Y4106230D01*
X-8007504Y4152778D01*
X-7906367Y4220356D01*
X-7820356Y4306367D01*
X-7752778Y4407504D01*
X-7706230Y4519882D01*
X-7682500Y4639182D01*
X-7682500Y4760818D01*
X-7706230Y4880118D01*
X-7752778Y4992496D01*
X-7820356Y5093633D01*
X-7906367Y5179644D01*
X-8007504Y5247222D01*
X-8119882Y5293770D01*
X-8239182Y5317500D01*
X-8360818Y5317500D01*
X-8480118Y5293770D01*
X-8592496Y5247222D01*
X-8693633Y5179644D01*
X-8779644Y5093633D01*
X-8847222Y4992496D01*
X-8893770Y4880118D01*
X-8917500Y4760818D01*
X-25132500Y4760818D01*
X-25132500Y6760818D01*
X-19517500Y6760818D01*
X-19517500Y6639182D01*
X-19493770Y6519882D01*
X-19447222Y6407504D01*
X-19379644Y6306367D01*
X-19293633Y6220356D01*
X-19192496Y6152778D01*
X-19080118Y6106230D01*
X-18960818Y6082500D01*
X-18839182Y6082500D01*
X-18719882Y6106230D01*
X-18607504Y6152778D01*
X-18506367Y6220356D01*
X-18420356Y6306367D01*
X-18352778Y6407504D01*
X-18306230Y6519882D01*
X-18282500Y6639182D01*
X-18282500Y6760818D01*
X-18306230Y6880118D01*
X-18352778Y6992496D01*
X-18420356Y7093633D01*
X-18506367Y7179644D01*
X-18607504Y7247222D01*
X-18719882Y7293770D01*
X-18839182Y7317500D01*
X-18960818Y7317500D01*
X-19080118Y7293770D01*
X-19192496Y7247222D01*
X-19293633Y7179644D01*
X-19379644Y7093633D01*
X-19447222Y6992496D01*
X-19493770Y6880118D01*
X-19517500Y6760818D01*
X-25132500Y6760818D01*
X-25132500Y9060818D01*
X-18117500Y9060818D01*
X-18117500Y8939182D01*
X-18093770Y8819882D01*
X-18047222Y8707504D01*
X-17979644Y8606367D01*
X-17893633Y8520356D01*
X-17863168Y8500000D01*
X-17893633Y8479644D01*
X-17979644Y8393633D01*
X-18047222Y8292496D01*
X-18093770Y8180118D01*
X-18117500Y8060818D01*
X-18117500Y7939182D01*
X-18093770Y7819882D01*
X-18047222Y7707504D01*
X-17979644Y7606367D01*
X-17893633Y7520356D01*
X-17863168Y7500000D01*
X-17893633Y7479644D01*
X-17979644Y7393633D01*
X-18047222Y7292496D01*
X-18093770Y7180118D01*
X-18117500Y7060818D01*
X-18117500Y6939182D01*
X-18093770Y6819882D01*
X-18047222Y6707504D01*
X-17979644Y6606367D01*
X-17893633Y6520356D01*
X-17863168Y6500000D01*
X-17893633Y6479644D01*
X-17979644Y6393633D01*
X-18047222Y6292496D01*
X-18093770Y6180118D01*
X-18117500Y6060818D01*
X-18117500Y5939182D01*
X-18093770Y5819882D01*
X-18047222Y5707504D01*
X-17979644Y5606367D01*
X-17893633Y5520356D01*
X-17792496Y5452778D01*
X-17680118Y5406230D01*
X-17560818Y5382500D01*
X-17439182Y5382500D01*
X-17319882Y5406230D01*
X-17207504Y5452778D01*
X-17117500Y5512917D01*
X-17117500Y5439182D01*
X-17093770Y5319882D01*
X-17047222Y5207504D01*
X-16979644Y5106367D01*
X-16893633Y5020356D01*
X-16792496Y4952778D01*
X-16680118Y4906230D01*
X-16560818Y4882500D01*
X-16439182Y4882500D01*
X-16319882Y4906230D01*
X-16207504Y4952778D01*
X-16106367Y5020356D01*
X-16020356Y5106367D01*
X-15952778Y5207504D01*
X-15906230Y5319882D01*
X-15882500Y5439182D01*
X-15882500Y5560818D01*
X-15906230Y5680118D01*
X-15952778Y5792496D01*
X-16020356Y5893633D01*
X-16106367Y5979644D01*
X-16136832Y6000000D01*
X-16106367Y6020356D01*
X-16020356Y6106367D01*
X-15952778Y6207504D01*
X-15906230Y6319882D01*
X-15882500Y6439182D01*
X-15882500Y6560818D01*
X-15906230Y6680118D01*
X-15952778Y6792496D01*
X-16020356Y6893633D01*
X-16106367Y6979644D01*
X-16136832Y7000000D01*
X-16106367Y7020356D01*
X-16020356Y7106367D01*
X-15952778Y7207504D01*
X-15906230Y7319882D01*
X-15882500Y7439182D01*
X-15882500Y7560818D01*
X-15906230Y7680118D01*
X-15952778Y7792496D01*
X-16020356Y7893633D01*
X-16106367Y7979644D01*
X-16136832Y8000000D01*
X-16106367Y8020356D01*
X-16020356Y8106367D01*
X-15952778Y8207504D01*
X-15906230Y8319882D01*
X-15882500Y8439182D01*
X-15882500Y8560818D01*
X-15617500Y8560818D01*
X-15617500Y8439182D01*
X-15593770Y8319882D01*
X-15547222Y8207504D01*
X-15479644Y8106367D01*
X-15393633Y8020356D01*
X-15363168Y8000000D01*
X-15393633Y7979644D01*
X-15479644Y7893633D01*
X-15547222Y7792496D01*
X-15593770Y7680118D01*
X-15617500Y7560818D01*
X-15617500Y7439182D01*
X-15593770Y7319882D01*
X-15547222Y7207504D01*
X-15479644Y7106367D01*
X-15393633Y7020356D01*
X-15363168Y7000000D01*
X-15393633Y6979644D01*
X-15479644Y6893633D01*
X-15547222Y6792496D01*
X-15593770Y6680118D01*
X-15617500Y6560818D01*
X-15617500Y6439182D01*
X-15593770Y6319882D01*
X-15547222Y6207504D01*
X-15479644Y6106367D01*
X-15393633Y6020356D01*
X-15363168Y6000000D01*
X-15393633Y5979644D01*
X-15479644Y5893633D01*
X-15547222Y5792496D01*
X-15593770Y5680118D01*
X-15617500Y5560818D01*
X-15617500Y5439182D01*
X-15593770Y5319882D01*
X-15547222Y5207504D01*
X-15479644Y5106367D01*
X-15393633Y5020356D01*
X-15292496Y4952778D01*
X-15180118Y4906230D01*
X-15060818Y4882500D01*
X-14939182Y4882500D01*
X-14819882Y4906230D01*
X-14707504Y4952778D01*
X-14606367Y5020356D01*
X-14520356Y5106367D01*
X-14452778Y5207504D01*
X-14406230Y5319882D01*
X-14382500Y5439182D01*
X-14382500Y5512917D01*
X-14292496Y5452778D01*
X-14180118Y5406230D01*
X-14060818Y5382500D01*
X-13939182Y5382500D01*
X-13819882Y5406230D01*
X-13707504Y5452778D01*
X-13606367Y5520356D01*
X-13520356Y5606367D01*
X-13452778Y5707504D01*
X-13406230Y5819882D01*
X-13382500Y5939182D01*
X-13382500Y6060818D01*
X-13406230Y6180118D01*
X-13452778Y6292496D01*
X-13520356Y6393633D01*
X-13587541Y6460818D01*
X-2917500Y6460818D01*
X-2917500Y6339182D01*
X-2893770Y6219882D01*
X-2847222Y6107504D01*
X-2779644Y6006367D01*
X-2693633Y5920356D01*
X-2592496Y5852778D01*
X-2480118Y5806230D01*
X-2360818Y5782500D01*
X-2239182Y5782500D01*
X-2212116Y5787884D01*
X-2217500Y5760818D01*
X-2217500Y5639182D01*
X-2193770Y5519882D01*
X-2147222Y5407504D01*
X-2079644Y5306367D01*
X-1993633Y5220356D01*
X-1892496Y5152778D01*
X-1780118Y5106230D01*
X-1660818Y5082500D01*
X-1539182Y5082500D01*
X-1419882Y5106230D01*
X-1307504Y5152778D01*
X-1206367Y5220356D01*
X-1120356Y5306367D01*
X-1052778Y5407504D01*
X-1006230Y5519882D01*
X-982500Y5639182D01*
X-982500Y5760818D01*
X-1006230Y5880118D01*
X-1052778Y5992496D01*
X-1120356Y6093633D01*
X-1206367Y6179644D01*
X-1307504Y6247222D01*
X-1419882Y6293770D01*
X-1539182Y6317500D01*
X-1660818Y6317500D01*
X-1687884Y6312116D01*
X-1682500Y6339182D01*
X-1682500Y6460818D01*
X-1706230Y6580118D01*
X-1752778Y6692496D01*
X-1820356Y6793633D01*
X-1906367Y6879644D01*
X-2007504Y6947222D01*
X-2119882Y6993770D01*
X-2239182Y7017500D01*
X-2360818Y7017500D01*
X-2480118Y6993770D01*
X-2592496Y6947222D01*
X-2693633Y6879644D01*
X-2779644Y6793633D01*
X-2847222Y6692496D01*
X-2893770Y6580118D01*
X-2917500Y6460818D01*
X-13587541Y6460818D01*
X-13606367Y6479644D01*
X-13636832Y6500000D01*
X-13606367Y6520356D01*
X-13520356Y6606367D01*
X-13452778Y6707504D01*
X-13406230Y6819882D01*
X-13382500Y6939182D01*
X-13382500Y7060818D01*
X-13406230Y7180118D01*
X-13452778Y7292496D01*
X-13498429Y7360818D01*
X-4617500Y7360818D01*
X-4617500Y7239182D01*
X-4593770Y7119882D01*
X-4547222Y7007504D01*
X-4479644Y6906367D01*
X-4393633Y6820356D01*
X-4292496Y6752778D01*
X-4180118Y6706230D01*
X-4060818Y6682500D01*
X-3939182Y6682500D01*
X-3819882Y6706230D01*
X-3707504Y6752778D01*
X-3606367Y6820356D01*
X-3520356Y6906367D01*
X-3452778Y7007504D01*
X-3406230Y7119882D01*
X-3382500Y7239182D01*
X-3382500Y7360818D01*
X-3406230Y7480118D01*
X-3452778Y7592496D01*
X-3520356Y7693633D01*
X-3606367Y7779644D01*
X-3707504Y7847222D01*
X-3819882Y7893770D01*
X-3939182Y7917500D01*
X-4060818Y7917500D01*
X-4180118Y7893770D01*
X-4292496Y7847222D01*
X-4393633Y7779644D01*
X-4479644Y7693633D01*
X-4547222Y7592496D01*
X-4593770Y7480118D01*
X-4617500Y7360818D01*
X-13498429Y7360818D01*
X-13520356Y7393633D01*
X-13606367Y7479644D01*
X-13636832Y7500000D01*
X-13606367Y7520356D01*
X-13520356Y7606367D01*
X-13452778Y7707504D01*
X-13406230Y7819882D01*
X-13382500Y7939182D01*
X-13382500Y8060818D01*
X-13406230Y8180118D01*
X-13452778Y8292496D01*
X-13520356Y8393633D01*
X-13606367Y8479644D01*
X-13636832Y8500000D01*
X-13606367Y8520356D01*
X-13520356Y8606367D01*
X-13452778Y8707504D01*
X-13430695Y8760818D01*
X-2917500Y8760818D01*
X-2917500Y8639182D01*
X-2893770Y8519882D01*
X-2847222Y8407504D01*
X-2779644Y8306367D01*
X-2693633Y8220356D01*
X-2592496Y8152778D01*
X-2480118Y8106230D01*
X-2360818Y8082500D01*
X-2239182Y8082500D01*
X-2119882Y8106230D01*
X-2007504Y8152778D01*
X-1906367Y8220356D01*
X-1820356Y8306367D01*
X-1752778Y8407504D01*
X-1706230Y8519882D01*
X-1682500Y8639182D01*
X-1682500Y8760818D01*
X-1697816Y8837819D01*
X8882500Y8837819D01*
X8882500Y8716183D01*
X8906230Y8596883D01*
X8952778Y8484505D01*
X9000225Y8413496D01*
X8952784Y8342496D01*
X8906236Y8230118D01*
X8882506Y8110818D01*
X8882506Y7989182D01*
X8906236Y7869882D01*
X8952784Y7757504D01*
X9007909Y7675004D01*
X8952778Y7592496D01*
X8906230Y7480118D01*
X8882500Y7360818D01*
X8882500Y7239182D01*
X8906230Y7119882D01*
X8952778Y7007504D01*
X9020356Y6906367D01*
X9026723Y6900000D01*
X9020356Y6893633D01*
X8952778Y6792496D01*
X8906230Y6680118D01*
X8882500Y6560818D01*
X8882500Y6439182D01*
X8906230Y6319882D01*
X8952778Y6207504D01*
X9020356Y6106367D01*
X9026726Y6099997D01*
X9020356Y6093627D01*
X8952778Y5992490D01*
X8906230Y5880112D01*
X8882500Y5760812D01*
X8882500Y5639176D01*
X8906230Y5519876D01*
X8952778Y5407498D01*
X9020356Y5306361D01*
X9106367Y5220350D01*
X9207504Y5152772D01*
X9319882Y5106224D01*
X9439182Y5082494D01*
X9560818Y5082494D01*
X9680118Y5106224D01*
X9792496Y5152772D01*
X9893633Y5220350D01*
X9979644Y5306361D01*
X10047222Y5407498D01*
X10093770Y5519876D01*
X10117500Y5639176D01*
X10117500Y5760812D01*
X10093770Y5880112D01*
X10047222Y5992490D01*
X9979644Y6093627D01*
X9973274Y6099997D01*
X9979644Y6106367D01*
X10047222Y6207504D01*
X10093770Y6319882D01*
X10117500Y6439182D01*
X10117500Y6560818D01*
X10093770Y6680118D01*
X10047222Y6792496D01*
X9979644Y6893633D01*
X9973277Y6900000D01*
X9979644Y6906367D01*
X10047222Y7007504D01*
X10093770Y7119882D01*
X10117500Y7239182D01*
X10117500Y7360818D01*
X10093770Y7480118D01*
X10047222Y7592496D01*
X9992097Y7674996D01*
X10047228Y7757504D01*
X10093776Y7869882D01*
X10117506Y7989182D01*
X10117506Y8110818D01*
X10093776Y8230118D01*
X10047228Y8342496D01*
X9999781Y8413505D01*
X10047222Y8484505D01*
X10093770Y8596883D01*
X10117500Y8716183D01*
X10117500Y8837819D01*
X10093770Y8957119D01*
X10047222Y9069497D01*
X10022903Y9105894D01*
X10882500Y9105894D01*
X10882500Y8994106D01*
X10904309Y8884466D01*
X10947088Y8781188D01*
X11009194Y8688240D01*
X11088240Y8609194D01*
X11181188Y8547088D01*
X11234513Y8525000D01*
X11181188Y8502912D01*
X11088240Y8440806D01*
X11009194Y8361760D01*
X10947088Y8268812D01*
X10904309Y8165534D01*
X10882500Y8055894D01*
X10882500Y7944106D01*
X10904309Y7834466D01*
X10947088Y7731188D01*
X11009194Y7638240D01*
X11088240Y7559194D01*
X11181188Y7497088D01*
X11234513Y7475000D01*
X11181188Y7452912D01*
X11088240Y7390806D01*
X11009194Y7311760D01*
X10947088Y7218812D01*
X10904309Y7115534D01*
X10882500Y7005894D01*
X10882500Y6894106D01*
X10904309Y6784466D01*
X10947088Y6681188D01*
X11009194Y6588240D01*
X11088240Y6509194D01*
X11181188Y6447088D01*
X11284466Y6404309D01*
X11394106Y6382500D01*
X11505894Y6382500D01*
X11615534Y6404309D01*
X11718812Y6447088D01*
X11811760Y6509194D01*
X11890806Y6588240D01*
X11952912Y6681188D01*
X11975000Y6734513D01*
X11997088Y6681188D01*
X12059194Y6588240D01*
X12138240Y6509194D01*
X12231188Y6447088D01*
X12334466Y6404309D01*
X12444106Y6382500D01*
X12555894Y6382500D01*
X12665534Y6404309D01*
X12768812Y6447088D01*
X12861760Y6509194D01*
X12940806Y6588240D01*
X13002912Y6681188D01*
X13025000Y6734513D01*
X13047088Y6681188D01*
X13109194Y6588240D01*
X13188240Y6509194D01*
X13281188Y6447088D01*
X13384466Y6404309D01*
X13494106Y6382500D01*
X13605894Y6382500D01*
X13715534Y6404309D01*
X13818812Y6447088D01*
X13911760Y6509194D01*
X13990806Y6588240D01*
X14052912Y6681188D01*
X14095691Y6784466D01*
X14117500Y6894106D01*
X14117500Y7005894D01*
X14095691Y7115534D01*
X14052912Y7218812D01*
X13990806Y7311760D01*
X13911760Y7390806D01*
X13818812Y7452912D01*
X13765487Y7475000D01*
X13818812Y7497088D01*
X13911760Y7559194D01*
X13990806Y7638240D01*
X14052912Y7731188D01*
X14095691Y7834466D01*
X14117500Y7944106D01*
X14117500Y8055894D01*
X14095691Y8165534D01*
X14052912Y8268812D01*
X13990806Y8361760D01*
X13911760Y8440806D01*
X13818812Y8502912D01*
X13765487Y8525000D01*
X13818812Y8547088D01*
X13911760Y8609194D01*
X13990806Y8688240D01*
X14052912Y8781188D01*
X14085895Y8860818D01*
X15382500Y8860818D01*
X15382500Y8739182D01*
X15406230Y8619882D01*
X15452778Y8507504D01*
X15520356Y8406367D01*
X15606367Y8320356D01*
X15707504Y8252778D01*
X15819882Y8206230D01*
X15939182Y8182500D01*
X16060818Y8182500D01*
X16180118Y8206230D01*
X16292496Y8252778D01*
X16393633Y8320356D01*
X16479644Y8406367D01*
X16547222Y8507504D01*
X16593770Y8619882D01*
X16617500Y8739182D01*
X16617500Y8860818D01*
X16593770Y8980118D01*
X16547222Y9092496D01*
X16479644Y9193633D01*
X16393633Y9279644D01*
X16292496Y9347222D01*
X16180118Y9393770D01*
X16060818Y9417500D01*
X15939182Y9417500D01*
X15819882Y9393770D01*
X15707504Y9347222D01*
X15606367Y9279644D01*
X15520356Y9193633D01*
X15452778Y9092496D01*
X15406230Y8980118D01*
X15382500Y8860818D01*
X14085895Y8860818D01*
X14095691Y8884466D01*
X14117500Y8994106D01*
X14117500Y9105894D01*
X14095691Y9215534D01*
X14052912Y9318812D01*
X13990806Y9411760D01*
X13911760Y9490806D01*
X13818812Y9552912D01*
X13715534Y9595691D01*
X13605894Y9617500D01*
X13494106Y9617500D01*
X13384466Y9595691D01*
X13281188Y9552912D01*
X13188240Y9490806D01*
X13109194Y9411760D01*
X13047088Y9318812D01*
X13025000Y9265487D01*
X13002912Y9318812D01*
X12940806Y9411760D01*
X12861760Y9490806D01*
X12768812Y9552912D01*
X12665534Y9595691D01*
X12555894Y9617500D01*
X12444106Y9617500D01*
X12334466Y9595691D01*
X12231188Y9552912D01*
X12138240Y9490806D01*
X12059194Y9411760D01*
X11997088Y9318812D01*
X11975000Y9265487D01*
X11952912Y9318812D01*
X11890806Y9411760D01*
X11811760Y9490806D01*
X11718812Y9552912D01*
X11615534Y9595691D01*
X11505894Y9617500D01*
X11394106Y9617500D01*
X11284466Y9595691D01*
X11181188Y9552912D01*
X11088240Y9490806D01*
X11009194Y9411760D01*
X10947088Y9318812D01*
X10904309Y9215534D01*
X10882500Y9105894D01*
X10022903Y9105894D01*
X9979644Y9170634D01*
X9893633Y9256645D01*
X9792496Y9324223D01*
X9680118Y9370771D01*
X9560818Y9394501D01*
X9439182Y9394501D01*
X9319882Y9370771D01*
X9207504Y9324223D01*
X9106367Y9256645D01*
X9020356Y9170634D01*
X8952778Y9069497D01*
X8906230Y8957119D01*
X8882500Y8837819D01*
X-1697816Y8837819D01*
X-1706230Y8880118D01*
X-1752778Y8992496D01*
X-1820356Y9093633D01*
X-1906367Y9179644D01*
X-2007504Y9247222D01*
X-2119882Y9293770D01*
X-2239182Y9317500D01*
X-2360818Y9317500D01*
X-2480118Y9293770D01*
X-2592496Y9247222D01*
X-2693633Y9179644D01*
X-2779644Y9093633D01*
X-2847222Y8992496D01*
X-2893770Y8880118D01*
X-2917500Y8760818D01*
X-13430695Y8760818D01*
X-13406230Y8819882D01*
X-13382500Y8939182D01*
X-13382500Y9060818D01*
X-13406230Y9180118D01*
X-13452778Y9292496D01*
X-13520356Y9393633D01*
X-13606367Y9479644D01*
X-13707504Y9547222D01*
X-13819882Y9593770D01*
X-13939182Y9617500D01*
X-14060818Y9617500D01*
X-14180118Y9593770D01*
X-14292496Y9547222D01*
X-14393633Y9479644D01*
X-14479644Y9393633D01*
X-14547222Y9292496D01*
X-14593770Y9180118D01*
X-14617500Y9060818D01*
X-14617500Y8987083D01*
X-14707504Y9047222D01*
X-14819882Y9093770D01*
X-14939182Y9117500D01*
X-15060818Y9117500D01*
X-15180118Y9093770D01*
X-15292496Y9047222D01*
X-15393633Y8979644D01*
X-15479644Y8893633D01*
X-15547222Y8792496D01*
X-15593770Y8680118D01*
X-15617500Y8560818D01*
X-15882500Y8560818D01*
X-15906230Y8680118D01*
X-15952778Y8792496D01*
X-16020356Y8893633D01*
X-16106367Y8979644D01*
X-16207504Y9047222D01*
X-16319882Y9093770D01*
X-16439182Y9117500D01*
X-16560818Y9117500D01*
X-16680118Y9093770D01*
X-16792496Y9047222D01*
X-16882500Y8987083D01*
X-16882500Y9060818D01*
X-16906230Y9180118D01*
X-16952778Y9292496D01*
X-17020356Y9393633D01*
X-17106367Y9479644D01*
X-17207504Y9547222D01*
X-17319882Y9593770D01*
X-17439182Y9617500D01*
X-17560818Y9617500D01*
X-17680118Y9593770D01*
X-17792496Y9547222D01*
X-17893633Y9479644D01*
X-17979644Y9393633D01*
X-18047222Y9292496D01*
X-18093770Y9180118D01*
X-18117500Y9060818D01*
X-25132500Y9060818D01*
X-25132500Y10660818D01*
X-4917500Y10660818D01*
X-4917500Y10539182D01*
X-4893770Y10419882D01*
X-4847222Y10307504D01*
X-4779644Y10206367D01*
X-4693633Y10120356D01*
X-4592496Y10052778D01*
X-4480118Y10006230D01*
X-4360818Y9982500D01*
X-4239182Y9982500D01*
X-4119882Y10006230D01*
X-4007504Y10052778D01*
X-3906367Y10120356D01*
X-3820356Y10206367D01*
X-3783973Y10260818D01*
X-317500Y10260818D01*
X-317500Y10139182D01*
X-293770Y10019882D01*
X-247222Y9907504D01*
X-179644Y9806367D01*
X-93633Y9720356D01*
X7504Y9652778D01*
X119882Y9606230D01*
X239182Y9582500D01*
X360818Y9582500D01*
X480118Y9606230D01*
X592496Y9652778D01*
X693633Y9720356D01*
X779644Y9806367D01*
X847222Y9907504D01*
X893770Y10019882D01*
X917500Y10139182D01*
X917500Y10260818D01*
X893770Y10380118D01*
X847222Y10492496D01*
X779644Y10593633D01*
X712459Y10660818D01*
X5182500Y10660818D01*
X5182500Y10539182D01*
X5206230Y10419882D01*
X5252778Y10307504D01*
X5320356Y10206367D01*
X5406367Y10120356D01*
X5507504Y10052778D01*
X5619882Y10006230D01*
X5739182Y9982500D01*
X5860818Y9982500D01*
X5980118Y10006230D01*
X6092496Y10052778D01*
X6193633Y10120356D01*
X6279644Y10206367D01*
X6347222Y10307504D01*
X6393770Y10419882D01*
X6417500Y10539182D01*
X6417500Y10660818D01*
X6393770Y10780118D01*
X6347222Y10892496D01*
X6279644Y10993633D01*
X6193633Y11079644D01*
X6092496Y11147222D01*
X5980118Y11193770D01*
X5860818Y11217500D01*
X5739182Y11217500D01*
X5619882Y11193770D01*
X5507504Y11147222D01*
X5406367Y11079644D01*
X5320356Y10993633D01*
X5252778Y10892496D01*
X5206230Y10780118D01*
X5182500Y10660818D01*
X712459Y10660818D01*
X693633Y10679644D01*
X592496Y10747222D01*
X480118Y10793770D01*
X360818Y10817500D01*
X239182Y10817500D01*
X119882Y10793770D01*
X7504Y10747222D01*
X-93633Y10679644D01*
X-179644Y10593633D01*
X-247222Y10492496D01*
X-293770Y10380118D01*
X-317500Y10260818D01*
X-3783973Y10260818D01*
X-3752778Y10307504D01*
X-3706230Y10419882D01*
X-3682500Y10539182D01*
X-3682500Y10660818D01*
X-3706230Y10780118D01*
X-3752778Y10892496D01*
X-3820356Y10993633D01*
X-3906367Y11079644D01*
X-4007504Y11147222D01*
X-4119882Y11193770D01*
X-4239182Y11217500D01*
X-4360818Y11217500D01*
X-4480118Y11193770D01*
X-4592496Y11147222D01*
X-4693633Y11079644D01*
X-4779644Y10993633D01*
X-4847222Y10892496D01*
X-4893770Y10780118D01*
X-4917500Y10660818D01*
X-25132500Y10660818D01*
X-25132500Y12360818D01*
X-2817500Y12360818D01*
X-2817500Y12239182D01*
X-2793770Y12119882D01*
X-2747222Y12007504D01*
X-2679644Y11906367D01*
X-2673277Y11900000D01*
X-2679644Y11893633D01*
X-2747222Y11792496D01*
X-2793770Y11680118D01*
X-2817500Y11560818D01*
X-2817500Y11439182D01*
X-2793770Y11319882D01*
X-2747222Y11207504D01*
X-2679644Y11106367D01*
X-2593633Y11020356D01*
X-2492496Y10952778D01*
X-2380118Y10906230D01*
X-2260818Y10882500D01*
X-2139182Y10882500D01*
X-2019882Y10906230D01*
X-1907504Y10952778D01*
X-1806367Y11020356D01*
X-1720356Y11106367D01*
X-1652778Y11207504D01*
X-1606230Y11319882D01*
X-1582500Y11439182D01*
X-1582500Y11560818D01*
X-1606230Y11680118D01*
X-1652778Y11792496D01*
X-1720356Y11893633D01*
X-1726723Y11900000D01*
X-1720356Y11906367D01*
X-1652778Y12007504D01*
X-1606230Y12119882D01*
X-1582500Y12239182D01*
X-1582500Y12360818D01*
X-1606230Y12480118D01*
X-1652778Y12592496D01*
X-1698429Y12660818D01*
X-117500Y12660818D01*
X-117500Y12539182D01*
X-93770Y12419882D01*
X-47222Y12307504D01*
X20356Y12206367D01*
X106367Y12120356D01*
X207504Y12052778D01*
X319882Y12006230D01*
X439182Y11982500D01*
X560818Y11982500D01*
X680118Y12006230D01*
X792496Y12052778D01*
X893633Y12120356D01*
X927845Y12154568D01*
X8476250Y12154568D01*
X8476250Y12032932D01*
X8499980Y11913632D01*
X8546528Y11801254D01*
X8614106Y11700117D01*
X8700117Y11614106D01*
X8801254Y11546528D01*
X8913632Y11499980D01*
X9032932Y11476250D01*
X9154568Y11476250D01*
X9273868Y11499980D01*
X9386246Y11546528D01*
X9487383Y11614106D01*
X9573394Y11700117D01*
X9640972Y11801254D01*
X9687520Y11913632D01*
X9711250Y12032932D01*
X9711250Y12154568D01*
X9690116Y12260818D01*
X13682500Y12260818D01*
X13682500Y12139182D01*
X13706230Y12019882D01*
X13752778Y11907504D01*
X13820356Y11806367D01*
X13906367Y11720356D01*
X14007504Y11652778D01*
X14119882Y11606230D01*
X14239182Y11582500D01*
X14360818Y11582500D01*
X14480118Y11606230D01*
X14592496Y11652778D01*
X14693633Y11720356D01*
X14779644Y11806367D01*
X14847222Y11907504D01*
X14893770Y12019882D01*
X14917500Y12139182D01*
X14917500Y12260818D01*
X14893770Y12380118D01*
X14847222Y12492496D01*
X14779644Y12593633D01*
X14693633Y12679644D01*
X14592496Y12747222D01*
X14480118Y12793770D01*
X14360818Y12817500D01*
X14239182Y12817500D01*
X14119882Y12793770D01*
X14007504Y12747222D01*
X13906367Y12679644D01*
X13820356Y12593633D01*
X13752778Y12492496D01*
X13706230Y12380118D01*
X13682500Y12260818D01*
X9690116Y12260818D01*
X9687520Y12273868D01*
X9640972Y12386246D01*
X9573394Y12487383D01*
X9487383Y12573394D01*
X9386246Y12640972D01*
X9273868Y12687520D01*
X9154568Y12711250D01*
X9032932Y12711250D01*
X8913632Y12687520D01*
X8801254Y12640972D01*
X8700117Y12573394D01*
X8614106Y12487383D01*
X8546528Y12386246D01*
X8499980Y12273868D01*
X8476250Y12154568D01*
X927845Y12154568D01*
X979644Y12206367D01*
X1047222Y12307504D01*
X1093770Y12419882D01*
X1117500Y12539182D01*
X1117500Y12660818D01*
X1093770Y12780118D01*
X1047222Y12892496D01*
X979644Y12993633D01*
X893633Y13079644D01*
X792496Y13147222D01*
X759673Y13160818D01*
X11082500Y13160818D01*
X11082500Y13039182D01*
X11106230Y12919882D01*
X11152778Y12807504D01*
X11220356Y12706367D01*
X11306367Y12620356D01*
X11407504Y12552778D01*
X11519882Y12506230D01*
X11639182Y12482500D01*
X11760818Y12482500D01*
X11880118Y12506230D01*
X11992496Y12552778D01*
X12093633Y12620356D01*
X12179644Y12706367D01*
X12195951Y12730772D01*
X12206367Y12720356D01*
X12307504Y12652778D01*
X12419882Y12606230D01*
X12539182Y12582500D01*
X12660818Y12582500D01*
X12780118Y12606230D01*
X12892496Y12652778D01*
X12993633Y12720356D01*
X13079644Y12806367D01*
X13147222Y12907504D01*
X13193770Y13019882D01*
X13217500Y13139182D01*
X13217500Y13260818D01*
X13193770Y13380118D01*
X13147222Y13492496D01*
X13079644Y13593633D01*
X12993633Y13679644D01*
X12892496Y13747222D01*
X12780118Y13793770D01*
X12660818Y13817500D01*
X12539182Y13817500D01*
X12419882Y13793770D01*
X12307504Y13747222D01*
X12206367Y13679644D01*
X12120356Y13593633D01*
X12104049Y13569228D01*
X12093633Y13579644D01*
X11992496Y13647222D01*
X11880118Y13693770D01*
X11760818Y13717500D01*
X11639182Y13717500D01*
X11519882Y13693770D01*
X11407504Y13647222D01*
X11306367Y13579644D01*
X11220356Y13493633D01*
X11152778Y13392496D01*
X11106230Y13280118D01*
X11082500Y13160818D01*
X759673Y13160818D01*
X680118Y13193770D01*
X560818Y13217500D01*
X439182Y13217500D01*
X319882Y13193770D01*
X207504Y13147222D01*
X106367Y13079644D01*
X20356Y12993633D01*
X-47222Y12892496D01*
X-93770Y12780118D01*
X-117500Y12660818D01*
X-1698429Y12660818D01*
X-1720356Y12693633D01*
X-1806367Y12779644D01*
X-1907504Y12847222D01*
X-2019882Y12893770D01*
X-2139182Y12917500D01*
X-2260818Y12917500D01*
X-2380118Y12893770D01*
X-2492496Y12847222D01*
X-2593633Y12779644D01*
X-2679644Y12693633D01*
X-2747222Y12592496D01*
X-2793770Y12480118D01*
X-2817500Y12360818D01*
X-25132500Y12360818D01*
X-25132500Y14960818D01*
X-21817500Y14960818D01*
X-21817500Y14839182D01*
X-21793770Y14719882D01*
X-21747222Y14607504D01*
X-21679644Y14506367D01*
X-21593633Y14420356D01*
X-21492496Y14352778D01*
X-21380118Y14306230D01*
X-21260818Y14282500D01*
X-21139182Y14282500D01*
X-21019882Y14306230D01*
X-20907504Y14352778D01*
X-20806367Y14420356D01*
X-20720356Y14506367D01*
X-20652778Y14607504D01*
X-20630695Y14660818D01*
X-10217500Y14660818D01*
X-10217500Y14539182D01*
X-10193770Y14419882D01*
X-10147222Y14307504D01*
X-10079644Y14206367D01*
X-9993633Y14120356D01*
X-9892496Y14052778D01*
X-9780118Y14006230D01*
X-9660818Y13982500D01*
X-9539182Y13982500D01*
X-9419882Y14006230D01*
X-9307504Y14052778D01*
X-9206367Y14120356D01*
X-9120356Y14206367D01*
X-9052778Y14307504D01*
X-9006230Y14419882D01*
X-8982500Y14539182D01*
X-8982500Y14660818D01*
X-9006230Y14780118D01*
X-9052778Y14892496D01*
X-9098429Y14960818D01*
X-8717500Y14960818D01*
X-8717500Y14839182D01*
X-8693770Y14719882D01*
X-8647222Y14607504D01*
X-8579644Y14506367D01*
X-8493633Y14420356D01*
X-8392496Y14352778D01*
X-8280118Y14306230D01*
X-8160818Y14282500D01*
X-8039182Y14282500D01*
X-7919882Y14306230D01*
X-7807504Y14352778D01*
X-7706367Y14420356D01*
X-7620356Y14506367D01*
X-7552778Y14607504D01*
X-7530695Y14660818D01*
X-3217500Y14660818D01*
X-3217500Y14539182D01*
X-3193770Y14419882D01*
X-3147222Y14307504D01*
X-3079644Y14206367D01*
X-2993633Y14120356D01*
X-2892496Y14052778D01*
X-2780118Y14006230D01*
X-2660818Y13982500D01*
X-2539182Y13982500D01*
X-2419882Y14006230D01*
X-2307504Y14052778D01*
X-2206367Y14120356D01*
X-2120356Y14206367D01*
X-2052778Y14307504D01*
X-2006230Y14419882D01*
X-1982500Y14539182D01*
X-1982500Y14660818D01*
X-2006230Y14780118D01*
X-2052778Y14892496D01*
X-2120356Y14993633D01*
X-2206367Y15079644D01*
X-2307504Y15147222D01*
X-2419882Y15193770D01*
X-2539182Y15217500D01*
X-2660818Y15217500D01*
X-2780118Y15193770D01*
X-2892496Y15147222D01*
X-2993633Y15079644D01*
X-3079644Y14993633D01*
X-3147222Y14892496D01*
X-3193770Y14780118D01*
X-3217500Y14660818D01*
X-7530695Y14660818D01*
X-7506230Y14719882D01*
X-7482500Y14839182D01*
X-7482500Y14960818D01*
X-7506230Y15080118D01*
X-7552778Y15192496D01*
X-7620356Y15293633D01*
X-7706367Y15379644D01*
X-7807504Y15447222D01*
X-7919882Y15493770D01*
X-8039182Y15517500D01*
X-8160818Y15517500D01*
X-8280118Y15493770D01*
X-8392496Y15447222D01*
X-8493633Y15379644D01*
X-8579644Y15293633D01*
X-8647222Y15192496D01*
X-8693770Y15080118D01*
X-8717500Y14960818D01*
X-9098429Y14960818D01*
X-9120356Y14993633D01*
X-9206367Y15079644D01*
X-9307504Y15147222D01*
X-9419882Y15193770D01*
X-9539182Y15217500D01*
X-9660818Y15217500D01*
X-9780118Y15193770D01*
X-9892496Y15147222D01*
X-9993633Y15079644D01*
X-10079644Y14993633D01*
X-10147222Y14892496D01*
X-10193770Y14780118D01*
X-10217500Y14660818D01*
X-20630695Y14660818D01*
X-20606230Y14719882D01*
X-20582500Y14839182D01*
X-20582500Y14960818D01*
X-20606230Y15080118D01*
X-20652778Y15192496D01*
X-20720356Y15293633D01*
X-20806367Y15379644D01*
X-20907504Y15447222D01*
X-21019882Y15493770D01*
X-21139182Y15517500D01*
X-21260818Y15517500D01*
X-21380118Y15493770D01*
X-21492496Y15447222D01*
X-21593633Y15379644D01*
X-21679644Y15293633D01*
X-21747222Y15192496D01*
X-21793770Y15080118D01*
X-21817500Y14960818D01*
X-25132500Y14960818D01*
X-25132500Y16186500D01*
X-576993Y16186500D01*
X-576394Y16186008D01*
G37*
G04 #@! TD.AperFunction*
M02*
