G04 #@! TF.GenerationSoftware,KiCad,Pcbnew,(5.1.7)-1*
G04 #@! TF.CreationDate,2021-04-06T08:53:53-07:00*
G04 #@! TF.ProjectId,EsperDNS,45737065-7244-44e5-932e-6b696361645f,rev?*
G04 #@! TF.SameCoordinates,Original*
G04 #@! TF.FileFunction,Legend,Top*
G04 #@! TF.FilePolarity,Positive*
%FSLAX46Y46*%
G04 Gerber Fmt 4.6, Leading zero omitted, Abs format (unit mm)*
G04 Created by KiCad (PCBNEW (5.1.7)-1) date 2021-04-06 08:53:53*
%MOMM*%
%LPD*%
G01*
G04 APERTURE LIST*
G04 #@! TA.AperFunction,Profile*
%ADD10C,0.100000*%
G04 #@! TD*
%ADD11C,0.120000*%
%ADD12C,0.100000*%
%ADD13C,0.150000*%
G04 APERTURE END LIST*
D10*
X-25500000Y-19050000D02*
G75*
G03*
X-20550000Y-24000000I4950000J0D01*
G01*
X20550000Y-24000000D02*
G75*
G03*
X25500000Y-19050000I0J4950000D01*
G01*
X25500000Y19050000D02*
G75*
G03*
X20550000Y24000000I-4950000J0D01*
G01*
X-20550000Y24000000D02*
G75*
G03*
X-25500000Y19050000I0J-4950000D01*
G01*
D11*
X-15600000Y-19050000D02*
G75*
G03*
X-15600000Y-19050000I-4950000J0D01*
G01*
X25500000Y19050000D02*
G75*
G03*
X25500000Y19050000I-4950000J0D01*
G01*
X2350000Y20700000D02*
X2500000Y20850000D01*
X2650000Y20700000D02*
X2350000Y20700000D01*
X2500000Y20850000D02*
X2650000Y20700000D01*
X2500000Y20450000D02*
X2500000Y20850000D01*
D10*
X25500000Y19050000D02*
X25500000Y-19050000D01*
X-20550000Y24000000D02*
X20550000Y24000000D01*
X-25500000Y19050000D02*
X-25500000Y-19050000D01*
X-20550000Y-24000000D02*
X20550000Y-24000000D01*
D12*
X-14800000Y-9600000D02*
X-14300000Y-9600000D01*
X-14800000Y-9600000D02*
X-14800000Y-10100000D01*
X-14800000Y-14800000D02*
X-14800000Y-14300000D01*
X-14800000Y-14800000D02*
X-14300000Y-14800000D01*
X-9600000Y-14800000D02*
X-10100000Y-14800000D01*
X-9600000Y-14800000D02*
X-9600000Y-14300000D01*
X-9600000Y-9600000D02*
X-10400000Y-9600000D01*
X-10400000Y-9600000D02*
X-10400000Y-9400000D01*
X-9600000Y-9600000D02*
X-9600000Y-10100000D01*
D11*
X-13806000Y-19573500D02*
X-13356000Y-19573500D01*
X-13806000Y-21423500D02*
X-13806000Y-19573500D01*
X-6006000Y-23973500D02*
X-6006000Y-23723500D01*
X-13806000Y-23973500D02*
X-13806000Y-23723500D01*
X-6006000Y-21423500D02*
X-6006000Y-19573500D01*
X-6006000Y-19573500D02*
X-6456000Y-19573500D01*
X-11606000Y-19023500D02*
X-11156000Y-19023500D01*
X-11606000Y-19023500D02*
X-11606000Y-19473500D01*
X-3754000Y-6606000D02*
X-4684000Y-6606000D01*
X-6914000Y-6606000D02*
X-5984000Y-6606000D01*
X-6914000Y-6606000D02*
X-6914000Y-8766000D01*
X-3754000Y-6606000D02*
X-3754000Y-8066000D01*
X-6914000Y-11936000D02*
X-5984000Y-11936000D01*
X-3754000Y-11936000D02*
X-4684000Y-11936000D01*
X-3754000Y-11936000D02*
X-3754000Y-9776000D01*
X-6914000Y-11936000D02*
X-6914000Y-10476000D01*
X-461252Y-7735000D02*
X61252Y-7735000D01*
X-461252Y-6265000D02*
X61252Y-6265000D01*
X-436252Y-14335000D02*
X86252Y-14335000D01*
X-436252Y-12865000D02*
X86252Y-12865000D01*
X19322500Y2072742D02*
X19322500Y2547258D01*
X18277500Y2072742D02*
X18277500Y2547258D01*
X19877500Y2537258D02*
X19877500Y2062742D01*
X20922500Y2537258D02*
X20922500Y2062742D01*
X-1460000Y-9800378D02*
X-1460000Y-10599622D01*
X-340000Y-9800378D02*
X-340000Y-10599622D01*
X-3546359Y2580000D02*
X-3853641Y2580000D01*
X-3546359Y1820000D02*
X-3853641Y1820000D01*
X10865000Y5890000D02*
X10390000Y5890000D01*
X10390000Y5890000D02*
X10390000Y6365000D01*
X14135000Y10110000D02*
X14610000Y10110000D01*
X14610000Y10110000D02*
X14610000Y9635000D01*
X10865000Y10110000D02*
X10390000Y10110000D01*
X10390000Y10110000D02*
X10390000Y9635000D01*
X14135000Y5890000D02*
X14610000Y5890000D01*
X-23820000Y-2455000D02*
X-23820000Y-3235000D01*
X-23820000Y-3235000D02*
X-22820000Y-3235000D01*
X-5580000Y-2455000D02*
X-5580000Y-3235000D01*
X-5580000Y-3235000D02*
X-6580000Y-3235000D01*
X-23820000Y22510000D02*
X-5580000Y22510000D01*
X-5580000Y22510000D02*
X-5580000Y16090000D01*
X-23820000Y22510000D02*
X-23820000Y16090000D01*
X-23820000Y16090000D02*
X-24200000Y16090000D01*
X-4410000Y-21060000D02*
X-3150000Y-21060000D01*
X2410000Y-21060000D02*
X1150000Y-21060000D01*
X-4410000Y-17300000D02*
X-4410000Y-21060000D01*
X2410000Y-15050000D02*
X2410000Y-21060000D01*
X-21730000Y-12390000D02*
X-21500000Y-12390000D01*
X-25400000Y-12910000D02*
X-25400000Y-5190000D01*
X-25400000Y-5190000D02*
X-21500000Y-5190000D01*
X-18390000Y-12910000D02*
X-18390000Y-12390000D01*
X-25400000Y-12910000D02*
X-21500000Y-12910000D01*
X-21730000Y-5710000D02*
X-21500000Y-5710000D01*
X-18900000Y-12390000D02*
X-18390000Y-12390000D01*
X-18900000Y-12910000D02*
X-18390000Y-12910000D01*
X-21730000Y-6250000D02*
X-21730000Y-5710000D01*
X-18900000Y-5710000D02*
X-18390000Y-5710000D01*
X-18390000Y-5710000D02*
X-18390000Y-5190000D01*
X-18900000Y-5190000D02*
X-18390000Y-5190000D01*
X-21730000Y-12390000D02*
X-21730000Y-11850000D01*
X-21730000Y-10750000D02*
X-21730000Y-7350000D01*
X8420000Y17946359D02*
X8420000Y18253641D01*
X9180000Y17946359D02*
X9180000Y18253641D01*
X17880000Y2453641D02*
X17880000Y2146359D01*
X17120000Y2453641D02*
X17120000Y2146359D01*
X11320000Y11556359D02*
X11320000Y11863641D01*
X12080000Y11556359D02*
X12080000Y11863641D01*
X15820000Y12256359D02*
X15820000Y12563641D01*
X16580000Y12256359D02*
X16580000Y12563641D01*
X14820000Y12256359D02*
X14820000Y12563641D01*
X15580000Y12256359D02*
X15580000Y12563641D01*
X14636359Y-2020000D02*
X14943641Y-2020000D01*
X14636359Y-2780000D02*
X14943641Y-2780000D01*
X16963641Y-2780000D02*
X16656359Y-2780000D01*
X16963641Y-2020000D02*
X16656359Y-2020000D01*
X8636359Y-2020000D02*
X8943641Y-2020000D01*
X8636359Y-2780000D02*
X8943641Y-2780000D01*
X10963641Y-2780000D02*
X10656359Y-2780000D01*
X10963641Y-2020000D02*
X10656359Y-2020000D01*
X4220000Y-563641D02*
X4220000Y-256359D01*
X4980000Y-563641D02*
X4980000Y-256359D01*
X5420000Y-553641D02*
X5420000Y-246359D01*
X6180000Y-553641D02*
X6180000Y-246359D01*
X7980000Y18243641D02*
X7980000Y17936359D01*
X7220000Y18243641D02*
X7220000Y17936359D01*
X-3863641Y12680000D02*
X-3556359Y12680000D01*
X-3863641Y11920000D02*
X-3556359Y11920000D01*
X-17880000Y-9503641D02*
X-17880000Y-9196359D01*
X-17120000Y-9503641D02*
X-17120000Y-9196359D01*
X-3853641Y8880000D02*
X-3546359Y8880000D01*
X-3853641Y8120000D02*
X-3546359Y8120000D01*
X-3863641Y6480000D02*
X-3556359Y6480000D01*
X-3863641Y5720000D02*
X-3556359Y5720000D01*
X-2110000Y1660436D02*
X-2110000Y3114564D01*
X-290000Y1660436D02*
X-290000Y3114564D01*
X327500Y2087742D02*
X327500Y2562258D01*
X1372500Y2087742D02*
X1372500Y2562258D01*
X1977500Y2087742D02*
X1977500Y2562258D01*
X3022500Y2087742D02*
X3022500Y2562258D01*
X-9752359Y-5714000D02*
X-10059641Y-5714000D01*
X-9752359Y-4954000D02*
X-10059641Y-4954000D01*
X2170000Y17556359D02*
X2170000Y17863641D01*
X2930000Y17556359D02*
X2930000Y17863641D01*
X1260000Y12270000D02*
X1260000Y13200000D01*
X1260000Y15430000D02*
X1260000Y14500000D01*
X1260000Y15430000D02*
X-900000Y15430000D01*
X1260000Y12270000D02*
X-200000Y12270000D01*
X1260000Y5020000D02*
X1260000Y5950000D01*
X1260000Y8180000D02*
X1260000Y7250000D01*
X1260000Y8180000D02*
X-900000Y8180000D01*
X1260000Y5020000D02*
X-200000Y5020000D01*
X1260000Y8670000D02*
X1260000Y9600000D01*
X1260000Y11830000D02*
X1260000Y10900000D01*
X1260000Y11830000D02*
X-900000Y11830000D01*
X1260000Y8670000D02*
X-200000Y8670000D01*
X4490000Y-9690000D02*
X4490000Y-3410000D01*
X4490000Y-3410000D02*
X20440000Y-3410000D01*
X20440000Y-3410000D02*
X20440000Y-9690000D01*
X20440000Y-12890000D02*
X20440000Y-25330000D01*
X20440000Y-25330000D02*
X4490000Y-25330000D01*
X4490000Y-25330000D02*
X4490000Y-12890000D01*
X4290000Y-7000000D02*
X4290000Y-9000000D01*
X2100000Y-450000D02*
X1200000Y-450000D01*
X-1500000Y-450000D02*
X-1500000Y-5350000D01*
X2100000Y-5350000D02*
X2100000Y-450000D01*
X3235000Y19862500D02*
X3235000Y22147500D01*
X3235000Y22147500D02*
X1765000Y22147500D01*
X1765000Y22147500D02*
X1765000Y19862500D01*
X12672164Y-2040000D02*
X12887836Y-2040000D01*
X12672164Y-2760000D02*
X12887836Y-2760000D01*
X17090000Y10072164D02*
X17090000Y10287836D01*
X17810000Y10072164D02*
X17810000Y10287836D01*
X16040000Y10072164D02*
X16040000Y10287836D01*
X16760000Y10072164D02*
X16760000Y10287836D01*
X13492164Y11610000D02*
X13707836Y11610000D01*
X13492164Y10890000D02*
X13707836Y10890000D01*
X10327836Y4490000D02*
X10112164Y4490000D01*
X10327836Y5210000D02*
X10112164Y5210000D01*
X16010000Y5957836D02*
X16010000Y5742164D01*
X15290000Y5957836D02*
X15290000Y5742164D01*
X9640000Y17992164D02*
X9640000Y18207836D01*
X10360000Y17992164D02*
X10360000Y18207836D01*
X-5140000Y-16092164D02*
X-5140000Y-16307836D01*
X-5860000Y-16092164D02*
X-5860000Y-16307836D01*
X-6990000Y-16112164D02*
X-6990000Y-16327836D01*
X-7710000Y-16112164D02*
X-7710000Y-16327836D01*
D13*
X-8847619Y-12961904D02*
X-8038095Y-12961904D01*
X-7942857Y-12914285D01*
X-7895238Y-12866666D01*
X-7847619Y-12771428D01*
X-7847619Y-12580952D01*
X-7895238Y-12485714D01*
X-7942857Y-12438095D01*
X-8038095Y-12390476D01*
X-8847619Y-12390476D01*
X-8514285Y-11485714D02*
X-7847619Y-11485714D01*
X-8895238Y-11723809D02*
X-8180952Y-11961904D01*
X-8180952Y-11342857D01*
X-13088857Y-6707142D02*
X-13136476Y-6754761D01*
X-13279333Y-6802380D01*
X-13374571Y-6802380D01*
X-13517428Y-6754761D01*
X-13612666Y-6659523D01*
X-13660285Y-6564285D01*
X-13707904Y-6373809D01*
X-13707904Y-6230952D01*
X-13660285Y-6040476D01*
X-13612666Y-5945238D01*
X-13517428Y-5850000D01*
X-13374571Y-5802380D01*
X-13279333Y-5802380D01*
X-13136476Y-5850000D01*
X-13088857Y-5897619D01*
X-12136476Y-6802380D02*
X-12707904Y-6802380D01*
X-12422190Y-6802380D02*
X-12422190Y-5802380D01*
X-12517428Y-5945238D01*
X-12612666Y-6040476D01*
X-12707904Y-6088095D01*
X-11755523Y-5897619D02*
X-11707904Y-5850000D01*
X-11612666Y-5802380D01*
X-11374571Y-5802380D01*
X-11279333Y-5850000D01*
X-11231714Y-5897619D01*
X-11184095Y-5992857D01*
X-11184095Y-6088095D01*
X-11231714Y-6230952D01*
X-11803142Y-6802380D01*
X-11184095Y-6802380D01*
X-10239333Y-17675880D02*
X-10239333Y-18390166D01*
X-10286952Y-18533023D01*
X-10382190Y-18628261D01*
X-10525047Y-18675880D01*
X-10620285Y-18675880D01*
X-9239333Y-18675880D02*
X-9810761Y-18675880D01*
X-9525047Y-18675880D02*
X-9525047Y-17675880D01*
X-9620285Y-17818738D01*
X-9715523Y-17913976D01*
X-9810761Y-17961595D01*
X-2246380Y-7715238D02*
X-2294000Y-7810476D01*
X-2389238Y-7905714D01*
X-2532095Y-8048571D01*
X-2579714Y-8143809D01*
X-2579714Y-8239047D01*
X-2341619Y-8191428D02*
X-2389238Y-8286666D01*
X-2484476Y-8381904D01*
X-2674952Y-8429523D01*
X-3008285Y-8429523D01*
X-3198761Y-8381904D01*
X-3294000Y-8286666D01*
X-3341619Y-8191428D01*
X-3341619Y-8000952D01*
X-3294000Y-7905714D01*
X-3198761Y-7810476D01*
X-3008285Y-7762857D01*
X-2674952Y-7762857D01*
X-2484476Y-7810476D01*
X-2389238Y-7905714D01*
X-2341619Y-8000952D01*
X-2341619Y-8191428D01*
X-3341619Y-6858095D02*
X-3341619Y-7334285D01*
X-2865428Y-7381904D01*
X-2913047Y-7334285D01*
X-2960666Y-7239047D01*
X-2960666Y-7000952D01*
X-2913047Y-6905714D01*
X-2865428Y-6858095D01*
X-2770190Y-6810476D01*
X-2532095Y-6810476D01*
X-2436857Y-6858095D01*
X-2389238Y-6905714D01*
X-2341619Y-7000952D01*
X-2341619Y-7239047D01*
X-2389238Y-7334285D01*
X-2436857Y-7381904D01*
X-2246380Y-11271238D02*
X-2294000Y-11366476D01*
X-2389238Y-11461714D01*
X-2532095Y-11604571D01*
X-2579714Y-11699809D01*
X-2579714Y-11795047D01*
X-2341619Y-11747428D02*
X-2389238Y-11842666D01*
X-2484476Y-11937904D01*
X-2674952Y-11985523D01*
X-3008285Y-11985523D01*
X-3198761Y-11937904D01*
X-3294000Y-11842666D01*
X-3341619Y-11747428D01*
X-3341619Y-11556952D01*
X-3294000Y-11461714D01*
X-3198761Y-11366476D01*
X-3008285Y-11318857D01*
X-2674952Y-11318857D01*
X-2484476Y-11366476D01*
X-2389238Y-11461714D01*
X-2341619Y-11556952D01*
X-2341619Y-11747428D01*
X-3008285Y-10461714D02*
X-2341619Y-10461714D01*
X-3389238Y-10699809D02*
X-2674952Y-10937904D01*
X-2674952Y-10318857D01*
X847142Y-9017142D02*
X799523Y-9064761D01*
X656666Y-9112380D01*
X561428Y-9112380D01*
X418571Y-9064761D01*
X323333Y-8969523D01*
X275714Y-8874285D01*
X228095Y-8683809D01*
X228095Y-8540952D01*
X275714Y-8350476D01*
X323333Y-8255238D01*
X418571Y-8160000D01*
X561428Y-8112380D01*
X656666Y-8112380D01*
X799523Y-8160000D01*
X847142Y-8207619D01*
X1799523Y-9112380D02*
X1228095Y-9112380D01*
X1513809Y-9112380D02*
X1513809Y-8112380D01*
X1418571Y-8255238D01*
X1323333Y-8350476D01*
X1228095Y-8398095D01*
X2418571Y-8112380D02*
X2513809Y-8112380D01*
X2609047Y-8160000D01*
X2656666Y-8207619D01*
X2704285Y-8302857D01*
X2751904Y-8493333D01*
X2751904Y-8731428D01*
X2704285Y-8921904D01*
X2656666Y-9017142D01*
X2609047Y-9064761D01*
X2513809Y-9112380D01*
X2418571Y-9112380D01*
X2323333Y-9064761D01*
X2275714Y-9017142D01*
X2228095Y-8921904D01*
X2180476Y-8731428D01*
X2180476Y-8493333D01*
X2228095Y-8302857D01*
X2275714Y-8207619D01*
X2323333Y-8160000D01*
X2418571Y-8112380D01*
X2607142Y-13656666D02*
X2654761Y-13704285D01*
X2702380Y-13847142D01*
X2702380Y-13942380D01*
X2654761Y-14085238D01*
X2559523Y-14180476D01*
X2464285Y-14228095D01*
X2273809Y-14275714D01*
X2130952Y-14275714D01*
X1940476Y-14228095D01*
X1845238Y-14180476D01*
X1750000Y-14085238D01*
X1702380Y-13942380D01*
X1702380Y-13847142D01*
X1750000Y-13704285D01*
X1797619Y-13656666D01*
X1702380Y-13323333D02*
X1702380Y-12704285D01*
X2083333Y-13037619D01*
X2083333Y-12894761D01*
X2130952Y-12799523D01*
X2178571Y-12751904D01*
X2273809Y-12704285D01*
X2511904Y-12704285D01*
X2607142Y-12751904D01*
X2654761Y-12799523D01*
X2702380Y-12894761D01*
X2702380Y-13180476D01*
X2654761Y-13275714D01*
X2607142Y-13323333D01*
X18157142Y4747619D02*
X17823809Y5223809D01*
X17585714Y4747619D02*
X17585714Y5747619D01*
X17966666Y5747619D01*
X18061904Y5700000D01*
X18109523Y5652380D01*
X18157142Y5557142D01*
X18157142Y5414285D01*
X18109523Y5319047D01*
X18061904Y5271428D01*
X17966666Y5223809D01*
X17585714Y5223809D01*
X18538095Y5652380D02*
X18585714Y5700000D01*
X18680952Y5747619D01*
X18919047Y5747619D01*
X19014285Y5700000D01*
X19061904Y5652380D01*
X19109523Y5557142D01*
X19109523Y5461904D01*
X19061904Y5319047D01*
X18490476Y4747619D01*
X19109523Y4747619D01*
X20061904Y4747619D02*
X19490476Y4747619D01*
X19776190Y4747619D02*
X19776190Y5747619D01*
X19680952Y5604761D01*
X19585714Y5509523D01*
X19490476Y5461904D01*
X20657142Y-552380D02*
X20323809Y-76190D01*
X20085714Y-552380D02*
X20085714Y447619D01*
X20466666Y447619D01*
X20561904Y400000D01*
X20609523Y352380D01*
X20657142Y257142D01*
X20657142Y114285D01*
X20609523Y19047D01*
X20561904Y-28571D01*
X20466666Y-76190D01*
X20085714Y-76190D01*
X21609523Y-552380D02*
X21038095Y-552380D01*
X21323809Y-552380D02*
X21323809Y447619D01*
X21228571Y304761D01*
X21133333Y209523D01*
X21038095Y161904D01*
X21942857Y447619D02*
X22609523Y447619D01*
X22180952Y-552380D01*
X576666Y-10458571D02*
X243333Y-10458571D01*
X243333Y-10982380D02*
X243333Y-9982380D01*
X719523Y-9982380D01*
X1433809Y-10458571D02*
X1576666Y-10506190D01*
X1624285Y-10553809D01*
X1671904Y-10649047D01*
X1671904Y-10791904D01*
X1624285Y-10887142D01*
X1576666Y-10934761D01*
X1481428Y-10982380D01*
X1100476Y-10982380D01*
X1100476Y-9982380D01*
X1433809Y-9982380D01*
X1529047Y-10030000D01*
X1576666Y-10077619D01*
X1624285Y-10172857D01*
X1624285Y-10268095D01*
X1576666Y-10363333D01*
X1529047Y-10410952D01*
X1433809Y-10458571D01*
X1100476Y-10458571D01*
X2052857Y-10077619D02*
X2100476Y-10030000D01*
X2195714Y-9982380D01*
X2433809Y-9982380D01*
X2529047Y-10030000D01*
X2576666Y-10077619D01*
X2624285Y-10172857D01*
X2624285Y-10268095D01*
X2576666Y-10410952D01*
X2005238Y-10982380D01*
X2624285Y-10982380D01*
X-3247619Y3557142D02*
X-3723809Y3223809D01*
X-3247619Y2985714D02*
X-4247619Y2985714D01*
X-4247619Y3366666D01*
X-4200000Y3461904D01*
X-4152380Y3509523D01*
X-4057142Y3557142D01*
X-3914285Y3557142D01*
X-3819047Y3509523D01*
X-3771428Y3461904D01*
X-3723809Y3366666D01*
X-3723809Y2985714D01*
X-4152380Y3938095D02*
X-4200000Y3985714D01*
X-4247619Y4080952D01*
X-4247619Y4319047D01*
X-4200000Y4414285D01*
X-4152380Y4461904D01*
X-4057142Y4509523D01*
X-3961904Y4509523D01*
X-3819047Y4461904D01*
X-3247619Y3890476D01*
X-3247619Y4509523D01*
X-4152380Y4890476D02*
X-4200000Y4938095D01*
X-4247619Y5033333D01*
X-4247619Y5271428D01*
X-4200000Y5366666D01*
X-4152380Y5414285D01*
X-4057142Y5461904D01*
X-3961904Y5461904D01*
X-3819047Y5414285D01*
X-3247619Y4842857D01*
X-3247619Y5461904D01*
X7938095Y11047619D02*
X7938095Y10238095D01*
X7985714Y10142857D01*
X8033333Y10095238D01*
X8128571Y10047619D01*
X8319047Y10047619D01*
X8414285Y10095238D01*
X8461904Y10142857D01*
X8509523Y10238095D01*
X8509523Y11047619D01*
X8890476Y11047619D02*
X9509523Y11047619D01*
X9176190Y10666666D01*
X9319047Y10666666D01*
X9414285Y10619047D01*
X9461904Y10571428D01*
X9509523Y10476190D01*
X9509523Y10238095D01*
X9461904Y10142857D01*
X9414285Y10095238D01*
X9319047Y10047619D01*
X9033333Y10047619D01*
X8938095Y10095238D01*
X8890476Y10142857D01*
X-25857619Y-2546904D02*
X-25048095Y-2546904D01*
X-24952857Y-2499285D01*
X-24905238Y-2451666D01*
X-24857619Y-2356428D01*
X-24857619Y-2165952D01*
X-24905238Y-2070714D01*
X-24952857Y-2023095D01*
X-25048095Y-1975476D01*
X-25857619Y-1975476D01*
X-25762380Y-1546904D02*
X-25810000Y-1499285D01*
X-25857619Y-1404047D01*
X-25857619Y-1165952D01*
X-25810000Y-1070714D01*
X-25762380Y-1023095D01*
X-25667142Y-975476D01*
X-25571904Y-975476D01*
X-25429047Y-1023095D01*
X-24857619Y-1594523D01*
X-24857619Y-975476D01*
X2952380Y-19911904D02*
X3761904Y-19911904D01*
X3857142Y-19864285D01*
X3904761Y-19816666D01*
X3952380Y-19721428D01*
X3952380Y-19530952D01*
X3904761Y-19435714D01*
X3857142Y-19388095D01*
X3761904Y-19340476D01*
X2952380Y-19340476D01*
X3952380Y-18340476D02*
X3952380Y-18911904D01*
X3952380Y-18626190D02*
X2952380Y-18626190D01*
X3095238Y-18721428D01*
X3190476Y-18816666D01*
X3238095Y-18911904D01*
X-20615238Y-10383333D02*
X-20567619Y-10240476D01*
X-20567619Y-10002380D01*
X-20615238Y-9907142D01*
X-20662857Y-9859523D01*
X-20758095Y-9811904D01*
X-20853333Y-9811904D01*
X-20948571Y-9859523D01*
X-20996190Y-9907142D01*
X-21043809Y-10002380D01*
X-21091428Y-10192857D01*
X-21139047Y-10288095D01*
X-21186666Y-10335714D01*
X-21281904Y-10383333D01*
X-21377142Y-10383333D01*
X-21472380Y-10335714D01*
X-21520000Y-10288095D01*
X-21567619Y-10192857D01*
X-21567619Y-9954761D01*
X-21520000Y-9811904D01*
X-21567619Y-9478571D02*
X-20567619Y-9240476D01*
X-21281904Y-9050000D01*
X-20567619Y-8859523D01*
X-21567619Y-8621428D01*
X-20567619Y-7716666D02*
X-20567619Y-8288095D01*
X-20567619Y-8002380D02*
X-21567619Y-8002380D01*
X-21424761Y-8097619D01*
X-21329523Y-8192857D01*
X-21281904Y-8288095D01*
X8157142Y19947619D02*
X7823809Y20423809D01*
X7585714Y19947619D02*
X7585714Y20947619D01*
X7966666Y20947619D01*
X8061904Y20900000D01*
X8109523Y20852380D01*
X8157142Y20757142D01*
X8157142Y20614285D01*
X8109523Y20519047D01*
X8061904Y20471428D01*
X7966666Y20423809D01*
X7585714Y20423809D01*
X8538095Y20852380D02*
X8585714Y20900000D01*
X8680952Y20947619D01*
X8919047Y20947619D01*
X9014285Y20900000D01*
X9061904Y20852380D01*
X9109523Y20757142D01*
X9109523Y20661904D01*
X9061904Y20519047D01*
X8490476Y19947619D01*
X9109523Y19947619D01*
X9966666Y20614285D02*
X9966666Y19947619D01*
X9728571Y20995238D02*
X9490476Y20280952D01*
X10109523Y20280952D01*
X15857142Y-52380D02*
X15523809Y423809D01*
X15285714Y-52380D02*
X15285714Y947619D01*
X15666666Y947619D01*
X15761904Y900000D01*
X15809523Y852380D01*
X15857142Y757142D01*
X15857142Y614285D01*
X15809523Y519047D01*
X15761904Y471428D01*
X15666666Y423809D01*
X15285714Y423809D01*
X16238095Y852380D02*
X16285714Y900000D01*
X16380952Y947619D01*
X16619047Y947619D01*
X16714285Y900000D01*
X16761904Y852380D01*
X16809523Y757142D01*
X16809523Y661904D01*
X16761904Y519047D01*
X16190476Y-52380D01*
X16809523Y-52380D01*
X17142857Y947619D02*
X17761904Y947619D01*
X17428571Y566666D01*
X17571428Y566666D01*
X17666666Y519047D01*
X17714285Y471428D01*
X17761904Y376190D01*
X17761904Y138095D01*
X17714285Y42857D01*
X17666666Y-4761D01*
X17571428Y-52380D01*
X17285714Y-52380D01*
X17190476Y-4761D01*
X17142857Y42857D01*
X10982380Y11457142D02*
X10506190Y11123809D01*
X10982380Y10885714D02*
X9982380Y10885714D01*
X9982380Y11266666D01*
X10030000Y11361904D01*
X10077619Y11409523D01*
X10172857Y11457142D01*
X10315714Y11457142D01*
X10410952Y11409523D01*
X10458571Y11361904D01*
X10506190Y11266666D01*
X10506190Y10885714D01*
X10077619Y11838095D02*
X10030000Y11885714D01*
X9982380Y11980952D01*
X9982380Y12219047D01*
X10030000Y12314285D01*
X10077619Y12361904D01*
X10172857Y12409523D01*
X10268095Y12409523D01*
X10410952Y12361904D01*
X10982380Y11790476D01*
X10982380Y12409523D01*
X9982380Y13028571D02*
X9982380Y13123809D01*
X10030000Y13219047D01*
X10077619Y13266666D01*
X10172857Y13314285D01*
X10363333Y13361904D01*
X10601428Y13361904D01*
X10791904Y13314285D01*
X10887142Y13266666D01*
X10934761Y13219047D01*
X10982380Y13123809D01*
X10982380Y13028571D01*
X10934761Y12933333D01*
X10887142Y12885714D01*
X10791904Y12838095D01*
X10601428Y12790476D01*
X10363333Y12790476D01*
X10172857Y12838095D01*
X10077619Y12885714D01*
X10030000Y12933333D01*
X9982380Y13028571D01*
X19152380Y11857142D02*
X18676190Y11523809D01*
X19152380Y11285714D02*
X18152380Y11285714D01*
X18152380Y11666666D01*
X18200000Y11761904D01*
X18247619Y11809523D01*
X18342857Y11857142D01*
X18485714Y11857142D01*
X18580952Y11809523D01*
X18628571Y11761904D01*
X18676190Y11666666D01*
X18676190Y11285714D01*
X19152380Y12809523D02*
X19152380Y12238095D01*
X19152380Y12523809D02*
X18152380Y12523809D01*
X18295238Y12428571D01*
X18390476Y12333333D01*
X18438095Y12238095D01*
X19152380Y13285714D02*
X19152380Y13476190D01*
X19104761Y13571428D01*
X19057142Y13619047D01*
X18914285Y13714285D01*
X18723809Y13761904D01*
X18342857Y13761904D01*
X18247619Y13714285D01*
X18200000Y13666666D01*
X18152380Y13571428D01*
X18152380Y13380952D01*
X18200000Y13285714D01*
X18247619Y13238095D01*
X18342857Y13190476D01*
X18580952Y13190476D01*
X18676190Y13238095D01*
X18723809Y13285714D01*
X18771428Y13380952D01*
X18771428Y13571428D01*
X18723809Y13666666D01*
X18676190Y13714285D01*
X18580952Y13761904D01*
X17852380Y11857142D02*
X17376190Y11523809D01*
X17852380Y11285714D02*
X16852380Y11285714D01*
X16852380Y11666666D01*
X16900000Y11761904D01*
X16947619Y11809523D01*
X17042857Y11857142D01*
X17185714Y11857142D01*
X17280952Y11809523D01*
X17328571Y11761904D01*
X17376190Y11666666D01*
X17376190Y11285714D01*
X17852380Y12809523D02*
X17852380Y12238095D01*
X17852380Y12523809D02*
X16852380Y12523809D01*
X16995238Y12428571D01*
X17090476Y12333333D01*
X17138095Y12238095D01*
X17280952Y13380952D02*
X17233333Y13285714D01*
X17185714Y13238095D01*
X17090476Y13190476D01*
X17042857Y13190476D01*
X16947619Y13238095D01*
X16900000Y13285714D01*
X16852380Y13380952D01*
X16852380Y13571428D01*
X16900000Y13666666D01*
X16947619Y13714285D01*
X17042857Y13761904D01*
X17090476Y13761904D01*
X17185714Y13714285D01*
X17233333Y13666666D01*
X17280952Y13571428D01*
X17280952Y13380952D01*
X17328571Y13285714D01*
X17376190Y13238095D01*
X17471428Y13190476D01*
X17661904Y13190476D01*
X17757142Y13238095D01*
X17804761Y13285714D01*
X17852380Y13380952D01*
X17852380Y13571428D01*
X17804761Y13666666D01*
X17757142Y13714285D01*
X17661904Y13761904D01*
X17471428Y13761904D01*
X17376190Y13714285D01*
X17328571Y13666666D01*
X17280952Y13571428D01*
X15057142Y-1682380D02*
X14723809Y-1206190D01*
X14485714Y-1682380D02*
X14485714Y-682380D01*
X14866666Y-682380D01*
X14961904Y-730000D01*
X15009523Y-777619D01*
X15057142Y-872857D01*
X15057142Y-1015714D01*
X15009523Y-1110952D01*
X14961904Y-1158571D01*
X14866666Y-1206190D01*
X14485714Y-1206190D01*
X16009523Y-1682380D02*
X15438095Y-1682380D01*
X15723809Y-1682380D02*
X15723809Y-682380D01*
X15628571Y-825238D01*
X15533333Y-920476D01*
X15438095Y-968095D01*
X16866666Y-682380D02*
X16676190Y-682380D01*
X16580952Y-730000D01*
X16533333Y-777619D01*
X16438095Y-920476D01*
X16390476Y-1110952D01*
X16390476Y-1491904D01*
X16438095Y-1587142D01*
X16485714Y-1634761D01*
X16580952Y-1682380D01*
X16771428Y-1682380D01*
X16866666Y-1634761D01*
X16914285Y-1587142D01*
X16961904Y-1491904D01*
X16961904Y-1253809D01*
X16914285Y-1158571D01*
X16866666Y-1110952D01*
X16771428Y-1063333D01*
X16580952Y-1063333D01*
X16485714Y-1110952D01*
X16438095Y-1158571D01*
X16390476Y-1253809D01*
X18657142Y-2852380D02*
X18323809Y-2376190D01*
X18085714Y-2852380D02*
X18085714Y-1852380D01*
X18466666Y-1852380D01*
X18561904Y-1900000D01*
X18609523Y-1947619D01*
X18657142Y-2042857D01*
X18657142Y-2185714D01*
X18609523Y-2280952D01*
X18561904Y-2328571D01*
X18466666Y-2376190D01*
X18085714Y-2376190D01*
X19609523Y-2852380D02*
X19038095Y-2852380D01*
X19323809Y-2852380D02*
X19323809Y-1852380D01*
X19228571Y-1995238D01*
X19133333Y-2090476D01*
X19038095Y-2138095D01*
X20514285Y-1852380D02*
X20038095Y-1852380D01*
X19990476Y-2328571D01*
X20038095Y-2280952D01*
X20133333Y-2233333D01*
X20371428Y-2233333D01*
X20466666Y-2280952D01*
X20514285Y-2328571D01*
X20561904Y-2423809D01*
X20561904Y-2661904D01*
X20514285Y-2757142D01*
X20466666Y-2804761D01*
X20371428Y-2852380D01*
X20133333Y-2852380D01*
X20038095Y-2804761D01*
X19990476Y-2757142D01*
X5657142Y-2852380D02*
X5323809Y-2376190D01*
X5085714Y-2852380D02*
X5085714Y-1852380D01*
X5466666Y-1852380D01*
X5561904Y-1900000D01*
X5609523Y-1947619D01*
X5657142Y-2042857D01*
X5657142Y-2185714D01*
X5609523Y-2280952D01*
X5561904Y-2328571D01*
X5466666Y-2376190D01*
X5085714Y-2376190D01*
X6609523Y-2852380D02*
X6038095Y-2852380D01*
X6323809Y-2852380D02*
X6323809Y-1852380D01*
X6228571Y-1995238D01*
X6133333Y-2090476D01*
X6038095Y-2138095D01*
X7466666Y-2185714D02*
X7466666Y-2852380D01*
X7228571Y-1804761D02*
X6990476Y-2519047D01*
X7609523Y-2519047D01*
X8957142Y-1652380D02*
X8623809Y-1176190D01*
X8385714Y-1652380D02*
X8385714Y-652380D01*
X8766666Y-652380D01*
X8861904Y-700000D01*
X8909523Y-747619D01*
X8957142Y-842857D01*
X8957142Y-985714D01*
X8909523Y-1080952D01*
X8861904Y-1128571D01*
X8766666Y-1176190D01*
X8385714Y-1176190D01*
X9909523Y-1652380D02*
X9338095Y-1652380D01*
X9623809Y-1652380D02*
X9623809Y-652380D01*
X9528571Y-795238D01*
X9433333Y-890476D01*
X9338095Y-938095D01*
X10242857Y-652380D02*
X10861904Y-652380D01*
X10528571Y-1033333D01*
X10671428Y-1033333D01*
X10766666Y-1080952D01*
X10814285Y-1128571D01*
X10861904Y-1223809D01*
X10861904Y-1461904D01*
X10814285Y-1557142D01*
X10766666Y-1604761D01*
X10671428Y-1652380D01*
X10385714Y-1652380D01*
X10290476Y-1604761D01*
X10242857Y-1557142D01*
X3882380Y-1052857D02*
X3406190Y-1386190D01*
X3882380Y-1624285D02*
X2882380Y-1624285D01*
X2882380Y-1243333D01*
X2930000Y-1148095D01*
X2977619Y-1100476D01*
X3072857Y-1052857D01*
X3215714Y-1052857D01*
X3310952Y-1100476D01*
X3358571Y-1148095D01*
X3406190Y-1243333D01*
X3406190Y-1624285D01*
X3882380Y-100476D02*
X3882380Y-671904D01*
X3882380Y-386190D02*
X2882380Y-386190D01*
X3025238Y-481428D01*
X3120476Y-576666D01*
X3168095Y-671904D01*
X2977619Y280476D02*
X2930000Y328095D01*
X2882380Y423333D01*
X2882380Y661428D01*
X2930000Y756666D01*
X2977619Y804285D01*
X3072857Y851904D01*
X3168095Y851904D01*
X3310952Y804285D01*
X3882380Y232857D01*
X3882380Y851904D01*
X7452380Y-942857D02*
X6976190Y-1276190D01*
X7452380Y-1514285D02*
X6452380Y-1514285D01*
X6452380Y-1133333D01*
X6500000Y-1038095D01*
X6547619Y-990476D01*
X6642857Y-942857D01*
X6785714Y-942857D01*
X6880952Y-990476D01*
X6928571Y-1038095D01*
X6976190Y-1133333D01*
X6976190Y-1514285D01*
X7452380Y9523D02*
X7452380Y-561904D01*
X7452380Y-276190D02*
X6452380Y-276190D01*
X6595238Y-371428D01*
X6690476Y-466666D01*
X6738095Y-561904D01*
X7452380Y961904D02*
X7452380Y390476D01*
X7452380Y676190D02*
X6452380Y676190D01*
X6595238Y580952D01*
X6690476Y485714D01*
X6738095Y390476D01*
X6757142Y15947619D02*
X6423809Y16423809D01*
X6185714Y15947619D02*
X6185714Y16947619D01*
X6566666Y16947619D01*
X6661904Y16900000D01*
X6709523Y16852380D01*
X6757142Y16757142D01*
X6757142Y16614285D01*
X6709523Y16519047D01*
X6661904Y16471428D01*
X6566666Y16423809D01*
X6185714Y16423809D01*
X7709523Y15947619D02*
X7138095Y15947619D01*
X7423809Y15947619D02*
X7423809Y16947619D01*
X7328571Y16804761D01*
X7233333Y16709523D01*
X7138095Y16661904D01*
X8328571Y16947619D02*
X8423809Y16947619D01*
X8519047Y16900000D01*
X8566666Y16852380D01*
X8614285Y16757142D01*
X8661904Y16566666D01*
X8661904Y16328571D01*
X8614285Y16138095D01*
X8566666Y16042857D01*
X8519047Y15995238D01*
X8423809Y15947619D01*
X8328571Y15947619D01*
X8233333Y15995238D01*
X8185714Y16042857D01*
X8138095Y16138095D01*
X8090476Y16328571D01*
X8090476Y16566666D01*
X8138095Y16757142D01*
X8185714Y16852380D01*
X8233333Y16900000D01*
X8328571Y16947619D01*
X-3876666Y13017619D02*
X-4210000Y13493809D01*
X-4448095Y13017619D02*
X-4448095Y14017619D01*
X-4067142Y14017619D01*
X-3971904Y13970000D01*
X-3924285Y13922380D01*
X-3876666Y13827142D01*
X-3876666Y13684285D01*
X-3924285Y13589047D01*
X-3971904Y13541428D01*
X-4067142Y13493809D01*
X-4448095Y13493809D01*
X-3400476Y13017619D02*
X-3210000Y13017619D01*
X-3114761Y13065238D01*
X-3067142Y13112857D01*
X-2971904Y13255714D01*
X-2924285Y13446190D01*
X-2924285Y13827142D01*
X-2971904Y13922380D01*
X-3019523Y13970000D01*
X-3114761Y14017619D01*
X-3305238Y14017619D01*
X-3400476Y13970000D01*
X-3448095Y13922380D01*
X-3495714Y13827142D01*
X-3495714Y13589047D01*
X-3448095Y13493809D01*
X-3400476Y13446190D01*
X-3305238Y13398571D01*
X-3114761Y13398571D01*
X-3019523Y13446190D01*
X-2971904Y13493809D01*
X-2924285Y13589047D01*
X-17047619Y-7566666D02*
X-17523809Y-7900000D01*
X-17047619Y-8138095D02*
X-18047619Y-8138095D01*
X-18047619Y-7757142D01*
X-18000000Y-7661904D01*
X-17952380Y-7614285D01*
X-17857142Y-7566666D01*
X-17714285Y-7566666D01*
X-17619047Y-7614285D01*
X-17571428Y-7661904D01*
X-17523809Y-7757142D01*
X-17523809Y-8138095D01*
X-17619047Y-6995238D02*
X-17666666Y-7090476D01*
X-17714285Y-7138095D01*
X-17809523Y-7185714D01*
X-17857142Y-7185714D01*
X-17952380Y-7138095D01*
X-18000000Y-7090476D01*
X-18047619Y-6995238D01*
X-18047619Y-6804761D01*
X-18000000Y-6709523D01*
X-17952380Y-6661904D01*
X-17857142Y-6614285D01*
X-17809523Y-6614285D01*
X-17714285Y-6661904D01*
X-17666666Y-6709523D01*
X-17619047Y-6804761D01*
X-17619047Y-6995238D01*
X-17571428Y-7090476D01*
X-17523809Y-7138095D01*
X-17428571Y-7185714D01*
X-17238095Y-7185714D01*
X-17142857Y-7138095D01*
X-17095238Y-7090476D01*
X-17047619Y-6995238D01*
X-17047619Y-6804761D01*
X-17095238Y-6709523D01*
X-17142857Y-6661904D01*
X-17238095Y-6614285D01*
X-17428571Y-6614285D01*
X-17523809Y-6661904D01*
X-17571428Y-6709523D01*
X-17619047Y-6804761D01*
X-3866666Y9217619D02*
X-4200000Y9693809D01*
X-4438095Y9217619D02*
X-4438095Y10217619D01*
X-4057142Y10217619D01*
X-3961904Y10170000D01*
X-3914285Y10122380D01*
X-3866666Y10027142D01*
X-3866666Y9884285D01*
X-3914285Y9789047D01*
X-3961904Y9741428D01*
X-4057142Y9693809D01*
X-4438095Y9693809D01*
X-3533333Y10217619D02*
X-2866666Y10217619D01*
X-3295238Y9217619D01*
X-2666666Y6847619D02*
X-3000000Y7323809D01*
X-3238095Y6847619D02*
X-3238095Y7847619D01*
X-2857142Y7847619D01*
X-2761904Y7800000D01*
X-2714285Y7752380D01*
X-2666666Y7657142D01*
X-2666666Y7514285D01*
X-2714285Y7419047D01*
X-2761904Y7371428D01*
X-2857142Y7323809D01*
X-3238095Y7323809D01*
X-1809523Y7847619D02*
X-2000000Y7847619D01*
X-2095238Y7800000D01*
X-2142857Y7752380D01*
X-2238095Y7609523D01*
X-2285714Y7419047D01*
X-2285714Y7038095D01*
X-2238095Y6942857D01*
X-2190476Y6895238D01*
X-2095238Y6847619D01*
X-1904761Y6847619D01*
X-1809523Y6895238D01*
X-1761904Y6942857D01*
X-1714285Y7038095D01*
X-1714285Y7276190D01*
X-1761904Y7371428D01*
X-1809523Y7419047D01*
X-1904761Y7466666D01*
X-2095238Y7466666D01*
X-2190476Y7419047D01*
X-2238095Y7371428D01*
X-2285714Y7276190D01*
X-2547619Y233333D02*
X-3023809Y-100000D01*
X-2547619Y-338095D02*
X-3547619Y-338095D01*
X-3547619Y42857D01*
X-3500000Y138095D01*
X-3452380Y185714D01*
X-3357142Y233333D01*
X-3214285Y233333D01*
X-3119047Y185714D01*
X-3071428Y138095D01*
X-3023809Y42857D01*
X-3023809Y-338095D01*
X-3547619Y1138095D02*
X-3547619Y661904D01*
X-3071428Y614285D01*
X-3119047Y661904D01*
X-3166666Y757142D01*
X-3166666Y995238D01*
X-3119047Y1090476D01*
X-3071428Y1138095D01*
X-2976190Y1185714D01*
X-2738095Y1185714D01*
X-2642857Y1138095D01*
X-2595238Y1090476D01*
X-2547619Y995238D01*
X-2547619Y757142D01*
X-2595238Y661904D01*
X-2642857Y614285D01*
X4452380Y2158333D02*
X3976190Y1825000D01*
X4452380Y1586904D02*
X3452380Y1586904D01*
X3452380Y1967857D01*
X3500000Y2063095D01*
X3547619Y2110714D01*
X3642857Y2158333D01*
X3785714Y2158333D01*
X3880952Y2110714D01*
X3928571Y2063095D01*
X3976190Y1967857D01*
X3976190Y1586904D01*
X3785714Y3015476D02*
X4452380Y3015476D01*
X3404761Y2777380D02*
X4119047Y2539285D01*
X4119047Y3158333D01*
X5752380Y2158333D02*
X5276190Y1825000D01*
X5752380Y1586904D02*
X4752380Y1586904D01*
X4752380Y1967857D01*
X4800000Y2063095D01*
X4847619Y2110714D01*
X4942857Y2158333D01*
X5085714Y2158333D01*
X5180952Y2110714D01*
X5228571Y2063095D01*
X5276190Y1967857D01*
X5276190Y1586904D01*
X4752380Y2491666D02*
X4752380Y3110714D01*
X5133333Y2777380D01*
X5133333Y2920238D01*
X5180952Y3015476D01*
X5228571Y3063095D01*
X5323809Y3110714D01*
X5561904Y3110714D01*
X5657142Y3063095D01*
X5704761Y3015476D01*
X5752380Y2920238D01*
X5752380Y2634523D01*
X5704761Y2539285D01*
X5657142Y2491666D01*
X-12358666Y-5532380D02*
X-12692000Y-5056190D01*
X-12930095Y-5532380D02*
X-12930095Y-4532380D01*
X-12549142Y-4532380D01*
X-12453904Y-4580000D01*
X-12406285Y-4627619D01*
X-12358666Y-4722857D01*
X-12358666Y-4865714D01*
X-12406285Y-4960952D01*
X-12453904Y-5008571D01*
X-12549142Y-5056190D01*
X-12930095Y-5056190D01*
X-11977714Y-4627619D02*
X-11930095Y-4580000D01*
X-11834857Y-4532380D01*
X-11596761Y-4532380D01*
X-11501523Y-4580000D01*
X-11453904Y-4627619D01*
X-11406285Y-4722857D01*
X-11406285Y-4818095D01*
X-11453904Y-4960952D01*
X-12025333Y-5532380D01*
X-11406285Y-5532380D01*
X1832380Y17543333D02*
X1356190Y17210000D01*
X1832380Y16971904D02*
X832380Y16971904D01*
X832380Y17352857D01*
X880000Y17448095D01*
X927619Y17495714D01*
X1022857Y17543333D01*
X1165714Y17543333D01*
X1260952Y17495714D01*
X1308571Y17448095D01*
X1356190Y17352857D01*
X1356190Y16971904D01*
X1832380Y18495714D02*
X1832380Y17924285D01*
X1832380Y18210000D02*
X832380Y18210000D01*
X975238Y18114761D01*
X1070476Y18019523D01*
X1118095Y17924285D01*
X3597619Y13754761D02*
X3550000Y13659523D01*
X3454761Y13564285D01*
X3311904Y13421428D01*
X3264285Y13326190D01*
X3264285Y13230952D01*
X3502380Y13278571D02*
X3454761Y13183333D01*
X3359523Y13088095D01*
X3169047Y13040476D01*
X2835714Y13040476D01*
X2645238Y13088095D01*
X2550000Y13183333D01*
X2502380Y13278571D01*
X2502380Y13469047D01*
X2550000Y13564285D01*
X2645238Y13659523D01*
X2835714Y13707142D01*
X3169047Y13707142D01*
X3359523Y13659523D01*
X3454761Y13564285D01*
X3502380Y13469047D01*
X3502380Y13278571D01*
X2502380Y14040476D02*
X2502380Y14659523D01*
X2883333Y14326190D01*
X2883333Y14469047D01*
X2930952Y14564285D01*
X2978571Y14611904D01*
X3073809Y14659523D01*
X3311904Y14659523D01*
X3407142Y14611904D01*
X3454761Y14564285D01*
X3502380Y14469047D01*
X3502380Y14183333D01*
X3454761Y14088095D01*
X3407142Y14040476D01*
X3547619Y6504761D02*
X3500000Y6409523D01*
X3404761Y6314285D01*
X3261904Y6171428D01*
X3214285Y6076190D01*
X3214285Y5980952D01*
X3452380Y6028571D02*
X3404761Y5933333D01*
X3309523Y5838095D01*
X3119047Y5790476D01*
X2785714Y5790476D01*
X2595238Y5838095D01*
X2500000Y5933333D01*
X2452380Y6028571D01*
X2452380Y6219047D01*
X2500000Y6314285D01*
X2595238Y6409523D01*
X2785714Y6457142D01*
X3119047Y6457142D01*
X3309523Y6409523D01*
X3404761Y6314285D01*
X3452380Y6219047D01*
X3452380Y6028571D01*
X2547619Y6838095D02*
X2500000Y6885714D01*
X2452380Y6980952D01*
X2452380Y7219047D01*
X2500000Y7314285D01*
X2547619Y7361904D01*
X2642857Y7409523D01*
X2738095Y7409523D01*
X2880952Y7361904D01*
X3452380Y6790476D01*
X3452380Y7409523D01*
X3597619Y10204761D02*
X3550000Y10109523D01*
X3454761Y10014285D01*
X3311904Y9871428D01*
X3264285Y9776190D01*
X3264285Y9680952D01*
X3502380Y9728571D02*
X3454761Y9633333D01*
X3359523Y9538095D01*
X3169047Y9490476D01*
X2835714Y9490476D01*
X2645238Y9538095D01*
X2550000Y9633333D01*
X2502380Y9728571D01*
X2502380Y9919047D01*
X2550000Y10014285D01*
X2645238Y10109523D01*
X2835714Y10157142D01*
X3169047Y10157142D01*
X3359523Y10109523D01*
X3454761Y10014285D01*
X3502380Y9919047D01*
X3502380Y9728571D01*
X3502380Y11109523D02*
X3502380Y10538095D01*
X3502380Y10823809D02*
X2502380Y10823809D01*
X2645238Y10728571D01*
X2740476Y10633333D01*
X2788095Y10538095D01*
X22766666Y-20852380D02*
X22766666Y-21566666D01*
X22719047Y-21709523D01*
X22623809Y-21804761D01*
X22480952Y-21852380D01*
X22385714Y-21852380D01*
X23147619Y-20852380D02*
X23766666Y-20852380D01*
X23433333Y-21233333D01*
X23576190Y-21233333D01*
X23671428Y-21280952D01*
X23719047Y-21328571D01*
X23766666Y-21423809D01*
X23766666Y-21661904D01*
X23719047Y-21757142D01*
X23671428Y-21804761D01*
X23576190Y-21852380D01*
X23290476Y-21852380D01*
X23195238Y-21804761D01*
X23147619Y-21757142D01*
X19788095Y21797619D02*
X19788095Y22797619D01*
X19788095Y22321428D02*
X20359523Y22321428D01*
X20359523Y21797619D02*
X20359523Y22797619D01*
X20788095Y22702380D02*
X20835714Y22750000D01*
X20930952Y22797619D01*
X21169047Y22797619D01*
X21264285Y22750000D01*
X21311904Y22702380D01*
X21359523Y22607142D01*
X21359523Y22511904D01*
X21311904Y22369047D01*
X20740476Y21797619D01*
X21359523Y21797619D01*
X-21311904Y-16302380D02*
X-21311904Y-15302380D01*
X-21311904Y-15778571D02*
X-20740476Y-15778571D01*
X-20740476Y-16302380D02*
X-20740476Y-15302380D01*
X-19740476Y-16302380D02*
X-20311904Y-16302380D01*
X-20026190Y-16302380D02*
X-20026190Y-15302380D01*
X-20121428Y-15445238D01*
X-20216666Y-15540476D01*
X-20311904Y-15588095D01*
X-1947619Y-3838095D02*
X-2947619Y-3838095D01*
X-2947619Y-3600000D01*
X-2900000Y-3457142D01*
X-2804761Y-3361904D01*
X-2709523Y-3314285D01*
X-2519047Y-3266666D01*
X-2376190Y-3266666D01*
X-2185714Y-3314285D01*
X-2090476Y-3361904D01*
X-1995238Y-3457142D01*
X-1947619Y-3600000D01*
X-1947619Y-3838095D01*
X-2852380Y-2885714D02*
X-2900000Y-2838095D01*
X-2947619Y-2742857D01*
X-2947619Y-2504761D01*
X-2900000Y-2409523D01*
X-2852380Y-2361904D01*
X-2757142Y-2314285D01*
X-2661904Y-2314285D01*
X-2519047Y-2361904D01*
X-1947619Y-2933333D01*
X-1947619Y-2314285D01*
X4382380Y19924404D02*
X3382380Y19924404D01*
X3382380Y20162500D01*
X3430000Y20305357D01*
X3525238Y20400595D01*
X3620476Y20448214D01*
X3810952Y20495833D01*
X3953809Y20495833D01*
X4144285Y20448214D01*
X4239523Y20400595D01*
X4334761Y20305357D01*
X4382380Y20162500D01*
X4382380Y19924404D01*
X4382380Y21448214D02*
X4382380Y20876785D01*
X4382380Y21162500D02*
X3382380Y21162500D01*
X3525238Y21067261D01*
X3620476Y20972023D01*
X3668095Y20876785D01*
X12137142Y-1597142D02*
X12089523Y-1644761D01*
X11946666Y-1692380D01*
X11851428Y-1692380D01*
X11708571Y-1644761D01*
X11613333Y-1549523D01*
X11565714Y-1454285D01*
X11518095Y-1263809D01*
X11518095Y-1120952D01*
X11565714Y-930476D01*
X11613333Y-835238D01*
X11708571Y-740000D01*
X11851428Y-692380D01*
X11946666Y-692380D01*
X12089523Y-740000D01*
X12137142Y-787619D01*
X13089523Y-1692380D02*
X12518095Y-1692380D01*
X12803809Y-1692380D02*
X12803809Y-692380D01*
X12708571Y-835238D01*
X12613333Y-930476D01*
X12518095Y-978095D01*
X14041904Y-1692380D02*
X13470476Y-1692380D01*
X13756190Y-1692380D02*
X13756190Y-692380D01*
X13660952Y-835238D01*
X13565714Y-930476D01*
X13470476Y-978095D01*
X21057142Y10033333D02*
X21104761Y9985714D01*
X21152380Y9842857D01*
X21152380Y9747619D01*
X21104761Y9604761D01*
X21009523Y9509523D01*
X20914285Y9461904D01*
X20723809Y9414285D01*
X20580952Y9414285D01*
X20390476Y9461904D01*
X20295238Y9509523D01*
X20200000Y9604761D01*
X20152380Y9747619D01*
X20152380Y9842857D01*
X20200000Y9985714D01*
X20247619Y10033333D01*
X21152380Y10509523D02*
X21152380Y10700000D01*
X21104761Y10795238D01*
X21057142Y10842857D01*
X20914285Y10938095D01*
X20723809Y10985714D01*
X20342857Y10985714D01*
X20247619Y10938095D01*
X20200000Y10890476D01*
X20152380Y10795238D01*
X20152380Y10604761D01*
X20200000Y10509523D01*
X20247619Y10461904D01*
X20342857Y10414285D01*
X20580952Y10414285D01*
X20676190Y10461904D01*
X20723809Y10509523D01*
X20771428Y10604761D01*
X20771428Y10795238D01*
X20723809Y10890476D01*
X20676190Y10938095D01*
X20580952Y10985714D01*
X19757142Y10033333D02*
X19804761Y9985714D01*
X19852380Y9842857D01*
X19852380Y9747619D01*
X19804761Y9604761D01*
X19709523Y9509523D01*
X19614285Y9461904D01*
X19423809Y9414285D01*
X19280952Y9414285D01*
X19090476Y9461904D01*
X18995238Y9509523D01*
X18900000Y9604761D01*
X18852380Y9747619D01*
X18852380Y9842857D01*
X18900000Y9985714D01*
X18947619Y10033333D01*
X19280952Y10604761D02*
X19233333Y10509523D01*
X19185714Y10461904D01*
X19090476Y10414285D01*
X19042857Y10414285D01*
X18947619Y10461904D01*
X18900000Y10509523D01*
X18852380Y10604761D01*
X18852380Y10795238D01*
X18900000Y10890476D01*
X18947619Y10938095D01*
X19042857Y10985714D01*
X19090476Y10985714D01*
X19185714Y10938095D01*
X19233333Y10890476D01*
X19280952Y10795238D01*
X19280952Y10604761D01*
X19328571Y10509523D01*
X19376190Y10461904D01*
X19471428Y10414285D01*
X19661904Y10414285D01*
X19757142Y10461904D01*
X19804761Y10509523D01*
X19852380Y10604761D01*
X19852380Y10795238D01*
X19804761Y10890476D01*
X19757142Y10938095D01*
X19661904Y10985714D01*
X19471428Y10985714D01*
X19376190Y10938095D01*
X19328571Y10890476D01*
X19280952Y10795238D01*
X13633333Y12842857D02*
X13585714Y12795238D01*
X13442857Y12747619D01*
X13347619Y12747619D01*
X13204761Y12795238D01*
X13109523Y12890476D01*
X13061904Y12985714D01*
X13014285Y13176190D01*
X13014285Y13319047D01*
X13061904Y13509523D01*
X13109523Y13604761D01*
X13204761Y13700000D01*
X13347619Y13747619D01*
X13442857Y13747619D01*
X13585714Y13700000D01*
X13633333Y13652380D01*
X13966666Y13747619D02*
X14633333Y13747619D01*
X14204761Y12747619D01*
X10053333Y3332857D02*
X10005714Y3285238D01*
X9862857Y3237619D01*
X9767619Y3237619D01*
X9624761Y3285238D01*
X9529523Y3380476D01*
X9481904Y3475714D01*
X9434285Y3666190D01*
X9434285Y3809047D01*
X9481904Y3999523D01*
X9529523Y4094761D01*
X9624761Y4190000D01*
X9767619Y4237619D01*
X9862857Y4237619D01*
X10005714Y4190000D01*
X10053333Y4142380D01*
X10910476Y4237619D02*
X10720000Y4237619D01*
X10624761Y4190000D01*
X10577142Y4142380D01*
X10481904Y3999523D01*
X10434285Y3809047D01*
X10434285Y3428095D01*
X10481904Y3332857D01*
X10529523Y3285238D01*
X10624761Y3237619D01*
X10815238Y3237619D01*
X10910476Y3285238D01*
X10958095Y3332857D01*
X11005714Y3428095D01*
X11005714Y3666190D01*
X10958095Y3761428D01*
X10910476Y3809047D01*
X10815238Y3856666D01*
X10624761Y3856666D01*
X10529523Y3809047D01*
X10481904Y3761428D01*
X10434285Y3666190D01*
X15533333Y3842857D02*
X15485714Y3795238D01*
X15342857Y3747619D01*
X15247619Y3747619D01*
X15104761Y3795238D01*
X15009523Y3890476D01*
X14961904Y3985714D01*
X14914285Y4176190D01*
X14914285Y4319047D01*
X14961904Y4509523D01*
X15009523Y4604761D01*
X15104761Y4700000D01*
X15247619Y4747619D01*
X15342857Y4747619D01*
X15485714Y4700000D01*
X15533333Y4652380D01*
X16438095Y4747619D02*
X15961904Y4747619D01*
X15914285Y4271428D01*
X15961904Y4319047D01*
X16057142Y4366666D01*
X16295238Y4366666D01*
X16390476Y4319047D01*
X16438095Y4271428D01*
X16485714Y4176190D01*
X16485714Y3938095D01*
X16438095Y3842857D01*
X16390476Y3795238D01*
X16295238Y3747619D01*
X16057142Y3747619D01*
X15961904Y3795238D01*
X15914285Y3842857D01*
X10033333Y16042857D02*
X9985714Y15995238D01*
X9842857Y15947619D01*
X9747619Y15947619D01*
X9604761Y15995238D01*
X9509523Y16090476D01*
X9461904Y16185714D01*
X9414285Y16376190D01*
X9414285Y16519047D01*
X9461904Y16709523D01*
X9509523Y16804761D01*
X9604761Y16900000D01*
X9747619Y16947619D01*
X9842857Y16947619D01*
X9985714Y16900000D01*
X10033333Y16852380D01*
X10890476Y16614285D02*
X10890476Y15947619D01*
X10652380Y16995238D02*
X10414285Y16280952D01*
X11033333Y16280952D01*
X-5666666Y-14907142D02*
X-5714285Y-14954761D01*
X-5857142Y-15002380D01*
X-5952380Y-15002380D01*
X-6095238Y-14954761D01*
X-6190476Y-14859523D01*
X-6238095Y-14764285D01*
X-6285714Y-14573809D01*
X-6285714Y-14430952D01*
X-6238095Y-14240476D01*
X-6190476Y-14145238D01*
X-6095238Y-14050000D01*
X-5952380Y-14002380D01*
X-5857142Y-14002380D01*
X-5714285Y-14050000D01*
X-5666666Y-14097619D01*
X-5285714Y-14097619D02*
X-5238095Y-14050000D01*
X-5142857Y-14002380D01*
X-4904761Y-14002380D01*
X-4809523Y-14050000D01*
X-4761904Y-14097619D01*
X-4714285Y-14192857D01*
X-4714285Y-14288095D01*
X-4761904Y-14430952D01*
X-5333333Y-15002380D01*
X-4714285Y-15002380D01*
X-7516666Y-14907142D02*
X-7564285Y-14954761D01*
X-7707142Y-15002380D01*
X-7802380Y-15002380D01*
X-7945238Y-14954761D01*
X-8040476Y-14859523D01*
X-8088095Y-14764285D01*
X-8135714Y-14573809D01*
X-8135714Y-14430952D01*
X-8088095Y-14240476D01*
X-8040476Y-14145238D01*
X-7945238Y-14050000D01*
X-7802380Y-14002380D01*
X-7707142Y-14002380D01*
X-7564285Y-14050000D01*
X-7516666Y-14097619D01*
X-6564285Y-15002380D02*
X-7135714Y-15002380D01*
X-6850000Y-15002380D02*
X-6850000Y-14002380D01*
X-6945238Y-14145238D01*
X-7040476Y-14240476D01*
X-7135714Y-14288095D01*
M02*
