G04 #@! TF.GenerationSoftware,KiCad,Pcbnew,(5.1.7)-1*
G04 #@! TF.CreationDate,2021-04-06T08:53:53-07:00*
G04 #@! TF.ProjectId,EsperDNS,45737065-7244-44e5-932e-6b696361645f,rev?*
G04 #@! TF.SameCoordinates,Original*
G04 #@! TF.FileFunction,Soldermask,Bot*
G04 #@! TF.FilePolarity,Negative*
%FSLAX46Y46*%
G04 Gerber Fmt 4.6, Leading zero omitted, Abs format (unit mm)*
G04 Created by KiCad (PCBNEW (5.1.7)-1) date 2021-04-06 08:53:53*
%MOMM*%
%LPD*%
G01*
G04 APERTURE LIST*
G04 #@! TA.AperFunction,Profile*
%ADD10C,0.100000*%
G04 #@! TD*
%ADD11C,1.450000*%
%ADD12O,1.200000X1.900000*%
%ADD13C,2.100000*%
%ADD14C,1.750000*%
%ADD15R,1.900000X1.900000*%
%ADD16C,1.900000*%
%ADD17C,1.890000*%
%ADD18C,2.600000*%
%ADD19C,3.250000*%
%ADD20C,4.400000*%
G04 APERTURE END LIST*
D10*
X-25500000Y-19050000D02*
G75*
G03*
X-20550000Y-24000000I4950000J0D01*
G01*
X20550000Y-24000000D02*
G75*
G03*
X25500000Y-19050000I0J4950000D01*
G01*
X25500000Y19050000D02*
G75*
G03*
X20550000Y24000000I-4950000J0D01*
G01*
X-20550000Y24000000D02*
G75*
G03*
X-25500000Y19050000I0J-4950000D01*
G01*
X25500000Y19050000D02*
X25500000Y-19050000D01*
X-20550000Y24000000D02*
X20550000Y24000000D01*
X-25500000Y19050000D02*
X-25500000Y-19050000D01*
X-20550000Y-24000000D02*
X20550000Y-24000000D01*
D11*
X-12406000Y-19873500D03*
X-7406000Y-19873500D03*
D12*
X-13406000Y-22573500D03*
X-6406000Y-22573500D03*
D13*
X-20210000Y-5540000D03*
D14*
X-22700000Y-6800000D03*
X-22700000Y-11300000D03*
D13*
X-20210000Y-12550000D03*
D15*
X8020000Y-8000000D03*
D16*
X9290000Y-5460000D03*
X10560000Y-8000000D03*
X11830000Y-5460000D03*
X13100000Y-8000000D03*
X14370000Y-5460000D03*
X15640000Y-8000000D03*
X16910000Y-5460000D03*
D17*
X18790000Y-17720000D03*
X16250000Y-19240000D03*
X8680000Y-17720000D03*
X6140000Y-19240000D03*
D18*
X4690000Y-11290000D03*
X20240000Y-11290000D03*
D19*
X6750000Y-14340000D03*
X18180000Y-14340000D03*
D20*
X20550000Y19050000D03*
X-20550000Y-19050000D03*
M02*
