G04 #@! TF.GenerationSoftware,KiCad,Pcbnew,(5.1.7)-1*
G04 #@! TF.CreationDate,2021-04-06T08:53:53-07:00*
G04 #@! TF.ProjectId,EsperDNS,45737065-7244-44e5-932e-6b696361645f,rev?*
G04 #@! TF.SameCoordinates,Original*
G04 #@! TF.FileFunction,Copper,L2,Inr*
G04 #@! TF.FilePolarity,Positive*
%FSLAX46Y46*%
G04 Gerber Fmt 4.6, Leading zero omitted, Abs format (unit mm)*
G04 Created by KiCad (PCBNEW (5.1.7)-1) date 2021-04-06 08:53:53*
%MOMM*%
%LPD*%
G01*
G04 APERTURE LIST*
G04 #@! TA.AperFunction,Profile*
%ADD10C,0.100000*%
G04 #@! TD*
G04 #@! TA.AperFunction,ComponentPad*
%ADD11C,1.450000*%
G04 #@! TD*
G04 #@! TA.AperFunction,ComponentPad*
%ADD12O,1.200000X1.900000*%
G04 #@! TD*
G04 #@! TA.AperFunction,ComponentPad*
%ADD13C,0.500000*%
G04 #@! TD*
G04 #@! TA.AperFunction,ComponentPad*
%ADD14C,2.100000*%
G04 #@! TD*
G04 #@! TA.AperFunction,ComponentPad*
%ADD15C,1.750000*%
G04 #@! TD*
G04 #@! TA.AperFunction,ComponentPad*
%ADD16R,1.900000X1.900000*%
G04 #@! TD*
G04 #@! TA.AperFunction,ComponentPad*
%ADD17C,1.900000*%
G04 #@! TD*
G04 #@! TA.AperFunction,ComponentPad*
%ADD18C,1.890000*%
G04 #@! TD*
G04 #@! TA.AperFunction,ComponentPad*
%ADD19C,2.600000*%
G04 #@! TD*
G04 #@! TA.AperFunction,ComponentPad*
%ADD20C,4.400000*%
G04 #@! TD*
G04 #@! TA.AperFunction,ViaPad*
%ADD21C,0.600000*%
G04 #@! TD*
G04 #@! TA.AperFunction,Conductor*
%ADD22C,0.127000*%
G04 #@! TD*
G04 #@! TA.AperFunction,Conductor*
%ADD23C,0.100000*%
G04 #@! TD*
G04 APERTURE END LIST*
D10*
X-25500000Y-19050000D02*
G75*
G03*
X-20550000Y-24000000I4950000J0D01*
G01*
X20550000Y-24000000D02*
G75*
G03*
X25500000Y-19050000I0J4950000D01*
G01*
X25500000Y19050000D02*
G75*
G03*
X20550000Y24000000I-4950000J0D01*
G01*
X-20550000Y24000000D02*
G75*
G03*
X-25500000Y19050000I0J-4950000D01*
G01*
X25500000Y19050000D02*
X25500000Y-19050000D01*
X-20550000Y24000000D02*
X20550000Y24000000D01*
X-25500000Y19050000D02*
X-25500000Y-19050000D01*
X-20550000Y-24000000D02*
X20550000Y-24000000D01*
D11*
X-12406000Y-19873500D03*
X-7406000Y-19873500D03*
D12*
X-13406000Y-22573500D03*
X-6406000Y-22573500D03*
D13*
X13550000Y6950000D03*
X12500000Y6950000D03*
X11450000Y6950000D03*
X13550000Y8000000D03*
X12500000Y8000000D03*
X11450000Y8000000D03*
X13550000Y9050000D03*
X12500000Y9050000D03*
X11450000Y9050000D03*
D14*
X-20210000Y-5540000D03*
D15*
X-22700000Y-6800000D03*
X-22700000Y-11300000D03*
D14*
X-20210000Y-12550000D03*
D16*
X8020000Y-8000000D03*
D17*
X9290000Y-5460000D03*
X10560000Y-8000000D03*
X11830000Y-5460000D03*
X13100000Y-8000000D03*
X14370000Y-5460000D03*
X15640000Y-8000000D03*
X16910000Y-5460000D03*
D18*
X18790000Y-17720000D03*
X16250000Y-19240000D03*
X8680000Y-17720000D03*
X6140000Y-19240000D03*
D19*
X4690000Y-11290000D03*
X20240000Y-11290000D03*
D20*
X20550000Y19050000D03*
X-20550000Y-19050000D03*
D21*
X-11430000Y-13208000D03*
X-11430000Y-11176000D03*
X-13208000Y-13208000D03*
X-12192000Y-11938000D03*
X-13208000Y-10922000D03*
X-16500000Y5500000D03*
X-17500000Y6000000D03*
X-16500000Y6500000D03*
X-17500000Y7000000D03*
X-15000000Y5500000D03*
X-14000000Y6000000D03*
X-15000000Y6500000D03*
X-14000000Y7000000D03*
X-15000000Y7500000D03*
X-16500000Y7500000D03*
X-17500000Y8000000D03*
X-14000000Y8000000D03*
X-15000000Y8500000D03*
X-16500000Y8500000D03*
X-14000000Y9000000D03*
X-17500000Y9000000D03*
X500000Y12600000D03*
X300000Y10200000D03*
X-1600000Y5700000D03*
X-20100000Y900000D03*
X-20500000Y2800000D03*
X14500000Y14300000D03*
X12600000Y13200000D03*
X-800000Y2800000D03*
X-21200000Y14900000D03*
X-2200000Y11500000D03*
X16200000Y14700000D03*
X2500000Y22700000D03*
X16700000Y5400000D03*
X18440000Y10660000D03*
X13300000Y-1200000D03*
X8600000Y4000000D03*
X10900000Y18600000D03*
X8800000Y19500000D03*
X2000000Y-17800000D03*
X-5500000Y-17600000D03*
X-7400000Y-17600000D03*
X1300000Y-14400000D03*
X-8100000Y14900000D03*
X14300000Y12200000D03*
X1900000Y-7000000D03*
X-19200000Y-700000D03*
X-13000000Y-5000000D03*
X21000000Y-8000000D03*
X-2500000Y-1400000D03*
X2900000Y-1300000D03*
X16500000Y1799994D03*
X18800000Y4200000D03*
X-8382000Y-18034000D03*
X-11430000Y-8382000D03*
X-11430000Y-6604000D03*
X-16510000Y-12446000D03*
X-21200000Y13600000D03*
X900000Y-18500000D03*
X900000Y-19900000D03*
X-3200000Y-20000000D03*
X-3200000Y-18400000D03*
X13300000Y12200000D03*
X-2000000Y9500000D03*
X5700000Y14900000D03*
X-1000000Y-18400000D03*
X-1000000Y-20000000D03*
X-1125000Y-12265000D03*
X-11430000Y-5334000D03*
X-14129000Y-8128000D03*
X-7620000Y-11684000D03*
X-7112000Y-5334000D03*
X-8382000Y-11009000D03*
X-6858000Y-3302000D03*
X-21200000Y3450000D03*
X15200000Y13800000D03*
X-21200000Y2200000D03*
X16200000Y13800000D03*
X-8300000Y4700000D03*
X5400000Y3800000D03*
X5800000Y10600000D03*
X9093750Y12093750D03*
X9500000Y6500000D03*
X-2300000Y6400000D03*
X9500000Y7300000D03*
X-2300000Y8700000D03*
X9500000Y5699994D03*
X-2200000Y12300000D03*
X16000000Y8800000D03*
X-1400000Y2300000D03*
X-8200000Y2000000D03*
X-10900000Y3000000D03*
X-9600000Y14600000D03*
X-2600000Y14600000D03*
X-14500000Y2800000D03*
X-4000000Y7300000D03*
X-15700000Y3800000D03*
X-4300000Y10600000D03*
X-5440000Y-20976000D03*
X-15134000Y-20976000D03*
X9500000Y8777001D03*
X2300000Y200000D03*
X-18900000Y6700000D03*
X-21200000Y900000D03*
X11700000Y13100000D03*
X9500006Y8050000D03*
X16700000Y6400000D03*
X12300000Y-3700000D03*
X17700000Y-1300000D03*
X7500000Y-3800000D03*
X13300000Y-3700000D03*
X11300000Y-3800000D03*
X10900000Y17600000D03*
X6600000Y18600000D03*
X8400000Y200000D03*
X4600000Y-1900000D03*
X20000000Y4200000D03*
X-900000Y-8180000D03*
X-9950000Y-18078000D03*
X-12192000Y-7366000D03*
X-10600000Y-17340000D03*
X-12700000Y-8636000D03*
D22*
X21361231Y23558639D02*
X22146823Y23343726D01*
X22881939Y22993093D01*
X23543347Y22517824D01*
X24110137Y21932940D01*
X24564396Y21256932D01*
X24891765Y20511165D01*
X25082574Y19716385D01*
X25132500Y19036525D01*
X25132501Y-19033623D01*
X25058639Y-19861231D01*
X24843726Y-20646823D01*
X24493093Y-21381939D01*
X24017824Y-22043347D01*
X23432944Y-22610135D01*
X22756932Y-23064396D01*
X22011165Y-23391765D01*
X21216385Y-23582574D01*
X20536525Y-23632500D01*
X-5823656Y-23632500D01*
X-5754091Y-23575409D01*
X-5639436Y-23435702D01*
X-5554239Y-23276311D01*
X-5501776Y-23103361D01*
X-5488500Y-22968569D01*
X-5488500Y-22178431D01*
X-5501776Y-22043639D01*
X-5554239Y-21870689D01*
X-5639436Y-21711298D01*
X-5754091Y-21571591D01*
X-5893799Y-21456936D01*
X-6053190Y-21371739D01*
X-6226140Y-21319276D01*
X-6406000Y-21301561D01*
X-6585861Y-21319276D01*
X-6758811Y-21371739D01*
X-6918202Y-21456936D01*
X-7057909Y-21571591D01*
X-7172564Y-21711299D01*
X-7257761Y-21870690D01*
X-7310224Y-22043640D01*
X-7323500Y-22178432D01*
X-7323500Y-22968569D01*
X-7310224Y-23103361D01*
X-7257760Y-23276311D01*
X-7172563Y-23435702D01*
X-7057908Y-23575409D01*
X-6988343Y-23632500D01*
X-12823657Y-23632500D01*
X-12754091Y-23575409D01*
X-12639436Y-23435702D01*
X-12554239Y-23276311D01*
X-12501776Y-23103361D01*
X-12488500Y-22968569D01*
X-12488500Y-22178431D01*
X-12501776Y-22043639D01*
X-12554239Y-21870689D01*
X-12639436Y-21711298D01*
X-12754091Y-21571591D01*
X-12893798Y-21456936D01*
X-13053189Y-21371739D01*
X-13226139Y-21319276D01*
X-13406000Y-21301561D01*
X-13585860Y-21319276D01*
X-13758810Y-21371739D01*
X-13918201Y-21456936D01*
X-14057908Y-21571591D01*
X-14172563Y-21711298D01*
X-14257760Y-21870689D01*
X-14310224Y-22043639D01*
X-14323500Y-22178431D01*
X-14323500Y-22968568D01*
X-14310224Y-23103360D01*
X-14257761Y-23276310D01*
X-14172564Y-23435701D01*
X-14057909Y-23575409D01*
X-13988344Y-23632500D01*
X-20533634Y-23632500D01*
X-21361231Y-23558639D01*
X-22146823Y-23343726D01*
X-22881939Y-22993093D01*
X-23543347Y-22517824D01*
X-24110135Y-21932944D01*
X-24564396Y-21256932D01*
X-24891765Y-20511165D01*
X-25082574Y-19716385D01*
X-25132500Y-19036525D01*
X-25132500Y-18802048D01*
X-23067500Y-18802048D01*
X-23067500Y-19297952D01*
X-22970754Y-19784328D01*
X-22780979Y-20242483D01*
X-22505470Y-20654813D01*
X-22154813Y-21005470D01*
X-21742483Y-21280979D01*
X-21284328Y-21470754D01*
X-20797952Y-21567500D01*
X-20302048Y-21567500D01*
X-19815672Y-21470754D01*
X-19357517Y-21280979D01*
X-18945187Y-21005470D01*
X-18854899Y-20915182D01*
X-15751500Y-20915182D01*
X-15751500Y-21036818D01*
X-15727770Y-21156118D01*
X-15681222Y-21268496D01*
X-15613644Y-21369633D01*
X-15527633Y-21455644D01*
X-15426496Y-21523222D01*
X-15314118Y-21569770D01*
X-15194818Y-21593500D01*
X-15073182Y-21593500D01*
X-14953882Y-21569770D01*
X-14841504Y-21523222D01*
X-14740367Y-21455644D01*
X-14654356Y-21369633D01*
X-14586778Y-21268496D01*
X-14540230Y-21156118D01*
X-14516500Y-21036818D01*
X-14516500Y-20915182D01*
X-14540230Y-20795882D01*
X-14586778Y-20683504D01*
X-14654356Y-20582367D01*
X-14740367Y-20496356D01*
X-14841504Y-20428778D01*
X-14953882Y-20382230D01*
X-15073182Y-20358500D01*
X-15194818Y-20358500D01*
X-15314118Y-20382230D01*
X-15426496Y-20428778D01*
X-15527633Y-20496356D01*
X-15613644Y-20582367D01*
X-15681222Y-20683504D01*
X-15727770Y-20795882D01*
X-15751500Y-20915182D01*
X-18854899Y-20915182D01*
X-18594530Y-20654813D01*
X-18319021Y-20242483D01*
X-18129246Y-19784328D01*
X-18126560Y-19770823D01*
X-13448500Y-19770823D01*
X-13448500Y-19976177D01*
X-13408437Y-20177586D01*
X-13329851Y-20367309D01*
X-13215762Y-20538055D01*
X-13070555Y-20683262D01*
X-12899809Y-20797351D01*
X-12710086Y-20875937D01*
X-12508677Y-20916000D01*
X-12303323Y-20916000D01*
X-12101914Y-20875937D01*
X-11912191Y-20797351D01*
X-11741445Y-20683262D01*
X-11596238Y-20538055D01*
X-11482149Y-20367309D01*
X-11403563Y-20177586D01*
X-11363500Y-19976177D01*
X-11363500Y-19770823D01*
X-8448500Y-19770823D01*
X-8448500Y-19976177D01*
X-8408437Y-20177586D01*
X-8329851Y-20367309D01*
X-8215762Y-20538055D01*
X-8070555Y-20683262D01*
X-7899809Y-20797351D01*
X-7710086Y-20875937D01*
X-7508677Y-20916000D01*
X-7303323Y-20916000D01*
X-7299211Y-20915182D01*
X-6057500Y-20915182D01*
X-6057500Y-21036818D01*
X-6033770Y-21156118D01*
X-5987222Y-21268496D01*
X-5919644Y-21369633D01*
X-5833633Y-21455644D01*
X-5732496Y-21523222D01*
X-5620118Y-21569770D01*
X-5500818Y-21593500D01*
X-5379182Y-21593500D01*
X-5259882Y-21569770D01*
X-5147504Y-21523222D01*
X-5046367Y-21455644D01*
X-4960356Y-21369633D01*
X-4892778Y-21268496D01*
X-4846230Y-21156118D01*
X-4822500Y-21036818D01*
X-4822500Y-20915182D01*
X-4846230Y-20795882D01*
X-4892778Y-20683504D01*
X-4960356Y-20582367D01*
X-5046367Y-20496356D01*
X-5147504Y-20428778D01*
X-5259882Y-20382230D01*
X-5379182Y-20358500D01*
X-5500818Y-20358500D01*
X-5620118Y-20382230D01*
X-5732496Y-20428778D01*
X-5833633Y-20496356D01*
X-5919644Y-20582367D01*
X-5987222Y-20683504D01*
X-6033770Y-20795882D01*
X-6057500Y-20915182D01*
X-7299211Y-20915182D01*
X-7101914Y-20875937D01*
X-6912191Y-20797351D01*
X-6741445Y-20683262D01*
X-6596238Y-20538055D01*
X-6482149Y-20367309D01*
X-6403563Y-20177586D01*
X-6363500Y-19976177D01*
X-6363500Y-19939182D01*
X-3817500Y-19939182D01*
X-3817500Y-20060818D01*
X-3793770Y-20180118D01*
X-3747222Y-20292496D01*
X-3679644Y-20393633D01*
X-3593633Y-20479644D01*
X-3492496Y-20547222D01*
X-3380118Y-20593770D01*
X-3260818Y-20617500D01*
X-3139182Y-20617500D01*
X-3019882Y-20593770D01*
X-2907504Y-20547222D01*
X-2806367Y-20479644D01*
X-2720356Y-20393633D01*
X-2652778Y-20292496D01*
X-2606230Y-20180118D01*
X-2582500Y-20060818D01*
X-2582500Y-19939182D01*
X-1617500Y-19939182D01*
X-1617500Y-20060818D01*
X-1593770Y-20180118D01*
X-1547222Y-20292496D01*
X-1479644Y-20393633D01*
X-1393633Y-20479644D01*
X-1292496Y-20547222D01*
X-1180118Y-20593770D01*
X-1060818Y-20617500D01*
X-939182Y-20617500D01*
X-819882Y-20593770D01*
X-707504Y-20547222D01*
X-606367Y-20479644D01*
X-520356Y-20393633D01*
X-452778Y-20292496D01*
X-406230Y-20180118D01*
X-382500Y-20060818D01*
X-382500Y-19939182D01*
X-402391Y-19839182D01*
X282500Y-19839182D01*
X282500Y-19960818D01*
X306230Y-20080118D01*
X352778Y-20192496D01*
X420356Y-20293633D01*
X506367Y-20379644D01*
X607504Y-20447222D01*
X719882Y-20493770D01*
X839182Y-20517500D01*
X960818Y-20517500D01*
X1080118Y-20493770D01*
X1192496Y-20447222D01*
X1293633Y-20379644D01*
X1379644Y-20293633D01*
X1447222Y-20192496D01*
X1493770Y-20080118D01*
X1517500Y-19960818D01*
X1517500Y-19839182D01*
X1493770Y-19719882D01*
X1447222Y-19607504D01*
X1379644Y-19506367D01*
X1293633Y-19420356D01*
X1192496Y-19352778D01*
X1080118Y-19306230D01*
X960818Y-19282500D01*
X839182Y-19282500D01*
X719882Y-19306230D01*
X607504Y-19352778D01*
X506367Y-19420356D01*
X420356Y-19506367D01*
X352778Y-19607504D01*
X306230Y-19719882D01*
X282500Y-19839182D01*
X-402391Y-19839182D01*
X-406230Y-19819882D01*
X-452778Y-19707504D01*
X-520356Y-19606367D01*
X-606367Y-19520356D01*
X-707504Y-19452778D01*
X-819882Y-19406230D01*
X-939182Y-19382500D01*
X-1060818Y-19382500D01*
X-1180118Y-19406230D01*
X-1292496Y-19452778D01*
X-1393633Y-19520356D01*
X-1479644Y-19606367D01*
X-1547222Y-19707504D01*
X-1593770Y-19819882D01*
X-1617500Y-19939182D01*
X-2582500Y-19939182D01*
X-2606230Y-19819882D01*
X-2652778Y-19707504D01*
X-2720356Y-19606367D01*
X-2806367Y-19520356D01*
X-2907504Y-19452778D01*
X-3019882Y-19406230D01*
X-3139182Y-19382500D01*
X-3260818Y-19382500D01*
X-3380118Y-19406230D01*
X-3492496Y-19452778D01*
X-3593633Y-19520356D01*
X-3679644Y-19606367D01*
X-3747222Y-19707504D01*
X-3793770Y-19819882D01*
X-3817500Y-19939182D01*
X-6363500Y-19939182D01*
X-6363500Y-19770823D01*
X-6403563Y-19569414D01*
X-6482149Y-19379691D01*
X-6596238Y-19208945D01*
X-6741445Y-19063738D01*
X-6912191Y-18949649D01*
X-7101914Y-18871063D01*
X-7303323Y-18831000D01*
X-7508677Y-18831000D01*
X-7710086Y-18871063D01*
X-7899809Y-18949649D01*
X-8070555Y-19063738D01*
X-8215762Y-19208945D01*
X-8329851Y-19379691D01*
X-8408437Y-19569414D01*
X-8448500Y-19770823D01*
X-11363500Y-19770823D01*
X-11403563Y-19569414D01*
X-11482149Y-19379691D01*
X-11596238Y-19208945D01*
X-11741445Y-19063738D01*
X-11912191Y-18949649D01*
X-12101914Y-18871063D01*
X-12303323Y-18831000D01*
X-12508677Y-18831000D01*
X-12710086Y-18871063D01*
X-12899809Y-18949649D01*
X-13070555Y-19063738D01*
X-13215762Y-19208945D01*
X-13329851Y-19379691D01*
X-13408437Y-19569414D01*
X-13448500Y-19770823D01*
X-18126560Y-19770823D01*
X-18032500Y-19297952D01*
X-18032500Y-18802048D01*
X-18129246Y-18315672D01*
X-18319021Y-17857517D01*
X-18594530Y-17445187D01*
X-18760535Y-17279182D01*
X-11217500Y-17279182D01*
X-11217500Y-17400818D01*
X-11193770Y-17520118D01*
X-11147222Y-17632496D01*
X-11079644Y-17733633D01*
X-10993633Y-17819644D01*
X-10892496Y-17887222D01*
X-10780118Y-17933770D01*
X-10660818Y-17957500D01*
X-10555629Y-17957500D01*
X-10567500Y-18017182D01*
X-10567500Y-18138818D01*
X-10543770Y-18258118D01*
X-10497222Y-18370496D01*
X-10429644Y-18471633D01*
X-10343633Y-18557644D01*
X-10242496Y-18625222D01*
X-10130118Y-18671770D01*
X-10010818Y-18695500D01*
X-9889182Y-18695500D01*
X-9769882Y-18671770D01*
X-9657504Y-18625222D01*
X-9556367Y-18557644D01*
X-9470356Y-18471633D01*
X-9402778Y-18370496D01*
X-9389808Y-18339182D01*
X-3817500Y-18339182D01*
X-3817500Y-18460818D01*
X-3793770Y-18580118D01*
X-3747222Y-18692496D01*
X-3679644Y-18793633D01*
X-3593633Y-18879644D01*
X-3492496Y-18947222D01*
X-3380118Y-18993770D01*
X-3260818Y-19017500D01*
X-3139182Y-19017500D01*
X-3019882Y-18993770D01*
X-2907504Y-18947222D01*
X-2806367Y-18879644D01*
X-2720356Y-18793633D01*
X-2652778Y-18692496D01*
X-2606230Y-18580118D01*
X-2582500Y-18460818D01*
X-2582500Y-18339182D01*
X-1617500Y-18339182D01*
X-1617500Y-18460818D01*
X-1593770Y-18580118D01*
X-1547222Y-18692496D01*
X-1479644Y-18793633D01*
X-1393633Y-18879644D01*
X-1292496Y-18947222D01*
X-1180118Y-18993770D01*
X-1060818Y-19017500D01*
X-939182Y-19017500D01*
X-819882Y-18993770D01*
X-707504Y-18947222D01*
X-606367Y-18879644D01*
X-520356Y-18793633D01*
X-452778Y-18692496D01*
X-406230Y-18580118D01*
X-382500Y-18460818D01*
X-382500Y-18439182D01*
X282500Y-18439182D01*
X282500Y-18560818D01*
X306230Y-18680118D01*
X352778Y-18792496D01*
X420356Y-18893633D01*
X506367Y-18979644D01*
X607504Y-19047222D01*
X719882Y-19093770D01*
X839182Y-19117500D01*
X960818Y-19117500D01*
X970093Y-19115655D01*
X4877500Y-19115655D01*
X4877500Y-19364345D01*
X4926017Y-19608258D01*
X5021187Y-19838018D01*
X5159352Y-20044797D01*
X5335203Y-20220648D01*
X5541982Y-20358813D01*
X5771742Y-20453983D01*
X6015655Y-20502500D01*
X6264345Y-20502500D01*
X6508258Y-20453983D01*
X6738018Y-20358813D01*
X6944797Y-20220648D01*
X7120648Y-20044797D01*
X7258813Y-19838018D01*
X7353983Y-19608258D01*
X7402500Y-19364345D01*
X7402500Y-19115655D01*
X14987500Y-19115655D01*
X14987500Y-19364345D01*
X15036017Y-19608258D01*
X15131187Y-19838018D01*
X15269352Y-20044797D01*
X15445203Y-20220648D01*
X15651982Y-20358813D01*
X15881742Y-20453983D01*
X16125655Y-20502500D01*
X16374345Y-20502500D01*
X16618258Y-20453983D01*
X16848018Y-20358813D01*
X17054797Y-20220648D01*
X17230648Y-20044797D01*
X17368813Y-19838018D01*
X17463983Y-19608258D01*
X17512500Y-19364345D01*
X17512500Y-19115655D01*
X17463983Y-18871742D01*
X17368813Y-18641982D01*
X17230648Y-18435203D01*
X17054797Y-18259352D01*
X16848018Y-18121187D01*
X16618258Y-18026017D01*
X16374345Y-17977500D01*
X16125655Y-17977500D01*
X15881742Y-18026017D01*
X15651982Y-18121187D01*
X15445203Y-18259352D01*
X15269352Y-18435203D01*
X15131187Y-18641982D01*
X15036017Y-18871742D01*
X14987500Y-19115655D01*
X7402500Y-19115655D01*
X7353983Y-18871742D01*
X7258813Y-18641982D01*
X7120648Y-18435203D01*
X6944797Y-18259352D01*
X6738018Y-18121187D01*
X6508258Y-18026017D01*
X6264345Y-17977500D01*
X6015655Y-17977500D01*
X5771742Y-18026017D01*
X5541982Y-18121187D01*
X5335203Y-18259352D01*
X5159352Y-18435203D01*
X5021187Y-18641982D01*
X4926017Y-18871742D01*
X4877500Y-19115655D01*
X970093Y-19115655D01*
X1080118Y-19093770D01*
X1192496Y-19047222D01*
X1293633Y-18979644D01*
X1379644Y-18893633D01*
X1447222Y-18792496D01*
X1493770Y-18680118D01*
X1517500Y-18560818D01*
X1517500Y-18439182D01*
X1493770Y-18319882D01*
X1447222Y-18207504D01*
X1379644Y-18106367D01*
X1293633Y-18020356D01*
X1192496Y-17952778D01*
X1080118Y-17906230D01*
X960818Y-17882500D01*
X839182Y-17882500D01*
X719882Y-17906230D01*
X607504Y-17952778D01*
X506367Y-18020356D01*
X420356Y-18106367D01*
X352778Y-18207504D01*
X306230Y-18319882D01*
X282500Y-18439182D01*
X-382500Y-18439182D01*
X-382500Y-18339182D01*
X-406230Y-18219882D01*
X-452778Y-18107504D01*
X-520356Y-18006367D01*
X-606367Y-17920356D01*
X-707504Y-17852778D01*
X-819882Y-17806230D01*
X-939182Y-17782500D01*
X-1060818Y-17782500D01*
X-1180118Y-17806230D01*
X-1292496Y-17852778D01*
X-1393633Y-17920356D01*
X-1479644Y-18006367D01*
X-1547222Y-18107504D01*
X-1593770Y-18219882D01*
X-1617500Y-18339182D01*
X-2582500Y-18339182D01*
X-2606230Y-18219882D01*
X-2652778Y-18107504D01*
X-2720356Y-18006367D01*
X-2806367Y-17920356D01*
X-2907504Y-17852778D01*
X-3019882Y-17806230D01*
X-3139182Y-17782500D01*
X-3260818Y-17782500D01*
X-3380118Y-17806230D01*
X-3492496Y-17852778D01*
X-3593633Y-17920356D01*
X-3679644Y-18006367D01*
X-3747222Y-18107504D01*
X-3793770Y-18219882D01*
X-3817500Y-18339182D01*
X-9389808Y-18339182D01*
X-9356230Y-18258118D01*
X-9332500Y-18138818D01*
X-9332500Y-18017182D01*
X-9356230Y-17897882D01*
X-9402778Y-17785504D01*
X-9470356Y-17684367D01*
X-9556367Y-17598356D01*
X-9560409Y-17595655D01*
X7417500Y-17595655D01*
X7417500Y-17844345D01*
X7466017Y-18088258D01*
X7561187Y-18318018D01*
X7699352Y-18524797D01*
X7875203Y-18700648D01*
X8081982Y-18838813D01*
X8311742Y-18933983D01*
X8555655Y-18982500D01*
X8804345Y-18982500D01*
X9048258Y-18933983D01*
X9278018Y-18838813D01*
X9484797Y-18700648D01*
X9660648Y-18524797D01*
X9798813Y-18318018D01*
X9893983Y-18088258D01*
X9942500Y-17844345D01*
X9942500Y-17595655D01*
X17527500Y-17595655D01*
X17527500Y-17844345D01*
X17576017Y-18088258D01*
X17671187Y-18318018D01*
X17809352Y-18524797D01*
X17985203Y-18700648D01*
X18191982Y-18838813D01*
X18421742Y-18933983D01*
X18665655Y-18982500D01*
X18914345Y-18982500D01*
X19158258Y-18933983D01*
X19388018Y-18838813D01*
X19594797Y-18700648D01*
X19770648Y-18524797D01*
X19908813Y-18318018D01*
X20003983Y-18088258D01*
X20052500Y-17844345D01*
X20052500Y-17595655D01*
X20003983Y-17351742D01*
X19908813Y-17121982D01*
X19770648Y-16915203D01*
X19594797Y-16739352D01*
X19388018Y-16601187D01*
X19158258Y-16506017D01*
X18914345Y-16457500D01*
X18665655Y-16457500D01*
X18421742Y-16506017D01*
X18191982Y-16601187D01*
X17985203Y-16739352D01*
X17809352Y-16915203D01*
X17671187Y-17121982D01*
X17576017Y-17351742D01*
X17527500Y-17595655D01*
X9942500Y-17595655D01*
X9893983Y-17351742D01*
X9798813Y-17121982D01*
X9660648Y-16915203D01*
X9484797Y-16739352D01*
X9278018Y-16601187D01*
X9048258Y-16506017D01*
X8804345Y-16457500D01*
X8555655Y-16457500D01*
X8311742Y-16506017D01*
X8081982Y-16601187D01*
X7875203Y-16739352D01*
X7699352Y-16915203D01*
X7561187Y-17121982D01*
X7466017Y-17351742D01*
X7417500Y-17595655D01*
X-9560409Y-17595655D01*
X-9657504Y-17530778D01*
X-9769882Y-17484230D01*
X-9889182Y-17460500D01*
X-9994371Y-17460500D01*
X-9982500Y-17400818D01*
X-9982500Y-17279182D01*
X-10006230Y-17159882D01*
X-10052778Y-17047504D01*
X-10120356Y-16946367D01*
X-10206367Y-16860356D01*
X-10307504Y-16792778D01*
X-10419882Y-16746230D01*
X-10539182Y-16722500D01*
X-10660818Y-16722500D01*
X-10780118Y-16746230D01*
X-10892496Y-16792778D01*
X-10993633Y-16860356D01*
X-11079644Y-16946367D01*
X-11147222Y-17047504D01*
X-11193770Y-17159882D01*
X-11217500Y-17279182D01*
X-18760535Y-17279182D01*
X-18945187Y-17094530D01*
X-19357517Y-16819021D01*
X-19815672Y-16629246D01*
X-20302048Y-16532500D01*
X-20797952Y-16532500D01*
X-21284328Y-16629246D01*
X-21742483Y-16819021D01*
X-22154813Y-17094530D01*
X-22505470Y-17445187D01*
X-22780979Y-17857517D01*
X-22970754Y-18315672D01*
X-23067500Y-18802048D01*
X-25132500Y-18802048D01*
X-25132500Y-14148680D01*
X4807500Y-14148680D01*
X4807500Y-14531320D01*
X4882149Y-14906606D01*
X5028579Y-15260119D01*
X5241162Y-15578272D01*
X5511728Y-15848838D01*
X5829881Y-16061421D01*
X6183394Y-16207851D01*
X6558680Y-16282500D01*
X6941320Y-16282500D01*
X7316606Y-16207851D01*
X7670119Y-16061421D01*
X7988272Y-15848838D01*
X8258838Y-15578272D01*
X8471421Y-15260119D01*
X8617851Y-14906606D01*
X8692500Y-14531320D01*
X8692500Y-14148680D01*
X16237500Y-14148680D01*
X16237500Y-14531320D01*
X16312149Y-14906606D01*
X16458579Y-15260119D01*
X16671162Y-15578272D01*
X16941728Y-15848838D01*
X17259881Y-16061421D01*
X17613394Y-16207851D01*
X17988680Y-16282500D01*
X18371320Y-16282500D01*
X18746606Y-16207851D01*
X19100119Y-16061421D01*
X19418272Y-15848838D01*
X19688838Y-15578272D01*
X19901421Y-15260119D01*
X20047851Y-14906606D01*
X20122500Y-14531320D01*
X20122500Y-14148680D01*
X20047851Y-13773394D01*
X19901421Y-13419881D01*
X19688838Y-13101728D01*
X19418272Y-12831162D01*
X19100119Y-12618579D01*
X18746606Y-12472149D01*
X18371320Y-12397500D01*
X17988680Y-12397500D01*
X17613394Y-12472149D01*
X17259881Y-12618579D01*
X16941728Y-12831162D01*
X16671162Y-13101728D01*
X16458579Y-13419881D01*
X16312149Y-13773394D01*
X16237500Y-14148680D01*
X8692500Y-14148680D01*
X8617851Y-13773394D01*
X8471421Y-13419881D01*
X8258838Y-13101728D01*
X7988272Y-12831162D01*
X7670119Y-12618579D01*
X7316606Y-12472149D01*
X6941320Y-12397500D01*
X6558680Y-12397500D01*
X6183394Y-12472149D01*
X5829881Y-12618579D01*
X5511728Y-12831162D01*
X5241162Y-13101728D01*
X5028579Y-13419881D01*
X4882149Y-13773394D01*
X4807500Y-14148680D01*
X-25132500Y-14148680D01*
X-25132500Y-12351613D01*
X-23482205Y-12351613D01*
X-23392858Y-12577736D01*
X-23130271Y-12688354D01*
X-22851149Y-12745618D01*
X-22566218Y-12747329D01*
X-22286429Y-12693419D01*
X-22022533Y-12585961D01*
X-22007142Y-12577736D01*
X-21917795Y-12351613D01*
X-22700000Y-11569408D01*
X-23482205Y-12351613D01*
X-25132500Y-12351613D01*
X-25132500Y-11433782D01*
X-24147329Y-11433782D01*
X-24093419Y-11713571D01*
X-23985961Y-11977467D01*
X-23977736Y-11992858D01*
X-23751613Y-12082205D01*
X-22969408Y-11300000D01*
X-22430592Y-11300000D01*
X-21648387Y-12082205D01*
X-21466662Y-12010401D01*
X-21524948Y-12151115D01*
X-21577500Y-12415313D01*
X-21577500Y-12684687D01*
X-21524948Y-12948885D01*
X-21421863Y-13197754D01*
X-21272207Y-13421731D01*
X-21081731Y-13612207D01*
X-20857754Y-13761863D01*
X-20608885Y-13864948D01*
X-20344687Y-13917500D01*
X-20075313Y-13917500D01*
X-19811115Y-13864948D01*
X-19562246Y-13761863D01*
X-19338269Y-13612207D01*
X-19147793Y-13421731D01*
X-18998137Y-13197754D01*
X-18895052Y-12948885D01*
X-18842500Y-12684687D01*
X-18842500Y-12415313D01*
X-18895052Y-12151115D01*
X-18998137Y-11902246D01*
X-19147793Y-11678269D01*
X-19338269Y-11487793D01*
X-19562246Y-11338137D01*
X-19811115Y-11235052D01*
X-20075313Y-11182500D01*
X-20344687Y-11182500D01*
X-20608885Y-11235052D01*
X-20857754Y-11338137D01*
X-21081731Y-11487793D01*
X-21272207Y-11678269D01*
X-21319652Y-11749276D01*
X-21311646Y-11730271D01*
X-21254382Y-11451149D01*
X-21252671Y-11166218D01*
X-21294682Y-10948182D01*
X-8999500Y-10948182D01*
X-8999500Y-11069818D01*
X-8975770Y-11189118D01*
X-8929222Y-11301496D01*
X-8861644Y-11402633D01*
X-8775633Y-11488644D01*
X-8674496Y-11556222D01*
X-8562118Y-11602770D01*
X-8442818Y-11626500D01*
X-8321182Y-11626500D01*
X-8234740Y-11609306D01*
X-8237500Y-11623182D01*
X-8237500Y-11744818D01*
X-8213770Y-11864118D01*
X-8167222Y-11976496D01*
X-8099644Y-12077633D01*
X-8013633Y-12163644D01*
X-7912496Y-12231222D01*
X-7800118Y-12277770D01*
X-7680818Y-12301500D01*
X-7559182Y-12301500D01*
X-7439882Y-12277770D01*
X-7327504Y-12231222D01*
X-7287037Y-12204182D01*
X-1742500Y-12204182D01*
X-1742500Y-12325818D01*
X-1718770Y-12445118D01*
X-1672222Y-12557496D01*
X-1604644Y-12658633D01*
X-1518633Y-12744644D01*
X-1417496Y-12812222D01*
X-1305118Y-12858770D01*
X-1185818Y-12882500D01*
X-1064182Y-12882500D01*
X-944882Y-12858770D01*
X-832504Y-12812222D01*
X-731367Y-12744644D01*
X-645356Y-12658633D01*
X-577778Y-12557496D01*
X-531230Y-12445118D01*
X-507500Y-12325818D01*
X-507500Y-12204182D01*
X-531230Y-12084882D01*
X-577778Y-11972504D01*
X-645356Y-11871367D01*
X-731367Y-11785356D01*
X-832504Y-11717778D01*
X-944882Y-11671230D01*
X-1064182Y-11647500D01*
X-1185818Y-11647500D01*
X-1305118Y-11671230D01*
X-1417496Y-11717778D01*
X-1518633Y-11785356D01*
X-1604644Y-11871367D01*
X-1672222Y-11972504D01*
X-1718770Y-12084882D01*
X-1742500Y-12204182D01*
X-7287037Y-12204182D01*
X-7226367Y-12163644D01*
X-7140356Y-12077633D01*
X-7072778Y-11976496D01*
X-7026230Y-11864118D01*
X-7002500Y-11744818D01*
X-7002500Y-11623182D01*
X-7026230Y-11503882D01*
X-7072778Y-11391504D01*
X-7140356Y-11290367D01*
X-7226367Y-11204356D01*
X-7327504Y-11136778D01*
X-7342201Y-11130690D01*
X3072500Y-11130690D01*
X3072500Y-11449310D01*
X3134660Y-11761807D01*
X3256590Y-12056173D01*
X3433606Y-12321096D01*
X3658904Y-12546394D01*
X3923827Y-12723410D01*
X4218193Y-12845340D01*
X4530690Y-12907500D01*
X4849310Y-12907500D01*
X5161807Y-12845340D01*
X5456173Y-12723410D01*
X5721096Y-12546394D01*
X5946394Y-12321096D01*
X6123410Y-12056173D01*
X6245340Y-11761807D01*
X6307500Y-11449310D01*
X6307500Y-11130690D01*
X18622500Y-11130690D01*
X18622500Y-11449310D01*
X18684660Y-11761807D01*
X18806590Y-12056173D01*
X18983606Y-12321096D01*
X19208904Y-12546394D01*
X19473827Y-12723410D01*
X19768193Y-12845340D01*
X20080690Y-12907500D01*
X20399310Y-12907500D01*
X20711807Y-12845340D01*
X21006173Y-12723410D01*
X21271096Y-12546394D01*
X21496394Y-12321096D01*
X21673410Y-12056173D01*
X21795340Y-11761807D01*
X21857500Y-11449310D01*
X21857500Y-11130690D01*
X21795340Y-10818193D01*
X21673410Y-10523827D01*
X21496394Y-10258904D01*
X21271096Y-10033606D01*
X21006173Y-9856590D01*
X20711807Y-9734660D01*
X20399310Y-9672500D01*
X20080690Y-9672500D01*
X19768193Y-9734660D01*
X19473827Y-9856590D01*
X19208904Y-10033606D01*
X18983606Y-10258904D01*
X18806590Y-10523827D01*
X18684660Y-10818193D01*
X18622500Y-11130690D01*
X6307500Y-11130690D01*
X6245340Y-10818193D01*
X6123410Y-10523827D01*
X5946394Y-10258904D01*
X5721096Y-10033606D01*
X5456173Y-9856590D01*
X5161807Y-9734660D01*
X4849310Y-9672500D01*
X4530690Y-9672500D01*
X4218193Y-9734660D01*
X3923827Y-9856590D01*
X3658904Y-10033606D01*
X3433606Y-10258904D01*
X3256590Y-10523827D01*
X3134660Y-10818193D01*
X3072500Y-11130690D01*
X-7342201Y-11130690D01*
X-7439882Y-11090230D01*
X-7559182Y-11066500D01*
X-7680818Y-11066500D01*
X-7767260Y-11083694D01*
X-7764500Y-11069818D01*
X-7764500Y-10948182D01*
X-7788230Y-10828882D01*
X-7834778Y-10716504D01*
X-7902356Y-10615367D01*
X-7988367Y-10529356D01*
X-8089504Y-10461778D01*
X-8201882Y-10415230D01*
X-8321182Y-10391500D01*
X-8442818Y-10391500D01*
X-8562118Y-10415230D01*
X-8674496Y-10461778D01*
X-8775633Y-10529356D01*
X-8861644Y-10615367D01*
X-8929222Y-10716504D01*
X-8975770Y-10828882D01*
X-8999500Y-10948182D01*
X-21294682Y-10948182D01*
X-21306581Y-10886429D01*
X-21414039Y-10622533D01*
X-21422264Y-10607142D01*
X-21648387Y-10517795D01*
X-22430592Y-11300000D01*
X-22969408Y-11300000D01*
X-23751613Y-10517795D01*
X-23977736Y-10607142D01*
X-24088354Y-10869729D01*
X-24145618Y-11148851D01*
X-24147329Y-11433782D01*
X-25132500Y-11433782D01*
X-25132500Y-10248387D01*
X-23482205Y-10248387D01*
X-22700000Y-11030592D01*
X-21917795Y-10248387D01*
X-22007142Y-10022264D01*
X-22269729Y-9911646D01*
X-22548851Y-9854382D01*
X-22833782Y-9852671D01*
X-23113571Y-9906581D01*
X-23377467Y-10014039D01*
X-23392858Y-10022264D01*
X-23482205Y-10248387D01*
X-25132500Y-10248387D01*
X-25132500Y-8067182D01*
X-14746500Y-8067182D01*
X-14746500Y-8188818D01*
X-14722770Y-8308118D01*
X-14676222Y-8420496D01*
X-14608644Y-8521633D01*
X-14522633Y-8607644D01*
X-14421496Y-8675222D01*
X-14309118Y-8721770D01*
X-14189818Y-8745500D01*
X-14068182Y-8745500D01*
X-13948882Y-8721770D01*
X-13836504Y-8675222D01*
X-13735367Y-8607644D01*
X-13702905Y-8575182D01*
X-13317500Y-8575182D01*
X-13317500Y-8696818D01*
X-13293770Y-8816118D01*
X-13247222Y-8928496D01*
X-13179644Y-9029633D01*
X-13093633Y-9115644D01*
X-12992496Y-9183222D01*
X-12880118Y-9229770D01*
X-12760818Y-9253500D01*
X-12639182Y-9253500D01*
X-12519882Y-9229770D01*
X-12407504Y-9183222D01*
X-12306367Y-9115644D01*
X-12220356Y-9029633D01*
X-12152778Y-8928496D01*
X-12106230Y-8816118D01*
X-12082500Y-8696818D01*
X-12082500Y-8575182D01*
X-12106230Y-8455882D01*
X-12152778Y-8343504D01*
X-12220356Y-8242367D01*
X-12306367Y-8156356D01*
X-12362001Y-8119182D01*
X-1517500Y-8119182D01*
X-1517500Y-8240818D01*
X-1493770Y-8360118D01*
X-1447222Y-8472496D01*
X-1379644Y-8573633D01*
X-1293633Y-8659644D01*
X-1192496Y-8727222D01*
X-1080118Y-8773770D01*
X-960818Y-8797500D01*
X-839182Y-8797500D01*
X-719882Y-8773770D01*
X-607504Y-8727222D01*
X-506367Y-8659644D01*
X-420356Y-8573633D01*
X-352778Y-8472496D01*
X-306230Y-8360118D01*
X-282500Y-8240818D01*
X-282500Y-8119182D01*
X-306230Y-7999882D01*
X-352778Y-7887504D01*
X-420356Y-7786367D01*
X-506367Y-7700356D01*
X-607504Y-7632778D01*
X-719882Y-7586230D01*
X-839182Y-7562500D01*
X-960818Y-7562500D01*
X-1080118Y-7586230D01*
X-1192496Y-7632778D01*
X-1293633Y-7700356D01*
X-1379644Y-7786367D01*
X-1447222Y-7887504D01*
X-1493770Y-7999882D01*
X-1517500Y-8119182D01*
X-12362001Y-8119182D01*
X-12407504Y-8088778D01*
X-12519882Y-8042230D01*
X-12639182Y-8018500D01*
X-12760818Y-8018500D01*
X-12880118Y-8042230D01*
X-12992496Y-8088778D01*
X-13093633Y-8156356D01*
X-13179644Y-8242367D01*
X-13247222Y-8343504D01*
X-13293770Y-8455882D01*
X-13317500Y-8575182D01*
X-13702905Y-8575182D01*
X-13649356Y-8521633D01*
X-13581778Y-8420496D01*
X-13535230Y-8308118D01*
X-13511500Y-8188818D01*
X-13511500Y-8067182D01*
X-13535230Y-7947882D01*
X-13581778Y-7835504D01*
X-13649356Y-7734367D01*
X-13735367Y-7648356D01*
X-13836504Y-7580778D01*
X-13948882Y-7534230D01*
X-14068182Y-7510500D01*
X-14189818Y-7510500D01*
X-14309118Y-7534230D01*
X-14421496Y-7580778D01*
X-14522633Y-7648356D01*
X-14608644Y-7734367D01*
X-14676222Y-7835504D01*
X-14722770Y-7947882D01*
X-14746500Y-8067182D01*
X-25132500Y-8067182D01*
X-25132500Y-6682549D01*
X-23892500Y-6682549D01*
X-23892500Y-6917451D01*
X-23846673Y-7147839D01*
X-23756780Y-7364861D01*
X-23626275Y-7560174D01*
X-23460174Y-7726275D01*
X-23264861Y-7856780D01*
X-23047839Y-7946673D01*
X-22817451Y-7992500D01*
X-22582549Y-7992500D01*
X-22352161Y-7946673D01*
X-22135139Y-7856780D01*
X-21939826Y-7726275D01*
X-21773725Y-7560174D01*
X-21643220Y-7364861D01*
X-21618501Y-7305182D01*
X-12809500Y-7305182D01*
X-12809500Y-7426818D01*
X-12785770Y-7546118D01*
X-12739222Y-7658496D01*
X-12671644Y-7759633D01*
X-12585633Y-7845644D01*
X-12484496Y-7913222D01*
X-12372118Y-7959770D01*
X-12252818Y-7983500D01*
X-12131182Y-7983500D01*
X-12011882Y-7959770D01*
X-11899504Y-7913222D01*
X-11798367Y-7845644D01*
X-11712356Y-7759633D01*
X-11644778Y-7658496D01*
X-11598230Y-7546118D01*
X-11574500Y-7426818D01*
X-11574500Y-7305182D01*
X-11598230Y-7185882D01*
X-11644778Y-7073504D01*
X-11660482Y-7050000D01*
X6750964Y-7050000D01*
X6750964Y-8950000D01*
X6757094Y-9012241D01*
X6775249Y-9072090D01*
X6804731Y-9127247D01*
X6844407Y-9175593D01*
X6892753Y-9215269D01*
X6947910Y-9244751D01*
X7007759Y-9262906D01*
X7070000Y-9269036D01*
X8970000Y-9269036D01*
X9032241Y-9262906D01*
X9092090Y-9244751D01*
X9147247Y-9215269D01*
X9195593Y-9175593D01*
X9235269Y-9127247D01*
X9264751Y-9072090D01*
X9282906Y-9012241D01*
X9289036Y-8950000D01*
X9289036Y-7875162D01*
X9292500Y-7875162D01*
X9292500Y-8124838D01*
X9341209Y-8369716D01*
X9436756Y-8600386D01*
X9575468Y-8807984D01*
X9752016Y-8984532D01*
X9959614Y-9123244D01*
X10190284Y-9218791D01*
X10435162Y-9267500D01*
X10684838Y-9267500D01*
X10929716Y-9218791D01*
X11160386Y-9123244D01*
X11367984Y-8984532D01*
X11544532Y-8807984D01*
X11683244Y-8600386D01*
X11778791Y-8369716D01*
X11827500Y-8124838D01*
X11827500Y-7875162D01*
X11832500Y-7875162D01*
X11832500Y-8124838D01*
X11881209Y-8369716D01*
X11976756Y-8600386D01*
X12115468Y-8807984D01*
X12292016Y-8984532D01*
X12499614Y-9123244D01*
X12730284Y-9218791D01*
X12975162Y-9267500D01*
X13224838Y-9267500D01*
X13469716Y-9218791D01*
X13700386Y-9123244D01*
X13907984Y-8984532D01*
X14084532Y-8807984D01*
X14223244Y-8600386D01*
X14318791Y-8369716D01*
X14367500Y-8124838D01*
X14367500Y-7875162D01*
X14372500Y-7875162D01*
X14372500Y-8124838D01*
X14421209Y-8369716D01*
X14516756Y-8600386D01*
X14655468Y-8807984D01*
X14832016Y-8984532D01*
X15039614Y-9123244D01*
X15270284Y-9218791D01*
X15515162Y-9267500D01*
X15764838Y-9267500D01*
X16009716Y-9218791D01*
X16240386Y-9123244D01*
X16447984Y-8984532D01*
X16624532Y-8807984D01*
X16763244Y-8600386D01*
X16858791Y-8369716D01*
X16907500Y-8124838D01*
X16907500Y-7875162D01*
X16858791Y-7630284D01*
X16763244Y-7399614D01*
X16624532Y-7192016D01*
X16447984Y-7015468D01*
X16240386Y-6876756D01*
X16009716Y-6781209D01*
X15764838Y-6732500D01*
X15515162Y-6732500D01*
X15270284Y-6781209D01*
X15039614Y-6876756D01*
X14832016Y-7015468D01*
X14655468Y-7192016D01*
X14516756Y-7399614D01*
X14421209Y-7630284D01*
X14372500Y-7875162D01*
X14367500Y-7875162D01*
X14318791Y-7630284D01*
X14223244Y-7399614D01*
X14084532Y-7192016D01*
X13907984Y-7015468D01*
X13700386Y-6876756D01*
X13469716Y-6781209D01*
X13224838Y-6732500D01*
X12975162Y-6732500D01*
X12730284Y-6781209D01*
X12499614Y-6876756D01*
X12292016Y-7015468D01*
X12115468Y-7192016D01*
X11976756Y-7399614D01*
X11881209Y-7630284D01*
X11832500Y-7875162D01*
X11827500Y-7875162D01*
X11778791Y-7630284D01*
X11683244Y-7399614D01*
X11544532Y-7192016D01*
X11367984Y-7015468D01*
X11160386Y-6876756D01*
X10929716Y-6781209D01*
X10684838Y-6732500D01*
X10435162Y-6732500D01*
X10190284Y-6781209D01*
X9959614Y-6876756D01*
X9752016Y-7015468D01*
X9575468Y-7192016D01*
X9436756Y-7399614D01*
X9341209Y-7630284D01*
X9292500Y-7875162D01*
X9289036Y-7875162D01*
X9289036Y-7050000D01*
X9282906Y-6987759D01*
X9264751Y-6927910D01*
X9235269Y-6872753D01*
X9195593Y-6824407D01*
X9147247Y-6784731D01*
X9092090Y-6755249D01*
X9032241Y-6737094D01*
X8970000Y-6730964D01*
X7070000Y-6730964D01*
X7007759Y-6737094D01*
X6947910Y-6755249D01*
X6892753Y-6784731D01*
X6844407Y-6824407D01*
X6804731Y-6872753D01*
X6775249Y-6927910D01*
X6757094Y-6987759D01*
X6750964Y-7050000D01*
X-11660482Y-7050000D01*
X-11712356Y-6972367D01*
X-11798367Y-6886356D01*
X-11899504Y-6818778D01*
X-12011882Y-6772230D01*
X-12131182Y-6748500D01*
X-12252818Y-6748500D01*
X-12372118Y-6772230D01*
X-12484496Y-6818778D01*
X-12585633Y-6886356D01*
X-12671644Y-6972367D01*
X-12739222Y-7073504D01*
X-12785770Y-7185882D01*
X-12809500Y-7305182D01*
X-21618501Y-7305182D01*
X-21553327Y-7147839D01*
X-21507500Y-6917451D01*
X-21507500Y-6682549D01*
X-21553327Y-6452161D01*
X-21643220Y-6235139D01*
X-21773725Y-6039826D01*
X-21939826Y-5873725D01*
X-22135139Y-5743220D01*
X-22352161Y-5653327D01*
X-22582549Y-5607500D01*
X-22817451Y-5607500D01*
X-23047839Y-5653327D01*
X-23264861Y-5743220D01*
X-23460174Y-5873725D01*
X-23626275Y-6039826D01*
X-23756780Y-6235139D01*
X-23846673Y-6452161D01*
X-23892500Y-6682549D01*
X-25132500Y-6682549D01*
X-25132500Y-5405313D01*
X-21577500Y-5405313D01*
X-21577500Y-5674687D01*
X-21524948Y-5938885D01*
X-21421863Y-6187754D01*
X-21272207Y-6411731D01*
X-21081731Y-6602207D01*
X-20857754Y-6751863D01*
X-20608885Y-6854948D01*
X-20344687Y-6907500D01*
X-20075313Y-6907500D01*
X-19811115Y-6854948D01*
X-19562246Y-6751863D01*
X-19338269Y-6602207D01*
X-19147793Y-6411731D01*
X-18998137Y-6187754D01*
X-18895052Y-5938885D01*
X-18842500Y-5674687D01*
X-18842500Y-5405313D01*
X-18868782Y-5273182D01*
X-12047500Y-5273182D01*
X-12047500Y-5394818D01*
X-12023770Y-5514118D01*
X-11977222Y-5626496D01*
X-11909644Y-5727633D01*
X-11823633Y-5813644D01*
X-11722496Y-5881222D01*
X-11610118Y-5927770D01*
X-11490818Y-5951500D01*
X-11369182Y-5951500D01*
X-11249882Y-5927770D01*
X-11137504Y-5881222D01*
X-11036367Y-5813644D01*
X-10950356Y-5727633D01*
X-10882778Y-5626496D01*
X-10836230Y-5514118D01*
X-10812500Y-5394818D01*
X-10812500Y-5273182D01*
X-7729500Y-5273182D01*
X-7729500Y-5394818D01*
X-7705770Y-5514118D01*
X-7659222Y-5626496D01*
X-7591644Y-5727633D01*
X-7505633Y-5813644D01*
X-7404496Y-5881222D01*
X-7292118Y-5927770D01*
X-7172818Y-5951500D01*
X-7051182Y-5951500D01*
X-6931882Y-5927770D01*
X-6819504Y-5881222D01*
X-6718367Y-5813644D01*
X-6632356Y-5727633D01*
X-6564778Y-5626496D01*
X-6518230Y-5514118D01*
X-6494500Y-5394818D01*
X-6494500Y-5335162D01*
X8022500Y-5335162D01*
X8022500Y-5584838D01*
X8071209Y-5829716D01*
X8166756Y-6060386D01*
X8305468Y-6267984D01*
X8482016Y-6444532D01*
X8689614Y-6583244D01*
X8920284Y-6678791D01*
X9165162Y-6727500D01*
X9414838Y-6727500D01*
X9659716Y-6678791D01*
X9890386Y-6583244D01*
X10097984Y-6444532D01*
X10274532Y-6267984D01*
X10413244Y-6060386D01*
X10508791Y-5829716D01*
X10557500Y-5584838D01*
X10557500Y-5335162D01*
X10562500Y-5335162D01*
X10562500Y-5584838D01*
X10611209Y-5829716D01*
X10706756Y-6060386D01*
X10845468Y-6267984D01*
X11022016Y-6444532D01*
X11229614Y-6583244D01*
X11460284Y-6678791D01*
X11705162Y-6727500D01*
X11954838Y-6727500D01*
X12199716Y-6678791D01*
X12430386Y-6583244D01*
X12637984Y-6444532D01*
X12814532Y-6267984D01*
X12953244Y-6060386D01*
X13048791Y-5829716D01*
X13097500Y-5584838D01*
X13097500Y-5335162D01*
X13102500Y-5335162D01*
X13102500Y-5584838D01*
X13151209Y-5829716D01*
X13246756Y-6060386D01*
X13385468Y-6267984D01*
X13562016Y-6444532D01*
X13769614Y-6583244D01*
X14000284Y-6678791D01*
X14245162Y-6727500D01*
X14494838Y-6727500D01*
X14739716Y-6678791D01*
X14970386Y-6583244D01*
X14997027Y-6565443D01*
X16073964Y-6565443D01*
X16172478Y-6799209D01*
X16447916Y-6917359D01*
X16741112Y-6979505D01*
X17040798Y-6983256D01*
X17335457Y-6928471D01*
X17613766Y-6817252D01*
X17647522Y-6799209D01*
X17746036Y-6565443D01*
X16910000Y-5729408D01*
X16073964Y-6565443D01*
X14997027Y-6565443D01*
X15177984Y-6444532D01*
X15354532Y-6267984D01*
X15493244Y-6060386D01*
X15502502Y-6038034D01*
X15552748Y-6163766D01*
X15570791Y-6197522D01*
X15804557Y-6296036D01*
X16640592Y-5460000D01*
X17179408Y-5460000D01*
X18015443Y-6296036D01*
X18249209Y-6197522D01*
X18367359Y-5922084D01*
X18429505Y-5628888D01*
X18433256Y-5329202D01*
X18378471Y-5034543D01*
X18267252Y-4756234D01*
X18249209Y-4722478D01*
X18015443Y-4623964D01*
X17179408Y-5460000D01*
X16640592Y-5460000D01*
X15804557Y-4623964D01*
X15570791Y-4722478D01*
X15502441Y-4881818D01*
X15493244Y-4859614D01*
X15354532Y-4652016D01*
X15177984Y-4475468D01*
X14997028Y-4354557D01*
X16073964Y-4354557D01*
X16910000Y-5190592D01*
X17746036Y-4354557D01*
X17647522Y-4120791D01*
X17372084Y-4002641D01*
X17078888Y-3940495D01*
X16779202Y-3936744D01*
X16484543Y-3991529D01*
X16206234Y-4102748D01*
X16172478Y-4120791D01*
X16073964Y-4354557D01*
X14997028Y-4354557D01*
X14970386Y-4336756D01*
X14739716Y-4241209D01*
X14494838Y-4192500D01*
X14245162Y-4192500D01*
X14000284Y-4241209D01*
X13769614Y-4336756D01*
X13562016Y-4475468D01*
X13385468Y-4652016D01*
X13246756Y-4859614D01*
X13151209Y-5090284D01*
X13102500Y-5335162D01*
X13097500Y-5335162D01*
X13048791Y-5090284D01*
X12953244Y-4859614D01*
X12814532Y-4652016D01*
X12637984Y-4475468D01*
X12430386Y-4336756D01*
X12376410Y-4314399D01*
X12480118Y-4293770D01*
X12592496Y-4247222D01*
X12693633Y-4179644D01*
X12779644Y-4093633D01*
X12800000Y-4063168D01*
X12820356Y-4093633D01*
X12906367Y-4179644D01*
X13007504Y-4247222D01*
X13119882Y-4293770D01*
X13239182Y-4317500D01*
X13360818Y-4317500D01*
X13480118Y-4293770D01*
X13592496Y-4247222D01*
X13693633Y-4179644D01*
X13779644Y-4093633D01*
X13847222Y-3992496D01*
X13893770Y-3880118D01*
X13917500Y-3760818D01*
X13917500Y-3639182D01*
X13893770Y-3519882D01*
X13847222Y-3407504D01*
X13779644Y-3306367D01*
X13693633Y-3220356D01*
X13592496Y-3152778D01*
X13480118Y-3106230D01*
X13360818Y-3082500D01*
X13239182Y-3082500D01*
X13119882Y-3106230D01*
X13007504Y-3152778D01*
X12906367Y-3220356D01*
X12820356Y-3306367D01*
X12800000Y-3336832D01*
X12779644Y-3306367D01*
X12693633Y-3220356D01*
X12592496Y-3152778D01*
X12480118Y-3106230D01*
X12360818Y-3082500D01*
X12239182Y-3082500D01*
X12119882Y-3106230D01*
X12007504Y-3152778D01*
X11906367Y-3220356D01*
X11820356Y-3306367D01*
X11763994Y-3390717D01*
X11693633Y-3320356D01*
X11592496Y-3252778D01*
X11480118Y-3206230D01*
X11360818Y-3182500D01*
X11239182Y-3182500D01*
X11119882Y-3206230D01*
X11007504Y-3252778D01*
X10906367Y-3320356D01*
X10820356Y-3406367D01*
X10752778Y-3507504D01*
X10706230Y-3619882D01*
X10682500Y-3739182D01*
X10682500Y-3860818D01*
X10706230Y-3980118D01*
X10752778Y-4092496D01*
X10820356Y-4193633D01*
X10906367Y-4279644D01*
X11007504Y-4347222D01*
X11119882Y-4393770D01*
X11138688Y-4397511D01*
X11022016Y-4475468D01*
X10845468Y-4652016D01*
X10706756Y-4859614D01*
X10611209Y-5090284D01*
X10562500Y-5335162D01*
X10557500Y-5335162D01*
X10508791Y-5090284D01*
X10413244Y-4859614D01*
X10274532Y-4652016D01*
X10097984Y-4475468D01*
X9890386Y-4336756D01*
X9659716Y-4241209D01*
X9414838Y-4192500D01*
X9165162Y-4192500D01*
X8920284Y-4241209D01*
X8689614Y-4336756D01*
X8482016Y-4475468D01*
X8305468Y-4652016D01*
X8166756Y-4859614D01*
X8071209Y-5090284D01*
X8022500Y-5335162D01*
X-6494500Y-5335162D01*
X-6494500Y-5273182D01*
X-6518230Y-5153882D01*
X-6564778Y-5041504D01*
X-6632356Y-4940367D01*
X-6718367Y-4854356D01*
X-6819504Y-4786778D01*
X-6931882Y-4740230D01*
X-7051182Y-4716500D01*
X-7172818Y-4716500D01*
X-7292118Y-4740230D01*
X-7404496Y-4786778D01*
X-7505633Y-4854356D01*
X-7591644Y-4940367D01*
X-7659222Y-5041504D01*
X-7705770Y-5153882D01*
X-7729500Y-5273182D01*
X-10812500Y-5273182D01*
X-10836230Y-5153882D01*
X-10882778Y-5041504D01*
X-10950356Y-4940367D01*
X-11036367Y-4854356D01*
X-11137504Y-4786778D01*
X-11249882Y-4740230D01*
X-11369182Y-4716500D01*
X-11490818Y-4716500D01*
X-11610118Y-4740230D01*
X-11722496Y-4786778D01*
X-11823633Y-4854356D01*
X-11909644Y-4940367D01*
X-11977222Y-5041504D01*
X-12023770Y-5153882D01*
X-12047500Y-5273182D01*
X-18868782Y-5273182D01*
X-18895052Y-5141115D01*
X-18998137Y-4892246D01*
X-19147793Y-4668269D01*
X-19338269Y-4477793D01*
X-19562246Y-4328137D01*
X-19811115Y-4225052D01*
X-20075313Y-4172500D01*
X-20344687Y-4172500D01*
X-20608885Y-4225052D01*
X-20857754Y-4328137D01*
X-21081731Y-4477793D01*
X-21272207Y-4668269D01*
X-21421863Y-4892246D01*
X-21524948Y-5141115D01*
X-21577500Y-5405313D01*
X-25132500Y-5405313D01*
X-25132500Y-3241182D01*
X-7475500Y-3241182D01*
X-7475500Y-3362818D01*
X-7451770Y-3482118D01*
X-7405222Y-3594496D01*
X-7337644Y-3695633D01*
X-7251633Y-3781644D01*
X-7150496Y-3849222D01*
X-7038118Y-3895770D01*
X-6918818Y-3919500D01*
X-6797182Y-3919500D01*
X-6677882Y-3895770D01*
X-6565504Y-3849222D01*
X-6464367Y-3781644D01*
X-6421905Y-3739182D01*
X6882500Y-3739182D01*
X6882500Y-3860818D01*
X6906230Y-3980118D01*
X6952778Y-4092496D01*
X7020356Y-4193633D01*
X7106367Y-4279644D01*
X7207504Y-4347222D01*
X7319882Y-4393770D01*
X7439182Y-4417500D01*
X7560818Y-4417500D01*
X7680118Y-4393770D01*
X7792496Y-4347222D01*
X7893633Y-4279644D01*
X7979644Y-4193633D01*
X8047222Y-4092496D01*
X8093770Y-3980118D01*
X8117500Y-3860818D01*
X8117500Y-3739182D01*
X8093770Y-3619882D01*
X8047222Y-3507504D01*
X7979644Y-3406367D01*
X7893633Y-3320356D01*
X7792496Y-3252778D01*
X7680118Y-3206230D01*
X7560818Y-3182500D01*
X7439182Y-3182500D01*
X7319882Y-3206230D01*
X7207504Y-3252778D01*
X7106367Y-3320356D01*
X7020356Y-3406367D01*
X6952778Y-3507504D01*
X6906230Y-3619882D01*
X6882500Y-3739182D01*
X-6421905Y-3739182D01*
X-6378356Y-3695633D01*
X-6310778Y-3594496D01*
X-6264230Y-3482118D01*
X-6240500Y-3362818D01*
X-6240500Y-3241182D01*
X-6264230Y-3121882D01*
X-6310778Y-3009504D01*
X-6378356Y-2908367D01*
X-6464367Y-2822356D01*
X-6565504Y-2754778D01*
X-6677882Y-2708230D01*
X-6797182Y-2684500D01*
X-6918818Y-2684500D01*
X-7038118Y-2708230D01*
X-7150496Y-2754778D01*
X-7251633Y-2822356D01*
X-7337644Y-2908367D01*
X-7405222Y-3009504D01*
X-7451770Y-3121882D01*
X-7475500Y-3241182D01*
X-25132500Y-3241182D01*
X-25132500Y-1839182D01*
X3982500Y-1839182D01*
X3982500Y-1960818D01*
X4006230Y-2080118D01*
X4052778Y-2192496D01*
X4120356Y-2293633D01*
X4206367Y-2379644D01*
X4307504Y-2447222D01*
X4419882Y-2493770D01*
X4539182Y-2517500D01*
X4660818Y-2517500D01*
X4780118Y-2493770D01*
X4892496Y-2447222D01*
X4993633Y-2379644D01*
X5079644Y-2293633D01*
X5147222Y-2192496D01*
X5193770Y-2080118D01*
X5217500Y-1960818D01*
X5217500Y-1839182D01*
X5193770Y-1719882D01*
X5147222Y-1607504D01*
X5079644Y-1506367D01*
X4993633Y-1420356D01*
X4892496Y-1352778D01*
X4780118Y-1306230D01*
X4660818Y-1282500D01*
X4539182Y-1282500D01*
X4419882Y-1306230D01*
X4307504Y-1352778D01*
X4206367Y-1420356D01*
X4120356Y-1506367D01*
X4052778Y-1607504D01*
X4006230Y-1719882D01*
X3982500Y-1839182D01*
X-25132500Y-1839182D01*
X-25132500Y-1239182D01*
X17082500Y-1239182D01*
X17082500Y-1360818D01*
X17106230Y-1480118D01*
X17152778Y-1592496D01*
X17220356Y-1693633D01*
X17306367Y-1779644D01*
X17407504Y-1847222D01*
X17519882Y-1893770D01*
X17639182Y-1917500D01*
X17760818Y-1917500D01*
X17880118Y-1893770D01*
X17992496Y-1847222D01*
X18093633Y-1779644D01*
X18179644Y-1693633D01*
X18247222Y-1592496D01*
X18293770Y-1480118D01*
X18317500Y-1360818D01*
X18317500Y-1239182D01*
X18293770Y-1119882D01*
X18247222Y-1007504D01*
X18179644Y-906367D01*
X18093633Y-820356D01*
X17992496Y-752778D01*
X17880118Y-706230D01*
X17760818Y-682500D01*
X17639182Y-682500D01*
X17519882Y-706230D01*
X17407504Y-752778D01*
X17306367Y-820356D01*
X17220356Y-906367D01*
X17152778Y-1007504D01*
X17106230Y-1119882D01*
X17082500Y-1239182D01*
X-25132500Y-1239182D01*
X-25132500Y260818D01*
X1682500Y260818D01*
X1682500Y139182D01*
X1706230Y19882D01*
X1752778Y-92496D01*
X1820356Y-193633D01*
X1906367Y-279644D01*
X2007504Y-347222D01*
X2119882Y-393770D01*
X2239182Y-417500D01*
X2360818Y-417500D01*
X2480118Y-393770D01*
X2592496Y-347222D01*
X2693633Y-279644D01*
X2779644Y-193633D01*
X2847222Y-92496D01*
X2893770Y19882D01*
X2917500Y139182D01*
X2917500Y260818D01*
X7782500Y260818D01*
X7782500Y139182D01*
X7806230Y19882D01*
X7852778Y-92496D01*
X7920356Y-193633D01*
X8006367Y-279644D01*
X8107504Y-347222D01*
X8219882Y-393770D01*
X8339182Y-417500D01*
X8460818Y-417500D01*
X8580118Y-393770D01*
X8692496Y-347222D01*
X8793633Y-279644D01*
X8879644Y-193633D01*
X8947222Y-92496D01*
X8993770Y19882D01*
X9017500Y139182D01*
X9017500Y260818D01*
X8993770Y380118D01*
X8947222Y492496D01*
X8879644Y593633D01*
X8793633Y679644D01*
X8692496Y747222D01*
X8580118Y793770D01*
X8460818Y817500D01*
X8339182Y817500D01*
X8219882Y793770D01*
X8107504Y747222D01*
X8006367Y679644D01*
X7920356Y593633D01*
X7852778Y492496D01*
X7806230Y380118D01*
X7782500Y260818D01*
X2917500Y260818D01*
X2893770Y380118D01*
X2847222Y492496D01*
X2779644Y593633D01*
X2693633Y679644D01*
X2592496Y747222D01*
X2480118Y793770D01*
X2360818Y817500D01*
X2239182Y817500D01*
X2119882Y793770D01*
X2007504Y747222D01*
X1906367Y679644D01*
X1820356Y593633D01*
X1752778Y492496D01*
X1706230Y380118D01*
X1682500Y260818D01*
X-25132500Y260818D01*
X-25132500Y960818D01*
X-21817500Y960818D01*
X-21817500Y839182D01*
X-21793770Y719882D01*
X-21747222Y607504D01*
X-21679644Y506367D01*
X-21593633Y420356D01*
X-21492496Y352778D01*
X-21380118Y306230D01*
X-21260818Y282500D01*
X-21139182Y282500D01*
X-21019882Y306230D01*
X-20907504Y352778D01*
X-20806367Y420356D01*
X-20720356Y506367D01*
X-20652778Y607504D01*
X-20606230Y719882D01*
X-20582500Y839182D01*
X-20582500Y960818D01*
X-20606230Y1080118D01*
X-20652778Y1192496D01*
X-20720356Y1293633D01*
X-20806367Y1379644D01*
X-20907504Y1447222D01*
X-21019882Y1493770D01*
X-21139182Y1517500D01*
X-21260818Y1517500D01*
X-21380118Y1493770D01*
X-21492496Y1447222D01*
X-21593633Y1379644D01*
X-21679644Y1293633D01*
X-21747222Y1192496D01*
X-21793770Y1080118D01*
X-21817500Y960818D01*
X-25132500Y960818D01*
X-25132500Y2260818D01*
X-21817500Y2260818D01*
X-21817500Y2139182D01*
X-21793770Y2019882D01*
X-21747222Y1907504D01*
X-21679644Y1806367D01*
X-21593633Y1720356D01*
X-21492496Y1652778D01*
X-21380118Y1606230D01*
X-21260818Y1582500D01*
X-21139182Y1582500D01*
X-21019882Y1606230D01*
X-20907504Y1652778D01*
X-20806367Y1720356D01*
X-20720356Y1806367D01*
X-20652778Y1907504D01*
X-20606230Y2019882D01*
X-20598088Y2060818D01*
X-8817500Y2060818D01*
X-8817500Y1939182D01*
X-8793770Y1819882D01*
X-8747222Y1707504D01*
X-8679644Y1606367D01*
X-8593633Y1520356D01*
X-8492496Y1452778D01*
X-8380118Y1406230D01*
X-8260818Y1382500D01*
X-8139182Y1382500D01*
X-8019882Y1406230D01*
X-7907504Y1452778D01*
X-7806367Y1520356D01*
X-7720356Y1606367D01*
X-7652778Y1707504D01*
X-7606230Y1819882D01*
X-7582500Y1939182D01*
X-7582500Y2060818D01*
X-7606230Y2180118D01*
X-7652778Y2292496D01*
X-7698429Y2360818D01*
X-2017500Y2360818D01*
X-2017500Y2239182D01*
X-1993770Y2119882D01*
X-1947222Y2007504D01*
X-1879644Y1906367D01*
X-1793633Y1820356D01*
X-1692496Y1752778D01*
X-1580118Y1706230D01*
X-1460818Y1682500D01*
X-1339182Y1682500D01*
X-1219882Y1706230D01*
X-1107504Y1752778D01*
X-1006367Y1820356D01*
X-920356Y1906367D01*
X-852778Y2007504D01*
X-806230Y2119882D01*
X-782500Y2239182D01*
X-782500Y2360818D01*
X-806230Y2480118D01*
X-852778Y2592496D01*
X-920356Y2693633D01*
X-1006367Y2779644D01*
X-1107504Y2847222D01*
X-1219882Y2893770D01*
X-1339182Y2917500D01*
X-1460818Y2917500D01*
X-1580118Y2893770D01*
X-1692496Y2847222D01*
X-1793633Y2779644D01*
X-1879644Y2693633D01*
X-1947222Y2592496D01*
X-1993770Y2480118D01*
X-2017500Y2360818D01*
X-7698429Y2360818D01*
X-7720356Y2393633D01*
X-7806367Y2479644D01*
X-7907504Y2547222D01*
X-8019882Y2593770D01*
X-8139182Y2617500D01*
X-8260818Y2617500D01*
X-8380118Y2593770D01*
X-8492496Y2547222D01*
X-8593633Y2479644D01*
X-8679644Y2393633D01*
X-8747222Y2292496D01*
X-8793770Y2180118D01*
X-8817500Y2060818D01*
X-20598088Y2060818D01*
X-20582500Y2139182D01*
X-20582500Y2260818D01*
X-20606230Y2380118D01*
X-20652778Y2492496D01*
X-20720356Y2593633D01*
X-20806367Y2679644D01*
X-20907504Y2747222D01*
X-21019882Y2793770D01*
X-21139182Y2817500D01*
X-21260818Y2817500D01*
X-21380118Y2793770D01*
X-21492496Y2747222D01*
X-21593633Y2679644D01*
X-21679644Y2593633D01*
X-21747222Y2492496D01*
X-21793770Y2380118D01*
X-21817500Y2260818D01*
X-25132500Y2260818D01*
X-25132500Y3510818D01*
X-21817500Y3510818D01*
X-21817500Y3389182D01*
X-21793770Y3269882D01*
X-21747222Y3157504D01*
X-21679644Y3056367D01*
X-21593633Y2970356D01*
X-21492496Y2902778D01*
X-21380118Y2856230D01*
X-21260818Y2832500D01*
X-21139182Y2832500D01*
X-21019882Y2856230D01*
X-21008806Y2860818D01*
X-15117500Y2860818D01*
X-15117500Y2739182D01*
X-15093770Y2619882D01*
X-15047222Y2507504D01*
X-14979644Y2406367D01*
X-14893633Y2320356D01*
X-14792496Y2252778D01*
X-14680118Y2206230D01*
X-14560818Y2182500D01*
X-14439182Y2182500D01*
X-14319882Y2206230D01*
X-14207504Y2252778D01*
X-14106367Y2320356D01*
X-14020356Y2406367D01*
X-13952778Y2507504D01*
X-13906230Y2619882D01*
X-13882500Y2739182D01*
X-13882500Y2860818D01*
X-13906230Y2980118D01*
X-13939656Y3060818D01*
X-11517500Y3060818D01*
X-11517500Y2939182D01*
X-11493770Y2819882D01*
X-11447222Y2707504D01*
X-11379644Y2606367D01*
X-11293633Y2520356D01*
X-11192496Y2452778D01*
X-11080118Y2406230D01*
X-10960818Y2382500D01*
X-10839182Y2382500D01*
X-10719882Y2406230D01*
X-10607504Y2452778D01*
X-10506367Y2520356D01*
X-10420356Y2606367D01*
X-10352778Y2707504D01*
X-10306230Y2819882D01*
X-10282500Y2939182D01*
X-10282500Y3060818D01*
X-10306230Y3180118D01*
X-10352778Y3292496D01*
X-10420356Y3393633D01*
X-10506367Y3479644D01*
X-10607504Y3547222D01*
X-10719882Y3593770D01*
X-10839182Y3617500D01*
X-10960818Y3617500D01*
X-11080118Y3593770D01*
X-11192496Y3547222D01*
X-11293633Y3479644D01*
X-11379644Y3393633D01*
X-11447222Y3292496D01*
X-11493770Y3180118D01*
X-11517500Y3060818D01*
X-13939656Y3060818D01*
X-13952778Y3092496D01*
X-14020356Y3193633D01*
X-14106367Y3279644D01*
X-14207504Y3347222D01*
X-14319882Y3393770D01*
X-14439182Y3417500D01*
X-14560818Y3417500D01*
X-14680118Y3393770D01*
X-14792496Y3347222D01*
X-14893633Y3279644D01*
X-14979644Y3193633D01*
X-15047222Y3092496D01*
X-15093770Y2980118D01*
X-15117500Y2860818D01*
X-21008806Y2860818D01*
X-20907504Y2902778D01*
X-20806367Y2970356D01*
X-20720356Y3056367D01*
X-20652778Y3157504D01*
X-20606230Y3269882D01*
X-20582500Y3389182D01*
X-20582500Y3510818D01*
X-20606230Y3630118D01*
X-20652778Y3742496D01*
X-20720356Y3843633D01*
X-20737541Y3860818D01*
X-16317500Y3860818D01*
X-16317500Y3739182D01*
X-16293770Y3619882D01*
X-16247222Y3507504D01*
X-16179644Y3406367D01*
X-16093633Y3320356D01*
X-15992496Y3252778D01*
X-15880118Y3206230D01*
X-15760818Y3182500D01*
X-15639182Y3182500D01*
X-15519882Y3206230D01*
X-15407504Y3252778D01*
X-15306367Y3320356D01*
X-15220356Y3406367D01*
X-15152778Y3507504D01*
X-15106230Y3619882D01*
X-15082500Y3739182D01*
X-15082500Y3860818D01*
X4782500Y3860818D01*
X4782500Y3739182D01*
X4806230Y3619882D01*
X4852778Y3507504D01*
X4920356Y3406367D01*
X5006367Y3320356D01*
X5107504Y3252778D01*
X5219882Y3206230D01*
X5339182Y3182500D01*
X5460818Y3182500D01*
X5580118Y3206230D01*
X5692496Y3252778D01*
X5793633Y3320356D01*
X5879644Y3406367D01*
X5947222Y3507504D01*
X5993770Y3619882D01*
X6017500Y3739182D01*
X6017500Y3860818D01*
X5993770Y3980118D01*
X5947222Y4092496D01*
X5879644Y4193633D01*
X5812459Y4260818D01*
X19382500Y4260818D01*
X19382500Y4139182D01*
X19406230Y4019882D01*
X19452778Y3907504D01*
X19520356Y3806367D01*
X19606367Y3720356D01*
X19707504Y3652778D01*
X19819882Y3606230D01*
X19939182Y3582500D01*
X20060818Y3582500D01*
X20180118Y3606230D01*
X20292496Y3652778D01*
X20393633Y3720356D01*
X20479644Y3806367D01*
X20547222Y3907504D01*
X20593770Y4019882D01*
X20617500Y4139182D01*
X20617500Y4260818D01*
X20593770Y4380118D01*
X20547222Y4492496D01*
X20479644Y4593633D01*
X20393633Y4679644D01*
X20292496Y4747222D01*
X20180118Y4793770D01*
X20060818Y4817500D01*
X19939182Y4817500D01*
X19819882Y4793770D01*
X19707504Y4747222D01*
X19606367Y4679644D01*
X19520356Y4593633D01*
X19452778Y4492496D01*
X19406230Y4380118D01*
X19382500Y4260818D01*
X5812459Y4260818D01*
X5793633Y4279644D01*
X5692496Y4347222D01*
X5580118Y4393770D01*
X5460818Y4417500D01*
X5339182Y4417500D01*
X5219882Y4393770D01*
X5107504Y4347222D01*
X5006367Y4279644D01*
X4920356Y4193633D01*
X4852778Y4092496D01*
X4806230Y3980118D01*
X4782500Y3860818D01*
X-15082500Y3860818D01*
X-15106230Y3980118D01*
X-15152778Y4092496D01*
X-15220356Y4193633D01*
X-15306367Y4279644D01*
X-15407504Y4347222D01*
X-15519882Y4393770D01*
X-15639182Y4417500D01*
X-15760818Y4417500D01*
X-15880118Y4393770D01*
X-15992496Y4347222D01*
X-16093633Y4279644D01*
X-16179644Y4193633D01*
X-16247222Y4092496D01*
X-16293770Y3980118D01*
X-16317500Y3860818D01*
X-20737541Y3860818D01*
X-20806367Y3929644D01*
X-20907504Y3997222D01*
X-21019882Y4043770D01*
X-21139182Y4067500D01*
X-21260818Y4067500D01*
X-21380118Y4043770D01*
X-21492496Y3997222D01*
X-21593633Y3929644D01*
X-21679644Y3843633D01*
X-21747222Y3742496D01*
X-21793770Y3630118D01*
X-21817500Y3510818D01*
X-25132500Y3510818D01*
X-25132500Y4760818D01*
X-8917500Y4760818D01*
X-8917500Y4639182D01*
X-8893770Y4519882D01*
X-8847222Y4407504D01*
X-8779644Y4306367D01*
X-8693633Y4220356D01*
X-8592496Y4152778D01*
X-8480118Y4106230D01*
X-8360818Y4082500D01*
X-8239182Y4082500D01*
X-8119882Y4106230D01*
X-8007504Y4152778D01*
X-7906367Y4220356D01*
X-7820356Y4306367D01*
X-7752778Y4407504D01*
X-7706230Y4519882D01*
X-7682500Y4639182D01*
X-7682500Y4760818D01*
X-7706230Y4880118D01*
X-7752778Y4992496D01*
X-7820356Y5093633D01*
X-7906367Y5179644D01*
X-8007504Y5247222D01*
X-8119882Y5293770D01*
X-8239182Y5317500D01*
X-8360818Y5317500D01*
X-8480118Y5293770D01*
X-8592496Y5247222D01*
X-8693633Y5179644D01*
X-8779644Y5093633D01*
X-8847222Y4992496D01*
X-8893770Y4880118D01*
X-8917500Y4760818D01*
X-25132500Y4760818D01*
X-25132500Y6760818D01*
X-19517500Y6760818D01*
X-19517500Y6639182D01*
X-19493770Y6519882D01*
X-19447222Y6407504D01*
X-19379644Y6306367D01*
X-19293633Y6220356D01*
X-19192496Y6152778D01*
X-19080118Y6106230D01*
X-18960818Y6082500D01*
X-18839182Y6082500D01*
X-18719882Y6106230D01*
X-18607504Y6152778D01*
X-18506367Y6220356D01*
X-18420356Y6306367D01*
X-18352778Y6407504D01*
X-18330695Y6460818D01*
X-2917500Y6460818D01*
X-2917500Y6339182D01*
X-2893770Y6219882D01*
X-2847222Y6107504D01*
X-2779644Y6006367D01*
X-2693633Y5920356D01*
X-2592496Y5852778D01*
X-2480118Y5806230D01*
X-2360818Y5782500D01*
X-2239182Y5782500D01*
X-2119882Y5806230D01*
X-2007504Y5852778D01*
X-1906367Y5920356D01*
X-1820356Y6006367D01*
X-1752778Y6107504D01*
X-1706230Y6219882D01*
X-1682500Y6339182D01*
X-1682500Y6460818D01*
X-1706230Y6580118D01*
X-1752778Y6692496D01*
X-1820356Y6793633D01*
X-1906367Y6879644D01*
X-2007504Y6947222D01*
X-2119882Y6993770D01*
X-2239182Y7017500D01*
X-2360818Y7017500D01*
X-2480118Y6993770D01*
X-2592496Y6947222D01*
X-2693633Y6879644D01*
X-2779644Y6793633D01*
X-2847222Y6692496D01*
X-2893770Y6580118D01*
X-2917500Y6460818D01*
X-18330695Y6460818D01*
X-18306230Y6519882D01*
X-18282500Y6639182D01*
X-18282500Y6760818D01*
X-18306230Y6880118D01*
X-18352778Y6992496D01*
X-18420356Y7093633D01*
X-18506367Y7179644D01*
X-18607504Y7247222D01*
X-18719882Y7293770D01*
X-18839182Y7317500D01*
X-18960818Y7317500D01*
X-19080118Y7293770D01*
X-19192496Y7247222D01*
X-19293633Y7179644D01*
X-19379644Y7093633D01*
X-19447222Y6992496D01*
X-19493770Y6880118D01*
X-19517500Y6760818D01*
X-25132500Y6760818D01*
X-25132500Y7360818D01*
X-4617500Y7360818D01*
X-4617500Y7239182D01*
X-4593770Y7119882D01*
X-4547222Y7007504D01*
X-4479644Y6906367D01*
X-4393633Y6820356D01*
X-4292496Y6752778D01*
X-4180118Y6706230D01*
X-4060818Y6682500D01*
X-3939182Y6682500D01*
X-3819882Y6706230D01*
X-3707504Y6752778D01*
X-3606367Y6820356D01*
X-3520356Y6906367D01*
X-3452778Y7007504D01*
X-3406230Y7119882D01*
X-3382500Y7239182D01*
X-3382500Y7360818D01*
X-3406230Y7480118D01*
X-3452778Y7592496D01*
X-3520356Y7693633D01*
X-3606367Y7779644D01*
X-3707504Y7847222D01*
X-3819882Y7893770D01*
X-3939182Y7917500D01*
X-4060818Y7917500D01*
X-4180118Y7893770D01*
X-4292496Y7847222D01*
X-4393633Y7779644D01*
X-4479644Y7693633D01*
X-4547222Y7592496D01*
X-4593770Y7480118D01*
X-4617500Y7360818D01*
X-25132500Y7360818D01*
X-25132500Y8760818D01*
X-2917500Y8760818D01*
X-2917500Y8639182D01*
X-2893770Y8519882D01*
X-2847222Y8407504D01*
X-2779644Y8306367D01*
X-2693633Y8220356D01*
X-2592496Y8152778D01*
X-2480118Y8106230D01*
X-2360818Y8082500D01*
X-2239182Y8082500D01*
X-2119882Y8106230D01*
X-2007504Y8152778D01*
X-1906367Y8220356D01*
X-1820356Y8306367D01*
X-1752778Y8407504D01*
X-1706230Y8519882D01*
X-1682500Y8639182D01*
X-1682500Y8760818D01*
X-1697816Y8837819D01*
X8882500Y8837819D01*
X8882500Y8716183D01*
X8906230Y8596883D01*
X8952778Y8484505D01*
X9000225Y8413496D01*
X8952784Y8342496D01*
X8906236Y8230118D01*
X8882506Y8110818D01*
X8882506Y7989182D01*
X8906236Y7869882D01*
X8952784Y7757504D01*
X9007909Y7675004D01*
X8952778Y7592496D01*
X8906230Y7480118D01*
X8882500Y7360818D01*
X8882500Y7239182D01*
X8906230Y7119882D01*
X8952778Y7007504D01*
X9020356Y6906367D01*
X9026723Y6900000D01*
X9020356Y6893633D01*
X8952778Y6792496D01*
X8906230Y6680118D01*
X8882500Y6560818D01*
X8882500Y6439182D01*
X8906230Y6319882D01*
X8952778Y6207504D01*
X9020356Y6106367D01*
X9026726Y6099997D01*
X9020356Y6093627D01*
X8952778Y5992490D01*
X8906230Y5880112D01*
X8882500Y5760812D01*
X8882500Y5639176D01*
X8906230Y5519876D01*
X8952778Y5407498D01*
X9020356Y5306361D01*
X9106367Y5220350D01*
X9207504Y5152772D01*
X9319882Y5106224D01*
X9439182Y5082494D01*
X9560818Y5082494D01*
X9680118Y5106224D01*
X9792496Y5152772D01*
X9893633Y5220350D01*
X9979644Y5306361D01*
X10047222Y5407498D01*
X10093770Y5519876D01*
X10117500Y5639176D01*
X10117500Y5760812D01*
X10093770Y5880112D01*
X10047222Y5992490D01*
X9979644Y6093627D01*
X9973274Y6099997D01*
X9979644Y6106367D01*
X10047222Y6207504D01*
X10093770Y6319882D01*
X10100520Y6353818D01*
X11117569Y6353818D01*
X11128225Y6189822D01*
X11282711Y6141654D01*
X11443626Y6124549D01*
X11604786Y6139166D01*
X11759998Y6184944D01*
X11771775Y6189822D01*
X11782431Y6353818D01*
X12167569Y6353818D01*
X12178225Y6189822D01*
X12332711Y6141654D01*
X12493626Y6124549D01*
X12654786Y6139166D01*
X12809998Y6184944D01*
X12821775Y6189822D01*
X12832431Y6353818D01*
X13217569Y6353818D01*
X13228225Y6189822D01*
X13382711Y6141654D01*
X13543626Y6124549D01*
X13704786Y6139166D01*
X13859998Y6184944D01*
X13871775Y6189822D01*
X13882431Y6353818D01*
X13775431Y6460818D01*
X16082500Y6460818D01*
X16082500Y6339182D01*
X16106230Y6219882D01*
X16152778Y6107504D01*
X16220356Y6006367D01*
X16306367Y5920356D01*
X16407504Y5852778D01*
X16519882Y5806230D01*
X16639182Y5782500D01*
X16760818Y5782500D01*
X16880118Y5806230D01*
X16992496Y5852778D01*
X17093633Y5920356D01*
X17179644Y6006367D01*
X17247222Y6107504D01*
X17293770Y6219882D01*
X17317500Y6339182D01*
X17317500Y6460818D01*
X17293770Y6580118D01*
X17247222Y6692496D01*
X17179644Y6793633D01*
X17093633Y6879644D01*
X16992496Y6947222D01*
X16880118Y6993770D01*
X16760818Y7017500D01*
X16639182Y7017500D01*
X16519882Y6993770D01*
X16407504Y6947222D01*
X16306367Y6879644D01*
X16220356Y6793633D01*
X16152778Y6692496D01*
X16106230Y6580118D01*
X16082500Y6460818D01*
X13775431Y6460818D01*
X13550000Y6686249D01*
X13217569Y6353818D01*
X12832431Y6353818D01*
X12500000Y6686249D01*
X12167569Y6353818D01*
X11782431Y6353818D01*
X11450000Y6686249D01*
X11117569Y6353818D01*
X10100520Y6353818D01*
X10117500Y6439182D01*
X10117500Y6560818D01*
X10093770Y6680118D01*
X10047222Y6792496D01*
X9979644Y6893633D01*
X9973277Y6900000D01*
X9979644Y6906367D01*
X10013057Y6956374D01*
X10624549Y6956374D01*
X10639166Y6795214D01*
X10684944Y6640002D01*
X10689822Y6628225D01*
X10853818Y6617569D01*
X11186249Y6950000D01*
X10853818Y7282431D01*
X10689822Y7271775D01*
X10641654Y7117289D01*
X10624549Y6956374D01*
X10013057Y6956374D01*
X10047222Y7007504D01*
X10093770Y7119882D01*
X10117500Y7239182D01*
X10117500Y7360818D01*
X10093770Y7480118D01*
X10047222Y7592496D01*
X9992097Y7674996D01*
X10047228Y7757504D01*
X10093776Y7869882D01*
X10117506Y7989182D01*
X10117506Y8006374D01*
X10624549Y8006374D01*
X10639166Y7845214D01*
X10684944Y7690002D01*
X10689822Y7678225D01*
X10853818Y7667569D01*
X11186249Y8000000D01*
X10853818Y8332431D01*
X10689822Y8321775D01*
X10641654Y8167289D01*
X10624549Y8006374D01*
X10117506Y8006374D01*
X10117506Y8110818D01*
X10093776Y8230118D01*
X10047228Y8342496D01*
X9999781Y8413505D01*
X10047222Y8484505D01*
X10093479Y8596182D01*
X11117569Y8596182D01*
X11188751Y8525000D01*
X11117569Y8453818D01*
X11128225Y8289822D01*
X11282711Y8241654D01*
X11443626Y8224549D01*
X11604786Y8239166D01*
X11725132Y8274661D01*
X11691654Y8167289D01*
X11674549Y8006374D01*
X11689166Y7845214D01*
X11724661Y7724868D01*
X11617289Y7758346D01*
X11456374Y7775451D01*
X11295214Y7760834D01*
X11140002Y7715056D01*
X11128225Y7710178D01*
X11117569Y7546182D01*
X11188751Y7475000D01*
X11117569Y7403818D01*
X11128225Y7239822D01*
X11282711Y7191654D01*
X11443626Y7174549D01*
X11604786Y7189166D01*
X11725132Y7224661D01*
X11691654Y7117289D01*
X11674549Y6956374D01*
X11689166Y6795214D01*
X11734944Y6640002D01*
X11739822Y6628225D01*
X11903818Y6617569D01*
X11975000Y6688751D01*
X12046182Y6617569D01*
X12210178Y6628225D01*
X12258346Y6782711D01*
X12275451Y6943626D01*
X12260834Y7104786D01*
X12225339Y7225132D01*
X12332711Y7191654D01*
X12493626Y7174549D01*
X12654786Y7189166D01*
X12775132Y7224661D01*
X12741654Y7117289D01*
X12724549Y6956374D01*
X12739166Y6795214D01*
X12784944Y6640002D01*
X12789822Y6628225D01*
X12953818Y6617569D01*
X13025000Y6688751D01*
X13096182Y6617569D01*
X13260178Y6628225D01*
X13308346Y6782711D01*
X13325451Y6943626D01*
X13324873Y6950000D01*
X13813751Y6950000D01*
X14146182Y6617569D01*
X14310178Y6628225D01*
X14358346Y6782711D01*
X14375451Y6943626D01*
X14360834Y7104786D01*
X14315056Y7259998D01*
X14310178Y7271775D01*
X14146182Y7282431D01*
X13813751Y6950000D01*
X13324873Y6950000D01*
X13310834Y7104786D01*
X13275339Y7225132D01*
X13382711Y7191654D01*
X13543626Y7174549D01*
X13704786Y7189166D01*
X13859998Y7234944D01*
X13871775Y7239822D01*
X13882431Y7403818D01*
X13811249Y7475000D01*
X13882431Y7546182D01*
X13871775Y7710178D01*
X13717289Y7758346D01*
X13556374Y7775451D01*
X13395214Y7760834D01*
X13274868Y7725339D01*
X13308346Y7832711D01*
X13325451Y7993626D01*
X13324873Y8000000D01*
X13813751Y8000000D01*
X14146182Y7667569D01*
X14310178Y7678225D01*
X14358346Y7832711D01*
X14375451Y7993626D01*
X14360834Y8154786D01*
X14315056Y8309998D01*
X14310178Y8321775D01*
X14146182Y8332431D01*
X13813751Y8000000D01*
X13324873Y8000000D01*
X13310834Y8154786D01*
X13275339Y8275132D01*
X13382711Y8241654D01*
X13543626Y8224549D01*
X13704786Y8239166D01*
X13859998Y8284944D01*
X13871775Y8289822D01*
X13882431Y8453818D01*
X13811249Y8525000D01*
X13882431Y8596182D01*
X13871775Y8760178D01*
X13717289Y8808346D01*
X13556374Y8825451D01*
X13395214Y8810834D01*
X13274868Y8775339D01*
X13308346Y8882711D01*
X13325451Y9043626D01*
X13324873Y9050000D01*
X13813751Y9050000D01*
X14146182Y8717569D01*
X14310178Y8728225D01*
X14351519Y8860818D01*
X15382500Y8860818D01*
X15382500Y8739182D01*
X15406230Y8619882D01*
X15452778Y8507504D01*
X15520356Y8406367D01*
X15606367Y8320356D01*
X15707504Y8252778D01*
X15819882Y8206230D01*
X15939182Y8182500D01*
X16060818Y8182500D01*
X16180118Y8206230D01*
X16292496Y8252778D01*
X16393633Y8320356D01*
X16479644Y8406367D01*
X16547222Y8507504D01*
X16593770Y8619882D01*
X16617500Y8739182D01*
X16617500Y8860818D01*
X16593770Y8980118D01*
X16547222Y9092496D01*
X16479644Y9193633D01*
X16393633Y9279644D01*
X16292496Y9347222D01*
X16180118Y9393770D01*
X16060818Y9417500D01*
X15939182Y9417500D01*
X15819882Y9393770D01*
X15707504Y9347222D01*
X15606367Y9279644D01*
X15520356Y9193633D01*
X15452778Y9092496D01*
X15406230Y8980118D01*
X15382500Y8860818D01*
X14351519Y8860818D01*
X14358346Y8882711D01*
X14375451Y9043626D01*
X14360834Y9204786D01*
X14315056Y9359998D01*
X14310178Y9371775D01*
X14146182Y9382431D01*
X13813751Y9050000D01*
X13324873Y9050000D01*
X13310834Y9204786D01*
X13265056Y9359998D01*
X13260178Y9371775D01*
X13096182Y9382431D01*
X13025000Y9311249D01*
X12953818Y9382431D01*
X12789822Y9371775D01*
X12741654Y9217289D01*
X12724549Y9056374D01*
X12739166Y8895214D01*
X12774661Y8774868D01*
X12667289Y8808346D01*
X12506374Y8825451D01*
X12345214Y8810834D01*
X12224868Y8775339D01*
X12258346Y8882711D01*
X12275451Y9043626D01*
X12260834Y9204786D01*
X12215056Y9359998D01*
X12210178Y9371775D01*
X12046182Y9382431D01*
X11975000Y9311249D01*
X11903818Y9382431D01*
X11739822Y9371775D01*
X11691654Y9217289D01*
X11674549Y9056374D01*
X11689166Y8895214D01*
X11724661Y8774868D01*
X11617289Y8808346D01*
X11456374Y8825451D01*
X11295214Y8810834D01*
X11140002Y8765056D01*
X11128225Y8760178D01*
X11117569Y8596182D01*
X10093479Y8596182D01*
X10093770Y8596883D01*
X10117500Y8716183D01*
X10117500Y8837819D01*
X10093770Y8957119D01*
X10052658Y9056374D01*
X10624549Y9056374D01*
X10639166Y8895214D01*
X10684944Y8740002D01*
X10689822Y8728225D01*
X10853818Y8717569D01*
X11186249Y9050000D01*
X10853818Y9382431D01*
X10689822Y9371775D01*
X10641654Y9217289D01*
X10624549Y9056374D01*
X10052658Y9056374D01*
X10047222Y9069497D01*
X9979644Y9170634D01*
X9893633Y9256645D01*
X9792496Y9324223D01*
X9680118Y9370771D01*
X9560818Y9394501D01*
X9439182Y9394501D01*
X9319882Y9370771D01*
X9207504Y9324223D01*
X9106367Y9256645D01*
X9020356Y9170634D01*
X8952778Y9069497D01*
X8906230Y8957119D01*
X8882500Y8837819D01*
X-1697816Y8837819D01*
X-1706230Y8880118D01*
X-1732106Y8942588D01*
X-1707504Y8952778D01*
X-1606367Y9020356D01*
X-1520356Y9106367D01*
X-1452778Y9207504D01*
X-1406230Y9319882D01*
X-1382500Y9439182D01*
X-1382500Y9560818D01*
X-1399479Y9646182D01*
X11117569Y9646182D01*
X11450000Y9313751D01*
X11782431Y9646182D01*
X12167569Y9646182D01*
X12500000Y9313751D01*
X12832431Y9646182D01*
X13217569Y9646182D01*
X13550000Y9313751D01*
X13882431Y9646182D01*
X13871775Y9810178D01*
X13717289Y9858346D01*
X13556374Y9875451D01*
X13395214Y9860834D01*
X13240002Y9815056D01*
X13228225Y9810178D01*
X13217569Y9646182D01*
X12832431Y9646182D01*
X12821775Y9810178D01*
X12667289Y9858346D01*
X12506374Y9875451D01*
X12345214Y9860834D01*
X12190002Y9815056D01*
X12178225Y9810178D01*
X12167569Y9646182D01*
X11782431Y9646182D01*
X11771775Y9810178D01*
X11617289Y9858346D01*
X11456374Y9875451D01*
X11295214Y9860834D01*
X11140002Y9815056D01*
X11128225Y9810178D01*
X11117569Y9646182D01*
X-1399479Y9646182D01*
X-1406230Y9680118D01*
X-1452778Y9792496D01*
X-1520356Y9893633D01*
X-1606367Y9979644D01*
X-1707504Y10047222D01*
X-1819882Y10093770D01*
X-1939182Y10117500D01*
X-2060818Y10117500D01*
X-2180118Y10093770D01*
X-2292496Y10047222D01*
X-2393633Y9979644D01*
X-2479644Y9893633D01*
X-2547222Y9792496D01*
X-2593770Y9680118D01*
X-2617500Y9560818D01*
X-2617500Y9439182D01*
X-2593770Y9319882D01*
X-2567894Y9257412D01*
X-2592496Y9247222D01*
X-2693633Y9179644D01*
X-2779644Y9093633D01*
X-2847222Y8992496D01*
X-2893770Y8880118D01*
X-2917500Y8760818D01*
X-25132500Y8760818D01*
X-25132500Y10660818D01*
X-4917500Y10660818D01*
X-4917500Y10539182D01*
X-4893770Y10419882D01*
X-4847222Y10307504D01*
X-4779644Y10206367D01*
X-4693633Y10120356D01*
X-4592496Y10052778D01*
X-4480118Y10006230D01*
X-4360818Y9982500D01*
X-4239182Y9982500D01*
X-4119882Y10006230D01*
X-4007504Y10052778D01*
X-3906367Y10120356D01*
X-3820356Y10206367D01*
X-3752778Y10307504D01*
X-3706230Y10419882D01*
X-3682500Y10539182D01*
X-3682500Y10660818D01*
X5182500Y10660818D01*
X5182500Y10539182D01*
X5206230Y10419882D01*
X5252778Y10307504D01*
X5320356Y10206367D01*
X5406367Y10120356D01*
X5507504Y10052778D01*
X5619882Y10006230D01*
X5739182Y9982500D01*
X5860818Y9982500D01*
X5980118Y10006230D01*
X6092496Y10052778D01*
X6193633Y10120356D01*
X6279644Y10206367D01*
X6347222Y10307504D01*
X6393770Y10419882D01*
X6417500Y10539182D01*
X6417500Y10660818D01*
X6393770Y10780118D01*
X6347222Y10892496D01*
X6279644Y10993633D01*
X6193633Y11079644D01*
X6092496Y11147222D01*
X5980118Y11193770D01*
X5860818Y11217500D01*
X5739182Y11217500D01*
X5619882Y11193770D01*
X5507504Y11147222D01*
X5406367Y11079644D01*
X5320356Y10993633D01*
X5252778Y10892496D01*
X5206230Y10780118D01*
X5182500Y10660818D01*
X-3682500Y10660818D01*
X-3706230Y10780118D01*
X-3752778Y10892496D01*
X-3820356Y10993633D01*
X-3906367Y11079644D01*
X-4007504Y11147222D01*
X-4119882Y11193770D01*
X-4239182Y11217500D01*
X-4360818Y11217500D01*
X-4480118Y11193770D01*
X-4592496Y11147222D01*
X-4693633Y11079644D01*
X-4779644Y10993633D01*
X-4847222Y10892496D01*
X-4893770Y10780118D01*
X-4917500Y10660818D01*
X-25132500Y10660818D01*
X-25132500Y12360818D01*
X-2817500Y12360818D01*
X-2817500Y12239182D01*
X-2793770Y12119882D01*
X-2747222Y12007504D01*
X-2679644Y11906367D01*
X-2593633Y11820356D01*
X-2492496Y11752778D01*
X-2380118Y11706230D01*
X-2260818Y11682500D01*
X-2139182Y11682500D01*
X-2019882Y11706230D01*
X-1907504Y11752778D01*
X-1806367Y11820356D01*
X-1720356Y11906367D01*
X-1652778Y12007504D01*
X-1606230Y12119882D01*
X-1599331Y12154568D01*
X8476250Y12154568D01*
X8476250Y12032932D01*
X8499980Y11913632D01*
X8546528Y11801254D01*
X8614106Y11700117D01*
X8700117Y11614106D01*
X8801254Y11546528D01*
X8913632Y11499980D01*
X9032932Y11476250D01*
X9154568Y11476250D01*
X9273868Y11499980D01*
X9386246Y11546528D01*
X9487383Y11614106D01*
X9573394Y11700117D01*
X9640972Y11801254D01*
X9687520Y11913632D01*
X9711250Y12032932D01*
X9711250Y12154568D01*
X9690116Y12260818D01*
X12682500Y12260818D01*
X12682500Y12139182D01*
X12706230Y12019882D01*
X12752778Y11907504D01*
X12820356Y11806367D01*
X12906367Y11720356D01*
X13007504Y11652778D01*
X13119882Y11606230D01*
X13239182Y11582500D01*
X13360818Y11582500D01*
X13480118Y11606230D01*
X13592496Y11652778D01*
X13693633Y11720356D01*
X13779644Y11806367D01*
X13847222Y11907504D01*
X13893770Y12019882D01*
X13917500Y12139182D01*
X13917500Y12260818D01*
X13893770Y12380118D01*
X13847222Y12492496D01*
X13779644Y12593633D01*
X13693633Y12679644D01*
X13592496Y12747222D01*
X13480118Y12793770D01*
X13360818Y12817500D01*
X13239182Y12817500D01*
X13119882Y12793770D01*
X13007504Y12747222D01*
X12906367Y12679644D01*
X12820356Y12593633D01*
X12752778Y12492496D01*
X12706230Y12380118D01*
X12682500Y12260818D01*
X9690116Y12260818D01*
X9687520Y12273868D01*
X9640972Y12386246D01*
X9573394Y12487383D01*
X9487383Y12573394D01*
X9386246Y12640972D01*
X9273868Y12687520D01*
X9154568Y12711250D01*
X9032932Y12711250D01*
X8913632Y12687520D01*
X8801254Y12640972D01*
X8700117Y12573394D01*
X8614106Y12487383D01*
X8546528Y12386246D01*
X8499980Y12273868D01*
X8476250Y12154568D01*
X-1599331Y12154568D01*
X-1582500Y12239182D01*
X-1582500Y12360818D01*
X-1606230Y12480118D01*
X-1652778Y12592496D01*
X-1720356Y12693633D01*
X-1806367Y12779644D01*
X-1907504Y12847222D01*
X-2019882Y12893770D01*
X-2139182Y12917500D01*
X-2260818Y12917500D01*
X-2380118Y12893770D01*
X-2492496Y12847222D01*
X-2593633Y12779644D01*
X-2679644Y12693633D01*
X-2747222Y12592496D01*
X-2793770Y12480118D01*
X-2817500Y12360818D01*
X-25132500Y12360818D01*
X-25132500Y13660818D01*
X-21817500Y13660818D01*
X-21817500Y13539182D01*
X-21793770Y13419882D01*
X-21747222Y13307504D01*
X-21679644Y13206367D01*
X-21593633Y13120356D01*
X-21492496Y13052778D01*
X-21380118Y13006230D01*
X-21260818Y12982500D01*
X-21139182Y12982500D01*
X-21019882Y13006230D01*
X-20907504Y13052778D01*
X-20806367Y13120356D01*
X-20765905Y13160818D01*
X11082500Y13160818D01*
X11082500Y13039182D01*
X11106230Y12919882D01*
X11152778Y12807504D01*
X11220356Y12706367D01*
X11306367Y12620356D01*
X11407504Y12552778D01*
X11519882Y12506230D01*
X11639182Y12482500D01*
X11760818Y12482500D01*
X11880118Y12506230D01*
X11992496Y12552778D01*
X12093633Y12620356D01*
X12179644Y12706367D01*
X12247222Y12807504D01*
X12293770Y12919882D01*
X12317500Y13039182D01*
X12317500Y13160818D01*
X12293770Y13280118D01*
X12247222Y13392496D01*
X12179644Y13493633D01*
X12093633Y13579644D01*
X11992496Y13647222D01*
X11880118Y13693770D01*
X11760818Y13717500D01*
X11639182Y13717500D01*
X11519882Y13693770D01*
X11407504Y13647222D01*
X11306367Y13579644D01*
X11220356Y13493633D01*
X11152778Y13392496D01*
X11106230Y13280118D01*
X11082500Y13160818D01*
X-20765905Y13160818D01*
X-20720356Y13206367D01*
X-20652778Y13307504D01*
X-20606230Y13419882D01*
X-20582500Y13539182D01*
X-20582500Y13660818D01*
X-20606230Y13780118D01*
X-20639656Y13860818D01*
X14582500Y13860818D01*
X14582500Y13739182D01*
X14606230Y13619882D01*
X14652778Y13507504D01*
X14720356Y13406367D01*
X14806367Y13320356D01*
X14907504Y13252778D01*
X15019882Y13206230D01*
X15139182Y13182500D01*
X15260818Y13182500D01*
X15380118Y13206230D01*
X15492496Y13252778D01*
X15593633Y13320356D01*
X15679644Y13406367D01*
X15700000Y13436832D01*
X15720356Y13406367D01*
X15806367Y13320356D01*
X15907504Y13252778D01*
X16019882Y13206230D01*
X16139182Y13182500D01*
X16260818Y13182500D01*
X16380118Y13206230D01*
X16492496Y13252778D01*
X16593633Y13320356D01*
X16679644Y13406367D01*
X16747222Y13507504D01*
X16793770Y13619882D01*
X16817500Y13739182D01*
X16817500Y13860818D01*
X16793770Y13980118D01*
X16747222Y14092496D01*
X16679644Y14193633D01*
X16593633Y14279644D01*
X16492496Y14347222D01*
X16380118Y14393770D01*
X16260818Y14417500D01*
X16139182Y14417500D01*
X16019882Y14393770D01*
X15907504Y14347222D01*
X15806367Y14279644D01*
X15720356Y14193633D01*
X15700000Y14163168D01*
X15679644Y14193633D01*
X15593633Y14279644D01*
X15492496Y14347222D01*
X15380118Y14393770D01*
X15260818Y14417500D01*
X15139182Y14417500D01*
X15019882Y14393770D01*
X14907504Y14347222D01*
X14806367Y14279644D01*
X14720356Y14193633D01*
X14652778Y14092496D01*
X14606230Y13980118D01*
X14582500Y13860818D01*
X-20639656Y13860818D01*
X-20652778Y13892496D01*
X-20720356Y13993633D01*
X-20806367Y14079644D01*
X-20907504Y14147222D01*
X-21019882Y14193770D01*
X-21139182Y14217500D01*
X-21260818Y14217500D01*
X-21380118Y14193770D01*
X-21492496Y14147222D01*
X-21593633Y14079644D01*
X-21679644Y13993633D01*
X-21747222Y13892496D01*
X-21793770Y13780118D01*
X-21817500Y13660818D01*
X-25132500Y13660818D01*
X-25132500Y14660818D01*
X-10217500Y14660818D01*
X-10217500Y14539182D01*
X-10193770Y14419882D01*
X-10147222Y14307504D01*
X-10079644Y14206367D01*
X-9993633Y14120356D01*
X-9892496Y14052778D01*
X-9780118Y14006230D01*
X-9660818Y13982500D01*
X-9539182Y13982500D01*
X-9419882Y14006230D01*
X-9307504Y14052778D01*
X-9206367Y14120356D01*
X-9120356Y14206367D01*
X-9052778Y14307504D01*
X-9006230Y14419882D01*
X-8982500Y14539182D01*
X-8982500Y14660818D01*
X-3217500Y14660818D01*
X-3217500Y14539182D01*
X-3193770Y14419882D01*
X-3147222Y14307504D01*
X-3079644Y14206367D01*
X-2993633Y14120356D01*
X-2892496Y14052778D01*
X-2780118Y14006230D01*
X-2660818Y13982500D01*
X-2539182Y13982500D01*
X-2419882Y14006230D01*
X-2307504Y14052778D01*
X-2206367Y14120356D01*
X-2120356Y14206367D01*
X-2052778Y14307504D01*
X-2006230Y14419882D01*
X-1982500Y14539182D01*
X-1982500Y14660818D01*
X-2006230Y14780118D01*
X-2052778Y14892496D01*
X-2098429Y14960818D01*
X5082500Y14960818D01*
X5082500Y14839182D01*
X5106230Y14719882D01*
X5152778Y14607504D01*
X5220356Y14506367D01*
X5306367Y14420356D01*
X5407504Y14352778D01*
X5519882Y14306230D01*
X5639182Y14282500D01*
X5760818Y14282500D01*
X5880118Y14306230D01*
X5992496Y14352778D01*
X6093633Y14420356D01*
X6179644Y14506367D01*
X6247222Y14607504D01*
X6293770Y14719882D01*
X6317500Y14839182D01*
X6317500Y14960818D01*
X6293770Y15080118D01*
X6247222Y15192496D01*
X6179644Y15293633D01*
X6093633Y15379644D01*
X5992496Y15447222D01*
X5880118Y15493770D01*
X5760818Y15517500D01*
X5639182Y15517500D01*
X5519882Y15493770D01*
X5407504Y15447222D01*
X5306367Y15379644D01*
X5220356Y15293633D01*
X5152778Y15192496D01*
X5106230Y15080118D01*
X5082500Y14960818D01*
X-2098429Y14960818D01*
X-2120356Y14993633D01*
X-2206367Y15079644D01*
X-2307504Y15147222D01*
X-2419882Y15193770D01*
X-2539182Y15217500D01*
X-2660818Y15217500D01*
X-2780118Y15193770D01*
X-2892496Y15147222D01*
X-2993633Y15079644D01*
X-3079644Y14993633D01*
X-3147222Y14892496D01*
X-3193770Y14780118D01*
X-3217500Y14660818D01*
X-8982500Y14660818D01*
X-9006230Y14780118D01*
X-9052778Y14892496D01*
X-9120356Y14993633D01*
X-9206367Y15079644D01*
X-9307504Y15147222D01*
X-9419882Y15193770D01*
X-9539182Y15217500D01*
X-9660818Y15217500D01*
X-9780118Y15193770D01*
X-9892496Y15147222D01*
X-9993633Y15079644D01*
X-10079644Y14993633D01*
X-10147222Y14892496D01*
X-10193770Y14780118D01*
X-10217500Y14660818D01*
X-25132500Y14660818D01*
X-25132500Y16186500D01*
X-500000Y16186500D01*
X-487795Y16187684D01*
X-475872Y16191262D01*
X-464877Y16197098D01*
X-455231Y16204967D01*
X-447306Y16214566D01*
X-441405Y16225527D01*
X-437757Y16237429D01*
X-436500Y16249813D01*
X-432349Y17660818D01*
X10282500Y17660818D01*
X10282500Y17539182D01*
X10306230Y17419882D01*
X10352778Y17307504D01*
X10420356Y17206367D01*
X10506367Y17120356D01*
X10607504Y17052778D01*
X10719882Y17006230D01*
X10839182Y16982500D01*
X10960818Y16982500D01*
X11080118Y17006230D01*
X11192496Y17052778D01*
X11293633Y17120356D01*
X11379644Y17206367D01*
X11447222Y17307504D01*
X11493770Y17419882D01*
X11517500Y17539182D01*
X11517500Y17660818D01*
X11493770Y17780118D01*
X11447222Y17892496D01*
X11379644Y17993633D01*
X11293633Y18079644D01*
X11192496Y18147222D01*
X11080118Y18193770D01*
X10960818Y18217500D01*
X10839182Y18217500D01*
X10719882Y18193770D01*
X10607504Y18147222D01*
X10506367Y18079644D01*
X10420356Y17993633D01*
X10352778Y17892496D01*
X10306230Y17780118D01*
X10282500Y17660818D01*
X-432349Y17660818D01*
X-429406Y18660818D01*
X5982500Y18660818D01*
X5982500Y18539182D01*
X6006230Y18419882D01*
X6052778Y18307504D01*
X6120356Y18206367D01*
X6206367Y18120356D01*
X6307504Y18052778D01*
X6419882Y18006230D01*
X6539182Y17982500D01*
X6660818Y17982500D01*
X6780118Y18006230D01*
X6892496Y18052778D01*
X6993633Y18120356D01*
X7079644Y18206367D01*
X7147222Y18307504D01*
X7193770Y18419882D01*
X7217500Y18539182D01*
X7217500Y18660818D01*
X7193770Y18780118D01*
X7147222Y18892496D01*
X7079644Y18993633D01*
X6993633Y19079644D01*
X6892496Y19147222D01*
X6780118Y19193770D01*
X6660818Y19217500D01*
X6539182Y19217500D01*
X6419882Y19193770D01*
X6307504Y19147222D01*
X6206367Y19079644D01*
X6120356Y18993633D01*
X6052778Y18892496D01*
X6006230Y18780118D01*
X5982500Y18660818D01*
X-429406Y18660818D01*
X-427532Y19297952D01*
X18032500Y19297952D01*
X18032500Y18802048D01*
X18129246Y18315672D01*
X18319021Y17857517D01*
X18594530Y17445187D01*
X18945187Y17094530D01*
X19357517Y16819021D01*
X19815672Y16629246D01*
X20302048Y16532500D01*
X20797952Y16532500D01*
X21284328Y16629246D01*
X21742483Y16819021D01*
X22154813Y17094530D01*
X22505470Y17445187D01*
X22780979Y17857517D01*
X22970754Y18315672D01*
X23067500Y18802048D01*
X23067500Y19297952D01*
X22970754Y19784328D01*
X22780979Y20242483D01*
X22505470Y20654813D01*
X22154813Y21005470D01*
X21742483Y21280979D01*
X21284328Y21470754D01*
X20797952Y21567500D01*
X20302048Y21567500D01*
X19815672Y21470754D01*
X19357517Y21280979D01*
X18945187Y21005470D01*
X18594530Y20654813D01*
X18319021Y20242483D01*
X18129246Y19784328D01*
X18032500Y19297952D01*
X-427532Y19297952D01*
X-414776Y23632500D01*
X20533634Y23632500D01*
X21361231Y23558639D01*
G04 #@! TA.AperFunction,Conductor*
D23*
G36*
X21361231Y23558639D02*
G01*
X22146823Y23343726D01*
X22881939Y22993093D01*
X23543347Y22517824D01*
X24110137Y21932940D01*
X24564396Y21256932D01*
X24891765Y20511165D01*
X25082574Y19716385D01*
X25132500Y19036525D01*
X25132501Y-19033623D01*
X25058639Y-19861231D01*
X24843726Y-20646823D01*
X24493093Y-21381939D01*
X24017824Y-22043347D01*
X23432944Y-22610135D01*
X22756932Y-23064396D01*
X22011165Y-23391765D01*
X21216385Y-23582574D01*
X20536525Y-23632500D01*
X-5823656Y-23632500D01*
X-5754091Y-23575409D01*
X-5639436Y-23435702D01*
X-5554239Y-23276311D01*
X-5501776Y-23103361D01*
X-5488500Y-22968569D01*
X-5488500Y-22178431D01*
X-5501776Y-22043639D01*
X-5554239Y-21870689D01*
X-5639436Y-21711298D01*
X-5754091Y-21571591D01*
X-5893799Y-21456936D01*
X-6053190Y-21371739D01*
X-6226140Y-21319276D01*
X-6406000Y-21301561D01*
X-6585861Y-21319276D01*
X-6758811Y-21371739D01*
X-6918202Y-21456936D01*
X-7057909Y-21571591D01*
X-7172564Y-21711299D01*
X-7257761Y-21870690D01*
X-7310224Y-22043640D01*
X-7323500Y-22178432D01*
X-7323500Y-22968569D01*
X-7310224Y-23103361D01*
X-7257760Y-23276311D01*
X-7172563Y-23435702D01*
X-7057908Y-23575409D01*
X-6988343Y-23632500D01*
X-12823657Y-23632500D01*
X-12754091Y-23575409D01*
X-12639436Y-23435702D01*
X-12554239Y-23276311D01*
X-12501776Y-23103361D01*
X-12488500Y-22968569D01*
X-12488500Y-22178431D01*
X-12501776Y-22043639D01*
X-12554239Y-21870689D01*
X-12639436Y-21711298D01*
X-12754091Y-21571591D01*
X-12893798Y-21456936D01*
X-13053189Y-21371739D01*
X-13226139Y-21319276D01*
X-13406000Y-21301561D01*
X-13585860Y-21319276D01*
X-13758810Y-21371739D01*
X-13918201Y-21456936D01*
X-14057908Y-21571591D01*
X-14172563Y-21711298D01*
X-14257760Y-21870689D01*
X-14310224Y-22043639D01*
X-14323500Y-22178431D01*
X-14323500Y-22968568D01*
X-14310224Y-23103360D01*
X-14257761Y-23276310D01*
X-14172564Y-23435701D01*
X-14057909Y-23575409D01*
X-13988344Y-23632500D01*
X-20533634Y-23632500D01*
X-21361231Y-23558639D01*
X-22146823Y-23343726D01*
X-22881939Y-22993093D01*
X-23543347Y-22517824D01*
X-24110135Y-21932944D01*
X-24564396Y-21256932D01*
X-24891765Y-20511165D01*
X-25082574Y-19716385D01*
X-25132500Y-19036525D01*
X-25132500Y-18802048D01*
X-23067500Y-18802048D01*
X-23067500Y-19297952D01*
X-22970754Y-19784328D01*
X-22780979Y-20242483D01*
X-22505470Y-20654813D01*
X-22154813Y-21005470D01*
X-21742483Y-21280979D01*
X-21284328Y-21470754D01*
X-20797952Y-21567500D01*
X-20302048Y-21567500D01*
X-19815672Y-21470754D01*
X-19357517Y-21280979D01*
X-18945187Y-21005470D01*
X-18854899Y-20915182D01*
X-15751500Y-20915182D01*
X-15751500Y-21036818D01*
X-15727770Y-21156118D01*
X-15681222Y-21268496D01*
X-15613644Y-21369633D01*
X-15527633Y-21455644D01*
X-15426496Y-21523222D01*
X-15314118Y-21569770D01*
X-15194818Y-21593500D01*
X-15073182Y-21593500D01*
X-14953882Y-21569770D01*
X-14841504Y-21523222D01*
X-14740367Y-21455644D01*
X-14654356Y-21369633D01*
X-14586778Y-21268496D01*
X-14540230Y-21156118D01*
X-14516500Y-21036818D01*
X-14516500Y-20915182D01*
X-14540230Y-20795882D01*
X-14586778Y-20683504D01*
X-14654356Y-20582367D01*
X-14740367Y-20496356D01*
X-14841504Y-20428778D01*
X-14953882Y-20382230D01*
X-15073182Y-20358500D01*
X-15194818Y-20358500D01*
X-15314118Y-20382230D01*
X-15426496Y-20428778D01*
X-15527633Y-20496356D01*
X-15613644Y-20582367D01*
X-15681222Y-20683504D01*
X-15727770Y-20795882D01*
X-15751500Y-20915182D01*
X-18854899Y-20915182D01*
X-18594530Y-20654813D01*
X-18319021Y-20242483D01*
X-18129246Y-19784328D01*
X-18126560Y-19770823D01*
X-13448500Y-19770823D01*
X-13448500Y-19976177D01*
X-13408437Y-20177586D01*
X-13329851Y-20367309D01*
X-13215762Y-20538055D01*
X-13070555Y-20683262D01*
X-12899809Y-20797351D01*
X-12710086Y-20875937D01*
X-12508677Y-20916000D01*
X-12303323Y-20916000D01*
X-12101914Y-20875937D01*
X-11912191Y-20797351D01*
X-11741445Y-20683262D01*
X-11596238Y-20538055D01*
X-11482149Y-20367309D01*
X-11403563Y-20177586D01*
X-11363500Y-19976177D01*
X-11363500Y-19770823D01*
X-8448500Y-19770823D01*
X-8448500Y-19976177D01*
X-8408437Y-20177586D01*
X-8329851Y-20367309D01*
X-8215762Y-20538055D01*
X-8070555Y-20683262D01*
X-7899809Y-20797351D01*
X-7710086Y-20875937D01*
X-7508677Y-20916000D01*
X-7303323Y-20916000D01*
X-7299211Y-20915182D01*
X-6057500Y-20915182D01*
X-6057500Y-21036818D01*
X-6033770Y-21156118D01*
X-5987222Y-21268496D01*
X-5919644Y-21369633D01*
X-5833633Y-21455644D01*
X-5732496Y-21523222D01*
X-5620118Y-21569770D01*
X-5500818Y-21593500D01*
X-5379182Y-21593500D01*
X-5259882Y-21569770D01*
X-5147504Y-21523222D01*
X-5046367Y-21455644D01*
X-4960356Y-21369633D01*
X-4892778Y-21268496D01*
X-4846230Y-21156118D01*
X-4822500Y-21036818D01*
X-4822500Y-20915182D01*
X-4846230Y-20795882D01*
X-4892778Y-20683504D01*
X-4960356Y-20582367D01*
X-5046367Y-20496356D01*
X-5147504Y-20428778D01*
X-5259882Y-20382230D01*
X-5379182Y-20358500D01*
X-5500818Y-20358500D01*
X-5620118Y-20382230D01*
X-5732496Y-20428778D01*
X-5833633Y-20496356D01*
X-5919644Y-20582367D01*
X-5987222Y-20683504D01*
X-6033770Y-20795882D01*
X-6057500Y-20915182D01*
X-7299211Y-20915182D01*
X-7101914Y-20875937D01*
X-6912191Y-20797351D01*
X-6741445Y-20683262D01*
X-6596238Y-20538055D01*
X-6482149Y-20367309D01*
X-6403563Y-20177586D01*
X-6363500Y-19976177D01*
X-6363500Y-19939182D01*
X-3817500Y-19939182D01*
X-3817500Y-20060818D01*
X-3793770Y-20180118D01*
X-3747222Y-20292496D01*
X-3679644Y-20393633D01*
X-3593633Y-20479644D01*
X-3492496Y-20547222D01*
X-3380118Y-20593770D01*
X-3260818Y-20617500D01*
X-3139182Y-20617500D01*
X-3019882Y-20593770D01*
X-2907504Y-20547222D01*
X-2806367Y-20479644D01*
X-2720356Y-20393633D01*
X-2652778Y-20292496D01*
X-2606230Y-20180118D01*
X-2582500Y-20060818D01*
X-2582500Y-19939182D01*
X-1617500Y-19939182D01*
X-1617500Y-20060818D01*
X-1593770Y-20180118D01*
X-1547222Y-20292496D01*
X-1479644Y-20393633D01*
X-1393633Y-20479644D01*
X-1292496Y-20547222D01*
X-1180118Y-20593770D01*
X-1060818Y-20617500D01*
X-939182Y-20617500D01*
X-819882Y-20593770D01*
X-707504Y-20547222D01*
X-606367Y-20479644D01*
X-520356Y-20393633D01*
X-452778Y-20292496D01*
X-406230Y-20180118D01*
X-382500Y-20060818D01*
X-382500Y-19939182D01*
X-402391Y-19839182D01*
X282500Y-19839182D01*
X282500Y-19960818D01*
X306230Y-20080118D01*
X352778Y-20192496D01*
X420356Y-20293633D01*
X506367Y-20379644D01*
X607504Y-20447222D01*
X719882Y-20493770D01*
X839182Y-20517500D01*
X960818Y-20517500D01*
X1080118Y-20493770D01*
X1192496Y-20447222D01*
X1293633Y-20379644D01*
X1379644Y-20293633D01*
X1447222Y-20192496D01*
X1493770Y-20080118D01*
X1517500Y-19960818D01*
X1517500Y-19839182D01*
X1493770Y-19719882D01*
X1447222Y-19607504D01*
X1379644Y-19506367D01*
X1293633Y-19420356D01*
X1192496Y-19352778D01*
X1080118Y-19306230D01*
X960818Y-19282500D01*
X839182Y-19282500D01*
X719882Y-19306230D01*
X607504Y-19352778D01*
X506367Y-19420356D01*
X420356Y-19506367D01*
X352778Y-19607504D01*
X306230Y-19719882D01*
X282500Y-19839182D01*
X-402391Y-19839182D01*
X-406230Y-19819882D01*
X-452778Y-19707504D01*
X-520356Y-19606367D01*
X-606367Y-19520356D01*
X-707504Y-19452778D01*
X-819882Y-19406230D01*
X-939182Y-19382500D01*
X-1060818Y-19382500D01*
X-1180118Y-19406230D01*
X-1292496Y-19452778D01*
X-1393633Y-19520356D01*
X-1479644Y-19606367D01*
X-1547222Y-19707504D01*
X-1593770Y-19819882D01*
X-1617500Y-19939182D01*
X-2582500Y-19939182D01*
X-2606230Y-19819882D01*
X-2652778Y-19707504D01*
X-2720356Y-19606367D01*
X-2806367Y-19520356D01*
X-2907504Y-19452778D01*
X-3019882Y-19406230D01*
X-3139182Y-19382500D01*
X-3260818Y-19382500D01*
X-3380118Y-19406230D01*
X-3492496Y-19452778D01*
X-3593633Y-19520356D01*
X-3679644Y-19606367D01*
X-3747222Y-19707504D01*
X-3793770Y-19819882D01*
X-3817500Y-19939182D01*
X-6363500Y-19939182D01*
X-6363500Y-19770823D01*
X-6403563Y-19569414D01*
X-6482149Y-19379691D01*
X-6596238Y-19208945D01*
X-6741445Y-19063738D01*
X-6912191Y-18949649D01*
X-7101914Y-18871063D01*
X-7303323Y-18831000D01*
X-7508677Y-18831000D01*
X-7710086Y-18871063D01*
X-7899809Y-18949649D01*
X-8070555Y-19063738D01*
X-8215762Y-19208945D01*
X-8329851Y-19379691D01*
X-8408437Y-19569414D01*
X-8448500Y-19770823D01*
X-11363500Y-19770823D01*
X-11403563Y-19569414D01*
X-11482149Y-19379691D01*
X-11596238Y-19208945D01*
X-11741445Y-19063738D01*
X-11912191Y-18949649D01*
X-12101914Y-18871063D01*
X-12303323Y-18831000D01*
X-12508677Y-18831000D01*
X-12710086Y-18871063D01*
X-12899809Y-18949649D01*
X-13070555Y-19063738D01*
X-13215762Y-19208945D01*
X-13329851Y-19379691D01*
X-13408437Y-19569414D01*
X-13448500Y-19770823D01*
X-18126560Y-19770823D01*
X-18032500Y-19297952D01*
X-18032500Y-18802048D01*
X-18129246Y-18315672D01*
X-18319021Y-17857517D01*
X-18594530Y-17445187D01*
X-18760535Y-17279182D01*
X-11217500Y-17279182D01*
X-11217500Y-17400818D01*
X-11193770Y-17520118D01*
X-11147222Y-17632496D01*
X-11079644Y-17733633D01*
X-10993633Y-17819644D01*
X-10892496Y-17887222D01*
X-10780118Y-17933770D01*
X-10660818Y-17957500D01*
X-10555629Y-17957500D01*
X-10567500Y-18017182D01*
X-10567500Y-18138818D01*
X-10543770Y-18258118D01*
X-10497222Y-18370496D01*
X-10429644Y-18471633D01*
X-10343633Y-18557644D01*
X-10242496Y-18625222D01*
X-10130118Y-18671770D01*
X-10010818Y-18695500D01*
X-9889182Y-18695500D01*
X-9769882Y-18671770D01*
X-9657504Y-18625222D01*
X-9556367Y-18557644D01*
X-9470356Y-18471633D01*
X-9402778Y-18370496D01*
X-9389808Y-18339182D01*
X-3817500Y-18339182D01*
X-3817500Y-18460818D01*
X-3793770Y-18580118D01*
X-3747222Y-18692496D01*
X-3679644Y-18793633D01*
X-3593633Y-18879644D01*
X-3492496Y-18947222D01*
X-3380118Y-18993770D01*
X-3260818Y-19017500D01*
X-3139182Y-19017500D01*
X-3019882Y-18993770D01*
X-2907504Y-18947222D01*
X-2806367Y-18879644D01*
X-2720356Y-18793633D01*
X-2652778Y-18692496D01*
X-2606230Y-18580118D01*
X-2582500Y-18460818D01*
X-2582500Y-18339182D01*
X-1617500Y-18339182D01*
X-1617500Y-18460818D01*
X-1593770Y-18580118D01*
X-1547222Y-18692496D01*
X-1479644Y-18793633D01*
X-1393633Y-18879644D01*
X-1292496Y-18947222D01*
X-1180118Y-18993770D01*
X-1060818Y-19017500D01*
X-939182Y-19017500D01*
X-819882Y-18993770D01*
X-707504Y-18947222D01*
X-606367Y-18879644D01*
X-520356Y-18793633D01*
X-452778Y-18692496D01*
X-406230Y-18580118D01*
X-382500Y-18460818D01*
X-382500Y-18439182D01*
X282500Y-18439182D01*
X282500Y-18560818D01*
X306230Y-18680118D01*
X352778Y-18792496D01*
X420356Y-18893633D01*
X506367Y-18979644D01*
X607504Y-19047222D01*
X719882Y-19093770D01*
X839182Y-19117500D01*
X960818Y-19117500D01*
X970093Y-19115655D01*
X4877500Y-19115655D01*
X4877500Y-19364345D01*
X4926017Y-19608258D01*
X5021187Y-19838018D01*
X5159352Y-20044797D01*
X5335203Y-20220648D01*
X5541982Y-20358813D01*
X5771742Y-20453983D01*
X6015655Y-20502500D01*
X6264345Y-20502500D01*
X6508258Y-20453983D01*
X6738018Y-20358813D01*
X6944797Y-20220648D01*
X7120648Y-20044797D01*
X7258813Y-19838018D01*
X7353983Y-19608258D01*
X7402500Y-19364345D01*
X7402500Y-19115655D01*
X14987500Y-19115655D01*
X14987500Y-19364345D01*
X15036017Y-19608258D01*
X15131187Y-19838018D01*
X15269352Y-20044797D01*
X15445203Y-20220648D01*
X15651982Y-20358813D01*
X15881742Y-20453983D01*
X16125655Y-20502500D01*
X16374345Y-20502500D01*
X16618258Y-20453983D01*
X16848018Y-20358813D01*
X17054797Y-20220648D01*
X17230648Y-20044797D01*
X17368813Y-19838018D01*
X17463983Y-19608258D01*
X17512500Y-19364345D01*
X17512500Y-19115655D01*
X17463983Y-18871742D01*
X17368813Y-18641982D01*
X17230648Y-18435203D01*
X17054797Y-18259352D01*
X16848018Y-18121187D01*
X16618258Y-18026017D01*
X16374345Y-17977500D01*
X16125655Y-17977500D01*
X15881742Y-18026017D01*
X15651982Y-18121187D01*
X15445203Y-18259352D01*
X15269352Y-18435203D01*
X15131187Y-18641982D01*
X15036017Y-18871742D01*
X14987500Y-19115655D01*
X7402500Y-19115655D01*
X7353983Y-18871742D01*
X7258813Y-18641982D01*
X7120648Y-18435203D01*
X6944797Y-18259352D01*
X6738018Y-18121187D01*
X6508258Y-18026017D01*
X6264345Y-17977500D01*
X6015655Y-17977500D01*
X5771742Y-18026017D01*
X5541982Y-18121187D01*
X5335203Y-18259352D01*
X5159352Y-18435203D01*
X5021187Y-18641982D01*
X4926017Y-18871742D01*
X4877500Y-19115655D01*
X970093Y-19115655D01*
X1080118Y-19093770D01*
X1192496Y-19047222D01*
X1293633Y-18979644D01*
X1379644Y-18893633D01*
X1447222Y-18792496D01*
X1493770Y-18680118D01*
X1517500Y-18560818D01*
X1517500Y-18439182D01*
X1493770Y-18319882D01*
X1447222Y-18207504D01*
X1379644Y-18106367D01*
X1293633Y-18020356D01*
X1192496Y-17952778D01*
X1080118Y-17906230D01*
X960818Y-17882500D01*
X839182Y-17882500D01*
X719882Y-17906230D01*
X607504Y-17952778D01*
X506367Y-18020356D01*
X420356Y-18106367D01*
X352778Y-18207504D01*
X306230Y-18319882D01*
X282500Y-18439182D01*
X-382500Y-18439182D01*
X-382500Y-18339182D01*
X-406230Y-18219882D01*
X-452778Y-18107504D01*
X-520356Y-18006367D01*
X-606367Y-17920356D01*
X-707504Y-17852778D01*
X-819882Y-17806230D01*
X-939182Y-17782500D01*
X-1060818Y-17782500D01*
X-1180118Y-17806230D01*
X-1292496Y-17852778D01*
X-1393633Y-17920356D01*
X-1479644Y-18006367D01*
X-1547222Y-18107504D01*
X-1593770Y-18219882D01*
X-1617500Y-18339182D01*
X-2582500Y-18339182D01*
X-2606230Y-18219882D01*
X-2652778Y-18107504D01*
X-2720356Y-18006367D01*
X-2806367Y-17920356D01*
X-2907504Y-17852778D01*
X-3019882Y-17806230D01*
X-3139182Y-17782500D01*
X-3260818Y-17782500D01*
X-3380118Y-17806230D01*
X-3492496Y-17852778D01*
X-3593633Y-17920356D01*
X-3679644Y-18006367D01*
X-3747222Y-18107504D01*
X-3793770Y-18219882D01*
X-3817500Y-18339182D01*
X-9389808Y-18339182D01*
X-9356230Y-18258118D01*
X-9332500Y-18138818D01*
X-9332500Y-18017182D01*
X-9356230Y-17897882D01*
X-9402778Y-17785504D01*
X-9470356Y-17684367D01*
X-9556367Y-17598356D01*
X-9560409Y-17595655D01*
X7417500Y-17595655D01*
X7417500Y-17844345D01*
X7466017Y-18088258D01*
X7561187Y-18318018D01*
X7699352Y-18524797D01*
X7875203Y-18700648D01*
X8081982Y-18838813D01*
X8311742Y-18933983D01*
X8555655Y-18982500D01*
X8804345Y-18982500D01*
X9048258Y-18933983D01*
X9278018Y-18838813D01*
X9484797Y-18700648D01*
X9660648Y-18524797D01*
X9798813Y-18318018D01*
X9893983Y-18088258D01*
X9942500Y-17844345D01*
X9942500Y-17595655D01*
X17527500Y-17595655D01*
X17527500Y-17844345D01*
X17576017Y-18088258D01*
X17671187Y-18318018D01*
X17809352Y-18524797D01*
X17985203Y-18700648D01*
X18191982Y-18838813D01*
X18421742Y-18933983D01*
X18665655Y-18982500D01*
X18914345Y-18982500D01*
X19158258Y-18933983D01*
X19388018Y-18838813D01*
X19594797Y-18700648D01*
X19770648Y-18524797D01*
X19908813Y-18318018D01*
X20003983Y-18088258D01*
X20052500Y-17844345D01*
X20052500Y-17595655D01*
X20003983Y-17351742D01*
X19908813Y-17121982D01*
X19770648Y-16915203D01*
X19594797Y-16739352D01*
X19388018Y-16601187D01*
X19158258Y-16506017D01*
X18914345Y-16457500D01*
X18665655Y-16457500D01*
X18421742Y-16506017D01*
X18191982Y-16601187D01*
X17985203Y-16739352D01*
X17809352Y-16915203D01*
X17671187Y-17121982D01*
X17576017Y-17351742D01*
X17527500Y-17595655D01*
X9942500Y-17595655D01*
X9893983Y-17351742D01*
X9798813Y-17121982D01*
X9660648Y-16915203D01*
X9484797Y-16739352D01*
X9278018Y-16601187D01*
X9048258Y-16506017D01*
X8804345Y-16457500D01*
X8555655Y-16457500D01*
X8311742Y-16506017D01*
X8081982Y-16601187D01*
X7875203Y-16739352D01*
X7699352Y-16915203D01*
X7561187Y-17121982D01*
X7466017Y-17351742D01*
X7417500Y-17595655D01*
X-9560409Y-17595655D01*
X-9657504Y-17530778D01*
X-9769882Y-17484230D01*
X-9889182Y-17460500D01*
X-9994371Y-17460500D01*
X-9982500Y-17400818D01*
X-9982500Y-17279182D01*
X-10006230Y-17159882D01*
X-10052778Y-17047504D01*
X-10120356Y-16946367D01*
X-10206367Y-16860356D01*
X-10307504Y-16792778D01*
X-10419882Y-16746230D01*
X-10539182Y-16722500D01*
X-10660818Y-16722500D01*
X-10780118Y-16746230D01*
X-10892496Y-16792778D01*
X-10993633Y-16860356D01*
X-11079644Y-16946367D01*
X-11147222Y-17047504D01*
X-11193770Y-17159882D01*
X-11217500Y-17279182D01*
X-18760535Y-17279182D01*
X-18945187Y-17094530D01*
X-19357517Y-16819021D01*
X-19815672Y-16629246D01*
X-20302048Y-16532500D01*
X-20797952Y-16532500D01*
X-21284328Y-16629246D01*
X-21742483Y-16819021D01*
X-22154813Y-17094530D01*
X-22505470Y-17445187D01*
X-22780979Y-17857517D01*
X-22970754Y-18315672D01*
X-23067500Y-18802048D01*
X-25132500Y-18802048D01*
X-25132500Y-14148680D01*
X4807500Y-14148680D01*
X4807500Y-14531320D01*
X4882149Y-14906606D01*
X5028579Y-15260119D01*
X5241162Y-15578272D01*
X5511728Y-15848838D01*
X5829881Y-16061421D01*
X6183394Y-16207851D01*
X6558680Y-16282500D01*
X6941320Y-16282500D01*
X7316606Y-16207851D01*
X7670119Y-16061421D01*
X7988272Y-15848838D01*
X8258838Y-15578272D01*
X8471421Y-15260119D01*
X8617851Y-14906606D01*
X8692500Y-14531320D01*
X8692500Y-14148680D01*
X16237500Y-14148680D01*
X16237500Y-14531320D01*
X16312149Y-14906606D01*
X16458579Y-15260119D01*
X16671162Y-15578272D01*
X16941728Y-15848838D01*
X17259881Y-16061421D01*
X17613394Y-16207851D01*
X17988680Y-16282500D01*
X18371320Y-16282500D01*
X18746606Y-16207851D01*
X19100119Y-16061421D01*
X19418272Y-15848838D01*
X19688838Y-15578272D01*
X19901421Y-15260119D01*
X20047851Y-14906606D01*
X20122500Y-14531320D01*
X20122500Y-14148680D01*
X20047851Y-13773394D01*
X19901421Y-13419881D01*
X19688838Y-13101728D01*
X19418272Y-12831162D01*
X19100119Y-12618579D01*
X18746606Y-12472149D01*
X18371320Y-12397500D01*
X17988680Y-12397500D01*
X17613394Y-12472149D01*
X17259881Y-12618579D01*
X16941728Y-12831162D01*
X16671162Y-13101728D01*
X16458579Y-13419881D01*
X16312149Y-13773394D01*
X16237500Y-14148680D01*
X8692500Y-14148680D01*
X8617851Y-13773394D01*
X8471421Y-13419881D01*
X8258838Y-13101728D01*
X7988272Y-12831162D01*
X7670119Y-12618579D01*
X7316606Y-12472149D01*
X6941320Y-12397500D01*
X6558680Y-12397500D01*
X6183394Y-12472149D01*
X5829881Y-12618579D01*
X5511728Y-12831162D01*
X5241162Y-13101728D01*
X5028579Y-13419881D01*
X4882149Y-13773394D01*
X4807500Y-14148680D01*
X-25132500Y-14148680D01*
X-25132500Y-12351613D01*
X-23482205Y-12351613D01*
X-23392858Y-12577736D01*
X-23130271Y-12688354D01*
X-22851149Y-12745618D01*
X-22566218Y-12747329D01*
X-22286429Y-12693419D01*
X-22022533Y-12585961D01*
X-22007142Y-12577736D01*
X-21917795Y-12351613D01*
X-22700000Y-11569408D01*
X-23482205Y-12351613D01*
X-25132500Y-12351613D01*
X-25132500Y-11433782D01*
X-24147329Y-11433782D01*
X-24093419Y-11713571D01*
X-23985961Y-11977467D01*
X-23977736Y-11992858D01*
X-23751613Y-12082205D01*
X-22969408Y-11300000D01*
X-22430592Y-11300000D01*
X-21648387Y-12082205D01*
X-21466662Y-12010401D01*
X-21524948Y-12151115D01*
X-21577500Y-12415313D01*
X-21577500Y-12684687D01*
X-21524948Y-12948885D01*
X-21421863Y-13197754D01*
X-21272207Y-13421731D01*
X-21081731Y-13612207D01*
X-20857754Y-13761863D01*
X-20608885Y-13864948D01*
X-20344687Y-13917500D01*
X-20075313Y-13917500D01*
X-19811115Y-13864948D01*
X-19562246Y-13761863D01*
X-19338269Y-13612207D01*
X-19147793Y-13421731D01*
X-18998137Y-13197754D01*
X-18895052Y-12948885D01*
X-18842500Y-12684687D01*
X-18842500Y-12415313D01*
X-18895052Y-12151115D01*
X-18998137Y-11902246D01*
X-19147793Y-11678269D01*
X-19338269Y-11487793D01*
X-19562246Y-11338137D01*
X-19811115Y-11235052D01*
X-20075313Y-11182500D01*
X-20344687Y-11182500D01*
X-20608885Y-11235052D01*
X-20857754Y-11338137D01*
X-21081731Y-11487793D01*
X-21272207Y-11678269D01*
X-21319652Y-11749276D01*
X-21311646Y-11730271D01*
X-21254382Y-11451149D01*
X-21252671Y-11166218D01*
X-21294682Y-10948182D01*
X-8999500Y-10948182D01*
X-8999500Y-11069818D01*
X-8975770Y-11189118D01*
X-8929222Y-11301496D01*
X-8861644Y-11402633D01*
X-8775633Y-11488644D01*
X-8674496Y-11556222D01*
X-8562118Y-11602770D01*
X-8442818Y-11626500D01*
X-8321182Y-11626500D01*
X-8234740Y-11609306D01*
X-8237500Y-11623182D01*
X-8237500Y-11744818D01*
X-8213770Y-11864118D01*
X-8167222Y-11976496D01*
X-8099644Y-12077633D01*
X-8013633Y-12163644D01*
X-7912496Y-12231222D01*
X-7800118Y-12277770D01*
X-7680818Y-12301500D01*
X-7559182Y-12301500D01*
X-7439882Y-12277770D01*
X-7327504Y-12231222D01*
X-7287037Y-12204182D01*
X-1742500Y-12204182D01*
X-1742500Y-12325818D01*
X-1718770Y-12445118D01*
X-1672222Y-12557496D01*
X-1604644Y-12658633D01*
X-1518633Y-12744644D01*
X-1417496Y-12812222D01*
X-1305118Y-12858770D01*
X-1185818Y-12882500D01*
X-1064182Y-12882500D01*
X-944882Y-12858770D01*
X-832504Y-12812222D01*
X-731367Y-12744644D01*
X-645356Y-12658633D01*
X-577778Y-12557496D01*
X-531230Y-12445118D01*
X-507500Y-12325818D01*
X-507500Y-12204182D01*
X-531230Y-12084882D01*
X-577778Y-11972504D01*
X-645356Y-11871367D01*
X-731367Y-11785356D01*
X-832504Y-11717778D01*
X-944882Y-11671230D01*
X-1064182Y-11647500D01*
X-1185818Y-11647500D01*
X-1305118Y-11671230D01*
X-1417496Y-11717778D01*
X-1518633Y-11785356D01*
X-1604644Y-11871367D01*
X-1672222Y-11972504D01*
X-1718770Y-12084882D01*
X-1742500Y-12204182D01*
X-7287037Y-12204182D01*
X-7226367Y-12163644D01*
X-7140356Y-12077633D01*
X-7072778Y-11976496D01*
X-7026230Y-11864118D01*
X-7002500Y-11744818D01*
X-7002500Y-11623182D01*
X-7026230Y-11503882D01*
X-7072778Y-11391504D01*
X-7140356Y-11290367D01*
X-7226367Y-11204356D01*
X-7327504Y-11136778D01*
X-7342201Y-11130690D01*
X3072500Y-11130690D01*
X3072500Y-11449310D01*
X3134660Y-11761807D01*
X3256590Y-12056173D01*
X3433606Y-12321096D01*
X3658904Y-12546394D01*
X3923827Y-12723410D01*
X4218193Y-12845340D01*
X4530690Y-12907500D01*
X4849310Y-12907500D01*
X5161807Y-12845340D01*
X5456173Y-12723410D01*
X5721096Y-12546394D01*
X5946394Y-12321096D01*
X6123410Y-12056173D01*
X6245340Y-11761807D01*
X6307500Y-11449310D01*
X6307500Y-11130690D01*
X18622500Y-11130690D01*
X18622500Y-11449310D01*
X18684660Y-11761807D01*
X18806590Y-12056173D01*
X18983606Y-12321096D01*
X19208904Y-12546394D01*
X19473827Y-12723410D01*
X19768193Y-12845340D01*
X20080690Y-12907500D01*
X20399310Y-12907500D01*
X20711807Y-12845340D01*
X21006173Y-12723410D01*
X21271096Y-12546394D01*
X21496394Y-12321096D01*
X21673410Y-12056173D01*
X21795340Y-11761807D01*
X21857500Y-11449310D01*
X21857500Y-11130690D01*
X21795340Y-10818193D01*
X21673410Y-10523827D01*
X21496394Y-10258904D01*
X21271096Y-10033606D01*
X21006173Y-9856590D01*
X20711807Y-9734660D01*
X20399310Y-9672500D01*
X20080690Y-9672500D01*
X19768193Y-9734660D01*
X19473827Y-9856590D01*
X19208904Y-10033606D01*
X18983606Y-10258904D01*
X18806590Y-10523827D01*
X18684660Y-10818193D01*
X18622500Y-11130690D01*
X6307500Y-11130690D01*
X6245340Y-10818193D01*
X6123410Y-10523827D01*
X5946394Y-10258904D01*
X5721096Y-10033606D01*
X5456173Y-9856590D01*
X5161807Y-9734660D01*
X4849310Y-9672500D01*
X4530690Y-9672500D01*
X4218193Y-9734660D01*
X3923827Y-9856590D01*
X3658904Y-10033606D01*
X3433606Y-10258904D01*
X3256590Y-10523827D01*
X3134660Y-10818193D01*
X3072500Y-11130690D01*
X-7342201Y-11130690D01*
X-7439882Y-11090230D01*
X-7559182Y-11066500D01*
X-7680818Y-11066500D01*
X-7767260Y-11083694D01*
X-7764500Y-11069818D01*
X-7764500Y-10948182D01*
X-7788230Y-10828882D01*
X-7834778Y-10716504D01*
X-7902356Y-10615367D01*
X-7988367Y-10529356D01*
X-8089504Y-10461778D01*
X-8201882Y-10415230D01*
X-8321182Y-10391500D01*
X-8442818Y-10391500D01*
X-8562118Y-10415230D01*
X-8674496Y-10461778D01*
X-8775633Y-10529356D01*
X-8861644Y-10615367D01*
X-8929222Y-10716504D01*
X-8975770Y-10828882D01*
X-8999500Y-10948182D01*
X-21294682Y-10948182D01*
X-21306581Y-10886429D01*
X-21414039Y-10622533D01*
X-21422264Y-10607142D01*
X-21648387Y-10517795D01*
X-22430592Y-11300000D01*
X-22969408Y-11300000D01*
X-23751613Y-10517795D01*
X-23977736Y-10607142D01*
X-24088354Y-10869729D01*
X-24145618Y-11148851D01*
X-24147329Y-11433782D01*
X-25132500Y-11433782D01*
X-25132500Y-10248387D01*
X-23482205Y-10248387D01*
X-22700000Y-11030592D01*
X-21917795Y-10248387D01*
X-22007142Y-10022264D01*
X-22269729Y-9911646D01*
X-22548851Y-9854382D01*
X-22833782Y-9852671D01*
X-23113571Y-9906581D01*
X-23377467Y-10014039D01*
X-23392858Y-10022264D01*
X-23482205Y-10248387D01*
X-25132500Y-10248387D01*
X-25132500Y-8067182D01*
X-14746500Y-8067182D01*
X-14746500Y-8188818D01*
X-14722770Y-8308118D01*
X-14676222Y-8420496D01*
X-14608644Y-8521633D01*
X-14522633Y-8607644D01*
X-14421496Y-8675222D01*
X-14309118Y-8721770D01*
X-14189818Y-8745500D01*
X-14068182Y-8745500D01*
X-13948882Y-8721770D01*
X-13836504Y-8675222D01*
X-13735367Y-8607644D01*
X-13702905Y-8575182D01*
X-13317500Y-8575182D01*
X-13317500Y-8696818D01*
X-13293770Y-8816118D01*
X-13247222Y-8928496D01*
X-13179644Y-9029633D01*
X-13093633Y-9115644D01*
X-12992496Y-9183222D01*
X-12880118Y-9229770D01*
X-12760818Y-9253500D01*
X-12639182Y-9253500D01*
X-12519882Y-9229770D01*
X-12407504Y-9183222D01*
X-12306367Y-9115644D01*
X-12220356Y-9029633D01*
X-12152778Y-8928496D01*
X-12106230Y-8816118D01*
X-12082500Y-8696818D01*
X-12082500Y-8575182D01*
X-12106230Y-8455882D01*
X-12152778Y-8343504D01*
X-12220356Y-8242367D01*
X-12306367Y-8156356D01*
X-12362001Y-8119182D01*
X-1517500Y-8119182D01*
X-1517500Y-8240818D01*
X-1493770Y-8360118D01*
X-1447222Y-8472496D01*
X-1379644Y-8573633D01*
X-1293633Y-8659644D01*
X-1192496Y-8727222D01*
X-1080118Y-8773770D01*
X-960818Y-8797500D01*
X-839182Y-8797500D01*
X-719882Y-8773770D01*
X-607504Y-8727222D01*
X-506367Y-8659644D01*
X-420356Y-8573633D01*
X-352778Y-8472496D01*
X-306230Y-8360118D01*
X-282500Y-8240818D01*
X-282500Y-8119182D01*
X-306230Y-7999882D01*
X-352778Y-7887504D01*
X-420356Y-7786367D01*
X-506367Y-7700356D01*
X-607504Y-7632778D01*
X-719882Y-7586230D01*
X-839182Y-7562500D01*
X-960818Y-7562500D01*
X-1080118Y-7586230D01*
X-1192496Y-7632778D01*
X-1293633Y-7700356D01*
X-1379644Y-7786367D01*
X-1447222Y-7887504D01*
X-1493770Y-7999882D01*
X-1517500Y-8119182D01*
X-12362001Y-8119182D01*
X-12407504Y-8088778D01*
X-12519882Y-8042230D01*
X-12639182Y-8018500D01*
X-12760818Y-8018500D01*
X-12880118Y-8042230D01*
X-12992496Y-8088778D01*
X-13093633Y-8156356D01*
X-13179644Y-8242367D01*
X-13247222Y-8343504D01*
X-13293770Y-8455882D01*
X-13317500Y-8575182D01*
X-13702905Y-8575182D01*
X-13649356Y-8521633D01*
X-13581778Y-8420496D01*
X-13535230Y-8308118D01*
X-13511500Y-8188818D01*
X-13511500Y-8067182D01*
X-13535230Y-7947882D01*
X-13581778Y-7835504D01*
X-13649356Y-7734367D01*
X-13735367Y-7648356D01*
X-13836504Y-7580778D01*
X-13948882Y-7534230D01*
X-14068182Y-7510500D01*
X-14189818Y-7510500D01*
X-14309118Y-7534230D01*
X-14421496Y-7580778D01*
X-14522633Y-7648356D01*
X-14608644Y-7734367D01*
X-14676222Y-7835504D01*
X-14722770Y-7947882D01*
X-14746500Y-8067182D01*
X-25132500Y-8067182D01*
X-25132500Y-6682549D01*
X-23892500Y-6682549D01*
X-23892500Y-6917451D01*
X-23846673Y-7147839D01*
X-23756780Y-7364861D01*
X-23626275Y-7560174D01*
X-23460174Y-7726275D01*
X-23264861Y-7856780D01*
X-23047839Y-7946673D01*
X-22817451Y-7992500D01*
X-22582549Y-7992500D01*
X-22352161Y-7946673D01*
X-22135139Y-7856780D01*
X-21939826Y-7726275D01*
X-21773725Y-7560174D01*
X-21643220Y-7364861D01*
X-21618501Y-7305182D01*
X-12809500Y-7305182D01*
X-12809500Y-7426818D01*
X-12785770Y-7546118D01*
X-12739222Y-7658496D01*
X-12671644Y-7759633D01*
X-12585633Y-7845644D01*
X-12484496Y-7913222D01*
X-12372118Y-7959770D01*
X-12252818Y-7983500D01*
X-12131182Y-7983500D01*
X-12011882Y-7959770D01*
X-11899504Y-7913222D01*
X-11798367Y-7845644D01*
X-11712356Y-7759633D01*
X-11644778Y-7658496D01*
X-11598230Y-7546118D01*
X-11574500Y-7426818D01*
X-11574500Y-7305182D01*
X-11598230Y-7185882D01*
X-11644778Y-7073504D01*
X-11660482Y-7050000D01*
X6750964Y-7050000D01*
X6750964Y-8950000D01*
X6757094Y-9012241D01*
X6775249Y-9072090D01*
X6804731Y-9127247D01*
X6844407Y-9175593D01*
X6892753Y-9215269D01*
X6947910Y-9244751D01*
X7007759Y-9262906D01*
X7070000Y-9269036D01*
X8970000Y-9269036D01*
X9032241Y-9262906D01*
X9092090Y-9244751D01*
X9147247Y-9215269D01*
X9195593Y-9175593D01*
X9235269Y-9127247D01*
X9264751Y-9072090D01*
X9282906Y-9012241D01*
X9289036Y-8950000D01*
X9289036Y-7875162D01*
X9292500Y-7875162D01*
X9292500Y-8124838D01*
X9341209Y-8369716D01*
X9436756Y-8600386D01*
X9575468Y-8807984D01*
X9752016Y-8984532D01*
X9959614Y-9123244D01*
X10190284Y-9218791D01*
X10435162Y-9267500D01*
X10684838Y-9267500D01*
X10929716Y-9218791D01*
X11160386Y-9123244D01*
X11367984Y-8984532D01*
X11544532Y-8807984D01*
X11683244Y-8600386D01*
X11778791Y-8369716D01*
X11827500Y-8124838D01*
X11827500Y-7875162D01*
X11832500Y-7875162D01*
X11832500Y-8124838D01*
X11881209Y-8369716D01*
X11976756Y-8600386D01*
X12115468Y-8807984D01*
X12292016Y-8984532D01*
X12499614Y-9123244D01*
X12730284Y-9218791D01*
X12975162Y-9267500D01*
X13224838Y-9267500D01*
X13469716Y-9218791D01*
X13700386Y-9123244D01*
X13907984Y-8984532D01*
X14084532Y-8807984D01*
X14223244Y-8600386D01*
X14318791Y-8369716D01*
X14367500Y-8124838D01*
X14367500Y-7875162D01*
X14372500Y-7875162D01*
X14372500Y-8124838D01*
X14421209Y-8369716D01*
X14516756Y-8600386D01*
X14655468Y-8807984D01*
X14832016Y-8984532D01*
X15039614Y-9123244D01*
X15270284Y-9218791D01*
X15515162Y-9267500D01*
X15764838Y-9267500D01*
X16009716Y-9218791D01*
X16240386Y-9123244D01*
X16447984Y-8984532D01*
X16624532Y-8807984D01*
X16763244Y-8600386D01*
X16858791Y-8369716D01*
X16907500Y-8124838D01*
X16907500Y-7875162D01*
X16858791Y-7630284D01*
X16763244Y-7399614D01*
X16624532Y-7192016D01*
X16447984Y-7015468D01*
X16240386Y-6876756D01*
X16009716Y-6781209D01*
X15764838Y-6732500D01*
X15515162Y-6732500D01*
X15270284Y-6781209D01*
X15039614Y-6876756D01*
X14832016Y-7015468D01*
X14655468Y-7192016D01*
X14516756Y-7399614D01*
X14421209Y-7630284D01*
X14372500Y-7875162D01*
X14367500Y-7875162D01*
X14318791Y-7630284D01*
X14223244Y-7399614D01*
X14084532Y-7192016D01*
X13907984Y-7015468D01*
X13700386Y-6876756D01*
X13469716Y-6781209D01*
X13224838Y-6732500D01*
X12975162Y-6732500D01*
X12730284Y-6781209D01*
X12499614Y-6876756D01*
X12292016Y-7015468D01*
X12115468Y-7192016D01*
X11976756Y-7399614D01*
X11881209Y-7630284D01*
X11832500Y-7875162D01*
X11827500Y-7875162D01*
X11778791Y-7630284D01*
X11683244Y-7399614D01*
X11544532Y-7192016D01*
X11367984Y-7015468D01*
X11160386Y-6876756D01*
X10929716Y-6781209D01*
X10684838Y-6732500D01*
X10435162Y-6732500D01*
X10190284Y-6781209D01*
X9959614Y-6876756D01*
X9752016Y-7015468D01*
X9575468Y-7192016D01*
X9436756Y-7399614D01*
X9341209Y-7630284D01*
X9292500Y-7875162D01*
X9289036Y-7875162D01*
X9289036Y-7050000D01*
X9282906Y-6987759D01*
X9264751Y-6927910D01*
X9235269Y-6872753D01*
X9195593Y-6824407D01*
X9147247Y-6784731D01*
X9092090Y-6755249D01*
X9032241Y-6737094D01*
X8970000Y-6730964D01*
X7070000Y-6730964D01*
X7007759Y-6737094D01*
X6947910Y-6755249D01*
X6892753Y-6784731D01*
X6844407Y-6824407D01*
X6804731Y-6872753D01*
X6775249Y-6927910D01*
X6757094Y-6987759D01*
X6750964Y-7050000D01*
X-11660482Y-7050000D01*
X-11712356Y-6972367D01*
X-11798367Y-6886356D01*
X-11899504Y-6818778D01*
X-12011882Y-6772230D01*
X-12131182Y-6748500D01*
X-12252818Y-6748500D01*
X-12372118Y-6772230D01*
X-12484496Y-6818778D01*
X-12585633Y-6886356D01*
X-12671644Y-6972367D01*
X-12739222Y-7073504D01*
X-12785770Y-7185882D01*
X-12809500Y-7305182D01*
X-21618501Y-7305182D01*
X-21553327Y-7147839D01*
X-21507500Y-6917451D01*
X-21507500Y-6682549D01*
X-21553327Y-6452161D01*
X-21643220Y-6235139D01*
X-21773725Y-6039826D01*
X-21939826Y-5873725D01*
X-22135139Y-5743220D01*
X-22352161Y-5653327D01*
X-22582549Y-5607500D01*
X-22817451Y-5607500D01*
X-23047839Y-5653327D01*
X-23264861Y-5743220D01*
X-23460174Y-5873725D01*
X-23626275Y-6039826D01*
X-23756780Y-6235139D01*
X-23846673Y-6452161D01*
X-23892500Y-6682549D01*
X-25132500Y-6682549D01*
X-25132500Y-5405313D01*
X-21577500Y-5405313D01*
X-21577500Y-5674687D01*
X-21524948Y-5938885D01*
X-21421863Y-6187754D01*
X-21272207Y-6411731D01*
X-21081731Y-6602207D01*
X-20857754Y-6751863D01*
X-20608885Y-6854948D01*
X-20344687Y-6907500D01*
X-20075313Y-6907500D01*
X-19811115Y-6854948D01*
X-19562246Y-6751863D01*
X-19338269Y-6602207D01*
X-19147793Y-6411731D01*
X-18998137Y-6187754D01*
X-18895052Y-5938885D01*
X-18842500Y-5674687D01*
X-18842500Y-5405313D01*
X-18868782Y-5273182D01*
X-12047500Y-5273182D01*
X-12047500Y-5394818D01*
X-12023770Y-5514118D01*
X-11977222Y-5626496D01*
X-11909644Y-5727633D01*
X-11823633Y-5813644D01*
X-11722496Y-5881222D01*
X-11610118Y-5927770D01*
X-11490818Y-5951500D01*
X-11369182Y-5951500D01*
X-11249882Y-5927770D01*
X-11137504Y-5881222D01*
X-11036367Y-5813644D01*
X-10950356Y-5727633D01*
X-10882778Y-5626496D01*
X-10836230Y-5514118D01*
X-10812500Y-5394818D01*
X-10812500Y-5273182D01*
X-7729500Y-5273182D01*
X-7729500Y-5394818D01*
X-7705770Y-5514118D01*
X-7659222Y-5626496D01*
X-7591644Y-5727633D01*
X-7505633Y-5813644D01*
X-7404496Y-5881222D01*
X-7292118Y-5927770D01*
X-7172818Y-5951500D01*
X-7051182Y-5951500D01*
X-6931882Y-5927770D01*
X-6819504Y-5881222D01*
X-6718367Y-5813644D01*
X-6632356Y-5727633D01*
X-6564778Y-5626496D01*
X-6518230Y-5514118D01*
X-6494500Y-5394818D01*
X-6494500Y-5335162D01*
X8022500Y-5335162D01*
X8022500Y-5584838D01*
X8071209Y-5829716D01*
X8166756Y-6060386D01*
X8305468Y-6267984D01*
X8482016Y-6444532D01*
X8689614Y-6583244D01*
X8920284Y-6678791D01*
X9165162Y-6727500D01*
X9414838Y-6727500D01*
X9659716Y-6678791D01*
X9890386Y-6583244D01*
X10097984Y-6444532D01*
X10274532Y-6267984D01*
X10413244Y-6060386D01*
X10508791Y-5829716D01*
X10557500Y-5584838D01*
X10557500Y-5335162D01*
X10562500Y-5335162D01*
X10562500Y-5584838D01*
X10611209Y-5829716D01*
X10706756Y-6060386D01*
X10845468Y-6267984D01*
X11022016Y-6444532D01*
X11229614Y-6583244D01*
X11460284Y-6678791D01*
X11705162Y-6727500D01*
X11954838Y-6727500D01*
X12199716Y-6678791D01*
X12430386Y-6583244D01*
X12637984Y-6444532D01*
X12814532Y-6267984D01*
X12953244Y-6060386D01*
X13048791Y-5829716D01*
X13097500Y-5584838D01*
X13097500Y-5335162D01*
X13102500Y-5335162D01*
X13102500Y-5584838D01*
X13151209Y-5829716D01*
X13246756Y-6060386D01*
X13385468Y-6267984D01*
X13562016Y-6444532D01*
X13769614Y-6583244D01*
X14000284Y-6678791D01*
X14245162Y-6727500D01*
X14494838Y-6727500D01*
X14739716Y-6678791D01*
X14970386Y-6583244D01*
X14997027Y-6565443D01*
X16073964Y-6565443D01*
X16172478Y-6799209D01*
X16447916Y-6917359D01*
X16741112Y-6979505D01*
X17040798Y-6983256D01*
X17335457Y-6928471D01*
X17613766Y-6817252D01*
X17647522Y-6799209D01*
X17746036Y-6565443D01*
X16910000Y-5729408D01*
X16073964Y-6565443D01*
X14997027Y-6565443D01*
X15177984Y-6444532D01*
X15354532Y-6267984D01*
X15493244Y-6060386D01*
X15502502Y-6038034D01*
X15552748Y-6163766D01*
X15570791Y-6197522D01*
X15804557Y-6296036D01*
X16640592Y-5460000D01*
X17179408Y-5460000D01*
X18015443Y-6296036D01*
X18249209Y-6197522D01*
X18367359Y-5922084D01*
X18429505Y-5628888D01*
X18433256Y-5329202D01*
X18378471Y-5034543D01*
X18267252Y-4756234D01*
X18249209Y-4722478D01*
X18015443Y-4623964D01*
X17179408Y-5460000D01*
X16640592Y-5460000D01*
X15804557Y-4623964D01*
X15570791Y-4722478D01*
X15502441Y-4881818D01*
X15493244Y-4859614D01*
X15354532Y-4652016D01*
X15177984Y-4475468D01*
X14997028Y-4354557D01*
X16073964Y-4354557D01*
X16910000Y-5190592D01*
X17746036Y-4354557D01*
X17647522Y-4120791D01*
X17372084Y-4002641D01*
X17078888Y-3940495D01*
X16779202Y-3936744D01*
X16484543Y-3991529D01*
X16206234Y-4102748D01*
X16172478Y-4120791D01*
X16073964Y-4354557D01*
X14997028Y-4354557D01*
X14970386Y-4336756D01*
X14739716Y-4241209D01*
X14494838Y-4192500D01*
X14245162Y-4192500D01*
X14000284Y-4241209D01*
X13769614Y-4336756D01*
X13562016Y-4475468D01*
X13385468Y-4652016D01*
X13246756Y-4859614D01*
X13151209Y-5090284D01*
X13102500Y-5335162D01*
X13097500Y-5335162D01*
X13048791Y-5090284D01*
X12953244Y-4859614D01*
X12814532Y-4652016D01*
X12637984Y-4475468D01*
X12430386Y-4336756D01*
X12376410Y-4314399D01*
X12480118Y-4293770D01*
X12592496Y-4247222D01*
X12693633Y-4179644D01*
X12779644Y-4093633D01*
X12800000Y-4063168D01*
X12820356Y-4093633D01*
X12906367Y-4179644D01*
X13007504Y-4247222D01*
X13119882Y-4293770D01*
X13239182Y-4317500D01*
X13360818Y-4317500D01*
X13480118Y-4293770D01*
X13592496Y-4247222D01*
X13693633Y-4179644D01*
X13779644Y-4093633D01*
X13847222Y-3992496D01*
X13893770Y-3880118D01*
X13917500Y-3760818D01*
X13917500Y-3639182D01*
X13893770Y-3519882D01*
X13847222Y-3407504D01*
X13779644Y-3306367D01*
X13693633Y-3220356D01*
X13592496Y-3152778D01*
X13480118Y-3106230D01*
X13360818Y-3082500D01*
X13239182Y-3082500D01*
X13119882Y-3106230D01*
X13007504Y-3152778D01*
X12906367Y-3220356D01*
X12820356Y-3306367D01*
X12800000Y-3336832D01*
X12779644Y-3306367D01*
X12693633Y-3220356D01*
X12592496Y-3152778D01*
X12480118Y-3106230D01*
X12360818Y-3082500D01*
X12239182Y-3082500D01*
X12119882Y-3106230D01*
X12007504Y-3152778D01*
X11906367Y-3220356D01*
X11820356Y-3306367D01*
X11763994Y-3390717D01*
X11693633Y-3320356D01*
X11592496Y-3252778D01*
X11480118Y-3206230D01*
X11360818Y-3182500D01*
X11239182Y-3182500D01*
X11119882Y-3206230D01*
X11007504Y-3252778D01*
X10906367Y-3320356D01*
X10820356Y-3406367D01*
X10752778Y-3507504D01*
X10706230Y-3619882D01*
X10682500Y-3739182D01*
X10682500Y-3860818D01*
X10706230Y-3980118D01*
X10752778Y-4092496D01*
X10820356Y-4193633D01*
X10906367Y-4279644D01*
X11007504Y-4347222D01*
X11119882Y-4393770D01*
X11138688Y-4397511D01*
X11022016Y-4475468D01*
X10845468Y-4652016D01*
X10706756Y-4859614D01*
X10611209Y-5090284D01*
X10562500Y-5335162D01*
X10557500Y-5335162D01*
X10508791Y-5090284D01*
X10413244Y-4859614D01*
X10274532Y-4652016D01*
X10097984Y-4475468D01*
X9890386Y-4336756D01*
X9659716Y-4241209D01*
X9414838Y-4192500D01*
X9165162Y-4192500D01*
X8920284Y-4241209D01*
X8689614Y-4336756D01*
X8482016Y-4475468D01*
X8305468Y-4652016D01*
X8166756Y-4859614D01*
X8071209Y-5090284D01*
X8022500Y-5335162D01*
X-6494500Y-5335162D01*
X-6494500Y-5273182D01*
X-6518230Y-5153882D01*
X-6564778Y-5041504D01*
X-6632356Y-4940367D01*
X-6718367Y-4854356D01*
X-6819504Y-4786778D01*
X-6931882Y-4740230D01*
X-7051182Y-4716500D01*
X-7172818Y-4716500D01*
X-7292118Y-4740230D01*
X-7404496Y-4786778D01*
X-7505633Y-4854356D01*
X-7591644Y-4940367D01*
X-7659222Y-5041504D01*
X-7705770Y-5153882D01*
X-7729500Y-5273182D01*
X-10812500Y-5273182D01*
X-10836230Y-5153882D01*
X-10882778Y-5041504D01*
X-10950356Y-4940367D01*
X-11036367Y-4854356D01*
X-11137504Y-4786778D01*
X-11249882Y-4740230D01*
X-11369182Y-4716500D01*
X-11490818Y-4716500D01*
X-11610118Y-4740230D01*
X-11722496Y-4786778D01*
X-11823633Y-4854356D01*
X-11909644Y-4940367D01*
X-11977222Y-5041504D01*
X-12023770Y-5153882D01*
X-12047500Y-5273182D01*
X-18868782Y-5273182D01*
X-18895052Y-5141115D01*
X-18998137Y-4892246D01*
X-19147793Y-4668269D01*
X-19338269Y-4477793D01*
X-19562246Y-4328137D01*
X-19811115Y-4225052D01*
X-20075313Y-4172500D01*
X-20344687Y-4172500D01*
X-20608885Y-4225052D01*
X-20857754Y-4328137D01*
X-21081731Y-4477793D01*
X-21272207Y-4668269D01*
X-21421863Y-4892246D01*
X-21524948Y-5141115D01*
X-21577500Y-5405313D01*
X-25132500Y-5405313D01*
X-25132500Y-3241182D01*
X-7475500Y-3241182D01*
X-7475500Y-3362818D01*
X-7451770Y-3482118D01*
X-7405222Y-3594496D01*
X-7337644Y-3695633D01*
X-7251633Y-3781644D01*
X-7150496Y-3849222D01*
X-7038118Y-3895770D01*
X-6918818Y-3919500D01*
X-6797182Y-3919500D01*
X-6677882Y-3895770D01*
X-6565504Y-3849222D01*
X-6464367Y-3781644D01*
X-6421905Y-3739182D01*
X6882500Y-3739182D01*
X6882500Y-3860818D01*
X6906230Y-3980118D01*
X6952778Y-4092496D01*
X7020356Y-4193633D01*
X7106367Y-4279644D01*
X7207504Y-4347222D01*
X7319882Y-4393770D01*
X7439182Y-4417500D01*
X7560818Y-4417500D01*
X7680118Y-4393770D01*
X7792496Y-4347222D01*
X7893633Y-4279644D01*
X7979644Y-4193633D01*
X8047222Y-4092496D01*
X8093770Y-3980118D01*
X8117500Y-3860818D01*
X8117500Y-3739182D01*
X8093770Y-3619882D01*
X8047222Y-3507504D01*
X7979644Y-3406367D01*
X7893633Y-3320356D01*
X7792496Y-3252778D01*
X7680118Y-3206230D01*
X7560818Y-3182500D01*
X7439182Y-3182500D01*
X7319882Y-3206230D01*
X7207504Y-3252778D01*
X7106367Y-3320356D01*
X7020356Y-3406367D01*
X6952778Y-3507504D01*
X6906230Y-3619882D01*
X6882500Y-3739182D01*
X-6421905Y-3739182D01*
X-6378356Y-3695633D01*
X-6310778Y-3594496D01*
X-6264230Y-3482118D01*
X-6240500Y-3362818D01*
X-6240500Y-3241182D01*
X-6264230Y-3121882D01*
X-6310778Y-3009504D01*
X-6378356Y-2908367D01*
X-6464367Y-2822356D01*
X-6565504Y-2754778D01*
X-6677882Y-2708230D01*
X-6797182Y-2684500D01*
X-6918818Y-2684500D01*
X-7038118Y-2708230D01*
X-7150496Y-2754778D01*
X-7251633Y-2822356D01*
X-7337644Y-2908367D01*
X-7405222Y-3009504D01*
X-7451770Y-3121882D01*
X-7475500Y-3241182D01*
X-25132500Y-3241182D01*
X-25132500Y-1839182D01*
X3982500Y-1839182D01*
X3982500Y-1960818D01*
X4006230Y-2080118D01*
X4052778Y-2192496D01*
X4120356Y-2293633D01*
X4206367Y-2379644D01*
X4307504Y-2447222D01*
X4419882Y-2493770D01*
X4539182Y-2517500D01*
X4660818Y-2517500D01*
X4780118Y-2493770D01*
X4892496Y-2447222D01*
X4993633Y-2379644D01*
X5079644Y-2293633D01*
X5147222Y-2192496D01*
X5193770Y-2080118D01*
X5217500Y-1960818D01*
X5217500Y-1839182D01*
X5193770Y-1719882D01*
X5147222Y-1607504D01*
X5079644Y-1506367D01*
X4993633Y-1420356D01*
X4892496Y-1352778D01*
X4780118Y-1306230D01*
X4660818Y-1282500D01*
X4539182Y-1282500D01*
X4419882Y-1306230D01*
X4307504Y-1352778D01*
X4206367Y-1420356D01*
X4120356Y-1506367D01*
X4052778Y-1607504D01*
X4006230Y-1719882D01*
X3982500Y-1839182D01*
X-25132500Y-1839182D01*
X-25132500Y-1239182D01*
X17082500Y-1239182D01*
X17082500Y-1360818D01*
X17106230Y-1480118D01*
X17152778Y-1592496D01*
X17220356Y-1693633D01*
X17306367Y-1779644D01*
X17407504Y-1847222D01*
X17519882Y-1893770D01*
X17639182Y-1917500D01*
X17760818Y-1917500D01*
X17880118Y-1893770D01*
X17992496Y-1847222D01*
X18093633Y-1779644D01*
X18179644Y-1693633D01*
X18247222Y-1592496D01*
X18293770Y-1480118D01*
X18317500Y-1360818D01*
X18317500Y-1239182D01*
X18293770Y-1119882D01*
X18247222Y-1007504D01*
X18179644Y-906367D01*
X18093633Y-820356D01*
X17992496Y-752778D01*
X17880118Y-706230D01*
X17760818Y-682500D01*
X17639182Y-682500D01*
X17519882Y-706230D01*
X17407504Y-752778D01*
X17306367Y-820356D01*
X17220356Y-906367D01*
X17152778Y-1007504D01*
X17106230Y-1119882D01*
X17082500Y-1239182D01*
X-25132500Y-1239182D01*
X-25132500Y260818D01*
X1682500Y260818D01*
X1682500Y139182D01*
X1706230Y19882D01*
X1752778Y-92496D01*
X1820356Y-193633D01*
X1906367Y-279644D01*
X2007504Y-347222D01*
X2119882Y-393770D01*
X2239182Y-417500D01*
X2360818Y-417500D01*
X2480118Y-393770D01*
X2592496Y-347222D01*
X2693633Y-279644D01*
X2779644Y-193633D01*
X2847222Y-92496D01*
X2893770Y19882D01*
X2917500Y139182D01*
X2917500Y260818D01*
X7782500Y260818D01*
X7782500Y139182D01*
X7806230Y19882D01*
X7852778Y-92496D01*
X7920356Y-193633D01*
X8006367Y-279644D01*
X8107504Y-347222D01*
X8219882Y-393770D01*
X8339182Y-417500D01*
X8460818Y-417500D01*
X8580118Y-393770D01*
X8692496Y-347222D01*
X8793633Y-279644D01*
X8879644Y-193633D01*
X8947222Y-92496D01*
X8993770Y19882D01*
X9017500Y139182D01*
X9017500Y260818D01*
X8993770Y380118D01*
X8947222Y492496D01*
X8879644Y593633D01*
X8793633Y679644D01*
X8692496Y747222D01*
X8580118Y793770D01*
X8460818Y817500D01*
X8339182Y817500D01*
X8219882Y793770D01*
X8107504Y747222D01*
X8006367Y679644D01*
X7920356Y593633D01*
X7852778Y492496D01*
X7806230Y380118D01*
X7782500Y260818D01*
X2917500Y260818D01*
X2893770Y380118D01*
X2847222Y492496D01*
X2779644Y593633D01*
X2693633Y679644D01*
X2592496Y747222D01*
X2480118Y793770D01*
X2360818Y817500D01*
X2239182Y817500D01*
X2119882Y793770D01*
X2007504Y747222D01*
X1906367Y679644D01*
X1820356Y593633D01*
X1752778Y492496D01*
X1706230Y380118D01*
X1682500Y260818D01*
X-25132500Y260818D01*
X-25132500Y960818D01*
X-21817500Y960818D01*
X-21817500Y839182D01*
X-21793770Y719882D01*
X-21747222Y607504D01*
X-21679644Y506367D01*
X-21593633Y420356D01*
X-21492496Y352778D01*
X-21380118Y306230D01*
X-21260818Y282500D01*
X-21139182Y282500D01*
X-21019882Y306230D01*
X-20907504Y352778D01*
X-20806367Y420356D01*
X-20720356Y506367D01*
X-20652778Y607504D01*
X-20606230Y719882D01*
X-20582500Y839182D01*
X-20582500Y960818D01*
X-20606230Y1080118D01*
X-20652778Y1192496D01*
X-20720356Y1293633D01*
X-20806367Y1379644D01*
X-20907504Y1447222D01*
X-21019882Y1493770D01*
X-21139182Y1517500D01*
X-21260818Y1517500D01*
X-21380118Y1493770D01*
X-21492496Y1447222D01*
X-21593633Y1379644D01*
X-21679644Y1293633D01*
X-21747222Y1192496D01*
X-21793770Y1080118D01*
X-21817500Y960818D01*
X-25132500Y960818D01*
X-25132500Y2260818D01*
X-21817500Y2260818D01*
X-21817500Y2139182D01*
X-21793770Y2019882D01*
X-21747222Y1907504D01*
X-21679644Y1806367D01*
X-21593633Y1720356D01*
X-21492496Y1652778D01*
X-21380118Y1606230D01*
X-21260818Y1582500D01*
X-21139182Y1582500D01*
X-21019882Y1606230D01*
X-20907504Y1652778D01*
X-20806367Y1720356D01*
X-20720356Y1806367D01*
X-20652778Y1907504D01*
X-20606230Y2019882D01*
X-20598088Y2060818D01*
X-8817500Y2060818D01*
X-8817500Y1939182D01*
X-8793770Y1819882D01*
X-8747222Y1707504D01*
X-8679644Y1606367D01*
X-8593633Y1520356D01*
X-8492496Y1452778D01*
X-8380118Y1406230D01*
X-8260818Y1382500D01*
X-8139182Y1382500D01*
X-8019882Y1406230D01*
X-7907504Y1452778D01*
X-7806367Y1520356D01*
X-7720356Y1606367D01*
X-7652778Y1707504D01*
X-7606230Y1819882D01*
X-7582500Y1939182D01*
X-7582500Y2060818D01*
X-7606230Y2180118D01*
X-7652778Y2292496D01*
X-7698429Y2360818D01*
X-2017500Y2360818D01*
X-2017500Y2239182D01*
X-1993770Y2119882D01*
X-1947222Y2007504D01*
X-1879644Y1906367D01*
X-1793633Y1820356D01*
X-1692496Y1752778D01*
X-1580118Y1706230D01*
X-1460818Y1682500D01*
X-1339182Y1682500D01*
X-1219882Y1706230D01*
X-1107504Y1752778D01*
X-1006367Y1820356D01*
X-920356Y1906367D01*
X-852778Y2007504D01*
X-806230Y2119882D01*
X-782500Y2239182D01*
X-782500Y2360818D01*
X-806230Y2480118D01*
X-852778Y2592496D01*
X-920356Y2693633D01*
X-1006367Y2779644D01*
X-1107504Y2847222D01*
X-1219882Y2893770D01*
X-1339182Y2917500D01*
X-1460818Y2917500D01*
X-1580118Y2893770D01*
X-1692496Y2847222D01*
X-1793633Y2779644D01*
X-1879644Y2693633D01*
X-1947222Y2592496D01*
X-1993770Y2480118D01*
X-2017500Y2360818D01*
X-7698429Y2360818D01*
X-7720356Y2393633D01*
X-7806367Y2479644D01*
X-7907504Y2547222D01*
X-8019882Y2593770D01*
X-8139182Y2617500D01*
X-8260818Y2617500D01*
X-8380118Y2593770D01*
X-8492496Y2547222D01*
X-8593633Y2479644D01*
X-8679644Y2393633D01*
X-8747222Y2292496D01*
X-8793770Y2180118D01*
X-8817500Y2060818D01*
X-20598088Y2060818D01*
X-20582500Y2139182D01*
X-20582500Y2260818D01*
X-20606230Y2380118D01*
X-20652778Y2492496D01*
X-20720356Y2593633D01*
X-20806367Y2679644D01*
X-20907504Y2747222D01*
X-21019882Y2793770D01*
X-21139182Y2817500D01*
X-21260818Y2817500D01*
X-21380118Y2793770D01*
X-21492496Y2747222D01*
X-21593633Y2679644D01*
X-21679644Y2593633D01*
X-21747222Y2492496D01*
X-21793770Y2380118D01*
X-21817500Y2260818D01*
X-25132500Y2260818D01*
X-25132500Y3510818D01*
X-21817500Y3510818D01*
X-21817500Y3389182D01*
X-21793770Y3269882D01*
X-21747222Y3157504D01*
X-21679644Y3056367D01*
X-21593633Y2970356D01*
X-21492496Y2902778D01*
X-21380118Y2856230D01*
X-21260818Y2832500D01*
X-21139182Y2832500D01*
X-21019882Y2856230D01*
X-21008806Y2860818D01*
X-15117500Y2860818D01*
X-15117500Y2739182D01*
X-15093770Y2619882D01*
X-15047222Y2507504D01*
X-14979644Y2406367D01*
X-14893633Y2320356D01*
X-14792496Y2252778D01*
X-14680118Y2206230D01*
X-14560818Y2182500D01*
X-14439182Y2182500D01*
X-14319882Y2206230D01*
X-14207504Y2252778D01*
X-14106367Y2320356D01*
X-14020356Y2406367D01*
X-13952778Y2507504D01*
X-13906230Y2619882D01*
X-13882500Y2739182D01*
X-13882500Y2860818D01*
X-13906230Y2980118D01*
X-13939656Y3060818D01*
X-11517500Y3060818D01*
X-11517500Y2939182D01*
X-11493770Y2819882D01*
X-11447222Y2707504D01*
X-11379644Y2606367D01*
X-11293633Y2520356D01*
X-11192496Y2452778D01*
X-11080118Y2406230D01*
X-10960818Y2382500D01*
X-10839182Y2382500D01*
X-10719882Y2406230D01*
X-10607504Y2452778D01*
X-10506367Y2520356D01*
X-10420356Y2606367D01*
X-10352778Y2707504D01*
X-10306230Y2819882D01*
X-10282500Y2939182D01*
X-10282500Y3060818D01*
X-10306230Y3180118D01*
X-10352778Y3292496D01*
X-10420356Y3393633D01*
X-10506367Y3479644D01*
X-10607504Y3547222D01*
X-10719882Y3593770D01*
X-10839182Y3617500D01*
X-10960818Y3617500D01*
X-11080118Y3593770D01*
X-11192496Y3547222D01*
X-11293633Y3479644D01*
X-11379644Y3393633D01*
X-11447222Y3292496D01*
X-11493770Y3180118D01*
X-11517500Y3060818D01*
X-13939656Y3060818D01*
X-13952778Y3092496D01*
X-14020356Y3193633D01*
X-14106367Y3279644D01*
X-14207504Y3347222D01*
X-14319882Y3393770D01*
X-14439182Y3417500D01*
X-14560818Y3417500D01*
X-14680118Y3393770D01*
X-14792496Y3347222D01*
X-14893633Y3279644D01*
X-14979644Y3193633D01*
X-15047222Y3092496D01*
X-15093770Y2980118D01*
X-15117500Y2860818D01*
X-21008806Y2860818D01*
X-20907504Y2902778D01*
X-20806367Y2970356D01*
X-20720356Y3056367D01*
X-20652778Y3157504D01*
X-20606230Y3269882D01*
X-20582500Y3389182D01*
X-20582500Y3510818D01*
X-20606230Y3630118D01*
X-20652778Y3742496D01*
X-20720356Y3843633D01*
X-20737541Y3860818D01*
X-16317500Y3860818D01*
X-16317500Y3739182D01*
X-16293770Y3619882D01*
X-16247222Y3507504D01*
X-16179644Y3406367D01*
X-16093633Y3320356D01*
X-15992496Y3252778D01*
X-15880118Y3206230D01*
X-15760818Y3182500D01*
X-15639182Y3182500D01*
X-15519882Y3206230D01*
X-15407504Y3252778D01*
X-15306367Y3320356D01*
X-15220356Y3406367D01*
X-15152778Y3507504D01*
X-15106230Y3619882D01*
X-15082500Y3739182D01*
X-15082500Y3860818D01*
X4782500Y3860818D01*
X4782500Y3739182D01*
X4806230Y3619882D01*
X4852778Y3507504D01*
X4920356Y3406367D01*
X5006367Y3320356D01*
X5107504Y3252778D01*
X5219882Y3206230D01*
X5339182Y3182500D01*
X5460818Y3182500D01*
X5580118Y3206230D01*
X5692496Y3252778D01*
X5793633Y3320356D01*
X5879644Y3406367D01*
X5947222Y3507504D01*
X5993770Y3619882D01*
X6017500Y3739182D01*
X6017500Y3860818D01*
X5993770Y3980118D01*
X5947222Y4092496D01*
X5879644Y4193633D01*
X5812459Y4260818D01*
X19382500Y4260818D01*
X19382500Y4139182D01*
X19406230Y4019882D01*
X19452778Y3907504D01*
X19520356Y3806367D01*
X19606367Y3720356D01*
X19707504Y3652778D01*
X19819882Y3606230D01*
X19939182Y3582500D01*
X20060818Y3582500D01*
X20180118Y3606230D01*
X20292496Y3652778D01*
X20393633Y3720356D01*
X20479644Y3806367D01*
X20547222Y3907504D01*
X20593770Y4019882D01*
X20617500Y4139182D01*
X20617500Y4260818D01*
X20593770Y4380118D01*
X20547222Y4492496D01*
X20479644Y4593633D01*
X20393633Y4679644D01*
X20292496Y4747222D01*
X20180118Y4793770D01*
X20060818Y4817500D01*
X19939182Y4817500D01*
X19819882Y4793770D01*
X19707504Y4747222D01*
X19606367Y4679644D01*
X19520356Y4593633D01*
X19452778Y4492496D01*
X19406230Y4380118D01*
X19382500Y4260818D01*
X5812459Y4260818D01*
X5793633Y4279644D01*
X5692496Y4347222D01*
X5580118Y4393770D01*
X5460818Y4417500D01*
X5339182Y4417500D01*
X5219882Y4393770D01*
X5107504Y4347222D01*
X5006367Y4279644D01*
X4920356Y4193633D01*
X4852778Y4092496D01*
X4806230Y3980118D01*
X4782500Y3860818D01*
X-15082500Y3860818D01*
X-15106230Y3980118D01*
X-15152778Y4092496D01*
X-15220356Y4193633D01*
X-15306367Y4279644D01*
X-15407504Y4347222D01*
X-15519882Y4393770D01*
X-15639182Y4417500D01*
X-15760818Y4417500D01*
X-15880118Y4393770D01*
X-15992496Y4347222D01*
X-16093633Y4279644D01*
X-16179644Y4193633D01*
X-16247222Y4092496D01*
X-16293770Y3980118D01*
X-16317500Y3860818D01*
X-20737541Y3860818D01*
X-20806367Y3929644D01*
X-20907504Y3997222D01*
X-21019882Y4043770D01*
X-21139182Y4067500D01*
X-21260818Y4067500D01*
X-21380118Y4043770D01*
X-21492496Y3997222D01*
X-21593633Y3929644D01*
X-21679644Y3843633D01*
X-21747222Y3742496D01*
X-21793770Y3630118D01*
X-21817500Y3510818D01*
X-25132500Y3510818D01*
X-25132500Y4760818D01*
X-8917500Y4760818D01*
X-8917500Y4639182D01*
X-8893770Y4519882D01*
X-8847222Y4407504D01*
X-8779644Y4306367D01*
X-8693633Y4220356D01*
X-8592496Y4152778D01*
X-8480118Y4106230D01*
X-8360818Y4082500D01*
X-8239182Y4082500D01*
X-8119882Y4106230D01*
X-8007504Y4152778D01*
X-7906367Y4220356D01*
X-7820356Y4306367D01*
X-7752778Y4407504D01*
X-7706230Y4519882D01*
X-7682500Y4639182D01*
X-7682500Y4760818D01*
X-7706230Y4880118D01*
X-7752778Y4992496D01*
X-7820356Y5093633D01*
X-7906367Y5179644D01*
X-8007504Y5247222D01*
X-8119882Y5293770D01*
X-8239182Y5317500D01*
X-8360818Y5317500D01*
X-8480118Y5293770D01*
X-8592496Y5247222D01*
X-8693633Y5179644D01*
X-8779644Y5093633D01*
X-8847222Y4992496D01*
X-8893770Y4880118D01*
X-8917500Y4760818D01*
X-25132500Y4760818D01*
X-25132500Y6760818D01*
X-19517500Y6760818D01*
X-19517500Y6639182D01*
X-19493770Y6519882D01*
X-19447222Y6407504D01*
X-19379644Y6306367D01*
X-19293633Y6220356D01*
X-19192496Y6152778D01*
X-19080118Y6106230D01*
X-18960818Y6082500D01*
X-18839182Y6082500D01*
X-18719882Y6106230D01*
X-18607504Y6152778D01*
X-18506367Y6220356D01*
X-18420356Y6306367D01*
X-18352778Y6407504D01*
X-18330695Y6460818D01*
X-2917500Y6460818D01*
X-2917500Y6339182D01*
X-2893770Y6219882D01*
X-2847222Y6107504D01*
X-2779644Y6006367D01*
X-2693633Y5920356D01*
X-2592496Y5852778D01*
X-2480118Y5806230D01*
X-2360818Y5782500D01*
X-2239182Y5782500D01*
X-2119882Y5806230D01*
X-2007504Y5852778D01*
X-1906367Y5920356D01*
X-1820356Y6006367D01*
X-1752778Y6107504D01*
X-1706230Y6219882D01*
X-1682500Y6339182D01*
X-1682500Y6460818D01*
X-1706230Y6580118D01*
X-1752778Y6692496D01*
X-1820356Y6793633D01*
X-1906367Y6879644D01*
X-2007504Y6947222D01*
X-2119882Y6993770D01*
X-2239182Y7017500D01*
X-2360818Y7017500D01*
X-2480118Y6993770D01*
X-2592496Y6947222D01*
X-2693633Y6879644D01*
X-2779644Y6793633D01*
X-2847222Y6692496D01*
X-2893770Y6580118D01*
X-2917500Y6460818D01*
X-18330695Y6460818D01*
X-18306230Y6519882D01*
X-18282500Y6639182D01*
X-18282500Y6760818D01*
X-18306230Y6880118D01*
X-18352778Y6992496D01*
X-18420356Y7093633D01*
X-18506367Y7179644D01*
X-18607504Y7247222D01*
X-18719882Y7293770D01*
X-18839182Y7317500D01*
X-18960818Y7317500D01*
X-19080118Y7293770D01*
X-19192496Y7247222D01*
X-19293633Y7179644D01*
X-19379644Y7093633D01*
X-19447222Y6992496D01*
X-19493770Y6880118D01*
X-19517500Y6760818D01*
X-25132500Y6760818D01*
X-25132500Y7360818D01*
X-4617500Y7360818D01*
X-4617500Y7239182D01*
X-4593770Y7119882D01*
X-4547222Y7007504D01*
X-4479644Y6906367D01*
X-4393633Y6820356D01*
X-4292496Y6752778D01*
X-4180118Y6706230D01*
X-4060818Y6682500D01*
X-3939182Y6682500D01*
X-3819882Y6706230D01*
X-3707504Y6752778D01*
X-3606367Y6820356D01*
X-3520356Y6906367D01*
X-3452778Y7007504D01*
X-3406230Y7119882D01*
X-3382500Y7239182D01*
X-3382500Y7360818D01*
X-3406230Y7480118D01*
X-3452778Y7592496D01*
X-3520356Y7693633D01*
X-3606367Y7779644D01*
X-3707504Y7847222D01*
X-3819882Y7893770D01*
X-3939182Y7917500D01*
X-4060818Y7917500D01*
X-4180118Y7893770D01*
X-4292496Y7847222D01*
X-4393633Y7779644D01*
X-4479644Y7693633D01*
X-4547222Y7592496D01*
X-4593770Y7480118D01*
X-4617500Y7360818D01*
X-25132500Y7360818D01*
X-25132500Y8760818D01*
X-2917500Y8760818D01*
X-2917500Y8639182D01*
X-2893770Y8519882D01*
X-2847222Y8407504D01*
X-2779644Y8306367D01*
X-2693633Y8220356D01*
X-2592496Y8152778D01*
X-2480118Y8106230D01*
X-2360818Y8082500D01*
X-2239182Y8082500D01*
X-2119882Y8106230D01*
X-2007504Y8152778D01*
X-1906367Y8220356D01*
X-1820356Y8306367D01*
X-1752778Y8407504D01*
X-1706230Y8519882D01*
X-1682500Y8639182D01*
X-1682500Y8760818D01*
X-1697816Y8837819D01*
X8882500Y8837819D01*
X8882500Y8716183D01*
X8906230Y8596883D01*
X8952778Y8484505D01*
X9000225Y8413496D01*
X8952784Y8342496D01*
X8906236Y8230118D01*
X8882506Y8110818D01*
X8882506Y7989182D01*
X8906236Y7869882D01*
X8952784Y7757504D01*
X9007909Y7675004D01*
X8952778Y7592496D01*
X8906230Y7480118D01*
X8882500Y7360818D01*
X8882500Y7239182D01*
X8906230Y7119882D01*
X8952778Y7007504D01*
X9020356Y6906367D01*
X9026723Y6900000D01*
X9020356Y6893633D01*
X8952778Y6792496D01*
X8906230Y6680118D01*
X8882500Y6560818D01*
X8882500Y6439182D01*
X8906230Y6319882D01*
X8952778Y6207504D01*
X9020356Y6106367D01*
X9026726Y6099997D01*
X9020356Y6093627D01*
X8952778Y5992490D01*
X8906230Y5880112D01*
X8882500Y5760812D01*
X8882500Y5639176D01*
X8906230Y5519876D01*
X8952778Y5407498D01*
X9020356Y5306361D01*
X9106367Y5220350D01*
X9207504Y5152772D01*
X9319882Y5106224D01*
X9439182Y5082494D01*
X9560818Y5082494D01*
X9680118Y5106224D01*
X9792496Y5152772D01*
X9893633Y5220350D01*
X9979644Y5306361D01*
X10047222Y5407498D01*
X10093770Y5519876D01*
X10117500Y5639176D01*
X10117500Y5760812D01*
X10093770Y5880112D01*
X10047222Y5992490D01*
X9979644Y6093627D01*
X9973274Y6099997D01*
X9979644Y6106367D01*
X10047222Y6207504D01*
X10093770Y6319882D01*
X10100520Y6353818D01*
X11117569Y6353818D01*
X11128225Y6189822D01*
X11282711Y6141654D01*
X11443626Y6124549D01*
X11604786Y6139166D01*
X11759998Y6184944D01*
X11771775Y6189822D01*
X11782431Y6353818D01*
X12167569Y6353818D01*
X12178225Y6189822D01*
X12332711Y6141654D01*
X12493626Y6124549D01*
X12654786Y6139166D01*
X12809998Y6184944D01*
X12821775Y6189822D01*
X12832431Y6353818D01*
X13217569Y6353818D01*
X13228225Y6189822D01*
X13382711Y6141654D01*
X13543626Y6124549D01*
X13704786Y6139166D01*
X13859998Y6184944D01*
X13871775Y6189822D01*
X13882431Y6353818D01*
X13775431Y6460818D01*
X16082500Y6460818D01*
X16082500Y6339182D01*
X16106230Y6219882D01*
X16152778Y6107504D01*
X16220356Y6006367D01*
X16306367Y5920356D01*
X16407504Y5852778D01*
X16519882Y5806230D01*
X16639182Y5782500D01*
X16760818Y5782500D01*
X16880118Y5806230D01*
X16992496Y5852778D01*
X17093633Y5920356D01*
X17179644Y6006367D01*
X17247222Y6107504D01*
X17293770Y6219882D01*
X17317500Y6339182D01*
X17317500Y6460818D01*
X17293770Y6580118D01*
X17247222Y6692496D01*
X17179644Y6793633D01*
X17093633Y6879644D01*
X16992496Y6947222D01*
X16880118Y6993770D01*
X16760818Y7017500D01*
X16639182Y7017500D01*
X16519882Y6993770D01*
X16407504Y6947222D01*
X16306367Y6879644D01*
X16220356Y6793633D01*
X16152778Y6692496D01*
X16106230Y6580118D01*
X16082500Y6460818D01*
X13775431Y6460818D01*
X13550000Y6686249D01*
X13217569Y6353818D01*
X12832431Y6353818D01*
X12500000Y6686249D01*
X12167569Y6353818D01*
X11782431Y6353818D01*
X11450000Y6686249D01*
X11117569Y6353818D01*
X10100520Y6353818D01*
X10117500Y6439182D01*
X10117500Y6560818D01*
X10093770Y6680118D01*
X10047222Y6792496D01*
X9979644Y6893633D01*
X9973277Y6900000D01*
X9979644Y6906367D01*
X10013057Y6956374D01*
X10624549Y6956374D01*
X10639166Y6795214D01*
X10684944Y6640002D01*
X10689822Y6628225D01*
X10853818Y6617569D01*
X11186249Y6950000D01*
X10853818Y7282431D01*
X10689822Y7271775D01*
X10641654Y7117289D01*
X10624549Y6956374D01*
X10013057Y6956374D01*
X10047222Y7007504D01*
X10093770Y7119882D01*
X10117500Y7239182D01*
X10117500Y7360818D01*
X10093770Y7480118D01*
X10047222Y7592496D01*
X9992097Y7674996D01*
X10047228Y7757504D01*
X10093776Y7869882D01*
X10117506Y7989182D01*
X10117506Y8006374D01*
X10624549Y8006374D01*
X10639166Y7845214D01*
X10684944Y7690002D01*
X10689822Y7678225D01*
X10853818Y7667569D01*
X11186249Y8000000D01*
X10853818Y8332431D01*
X10689822Y8321775D01*
X10641654Y8167289D01*
X10624549Y8006374D01*
X10117506Y8006374D01*
X10117506Y8110818D01*
X10093776Y8230118D01*
X10047228Y8342496D01*
X9999781Y8413505D01*
X10047222Y8484505D01*
X10093479Y8596182D01*
X11117569Y8596182D01*
X11188751Y8525000D01*
X11117569Y8453818D01*
X11128225Y8289822D01*
X11282711Y8241654D01*
X11443626Y8224549D01*
X11604786Y8239166D01*
X11725132Y8274661D01*
X11691654Y8167289D01*
X11674549Y8006374D01*
X11689166Y7845214D01*
X11724661Y7724868D01*
X11617289Y7758346D01*
X11456374Y7775451D01*
X11295214Y7760834D01*
X11140002Y7715056D01*
X11128225Y7710178D01*
X11117569Y7546182D01*
X11188751Y7475000D01*
X11117569Y7403818D01*
X11128225Y7239822D01*
X11282711Y7191654D01*
X11443626Y7174549D01*
X11604786Y7189166D01*
X11725132Y7224661D01*
X11691654Y7117289D01*
X11674549Y6956374D01*
X11689166Y6795214D01*
X11734944Y6640002D01*
X11739822Y6628225D01*
X11903818Y6617569D01*
X11975000Y6688751D01*
X12046182Y6617569D01*
X12210178Y6628225D01*
X12258346Y6782711D01*
X12275451Y6943626D01*
X12260834Y7104786D01*
X12225339Y7225132D01*
X12332711Y7191654D01*
X12493626Y7174549D01*
X12654786Y7189166D01*
X12775132Y7224661D01*
X12741654Y7117289D01*
X12724549Y6956374D01*
X12739166Y6795214D01*
X12784944Y6640002D01*
X12789822Y6628225D01*
X12953818Y6617569D01*
X13025000Y6688751D01*
X13096182Y6617569D01*
X13260178Y6628225D01*
X13308346Y6782711D01*
X13325451Y6943626D01*
X13324873Y6950000D01*
X13813751Y6950000D01*
X14146182Y6617569D01*
X14310178Y6628225D01*
X14358346Y6782711D01*
X14375451Y6943626D01*
X14360834Y7104786D01*
X14315056Y7259998D01*
X14310178Y7271775D01*
X14146182Y7282431D01*
X13813751Y6950000D01*
X13324873Y6950000D01*
X13310834Y7104786D01*
X13275339Y7225132D01*
X13382711Y7191654D01*
X13543626Y7174549D01*
X13704786Y7189166D01*
X13859998Y7234944D01*
X13871775Y7239822D01*
X13882431Y7403818D01*
X13811249Y7475000D01*
X13882431Y7546182D01*
X13871775Y7710178D01*
X13717289Y7758346D01*
X13556374Y7775451D01*
X13395214Y7760834D01*
X13274868Y7725339D01*
X13308346Y7832711D01*
X13325451Y7993626D01*
X13324873Y8000000D01*
X13813751Y8000000D01*
X14146182Y7667569D01*
X14310178Y7678225D01*
X14358346Y7832711D01*
X14375451Y7993626D01*
X14360834Y8154786D01*
X14315056Y8309998D01*
X14310178Y8321775D01*
X14146182Y8332431D01*
X13813751Y8000000D01*
X13324873Y8000000D01*
X13310834Y8154786D01*
X13275339Y8275132D01*
X13382711Y8241654D01*
X13543626Y8224549D01*
X13704786Y8239166D01*
X13859998Y8284944D01*
X13871775Y8289822D01*
X13882431Y8453818D01*
X13811249Y8525000D01*
X13882431Y8596182D01*
X13871775Y8760178D01*
X13717289Y8808346D01*
X13556374Y8825451D01*
X13395214Y8810834D01*
X13274868Y8775339D01*
X13308346Y8882711D01*
X13325451Y9043626D01*
X13324873Y9050000D01*
X13813751Y9050000D01*
X14146182Y8717569D01*
X14310178Y8728225D01*
X14351519Y8860818D01*
X15382500Y8860818D01*
X15382500Y8739182D01*
X15406230Y8619882D01*
X15452778Y8507504D01*
X15520356Y8406367D01*
X15606367Y8320356D01*
X15707504Y8252778D01*
X15819882Y8206230D01*
X15939182Y8182500D01*
X16060818Y8182500D01*
X16180118Y8206230D01*
X16292496Y8252778D01*
X16393633Y8320356D01*
X16479644Y8406367D01*
X16547222Y8507504D01*
X16593770Y8619882D01*
X16617500Y8739182D01*
X16617500Y8860818D01*
X16593770Y8980118D01*
X16547222Y9092496D01*
X16479644Y9193633D01*
X16393633Y9279644D01*
X16292496Y9347222D01*
X16180118Y9393770D01*
X16060818Y9417500D01*
X15939182Y9417500D01*
X15819882Y9393770D01*
X15707504Y9347222D01*
X15606367Y9279644D01*
X15520356Y9193633D01*
X15452778Y9092496D01*
X15406230Y8980118D01*
X15382500Y8860818D01*
X14351519Y8860818D01*
X14358346Y8882711D01*
X14375451Y9043626D01*
X14360834Y9204786D01*
X14315056Y9359998D01*
X14310178Y9371775D01*
X14146182Y9382431D01*
X13813751Y9050000D01*
X13324873Y9050000D01*
X13310834Y9204786D01*
X13265056Y9359998D01*
X13260178Y9371775D01*
X13096182Y9382431D01*
X13025000Y9311249D01*
X12953818Y9382431D01*
X12789822Y9371775D01*
X12741654Y9217289D01*
X12724549Y9056374D01*
X12739166Y8895214D01*
X12774661Y8774868D01*
X12667289Y8808346D01*
X12506374Y8825451D01*
X12345214Y8810834D01*
X12224868Y8775339D01*
X12258346Y8882711D01*
X12275451Y9043626D01*
X12260834Y9204786D01*
X12215056Y9359998D01*
X12210178Y9371775D01*
X12046182Y9382431D01*
X11975000Y9311249D01*
X11903818Y9382431D01*
X11739822Y9371775D01*
X11691654Y9217289D01*
X11674549Y9056374D01*
X11689166Y8895214D01*
X11724661Y8774868D01*
X11617289Y8808346D01*
X11456374Y8825451D01*
X11295214Y8810834D01*
X11140002Y8765056D01*
X11128225Y8760178D01*
X11117569Y8596182D01*
X10093479Y8596182D01*
X10093770Y8596883D01*
X10117500Y8716183D01*
X10117500Y8837819D01*
X10093770Y8957119D01*
X10052658Y9056374D01*
X10624549Y9056374D01*
X10639166Y8895214D01*
X10684944Y8740002D01*
X10689822Y8728225D01*
X10853818Y8717569D01*
X11186249Y9050000D01*
X10853818Y9382431D01*
X10689822Y9371775D01*
X10641654Y9217289D01*
X10624549Y9056374D01*
X10052658Y9056374D01*
X10047222Y9069497D01*
X9979644Y9170634D01*
X9893633Y9256645D01*
X9792496Y9324223D01*
X9680118Y9370771D01*
X9560818Y9394501D01*
X9439182Y9394501D01*
X9319882Y9370771D01*
X9207504Y9324223D01*
X9106367Y9256645D01*
X9020356Y9170634D01*
X8952778Y9069497D01*
X8906230Y8957119D01*
X8882500Y8837819D01*
X-1697816Y8837819D01*
X-1706230Y8880118D01*
X-1732106Y8942588D01*
X-1707504Y8952778D01*
X-1606367Y9020356D01*
X-1520356Y9106367D01*
X-1452778Y9207504D01*
X-1406230Y9319882D01*
X-1382500Y9439182D01*
X-1382500Y9560818D01*
X-1399479Y9646182D01*
X11117569Y9646182D01*
X11450000Y9313751D01*
X11782431Y9646182D01*
X12167569Y9646182D01*
X12500000Y9313751D01*
X12832431Y9646182D01*
X13217569Y9646182D01*
X13550000Y9313751D01*
X13882431Y9646182D01*
X13871775Y9810178D01*
X13717289Y9858346D01*
X13556374Y9875451D01*
X13395214Y9860834D01*
X13240002Y9815056D01*
X13228225Y9810178D01*
X13217569Y9646182D01*
X12832431Y9646182D01*
X12821775Y9810178D01*
X12667289Y9858346D01*
X12506374Y9875451D01*
X12345214Y9860834D01*
X12190002Y9815056D01*
X12178225Y9810178D01*
X12167569Y9646182D01*
X11782431Y9646182D01*
X11771775Y9810178D01*
X11617289Y9858346D01*
X11456374Y9875451D01*
X11295214Y9860834D01*
X11140002Y9815056D01*
X11128225Y9810178D01*
X11117569Y9646182D01*
X-1399479Y9646182D01*
X-1406230Y9680118D01*
X-1452778Y9792496D01*
X-1520356Y9893633D01*
X-1606367Y9979644D01*
X-1707504Y10047222D01*
X-1819882Y10093770D01*
X-1939182Y10117500D01*
X-2060818Y10117500D01*
X-2180118Y10093770D01*
X-2292496Y10047222D01*
X-2393633Y9979644D01*
X-2479644Y9893633D01*
X-2547222Y9792496D01*
X-2593770Y9680118D01*
X-2617500Y9560818D01*
X-2617500Y9439182D01*
X-2593770Y9319882D01*
X-2567894Y9257412D01*
X-2592496Y9247222D01*
X-2693633Y9179644D01*
X-2779644Y9093633D01*
X-2847222Y8992496D01*
X-2893770Y8880118D01*
X-2917500Y8760818D01*
X-25132500Y8760818D01*
X-25132500Y10660818D01*
X-4917500Y10660818D01*
X-4917500Y10539182D01*
X-4893770Y10419882D01*
X-4847222Y10307504D01*
X-4779644Y10206367D01*
X-4693633Y10120356D01*
X-4592496Y10052778D01*
X-4480118Y10006230D01*
X-4360818Y9982500D01*
X-4239182Y9982500D01*
X-4119882Y10006230D01*
X-4007504Y10052778D01*
X-3906367Y10120356D01*
X-3820356Y10206367D01*
X-3752778Y10307504D01*
X-3706230Y10419882D01*
X-3682500Y10539182D01*
X-3682500Y10660818D01*
X5182500Y10660818D01*
X5182500Y10539182D01*
X5206230Y10419882D01*
X5252778Y10307504D01*
X5320356Y10206367D01*
X5406367Y10120356D01*
X5507504Y10052778D01*
X5619882Y10006230D01*
X5739182Y9982500D01*
X5860818Y9982500D01*
X5980118Y10006230D01*
X6092496Y10052778D01*
X6193633Y10120356D01*
X6279644Y10206367D01*
X6347222Y10307504D01*
X6393770Y10419882D01*
X6417500Y10539182D01*
X6417500Y10660818D01*
X6393770Y10780118D01*
X6347222Y10892496D01*
X6279644Y10993633D01*
X6193633Y11079644D01*
X6092496Y11147222D01*
X5980118Y11193770D01*
X5860818Y11217500D01*
X5739182Y11217500D01*
X5619882Y11193770D01*
X5507504Y11147222D01*
X5406367Y11079644D01*
X5320356Y10993633D01*
X5252778Y10892496D01*
X5206230Y10780118D01*
X5182500Y10660818D01*
X-3682500Y10660818D01*
X-3706230Y10780118D01*
X-3752778Y10892496D01*
X-3820356Y10993633D01*
X-3906367Y11079644D01*
X-4007504Y11147222D01*
X-4119882Y11193770D01*
X-4239182Y11217500D01*
X-4360818Y11217500D01*
X-4480118Y11193770D01*
X-4592496Y11147222D01*
X-4693633Y11079644D01*
X-4779644Y10993633D01*
X-4847222Y10892496D01*
X-4893770Y10780118D01*
X-4917500Y10660818D01*
X-25132500Y10660818D01*
X-25132500Y12360818D01*
X-2817500Y12360818D01*
X-2817500Y12239182D01*
X-2793770Y12119882D01*
X-2747222Y12007504D01*
X-2679644Y11906367D01*
X-2593633Y11820356D01*
X-2492496Y11752778D01*
X-2380118Y11706230D01*
X-2260818Y11682500D01*
X-2139182Y11682500D01*
X-2019882Y11706230D01*
X-1907504Y11752778D01*
X-1806367Y11820356D01*
X-1720356Y11906367D01*
X-1652778Y12007504D01*
X-1606230Y12119882D01*
X-1599331Y12154568D01*
X8476250Y12154568D01*
X8476250Y12032932D01*
X8499980Y11913632D01*
X8546528Y11801254D01*
X8614106Y11700117D01*
X8700117Y11614106D01*
X8801254Y11546528D01*
X8913632Y11499980D01*
X9032932Y11476250D01*
X9154568Y11476250D01*
X9273868Y11499980D01*
X9386246Y11546528D01*
X9487383Y11614106D01*
X9573394Y11700117D01*
X9640972Y11801254D01*
X9687520Y11913632D01*
X9711250Y12032932D01*
X9711250Y12154568D01*
X9690116Y12260818D01*
X12682500Y12260818D01*
X12682500Y12139182D01*
X12706230Y12019882D01*
X12752778Y11907504D01*
X12820356Y11806367D01*
X12906367Y11720356D01*
X13007504Y11652778D01*
X13119882Y11606230D01*
X13239182Y11582500D01*
X13360818Y11582500D01*
X13480118Y11606230D01*
X13592496Y11652778D01*
X13693633Y11720356D01*
X13779644Y11806367D01*
X13847222Y11907504D01*
X13893770Y12019882D01*
X13917500Y12139182D01*
X13917500Y12260818D01*
X13893770Y12380118D01*
X13847222Y12492496D01*
X13779644Y12593633D01*
X13693633Y12679644D01*
X13592496Y12747222D01*
X13480118Y12793770D01*
X13360818Y12817500D01*
X13239182Y12817500D01*
X13119882Y12793770D01*
X13007504Y12747222D01*
X12906367Y12679644D01*
X12820356Y12593633D01*
X12752778Y12492496D01*
X12706230Y12380118D01*
X12682500Y12260818D01*
X9690116Y12260818D01*
X9687520Y12273868D01*
X9640972Y12386246D01*
X9573394Y12487383D01*
X9487383Y12573394D01*
X9386246Y12640972D01*
X9273868Y12687520D01*
X9154568Y12711250D01*
X9032932Y12711250D01*
X8913632Y12687520D01*
X8801254Y12640972D01*
X8700117Y12573394D01*
X8614106Y12487383D01*
X8546528Y12386246D01*
X8499980Y12273868D01*
X8476250Y12154568D01*
X-1599331Y12154568D01*
X-1582500Y12239182D01*
X-1582500Y12360818D01*
X-1606230Y12480118D01*
X-1652778Y12592496D01*
X-1720356Y12693633D01*
X-1806367Y12779644D01*
X-1907504Y12847222D01*
X-2019882Y12893770D01*
X-2139182Y12917500D01*
X-2260818Y12917500D01*
X-2380118Y12893770D01*
X-2492496Y12847222D01*
X-2593633Y12779644D01*
X-2679644Y12693633D01*
X-2747222Y12592496D01*
X-2793770Y12480118D01*
X-2817500Y12360818D01*
X-25132500Y12360818D01*
X-25132500Y13660818D01*
X-21817500Y13660818D01*
X-21817500Y13539182D01*
X-21793770Y13419882D01*
X-21747222Y13307504D01*
X-21679644Y13206367D01*
X-21593633Y13120356D01*
X-21492496Y13052778D01*
X-21380118Y13006230D01*
X-21260818Y12982500D01*
X-21139182Y12982500D01*
X-21019882Y13006230D01*
X-20907504Y13052778D01*
X-20806367Y13120356D01*
X-20765905Y13160818D01*
X11082500Y13160818D01*
X11082500Y13039182D01*
X11106230Y12919882D01*
X11152778Y12807504D01*
X11220356Y12706367D01*
X11306367Y12620356D01*
X11407504Y12552778D01*
X11519882Y12506230D01*
X11639182Y12482500D01*
X11760818Y12482500D01*
X11880118Y12506230D01*
X11992496Y12552778D01*
X12093633Y12620356D01*
X12179644Y12706367D01*
X12247222Y12807504D01*
X12293770Y12919882D01*
X12317500Y13039182D01*
X12317500Y13160818D01*
X12293770Y13280118D01*
X12247222Y13392496D01*
X12179644Y13493633D01*
X12093633Y13579644D01*
X11992496Y13647222D01*
X11880118Y13693770D01*
X11760818Y13717500D01*
X11639182Y13717500D01*
X11519882Y13693770D01*
X11407504Y13647222D01*
X11306367Y13579644D01*
X11220356Y13493633D01*
X11152778Y13392496D01*
X11106230Y13280118D01*
X11082500Y13160818D01*
X-20765905Y13160818D01*
X-20720356Y13206367D01*
X-20652778Y13307504D01*
X-20606230Y13419882D01*
X-20582500Y13539182D01*
X-20582500Y13660818D01*
X-20606230Y13780118D01*
X-20639656Y13860818D01*
X14582500Y13860818D01*
X14582500Y13739182D01*
X14606230Y13619882D01*
X14652778Y13507504D01*
X14720356Y13406367D01*
X14806367Y13320356D01*
X14907504Y13252778D01*
X15019882Y13206230D01*
X15139182Y13182500D01*
X15260818Y13182500D01*
X15380118Y13206230D01*
X15492496Y13252778D01*
X15593633Y13320356D01*
X15679644Y13406367D01*
X15700000Y13436832D01*
X15720356Y13406367D01*
X15806367Y13320356D01*
X15907504Y13252778D01*
X16019882Y13206230D01*
X16139182Y13182500D01*
X16260818Y13182500D01*
X16380118Y13206230D01*
X16492496Y13252778D01*
X16593633Y13320356D01*
X16679644Y13406367D01*
X16747222Y13507504D01*
X16793770Y13619882D01*
X16817500Y13739182D01*
X16817500Y13860818D01*
X16793770Y13980118D01*
X16747222Y14092496D01*
X16679644Y14193633D01*
X16593633Y14279644D01*
X16492496Y14347222D01*
X16380118Y14393770D01*
X16260818Y14417500D01*
X16139182Y14417500D01*
X16019882Y14393770D01*
X15907504Y14347222D01*
X15806367Y14279644D01*
X15720356Y14193633D01*
X15700000Y14163168D01*
X15679644Y14193633D01*
X15593633Y14279644D01*
X15492496Y14347222D01*
X15380118Y14393770D01*
X15260818Y14417500D01*
X15139182Y14417500D01*
X15019882Y14393770D01*
X14907504Y14347222D01*
X14806367Y14279644D01*
X14720356Y14193633D01*
X14652778Y14092496D01*
X14606230Y13980118D01*
X14582500Y13860818D01*
X-20639656Y13860818D01*
X-20652778Y13892496D01*
X-20720356Y13993633D01*
X-20806367Y14079644D01*
X-20907504Y14147222D01*
X-21019882Y14193770D01*
X-21139182Y14217500D01*
X-21260818Y14217500D01*
X-21380118Y14193770D01*
X-21492496Y14147222D01*
X-21593633Y14079644D01*
X-21679644Y13993633D01*
X-21747222Y13892496D01*
X-21793770Y13780118D01*
X-21817500Y13660818D01*
X-25132500Y13660818D01*
X-25132500Y14660818D01*
X-10217500Y14660818D01*
X-10217500Y14539182D01*
X-10193770Y14419882D01*
X-10147222Y14307504D01*
X-10079644Y14206367D01*
X-9993633Y14120356D01*
X-9892496Y14052778D01*
X-9780118Y14006230D01*
X-9660818Y13982500D01*
X-9539182Y13982500D01*
X-9419882Y14006230D01*
X-9307504Y14052778D01*
X-9206367Y14120356D01*
X-9120356Y14206367D01*
X-9052778Y14307504D01*
X-9006230Y14419882D01*
X-8982500Y14539182D01*
X-8982500Y14660818D01*
X-3217500Y14660818D01*
X-3217500Y14539182D01*
X-3193770Y14419882D01*
X-3147222Y14307504D01*
X-3079644Y14206367D01*
X-2993633Y14120356D01*
X-2892496Y14052778D01*
X-2780118Y14006230D01*
X-2660818Y13982500D01*
X-2539182Y13982500D01*
X-2419882Y14006230D01*
X-2307504Y14052778D01*
X-2206367Y14120356D01*
X-2120356Y14206367D01*
X-2052778Y14307504D01*
X-2006230Y14419882D01*
X-1982500Y14539182D01*
X-1982500Y14660818D01*
X-2006230Y14780118D01*
X-2052778Y14892496D01*
X-2098429Y14960818D01*
X5082500Y14960818D01*
X5082500Y14839182D01*
X5106230Y14719882D01*
X5152778Y14607504D01*
X5220356Y14506367D01*
X5306367Y14420356D01*
X5407504Y14352778D01*
X5519882Y14306230D01*
X5639182Y14282500D01*
X5760818Y14282500D01*
X5880118Y14306230D01*
X5992496Y14352778D01*
X6093633Y14420356D01*
X6179644Y14506367D01*
X6247222Y14607504D01*
X6293770Y14719882D01*
X6317500Y14839182D01*
X6317500Y14960818D01*
X6293770Y15080118D01*
X6247222Y15192496D01*
X6179644Y15293633D01*
X6093633Y15379644D01*
X5992496Y15447222D01*
X5880118Y15493770D01*
X5760818Y15517500D01*
X5639182Y15517500D01*
X5519882Y15493770D01*
X5407504Y15447222D01*
X5306367Y15379644D01*
X5220356Y15293633D01*
X5152778Y15192496D01*
X5106230Y15080118D01*
X5082500Y14960818D01*
X-2098429Y14960818D01*
X-2120356Y14993633D01*
X-2206367Y15079644D01*
X-2307504Y15147222D01*
X-2419882Y15193770D01*
X-2539182Y15217500D01*
X-2660818Y15217500D01*
X-2780118Y15193770D01*
X-2892496Y15147222D01*
X-2993633Y15079644D01*
X-3079644Y14993633D01*
X-3147222Y14892496D01*
X-3193770Y14780118D01*
X-3217500Y14660818D01*
X-8982500Y14660818D01*
X-9006230Y14780118D01*
X-9052778Y14892496D01*
X-9120356Y14993633D01*
X-9206367Y15079644D01*
X-9307504Y15147222D01*
X-9419882Y15193770D01*
X-9539182Y15217500D01*
X-9660818Y15217500D01*
X-9780118Y15193770D01*
X-9892496Y15147222D01*
X-9993633Y15079644D01*
X-10079644Y14993633D01*
X-10147222Y14892496D01*
X-10193770Y14780118D01*
X-10217500Y14660818D01*
X-25132500Y14660818D01*
X-25132500Y16186500D01*
X-500000Y16186500D01*
X-487795Y16187684D01*
X-475872Y16191262D01*
X-464877Y16197098D01*
X-455231Y16204967D01*
X-447306Y16214566D01*
X-441405Y16225527D01*
X-437757Y16237429D01*
X-436500Y16249813D01*
X-432349Y17660818D01*
X10282500Y17660818D01*
X10282500Y17539182D01*
X10306230Y17419882D01*
X10352778Y17307504D01*
X10420356Y17206367D01*
X10506367Y17120356D01*
X10607504Y17052778D01*
X10719882Y17006230D01*
X10839182Y16982500D01*
X10960818Y16982500D01*
X11080118Y17006230D01*
X11192496Y17052778D01*
X11293633Y17120356D01*
X11379644Y17206367D01*
X11447222Y17307504D01*
X11493770Y17419882D01*
X11517500Y17539182D01*
X11517500Y17660818D01*
X11493770Y17780118D01*
X11447222Y17892496D01*
X11379644Y17993633D01*
X11293633Y18079644D01*
X11192496Y18147222D01*
X11080118Y18193770D01*
X10960818Y18217500D01*
X10839182Y18217500D01*
X10719882Y18193770D01*
X10607504Y18147222D01*
X10506367Y18079644D01*
X10420356Y17993633D01*
X10352778Y17892496D01*
X10306230Y17780118D01*
X10282500Y17660818D01*
X-432349Y17660818D01*
X-429406Y18660818D01*
X5982500Y18660818D01*
X5982500Y18539182D01*
X6006230Y18419882D01*
X6052778Y18307504D01*
X6120356Y18206367D01*
X6206367Y18120356D01*
X6307504Y18052778D01*
X6419882Y18006230D01*
X6539182Y17982500D01*
X6660818Y17982500D01*
X6780118Y18006230D01*
X6892496Y18052778D01*
X6993633Y18120356D01*
X7079644Y18206367D01*
X7147222Y18307504D01*
X7193770Y18419882D01*
X7217500Y18539182D01*
X7217500Y18660818D01*
X7193770Y18780118D01*
X7147222Y18892496D01*
X7079644Y18993633D01*
X6993633Y19079644D01*
X6892496Y19147222D01*
X6780118Y19193770D01*
X6660818Y19217500D01*
X6539182Y19217500D01*
X6419882Y19193770D01*
X6307504Y19147222D01*
X6206367Y19079644D01*
X6120356Y18993633D01*
X6052778Y18892496D01*
X6006230Y18780118D01*
X5982500Y18660818D01*
X-429406Y18660818D01*
X-427532Y19297952D01*
X18032500Y19297952D01*
X18032500Y18802048D01*
X18129246Y18315672D01*
X18319021Y17857517D01*
X18594530Y17445187D01*
X18945187Y17094530D01*
X19357517Y16819021D01*
X19815672Y16629246D01*
X20302048Y16532500D01*
X20797952Y16532500D01*
X21284328Y16629246D01*
X21742483Y16819021D01*
X22154813Y17094530D01*
X22505470Y17445187D01*
X22780979Y17857517D01*
X22970754Y18315672D01*
X23067500Y18802048D01*
X23067500Y19297952D01*
X22970754Y19784328D01*
X22780979Y20242483D01*
X22505470Y20654813D01*
X22154813Y21005470D01*
X21742483Y21280979D01*
X21284328Y21470754D01*
X20797952Y21567500D01*
X20302048Y21567500D01*
X19815672Y21470754D01*
X19357517Y21280979D01*
X18945187Y21005470D01*
X18594530Y20654813D01*
X18319021Y20242483D01*
X18129246Y19784328D01*
X18032500Y19297952D01*
X-427532Y19297952D01*
X-414776Y23632500D01*
X20533634Y23632500D01*
X21361231Y23558639D01*
G37*
G04 #@! TD.AperFunction*
D22*
X12332711Y8241654D02*
X12493626Y8224549D01*
X12654786Y8239166D01*
X12775132Y8274661D01*
X12741654Y8167289D01*
X12724549Y8006374D01*
X12739166Y7845214D01*
X12774661Y7724868D01*
X12667289Y7758346D01*
X12506374Y7775451D01*
X12345214Y7760834D01*
X12224868Y7725339D01*
X12258346Y7832711D01*
X12275451Y7993626D01*
X12260834Y8154786D01*
X12225339Y8275132D01*
X12332711Y8241654D01*
G04 #@! TA.AperFunction,Conductor*
D23*
G36*
X12332711Y8241654D02*
G01*
X12493626Y8224549D01*
X12654786Y8239166D01*
X12775132Y8274661D01*
X12741654Y8167289D01*
X12724549Y8006374D01*
X12739166Y7845214D01*
X12774661Y7724868D01*
X12667289Y7758346D01*
X12506374Y7775451D01*
X12345214Y7760834D01*
X12224868Y7725339D01*
X12258346Y7832711D01*
X12275451Y7993626D01*
X12260834Y8154786D01*
X12225339Y8275132D01*
X12332711Y8241654D01*
G37*
G04 #@! TD.AperFunction*
M02*
