M48
; DRILL file {KiCad (5.1.7)-1} date 04/06/21 08:46:47
; FORMAT={-:-/ absolute / inch / decimal}
; #@! TF.CreationDate,2021-04-06T08:46:47-07:00
; #@! TF.GenerationSoftware,Kicad,Pcbnew,(5.1.7)-1
FMAT,2
INCH
T1C0.0079
T2C0.0118
T3C0.0236
T4C0.0276
T5C0.0335
T6C0.0350
T7C0.0354
T8C0.0390
T9C0.0512
T10C0.0630
T11C0.0866
T12C0.1280
%
G90
G05
T1
X0.4508Y0.3563
X0.4508Y0.315
X0.4508Y0.2736
X0.4921Y0.3563
X0.4921Y0.315
X0.4921Y0.2736
X0.5335Y0.3563
X0.5335Y0.315
X0.5335Y0.2736
T2
X-0.8346Y0.5866
X-0.8346Y0.5354
X-0.8346Y0.1358
X-0.8346Y0.0866
X-0.8346Y0.0354
X-0.8071Y0.1102
X-0.7913Y0.0354
X-0.7559Y-0.0276
X-0.7441Y0.2638
X-0.689Y0.3543
X-0.689Y0.315
X-0.689Y0.2756
X-0.689Y0.2362
X-0.6496Y0.3346
X-0.6496Y0.2953
X-0.6496Y0.2559
X-0.6496Y0.2165
X-0.6181Y0.1496
X-0.5925Y-0.8287
X-0.5906Y0.3346
X-0.5906Y0.2953
X-0.5906Y0.2559
X-0.5906Y0.2165
X-0.5709Y0.1102
X-0.5512Y0.3543
X-0.5512Y0.315
X-0.5512Y0.2756
X-0.5512Y0.2362
X-0.5118Y-0.1969
X-0.4291Y0.1181
X-0.378Y0.5748
X-0.3543Y-0.7087
X-0.3268Y0.185
X-0.3228Y0.0787
X-0.3189Y0.5866
X-0.2913Y-0.6929
X-0.248Y-0.1929
X-0.248Y-0.315
X-0.2165Y-0.6929
X-0.2087Y-0.8346
X-0.1732Y-0.0984
X-0.1693Y0.4173
X-0.1575Y0.2874
X-0.126Y-0.7244
X-0.126Y-0.7874
X-0.1024Y0.5748
X-0.0984Y-0.0551
X-0.0906Y0.3425
X-0.0906Y0.252
X-0.0866Y0.4843
X-0.0866Y0.4528
X-0.0787Y0.374
X-0.063Y0.2244
X-0.0551Y0.0906
X-0.0443Y-0.4829
X-0.0394Y-0.7244
X-0.0394Y-0.7874
X-0.0354Y-0.322
X-0.0315Y0.1102
X0.0118Y0.4016
X0.0197Y0.4961
X0.0354Y-0.7283
X0.0354Y-0.7835
X0.0512Y-0.5669
X0.0748Y-0.2756
X0.0787Y-0.7008
X0.0906Y0.0079
X0.0984Y0.8937
X0.1142Y-0.0512
X0.1811Y-0.0748
X0.2126Y0.1496
X0.2244Y0.5866
X0.2283Y0.4173
X0.2598Y0.7323
X0.2953Y-0.1496
X0.3307Y0.0079
X0.3386Y0.1575
X0.3465Y0.7677
X0.358Y0.4761
X0.374Y0.3456
X0.374Y0.2874
X0.374Y0.2559
X0.374Y0.2244
X0.374Y0.3169
X0.4291Y0.7323
X0.4291Y0.6929
X0.4449Y-0.1496
X0.4606Y0.5157
X0.4843Y-0.1457
X0.4961Y0.5197
X0.5236Y0.4803
X0.5236Y-0.0472
X0.5236Y-0.1457
X0.563Y0.4803
X0.5709Y0.563
X0.5984Y0.5433
X0.6299Y0.3465
X0.6378Y0.5787
X0.6378Y0.5433
X0.6496Y0.0709
X0.6575Y0.252
X0.6575Y0.2126
X0.6969Y-0.0512
X0.726Y0.4197
X0.7402Y0.1654
X0.7874Y0.1654
X0.8268Y-0.315
T4
X-0.4843Y-0.374
X-0.4843Y-0.424
X-0.4343Y-0.374
X-0.4343Y-0.424
X-0.3843Y-0.374
X-0.3843Y-0.424
X-0.3343Y-0.374
X-0.3343Y-0.424
X-0.2843Y-0.374
X-0.2843Y-0.424
T5
X-0.4902Y-0.783
X-0.2933Y-0.783
T6
X0.2417Y-0.7575
X0.3417Y-0.6976
X0.6398Y-0.7575
X0.7398Y-0.6976
T7
X0.3157Y-0.315
X0.3657Y-0.215
X0.4157Y-0.315
X0.4657Y-0.215
X0.5157Y-0.315
X0.5657Y-0.215
X0.6157Y-0.315
X0.6657Y-0.215
T8
X-0.8937Y-0.2677
X-0.8937Y-0.4449
T9
X-0.7957Y-0.2181
X-0.7957Y-0.4941
T10
X0.1846Y-0.4445
X0.7969Y-0.4445
T11
X-0.8091Y-0.75
X0.8091Y0.75
T12
X0.2657Y-0.5646
X0.7157Y-0.5646
T3
G00X-0.5295Y-0.9031
M15
G01X-0.5295Y-0.8755
M16
G05
G00X-0.2539Y-0.8755
M15
G01X-0.2539Y-0.9031
M16
G05
T0
M30
