G04 #@! TF.GenerationSoftware,KiCad,Pcbnew,(5.1.7)-1*
G04 #@! TF.CreationDate,2021-04-06T08:46:45-07:00*
G04 #@! TF.ProjectId,EsperDNS,45737065-7244-44e5-932e-6b696361645f,rev?*
G04 #@! TF.SameCoordinates,Original*
G04 #@! TF.FileFunction,Paste,Top*
G04 #@! TF.FilePolarity,Positive*
%FSLAX46Y46*%
G04 Gerber Fmt 4.6, Leading zero omitted, Abs format (unit mm)*
G04 Created by KiCad (PCBNEW (5.1.7)-1) date 2021-04-06 08:46:45*
%MOMM*%
%LPD*%
G01*
G04 APERTURE LIST*
%ADD10R,1.500000X1.900000*%
%ADD11R,0.400000X1.350000*%
%ADD12R,2.000000X0.900000*%
%ADD13R,0.900000X2.000000*%
%ADD14R,5.000000X5.000000*%
%ADD15R,1.500000X2.000000*%
%ADD16R,3.800000X2.000000*%
%ADD17R,0.900000X0.800000*%
%ADD18R,0.700000X1.300000*%
G04 APERTURE END LIST*
D10*
X-10950000Y-22587500D03*
D11*
X-9950000Y-19887500D03*
X-9300000Y-19887500D03*
X-8650000Y-19887500D03*
X-11250000Y-19887500D03*
X-10600000Y-19887500D03*
D10*
X-8950000Y-22587500D03*
G36*
G01*
X250000Y-7475000D02*
X250000Y-6525000D01*
G75*
G02*
X500000Y-6275000I250000J0D01*
G01*
X1000000Y-6275000D01*
G75*
G02*
X1250000Y-6525000I0J-250000D01*
G01*
X1250000Y-7475000D01*
G75*
G02*
X1000000Y-7725000I-250000J0D01*
G01*
X500000Y-7725000D01*
G75*
G02*
X250000Y-7475000I0J250000D01*
G01*
G37*
G36*
G01*
X-1650000Y-7475000D02*
X-1650000Y-6525000D01*
G75*
G02*
X-1400000Y-6275000I250000J0D01*
G01*
X-900000Y-6275000D01*
G75*
G02*
X-650000Y-6525000I0J-250000D01*
G01*
X-650000Y-7475000D01*
G75*
G02*
X-900000Y-7725000I-250000J0D01*
G01*
X-1400000Y-7725000D01*
G75*
G02*
X-1650000Y-7475000I0J250000D01*
G01*
G37*
G36*
G01*
X275000Y-14075000D02*
X275000Y-13125000D01*
G75*
G02*
X525000Y-12875000I250000J0D01*
G01*
X1025000Y-12875000D01*
G75*
G02*
X1275000Y-13125000I0J-250000D01*
G01*
X1275000Y-14075000D01*
G75*
G02*
X1025000Y-14325000I-250000J0D01*
G01*
X525000Y-14325000D01*
G75*
G02*
X275000Y-14075000I0J250000D01*
G01*
G37*
G36*
G01*
X-1625000Y-14075000D02*
X-1625000Y-13125000D01*
G75*
G02*
X-1375000Y-12875000I250000J0D01*
G01*
X-875000Y-12875000D01*
G75*
G02*
X-625000Y-13125000I0J-250000D01*
G01*
X-625000Y-14075000D01*
G75*
G02*
X-875000Y-14325000I-250000J0D01*
G01*
X-1375000Y-14325000D01*
G75*
G02*
X-1625000Y-14075000I0J250000D01*
G01*
G37*
G36*
G01*
X19075000Y2735000D02*
X18525000Y2735000D01*
G75*
G02*
X18325000Y2935000I0J200000D01*
G01*
X18325000Y3335000D01*
G75*
G02*
X18525000Y3535000I200000J0D01*
G01*
X19075000Y3535000D01*
G75*
G02*
X19275000Y3335000I0J-200000D01*
G01*
X19275000Y2935000D01*
G75*
G02*
X19075000Y2735000I-200000J0D01*
G01*
G37*
G36*
G01*
X19075000Y1085000D02*
X18525000Y1085000D01*
G75*
G02*
X18325000Y1285000I0J200000D01*
G01*
X18325000Y1685000D01*
G75*
G02*
X18525000Y1885000I200000J0D01*
G01*
X19075000Y1885000D01*
G75*
G02*
X19275000Y1685000I0J-200000D01*
G01*
X19275000Y1285000D01*
G75*
G02*
X19075000Y1085000I-200000J0D01*
G01*
G37*
G36*
G01*
X20125000Y1875000D02*
X20675000Y1875000D01*
G75*
G02*
X20875000Y1675000I0J-200000D01*
G01*
X20875000Y1275000D01*
G75*
G02*
X20675000Y1075000I-200000J0D01*
G01*
X20125000Y1075000D01*
G75*
G02*
X19925000Y1275000I0J200000D01*
G01*
X19925000Y1675000D01*
G75*
G02*
X20125000Y1875000I200000J0D01*
G01*
G37*
G36*
G01*
X20125000Y3525000D02*
X20675000Y3525000D01*
G75*
G02*
X20875000Y3325000I0J-200000D01*
G01*
X20875000Y2925000D01*
G75*
G02*
X20675000Y2725000I-200000J0D01*
G01*
X20125000Y2725000D01*
G75*
G02*
X19925000Y2925000I0J200000D01*
G01*
X19925000Y3325000D01*
G75*
G02*
X20125000Y3525000I200000J0D01*
G01*
G37*
G36*
G01*
X-1281250Y-10825000D02*
X-518750Y-10825000D01*
G75*
G02*
X-300000Y-11043750I0J-218750D01*
G01*
X-300000Y-11481250D01*
G75*
G02*
X-518750Y-11700000I-218750J0D01*
G01*
X-1281250Y-11700000D01*
G75*
G02*
X-1500000Y-11481250I0J218750D01*
G01*
X-1500000Y-11043750D01*
G75*
G02*
X-1281250Y-10825000I218750J0D01*
G01*
G37*
G36*
G01*
X-1281250Y-8700000D02*
X-518750Y-8700000D01*
G75*
G02*
X-300000Y-8918750I0J-218750D01*
G01*
X-300000Y-9356250D01*
G75*
G02*
X-518750Y-9575000I-218750J0D01*
G01*
X-1281250Y-9575000D01*
G75*
G02*
X-1500000Y-9356250I0J218750D01*
G01*
X-1500000Y-8918750D01*
G75*
G02*
X-1281250Y-8700000I218750J0D01*
G01*
G37*
G36*
G01*
X-3940000Y2385000D02*
X-3940000Y2015000D01*
G75*
G02*
X-4075000Y1880000I-135000J0D01*
G01*
X-4345000Y1880000D01*
G75*
G02*
X-4480000Y2015000I0J135000D01*
G01*
X-4480000Y2385000D01*
G75*
G02*
X-4345000Y2520000I135000J0D01*
G01*
X-4075000Y2520000D01*
G75*
G02*
X-3940000Y2385000I0J-135000D01*
G01*
G37*
G36*
G01*
X-2920000Y2385000D02*
X-2920000Y2015000D01*
G75*
G02*
X-3055000Y1880000I-135000J0D01*
G01*
X-3325000Y1880000D01*
G75*
G02*
X-3460000Y2015000I0J135000D01*
G01*
X-3460000Y2385000D01*
G75*
G02*
X-3325000Y2520000I135000J0D01*
G01*
X-3055000Y2520000D01*
G75*
G02*
X-2920000Y2385000I0J-135000D01*
G01*
G37*
G36*
G01*
X12415000Y8965000D02*
X12415000Y8335000D01*
G75*
G02*
X12165000Y8085000I-250000J0D01*
G01*
X11535000Y8085000D01*
G75*
G02*
X11285000Y8335000I0J250000D01*
G01*
X11285000Y8965000D01*
G75*
G02*
X11535000Y9215000I250000J0D01*
G01*
X12165000Y9215000D01*
G75*
G02*
X12415000Y8965000I0J-250000D01*
G01*
G37*
G36*
G01*
X12415000Y7665000D02*
X12415000Y7035000D01*
G75*
G02*
X12165000Y6785000I-250000J0D01*
G01*
X11535000Y6785000D01*
G75*
G02*
X11285000Y7035000I0J250000D01*
G01*
X11285000Y7665000D01*
G75*
G02*
X11535000Y7915000I250000J0D01*
G01*
X12165000Y7915000D01*
G75*
G02*
X12415000Y7665000I0J-250000D01*
G01*
G37*
G36*
G01*
X13715000Y8965000D02*
X13715000Y8335000D01*
G75*
G02*
X13465000Y8085000I-250000J0D01*
G01*
X12835000Y8085000D01*
G75*
G02*
X12585000Y8335000I0J250000D01*
G01*
X12585000Y8965000D01*
G75*
G02*
X12835000Y9215000I250000J0D01*
G01*
X13465000Y9215000D01*
G75*
G02*
X13715000Y8965000I0J-250000D01*
G01*
G37*
G36*
G01*
X13715000Y7665000D02*
X13715000Y7035000D01*
G75*
G02*
X13465000Y6785000I-250000J0D01*
G01*
X12835000Y6785000D01*
G75*
G02*
X12585000Y7035000I0J250000D01*
G01*
X12585000Y7665000D01*
G75*
G02*
X12835000Y7915000I250000J0D01*
G01*
X13465000Y7915000D01*
G75*
G02*
X13715000Y7665000I0J-250000D01*
G01*
G37*
G36*
G01*
X13875000Y6412500D02*
X13875000Y5712500D01*
G75*
G02*
X13812500Y5650000I-62500J0D01*
G01*
X13687500Y5650000D01*
G75*
G02*
X13625000Y5712500I0J62500D01*
G01*
X13625000Y6412500D01*
G75*
G02*
X13687500Y6475000I62500J0D01*
G01*
X13812500Y6475000D01*
G75*
G02*
X13875000Y6412500I0J-62500D01*
G01*
G37*
G36*
G01*
X13375000Y6412500D02*
X13375000Y5712500D01*
G75*
G02*
X13312500Y5650000I-62500J0D01*
G01*
X13187500Y5650000D01*
G75*
G02*
X13125000Y5712500I0J62500D01*
G01*
X13125000Y6412500D01*
G75*
G02*
X13187500Y6475000I62500J0D01*
G01*
X13312500Y6475000D01*
G75*
G02*
X13375000Y6412500I0J-62500D01*
G01*
G37*
G36*
G01*
X12875000Y6412500D02*
X12875000Y5712500D01*
G75*
G02*
X12812500Y5650000I-62500J0D01*
G01*
X12687500Y5650000D01*
G75*
G02*
X12625000Y5712500I0J62500D01*
G01*
X12625000Y6412500D01*
G75*
G02*
X12687500Y6475000I62500J0D01*
G01*
X12812500Y6475000D01*
G75*
G02*
X12875000Y6412500I0J-62500D01*
G01*
G37*
G36*
G01*
X12375000Y6412500D02*
X12375000Y5712500D01*
G75*
G02*
X12312500Y5650000I-62500J0D01*
G01*
X12187500Y5650000D01*
G75*
G02*
X12125000Y5712500I0J62500D01*
G01*
X12125000Y6412500D01*
G75*
G02*
X12187500Y6475000I62500J0D01*
G01*
X12312500Y6475000D01*
G75*
G02*
X12375000Y6412500I0J-62500D01*
G01*
G37*
G36*
G01*
X11875000Y6412500D02*
X11875000Y5712500D01*
G75*
G02*
X11812500Y5650000I-62500J0D01*
G01*
X11687500Y5650000D01*
G75*
G02*
X11625000Y5712500I0J62500D01*
G01*
X11625000Y6412500D01*
G75*
G02*
X11687500Y6475000I62500J0D01*
G01*
X11812500Y6475000D01*
G75*
G02*
X11875000Y6412500I0J-62500D01*
G01*
G37*
G36*
G01*
X11375000Y6412500D02*
X11375000Y5712500D01*
G75*
G02*
X11312500Y5650000I-62500J0D01*
G01*
X11187500Y5650000D01*
G75*
G02*
X11125000Y5712500I0J62500D01*
G01*
X11125000Y6412500D01*
G75*
G02*
X11187500Y6475000I62500J0D01*
G01*
X11312500Y6475000D01*
G75*
G02*
X11375000Y6412500I0J-62500D01*
G01*
G37*
G36*
G01*
X10975000Y6812500D02*
X10975000Y6687500D01*
G75*
G02*
X10912500Y6625000I-62500J0D01*
G01*
X10212500Y6625000D01*
G75*
G02*
X10150000Y6687500I0J62500D01*
G01*
X10150000Y6812500D01*
G75*
G02*
X10212500Y6875000I62500J0D01*
G01*
X10912500Y6875000D01*
G75*
G02*
X10975000Y6812500I0J-62500D01*
G01*
G37*
G36*
G01*
X10975000Y7312500D02*
X10975000Y7187500D01*
G75*
G02*
X10912500Y7125000I-62500J0D01*
G01*
X10212500Y7125000D01*
G75*
G02*
X10150000Y7187500I0J62500D01*
G01*
X10150000Y7312500D01*
G75*
G02*
X10212500Y7375000I62500J0D01*
G01*
X10912500Y7375000D01*
G75*
G02*
X10975000Y7312500I0J-62500D01*
G01*
G37*
G36*
G01*
X10975000Y7812500D02*
X10975000Y7687500D01*
G75*
G02*
X10912500Y7625000I-62500J0D01*
G01*
X10212500Y7625000D01*
G75*
G02*
X10150000Y7687500I0J62500D01*
G01*
X10150000Y7812500D01*
G75*
G02*
X10212500Y7875000I62500J0D01*
G01*
X10912500Y7875000D01*
G75*
G02*
X10975000Y7812500I0J-62500D01*
G01*
G37*
G36*
G01*
X10975000Y8312500D02*
X10975000Y8187500D01*
G75*
G02*
X10912500Y8125000I-62500J0D01*
G01*
X10212500Y8125000D01*
G75*
G02*
X10150000Y8187500I0J62500D01*
G01*
X10150000Y8312500D01*
G75*
G02*
X10212500Y8375000I62500J0D01*
G01*
X10912500Y8375000D01*
G75*
G02*
X10975000Y8312500I0J-62500D01*
G01*
G37*
G36*
G01*
X10975000Y8812500D02*
X10975000Y8687500D01*
G75*
G02*
X10912500Y8625000I-62500J0D01*
G01*
X10212500Y8625000D01*
G75*
G02*
X10150000Y8687500I0J62500D01*
G01*
X10150000Y8812500D01*
G75*
G02*
X10212500Y8875000I62500J0D01*
G01*
X10912500Y8875000D01*
G75*
G02*
X10975000Y8812500I0J-62500D01*
G01*
G37*
G36*
G01*
X10975000Y9312500D02*
X10975000Y9187500D01*
G75*
G02*
X10912500Y9125000I-62500J0D01*
G01*
X10212500Y9125000D01*
G75*
G02*
X10150000Y9187500I0J62500D01*
G01*
X10150000Y9312500D01*
G75*
G02*
X10212500Y9375000I62500J0D01*
G01*
X10912500Y9375000D01*
G75*
G02*
X10975000Y9312500I0J-62500D01*
G01*
G37*
G36*
G01*
X11375000Y10287500D02*
X11375000Y9587500D01*
G75*
G02*
X11312500Y9525000I-62500J0D01*
G01*
X11187500Y9525000D01*
G75*
G02*
X11125000Y9587500I0J62500D01*
G01*
X11125000Y10287500D01*
G75*
G02*
X11187500Y10350000I62500J0D01*
G01*
X11312500Y10350000D01*
G75*
G02*
X11375000Y10287500I0J-62500D01*
G01*
G37*
G36*
G01*
X11875000Y10287500D02*
X11875000Y9587500D01*
G75*
G02*
X11812500Y9525000I-62500J0D01*
G01*
X11687500Y9525000D01*
G75*
G02*
X11625000Y9587500I0J62500D01*
G01*
X11625000Y10287500D01*
G75*
G02*
X11687500Y10350000I62500J0D01*
G01*
X11812500Y10350000D01*
G75*
G02*
X11875000Y10287500I0J-62500D01*
G01*
G37*
G36*
G01*
X12375000Y10287500D02*
X12375000Y9587500D01*
G75*
G02*
X12312500Y9525000I-62500J0D01*
G01*
X12187500Y9525000D01*
G75*
G02*
X12125000Y9587500I0J62500D01*
G01*
X12125000Y10287500D01*
G75*
G02*
X12187500Y10350000I62500J0D01*
G01*
X12312500Y10350000D01*
G75*
G02*
X12375000Y10287500I0J-62500D01*
G01*
G37*
G36*
G01*
X12875000Y10287500D02*
X12875000Y9587500D01*
G75*
G02*
X12812500Y9525000I-62500J0D01*
G01*
X12687500Y9525000D01*
G75*
G02*
X12625000Y9587500I0J62500D01*
G01*
X12625000Y10287500D01*
G75*
G02*
X12687500Y10350000I62500J0D01*
G01*
X12812500Y10350000D01*
G75*
G02*
X12875000Y10287500I0J-62500D01*
G01*
G37*
G36*
G01*
X13375000Y10287500D02*
X13375000Y9587500D01*
G75*
G02*
X13312500Y9525000I-62500J0D01*
G01*
X13187500Y9525000D01*
G75*
G02*
X13125000Y9587500I0J62500D01*
G01*
X13125000Y10287500D01*
G75*
G02*
X13187500Y10350000I62500J0D01*
G01*
X13312500Y10350000D01*
G75*
G02*
X13375000Y10287500I0J-62500D01*
G01*
G37*
G36*
G01*
X13875000Y10287500D02*
X13875000Y9587500D01*
G75*
G02*
X13812500Y9525000I-62500J0D01*
G01*
X13687500Y9525000D01*
G75*
G02*
X13625000Y9587500I0J62500D01*
G01*
X13625000Y10287500D01*
G75*
G02*
X13687500Y10350000I62500J0D01*
G01*
X13812500Y10350000D01*
G75*
G02*
X13875000Y10287500I0J-62500D01*
G01*
G37*
G36*
G01*
X14850000Y9312500D02*
X14850000Y9187500D01*
G75*
G02*
X14787500Y9125000I-62500J0D01*
G01*
X14087500Y9125000D01*
G75*
G02*
X14025000Y9187500I0J62500D01*
G01*
X14025000Y9312500D01*
G75*
G02*
X14087500Y9375000I62500J0D01*
G01*
X14787500Y9375000D01*
G75*
G02*
X14850000Y9312500I0J-62500D01*
G01*
G37*
G36*
G01*
X14850000Y8812500D02*
X14850000Y8687500D01*
G75*
G02*
X14787500Y8625000I-62500J0D01*
G01*
X14087500Y8625000D01*
G75*
G02*
X14025000Y8687500I0J62500D01*
G01*
X14025000Y8812500D01*
G75*
G02*
X14087500Y8875000I62500J0D01*
G01*
X14787500Y8875000D01*
G75*
G02*
X14850000Y8812500I0J-62500D01*
G01*
G37*
G36*
G01*
X14850000Y8312500D02*
X14850000Y8187500D01*
G75*
G02*
X14787500Y8125000I-62500J0D01*
G01*
X14087500Y8125000D01*
G75*
G02*
X14025000Y8187500I0J62500D01*
G01*
X14025000Y8312500D01*
G75*
G02*
X14087500Y8375000I62500J0D01*
G01*
X14787500Y8375000D01*
G75*
G02*
X14850000Y8312500I0J-62500D01*
G01*
G37*
G36*
G01*
X14850000Y7812500D02*
X14850000Y7687500D01*
G75*
G02*
X14787500Y7625000I-62500J0D01*
G01*
X14087500Y7625000D01*
G75*
G02*
X14025000Y7687500I0J62500D01*
G01*
X14025000Y7812500D01*
G75*
G02*
X14087500Y7875000I62500J0D01*
G01*
X14787500Y7875000D01*
G75*
G02*
X14850000Y7812500I0J-62500D01*
G01*
G37*
G36*
G01*
X14850000Y7312500D02*
X14850000Y7187500D01*
G75*
G02*
X14787500Y7125000I-62500J0D01*
G01*
X14087500Y7125000D01*
G75*
G02*
X14025000Y7187500I0J62500D01*
G01*
X14025000Y7312500D01*
G75*
G02*
X14087500Y7375000I62500J0D01*
G01*
X14787500Y7375000D01*
G75*
G02*
X14850000Y7312500I0J-62500D01*
G01*
G37*
G36*
G01*
X14850000Y6812500D02*
X14850000Y6687500D01*
G75*
G02*
X14787500Y6625000I-62500J0D01*
G01*
X14087500Y6625000D01*
G75*
G02*
X14025000Y6687500I0J62500D01*
G01*
X14025000Y6812500D01*
G75*
G02*
X14087500Y6875000I62500J0D01*
G01*
X14787500Y6875000D01*
G75*
G02*
X14850000Y6812500I0J-62500D01*
G01*
G37*
D12*
X-6200000Y14900000D03*
X-6200000Y13630000D03*
X-6200000Y12360000D03*
X-6200000Y11090000D03*
X-6200000Y9820000D03*
X-6200000Y8550000D03*
X-6200000Y7280000D03*
X-6200000Y6010000D03*
X-6200000Y4740000D03*
X-6200000Y3470000D03*
X-6200000Y2200000D03*
X-6200000Y930000D03*
X-6200000Y-340000D03*
X-6200000Y-1610000D03*
D13*
X-8985000Y-2610000D03*
X-10255000Y-2610000D03*
X-11525000Y-2610000D03*
X-12795000Y-2610000D03*
X-14065000Y-2610000D03*
X-15335000Y-2610000D03*
X-16605000Y-2610000D03*
X-17875000Y-2610000D03*
X-19145000Y-2610000D03*
X-20415000Y-2610000D03*
D12*
X-23200000Y-1610000D03*
X-23200000Y-340000D03*
X-23200000Y930000D03*
X-23200000Y2200000D03*
X-23200000Y3470000D03*
X-23200000Y4740000D03*
X-23200000Y6010000D03*
X-23200000Y7280000D03*
X-23200000Y8550000D03*
X-23200000Y9820000D03*
X-23200000Y11090000D03*
X-23200000Y12360000D03*
X-23200000Y13630000D03*
X-23200000Y14900000D03*
D14*
X-15700000Y7400000D03*
D15*
X1300000Y-16000000D03*
X-3300000Y-16000000D03*
X-1000000Y-16000000D03*
D16*
X-1000000Y-22300000D03*
G36*
G01*
X8985000Y18340000D02*
X8615000Y18340000D01*
G75*
G02*
X8480000Y18475000I0J135000D01*
G01*
X8480000Y18745000D01*
G75*
G02*
X8615000Y18880000I135000J0D01*
G01*
X8985000Y18880000D01*
G75*
G02*
X9120000Y18745000I0J-135000D01*
G01*
X9120000Y18475000D01*
G75*
G02*
X8985000Y18340000I-135000J0D01*
G01*
G37*
G36*
G01*
X8985000Y17320000D02*
X8615000Y17320000D01*
G75*
G02*
X8480000Y17455000I0J135000D01*
G01*
X8480000Y17725000D01*
G75*
G02*
X8615000Y17860000I135000J0D01*
G01*
X8985000Y17860000D01*
G75*
G02*
X9120000Y17725000I0J-135000D01*
G01*
X9120000Y17455000D01*
G75*
G02*
X8985000Y17320000I-135000J0D01*
G01*
G37*
G36*
G01*
X17315000Y2060000D02*
X17685000Y2060000D01*
G75*
G02*
X17820000Y1925000I0J-135000D01*
G01*
X17820000Y1655000D01*
G75*
G02*
X17685000Y1520000I-135000J0D01*
G01*
X17315000Y1520000D01*
G75*
G02*
X17180000Y1655000I0J135000D01*
G01*
X17180000Y1925000D01*
G75*
G02*
X17315000Y2060000I135000J0D01*
G01*
G37*
G36*
G01*
X17315000Y3080000D02*
X17685000Y3080000D01*
G75*
G02*
X17820000Y2945000I0J-135000D01*
G01*
X17820000Y2675000D01*
G75*
G02*
X17685000Y2540000I-135000J0D01*
G01*
X17315000Y2540000D01*
G75*
G02*
X17180000Y2675000I0J135000D01*
G01*
X17180000Y2945000D01*
G75*
G02*
X17315000Y3080000I135000J0D01*
G01*
G37*
G36*
G01*
X11885000Y11950000D02*
X11515000Y11950000D01*
G75*
G02*
X11380000Y12085000I0J135000D01*
G01*
X11380000Y12355000D01*
G75*
G02*
X11515000Y12490000I135000J0D01*
G01*
X11885000Y12490000D01*
G75*
G02*
X12020000Y12355000I0J-135000D01*
G01*
X12020000Y12085000D01*
G75*
G02*
X11885000Y11950000I-135000J0D01*
G01*
G37*
G36*
G01*
X11885000Y10930000D02*
X11515000Y10930000D01*
G75*
G02*
X11380000Y11065000I0J135000D01*
G01*
X11380000Y11335000D01*
G75*
G02*
X11515000Y11470000I135000J0D01*
G01*
X11885000Y11470000D01*
G75*
G02*
X12020000Y11335000I0J-135000D01*
G01*
X12020000Y11065000D01*
G75*
G02*
X11885000Y10930000I-135000J0D01*
G01*
G37*
G36*
G01*
X16385000Y12650000D02*
X16015000Y12650000D01*
G75*
G02*
X15880000Y12785000I0J135000D01*
G01*
X15880000Y13055000D01*
G75*
G02*
X16015000Y13190000I135000J0D01*
G01*
X16385000Y13190000D01*
G75*
G02*
X16520000Y13055000I0J-135000D01*
G01*
X16520000Y12785000D01*
G75*
G02*
X16385000Y12650000I-135000J0D01*
G01*
G37*
G36*
G01*
X16385000Y11630000D02*
X16015000Y11630000D01*
G75*
G02*
X15880000Y11765000I0J135000D01*
G01*
X15880000Y12035000D01*
G75*
G02*
X16015000Y12170000I135000J0D01*
G01*
X16385000Y12170000D01*
G75*
G02*
X16520000Y12035000I0J-135000D01*
G01*
X16520000Y11765000D01*
G75*
G02*
X16385000Y11630000I-135000J0D01*
G01*
G37*
G36*
G01*
X15385000Y12650000D02*
X15015000Y12650000D01*
G75*
G02*
X14880000Y12785000I0J135000D01*
G01*
X14880000Y13055000D01*
G75*
G02*
X15015000Y13190000I135000J0D01*
G01*
X15385000Y13190000D01*
G75*
G02*
X15520000Y13055000I0J-135000D01*
G01*
X15520000Y12785000D01*
G75*
G02*
X15385000Y12650000I-135000J0D01*
G01*
G37*
G36*
G01*
X15385000Y11630000D02*
X15015000Y11630000D01*
G75*
G02*
X14880000Y11765000I0J135000D01*
G01*
X14880000Y12035000D01*
G75*
G02*
X15015000Y12170000I135000J0D01*
G01*
X15385000Y12170000D01*
G75*
G02*
X15520000Y12035000I0J-135000D01*
G01*
X15520000Y11765000D01*
G75*
G02*
X15385000Y11630000I-135000J0D01*
G01*
G37*
G36*
G01*
X15030000Y-2585000D02*
X15030000Y-2215000D01*
G75*
G02*
X15165000Y-2080000I135000J0D01*
G01*
X15435000Y-2080000D01*
G75*
G02*
X15570000Y-2215000I0J-135000D01*
G01*
X15570000Y-2585000D01*
G75*
G02*
X15435000Y-2720000I-135000J0D01*
G01*
X15165000Y-2720000D01*
G75*
G02*
X15030000Y-2585000I0J135000D01*
G01*
G37*
G36*
G01*
X14010000Y-2585000D02*
X14010000Y-2215000D01*
G75*
G02*
X14145000Y-2080000I135000J0D01*
G01*
X14415000Y-2080000D01*
G75*
G02*
X14550000Y-2215000I0J-135000D01*
G01*
X14550000Y-2585000D01*
G75*
G02*
X14415000Y-2720000I-135000J0D01*
G01*
X14145000Y-2720000D01*
G75*
G02*
X14010000Y-2585000I0J135000D01*
G01*
G37*
G36*
G01*
X16570000Y-2215000D02*
X16570000Y-2585000D01*
G75*
G02*
X16435000Y-2720000I-135000J0D01*
G01*
X16165000Y-2720000D01*
G75*
G02*
X16030000Y-2585000I0J135000D01*
G01*
X16030000Y-2215000D01*
G75*
G02*
X16165000Y-2080000I135000J0D01*
G01*
X16435000Y-2080000D01*
G75*
G02*
X16570000Y-2215000I0J-135000D01*
G01*
G37*
G36*
G01*
X17590000Y-2215000D02*
X17590000Y-2585000D01*
G75*
G02*
X17455000Y-2720000I-135000J0D01*
G01*
X17185000Y-2720000D01*
G75*
G02*
X17050000Y-2585000I0J135000D01*
G01*
X17050000Y-2215000D01*
G75*
G02*
X17185000Y-2080000I135000J0D01*
G01*
X17455000Y-2080000D01*
G75*
G02*
X17590000Y-2215000I0J-135000D01*
G01*
G37*
G36*
G01*
X9030000Y-2585000D02*
X9030000Y-2215000D01*
G75*
G02*
X9165000Y-2080000I135000J0D01*
G01*
X9435000Y-2080000D01*
G75*
G02*
X9570000Y-2215000I0J-135000D01*
G01*
X9570000Y-2585000D01*
G75*
G02*
X9435000Y-2720000I-135000J0D01*
G01*
X9165000Y-2720000D01*
G75*
G02*
X9030000Y-2585000I0J135000D01*
G01*
G37*
G36*
G01*
X8010000Y-2585000D02*
X8010000Y-2215000D01*
G75*
G02*
X8145000Y-2080000I135000J0D01*
G01*
X8415000Y-2080000D01*
G75*
G02*
X8550000Y-2215000I0J-135000D01*
G01*
X8550000Y-2585000D01*
G75*
G02*
X8415000Y-2720000I-135000J0D01*
G01*
X8145000Y-2720000D01*
G75*
G02*
X8010000Y-2585000I0J135000D01*
G01*
G37*
G36*
G01*
X10570000Y-2215000D02*
X10570000Y-2585000D01*
G75*
G02*
X10435000Y-2720000I-135000J0D01*
G01*
X10165000Y-2720000D01*
G75*
G02*
X10030000Y-2585000I0J135000D01*
G01*
X10030000Y-2215000D01*
G75*
G02*
X10165000Y-2080000I135000J0D01*
G01*
X10435000Y-2080000D01*
G75*
G02*
X10570000Y-2215000I0J-135000D01*
G01*
G37*
G36*
G01*
X11590000Y-2215000D02*
X11590000Y-2585000D01*
G75*
G02*
X11455000Y-2720000I-135000J0D01*
G01*
X11185000Y-2720000D01*
G75*
G02*
X11050000Y-2585000I0J135000D01*
G01*
X11050000Y-2215000D01*
G75*
G02*
X11185000Y-2080000I135000J0D01*
G01*
X11455000Y-2080000D01*
G75*
G02*
X11590000Y-2215000I0J-135000D01*
G01*
G37*
G36*
G01*
X4785000Y-170000D02*
X4415000Y-170000D01*
G75*
G02*
X4280000Y-35000I0J135000D01*
G01*
X4280000Y235000D01*
G75*
G02*
X4415000Y370000I135000J0D01*
G01*
X4785000Y370000D01*
G75*
G02*
X4920000Y235000I0J-135000D01*
G01*
X4920000Y-35000D01*
G75*
G02*
X4785000Y-170000I-135000J0D01*
G01*
G37*
G36*
G01*
X4785000Y-1190000D02*
X4415000Y-1190000D01*
G75*
G02*
X4280000Y-1055000I0J135000D01*
G01*
X4280000Y-785000D01*
G75*
G02*
X4415000Y-650000I135000J0D01*
G01*
X4785000Y-650000D01*
G75*
G02*
X4920000Y-785000I0J-135000D01*
G01*
X4920000Y-1055000D01*
G75*
G02*
X4785000Y-1190000I-135000J0D01*
G01*
G37*
G36*
G01*
X5985000Y-160000D02*
X5615000Y-160000D01*
G75*
G02*
X5480000Y-25000I0J135000D01*
G01*
X5480000Y245000D01*
G75*
G02*
X5615000Y380000I135000J0D01*
G01*
X5985000Y380000D01*
G75*
G02*
X6120000Y245000I0J-135000D01*
G01*
X6120000Y-25000D01*
G75*
G02*
X5985000Y-160000I-135000J0D01*
G01*
G37*
G36*
G01*
X5985000Y-1180000D02*
X5615000Y-1180000D01*
G75*
G02*
X5480000Y-1045000I0J135000D01*
G01*
X5480000Y-775000D01*
G75*
G02*
X5615000Y-640000I135000J0D01*
G01*
X5985000Y-640000D01*
G75*
G02*
X6120000Y-775000I0J-135000D01*
G01*
X6120000Y-1045000D01*
G75*
G02*
X5985000Y-1180000I-135000J0D01*
G01*
G37*
G36*
G01*
X7415000Y17850000D02*
X7785000Y17850000D01*
G75*
G02*
X7920000Y17715000I0J-135000D01*
G01*
X7920000Y17445000D01*
G75*
G02*
X7785000Y17310000I-135000J0D01*
G01*
X7415000Y17310000D01*
G75*
G02*
X7280000Y17445000I0J135000D01*
G01*
X7280000Y17715000D01*
G75*
G02*
X7415000Y17850000I135000J0D01*
G01*
G37*
G36*
G01*
X7415000Y18870000D02*
X7785000Y18870000D01*
G75*
G02*
X7920000Y18735000I0J-135000D01*
G01*
X7920000Y18465000D01*
G75*
G02*
X7785000Y18330000I-135000J0D01*
G01*
X7415000Y18330000D01*
G75*
G02*
X7280000Y18465000I0J135000D01*
G01*
X7280000Y18735000D01*
G75*
G02*
X7415000Y18870000I135000J0D01*
G01*
G37*
G36*
G01*
X-3470000Y12115000D02*
X-3470000Y12485000D01*
G75*
G02*
X-3335000Y12620000I135000J0D01*
G01*
X-3065000Y12620000D01*
G75*
G02*
X-2930000Y12485000I0J-135000D01*
G01*
X-2930000Y12115000D01*
G75*
G02*
X-3065000Y11980000I-135000J0D01*
G01*
X-3335000Y11980000D01*
G75*
G02*
X-3470000Y12115000I0J135000D01*
G01*
G37*
G36*
G01*
X-4490000Y12115000D02*
X-4490000Y12485000D01*
G75*
G02*
X-4355000Y12620000I135000J0D01*
G01*
X-4085000Y12620000D01*
G75*
G02*
X-3950000Y12485000I0J-135000D01*
G01*
X-3950000Y12115000D01*
G75*
G02*
X-4085000Y11980000I-135000J0D01*
G01*
X-4355000Y11980000D01*
G75*
G02*
X-4490000Y12115000I0J135000D01*
G01*
G37*
G36*
G01*
X-17315000Y-9110000D02*
X-17685000Y-9110000D01*
G75*
G02*
X-17820000Y-8975000I0J135000D01*
G01*
X-17820000Y-8705000D01*
G75*
G02*
X-17685000Y-8570000I135000J0D01*
G01*
X-17315000Y-8570000D01*
G75*
G02*
X-17180000Y-8705000I0J-135000D01*
G01*
X-17180000Y-8975000D01*
G75*
G02*
X-17315000Y-9110000I-135000J0D01*
G01*
G37*
G36*
G01*
X-17315000Y-10130000D02*
X-17685000Y-10130000D01*
G75*
G02*
X-17820000Y-9995000I0J135000D01*
G01*
X-17820000Y-9725000D01*
G75*
G02*
X-17685000Y-9590000I135000J0D01*
G01*
X-17315000Y-9590000D01*
G75*
G02*
X-17180000Y-9725000I0J-135000D01*
G01*
X-17180000Y-9995000D01*
G75*
G02*
X-17315000Y-10130000I-135000J0D01*
G01*
G37*
G36*
G01*
X-3460000Y8315000D02*
X-3460000Y8685000D01*
G75*
G02*
X-3325000Y8820000I135000J0D01*
G01*
X-3055000Y8820000D01*
G75*
G02*
X-2920000Y8685000I0J-135000D01*
G01*
X-2920000Y8315000D01*
G75*
G02*
X-3055000Y8180000I-135000J0D01*
G01*
X-3325000Y8180000D01*
G75*
G02*
X-3460000Y8315000I0J135000D01*
G01*
G37*
G36*
G01*
X-4480000Y8315000D02*
X-4480000Y8685000D01*
G75*
G02*
X-4345000Y8820000I135000J0D01*
G01*
X-4075000Y8820000D01*
G75*
G02*
X-3940000Y8685000I0J-135000D01*
G01*
X-3940000Y8315000D01*
G75*
G02*
X-4075000Y8180000I-135000J0D01*
G01*
X-4345000Y8180000D01*
G75*
G02*
X-4480000Y8315000I0J135000D01*
G01*
G37*
G36*
G01*
X-3470000Y5915000D02*
X-3470000Y6285000D01*
G75*
G02*
X-3335000Y6420000I135000J0D01*
G01*
X-3065000Y6420000D01*
G75*
G02*
X-2930000Y6285000I0J-135000D01*
G01*
X-2930000Y5915000D01*
G75*
G02*
X-3065000Y5780000I-135000J0D01*
G01*
X-3335000Y5780000D01*
G75*
G02*
X-3470000Y5915000I0J135000D01*
G01*
G37*
G36*
G01*
X-4490000Y5915000D02*
X-4490000Y6285000D01*
G75*
G02*
X-4355000Y6420000I135000J0D01*
G01*
X-4085000Y6420000D01*
G75*
G02*
X-3950000Y6285000I0J-135000D01*
G01*
X-3950000Y5915000D01*
G75*
G02*
X-4085000Y5780000I-135000J0D01*
G01*
X-4355000Y5780000D01*
G75*
G02*
X-4490000Y5915000I0J135000D01*
G01*
G37*
G36*
G01*
X-574998Y3287500D02*
X-1825002Y3287500D01*
G75*
G02*
X-2075000Y3537498I0J249998D01*
G01*
X-2075000Y4162502D01*
G75*
G02*
X-1825002Y4412500I249998J0D01*
G01*
X-574998Y4412500D01*
G75*
G02*
X-325000Y4162502I0J-249998D01*
G01*
X-325000Y3537498D01*
G75*
G02*
X-574998Y3287500I-249998J0D01*
G01*
G37*
G36*
G01*
X-574998Y362500D02*
X-1825002Y362500D01*
G75*
G02*
X-2075000Y612498I0J249998D01*
G01*
X-2075000Y1237502D01*
G75*
G02*
X-1825002Y1487500I249998J0D01*
G01*
X-574998Y1487500D01*
G75*
G02*
X-325000Y1237502I0J-249998D01*
G01*
X-325000Y612498D01*
G75*
G02*
X-574998Y362500I-249998J0D01*
G01*
G37*
G36*
G01*
X1125000Y2750000D02*
X575000Y2750000D01*
G75*
G02*
X375000Y2950000I0J200000D01*
G01*
X375000Y3350000D01*
G75*
G02*
X575000Y3550000I200000J0D01*
G01*
X1125000Y3550000D01*
G75*
G02*
X1325000Y3350000I0J-200000D01*
G01*
X1325000Y2950000D01*
G75*
G02*
X1125000Y2750000I-200000J0D01*
G01*
G37*
G36*
G01*
X1125000Y1100000D02*
X575000Y1100000D01*
G75*
G02*
X375000Y1300000I0J200000D01*
G01*
X375000Y1700000D01*
G75*
G02*
X575000Y1900000I200000J0D01*
G01*
X1125000Y1900000D01*
G75*
G02*
X1325000Y1700000I0J-200000D01*
G01*
X1325000Y1300000D01*
G75*
G02*
X1125000Y1100000I-200000J0D01*
G01*
G37*
G36*
G01*
X2775000Y2750000D02*
X2225000Y2750000D01*
G75*
G02*
X2025000Y2950000I0J200000D01*
G01*
X2025000Y3350000D01*
G75*
G02*
X2225000Y3550000I200000J0D01*
G01*
X2775000Y3550000D01*
G75*
G02*
X2975000Y3350000I0J-200000D01*
G01*
X2975000Y2950000D01*
G75*
G02*
X2775000Y2750000I-200000J0D01*
G01*
G37*
G36*
G01*
X2775000Y1100000D02*
X2225000Y1100000D01*
G75*
G02*
X2025000Y1300000I0J200000D01*
G01*
X2025000Y1700000D01*
G75*
G02*
X2225000Y1900000I200000J0D01*
G01*
X2775000Y1900000D01*
G75*
G02*
X2975000Y1700000I0J-200000D01*
G01*
X2975000Y1300000D01*
G75*
G02*
X2775000Y1100000I-200000J0D01*
G01*
G37*
G36*
G01*
X-5315000Y-5850000D02*
X-5685000Y-5850000D01*
G75*
G02*
X-5820000Y-5715000I0J135000D01*
G01*
X-5820000Y-5445000D01*
G75*
G02*
X-5685000Y-5310000I135000J0D01*
G01*
X-5315000Y-5310000D01*
G75*
G02*
X-5180000Y-5445000I0J-135000D01*
G01*
X-5180000Y-5715000D01*
G75*
G02*
X-5315000Y-5850000I-135000J0D01*
G01*
G37*
G36*
G01*
X-5315000Y-6870000D02*
X-5685000Y-6870000D01*
G75*
G02*
X-5820000Y-6735000I0J135000D01*
G01*
X-5820000Y-6465000D01*
G75*
G02*
X-5685000Y-6330000I135000J0D01*
G01*
X-5315000Y-6330000D01*
G75*
G02*
X-5180000Y-6465000I0J-135000D01*
G01*
X-5180000Y-6735000D01*
G75*
G02*
X-5315000Y-6870000I-135000J0D01*
G01*
G37*
G36*
G01*
X2735000Y17950000D02*
X2365000Y17950000D01*
G75*
G02*
X2230000Y18085000I0J135000D01*
G01*
X2230000Y18355000D01*
G75*
G02*
X2365000Y18490000I135000J0D01*
G01*
X2735000Y18490000D01*
G75*
G02*
X2870000Y18355000I0J-135000D01*
G01*
X2870000Y18085000D01*
G75*
G02*
X2735000Y17950000I-135000J0D01*
G01*
G37*
G36*
G01*
X2735000Y16930000D02*
X2365000Y16930000D01*
G75*
G02*
X2230000Y17065000I0J135000D01*
G01*
X2230000Y17335000D01*
G75*
G02*
X2365000Y17470000I135000J0D01*
G01*
X2735000Y17470000D01*
G75*
G02*
X2870000Y17335000I0J-135000D01*
G01*
X2870000Y17065000D01*
G75*
G02*
X2735000Y16930000I-135000J0D01*
G01*
G37*
D17*
X1500000Y13850000D03*
X-500000Y12900000D03*
X-500000Y14800000D03*
X1500000Y6600000D03*
X-500000Y5650000D03*
X-500000Y7550000D03*
X1500000Y10250000D03*
X-500000Y9300000D03*
X-500000Y11200000D03*
D18*
X1400000Y-4550000D03*
X300000Y-4550000D03*
X-800000Y-4550000D03*
X-800000Y-1450000D03*
X300000Y-1450000D03*
X1400000Y-1450000D03*
G36*
G01*
X2243750Y20312500D02*
X2756250Y20312500D01*
G75*
G02*
X2975000Y20093750I0J-218750D01*
G01*
X2975000Y19656250D01*
G75*
G02*
X2756250Y19437500I-218750J0D01*
G01*
X2243750Y19437500D01*
G75*
G02*
X2025000Y19656250I0J218750D01*
G01*
X2025000Y20093750D01*
G75*
G02*
X2243750Y20312500I218750J0D01*
G01*
G37*
G36*
G01*
X2243750Y21887500D02*
X2756250Y21887500D01*
G75*
G02*
X2975000Y21668750I0J-218750D01*
G01*
X2975000Y21231250D01*
G75*
G02*
X2756250Y21012500I-218750J0D01*
G01*
X2243750Y21012500D01*
G75*
G02*
X2025000Y21231250I0J218750D01*
G01*
X2025000Y21668750D01*
G75*
G02*
X2243750Y21887500I218750J0D01*
G01*
G37*
G36*
G01*
X12980000Y-2570000D02*
X12980000Y-2230000D01*
G75*
G02*
X13120000Y-2090000I140000J0D01*
G01*
X13400000Y-2090000D01*
G75*
G02*
X13540000Y-2230000I0J-140000D01*
G01*
X13540000Y-2570000D01*
G75*
G02*
X13400000Y-2710000I-140000J0D01*
G01*
X13120000Y-2710000D01*
G75*
G02*
X12980000Y-2570000I0J140000D01*
G01*
G37*
G36*
G01*
X12020000Y-2570000D02*
X12020000Y-2230000D01*
G75*
G02*
X12160000Y-2090000I140000J0D01*
G01*
X12440000Y-2090000D01*
G75*
G02*
X12580000Y-2230000I0J-140000D01*
G01*
X12580000Y-2570000D01*
G75*
G02*
X12440000Y-2710000I-140000J0D01*
G01*
X12160000Y-2710000D01*
G75*
G02*
X12020000Y-2570000I0J140000D01*
G01*
G37*
G36*
G01*
X17620000Y10380000D02*
X17280000Y10380000D01*
G75*
G02*
X17140000Y10520000I0J140000D01*
G01*
X17140000Y10800000D01*
G75*
G02*
X17280000Y10940000I140000J0D01*
G01*
X17620000Y10940000D01*
G75*
G02*
X17760000Y10800000I0J-140000D01*
G01*
X17760000Y10520000D01*
G75*
G02*
X17620000Y10380000I-140000J0D01*
G01*
G37*
G36*
G01*
X17620000Y9420000D02*
X17280000Y9420000D01*
G75*
G02*
X17140000Y9560000I0J140000D01*
G01*
X17140000Y9840000D01*
G75*
G02*
X17280000Y9980000I140000J0D01*
G01*
X17620000Y9980000D01*
G75*
G02*
X17760000Y9840000I0J-140000D01*
G01*
X17760000Y9560000D01*
G75*
G02*
X17620000Y9420000I-140000J0D01*
G01*
G37*
G36*
G01*
X16570000Y10380000D02*
X16230000Y10380000D01*
G75*
G02*
X16090000Y10520000I0J140000D01*
G01*
X16090000Y10800000D01*
G75*
G02*
X16230000Y10940000I140000J0D01*
G01*
X16570000Y10940000D01*
G75*
G02*
X16710000Y10800000I0J-140000D01*
G01*
X16710000Y10520000D01*
G75*
G02*
X16570000Y10380000I-140000J0D01*
G01*
G37*
G36*
G01*
X16570000Y9420000D02*
X16230000Y9420000D01*
G75*
G02*
X16090000Y9560000I0J140000D01*
G01*
X16090000Y9840000D01*
G75*
G02*
X16230000Y9980000I140000J0D01*
G01*
X16570000Y9980000D01*
G75*
G02*
X16710000Y9840000I0J-140000D01*
G01*
X16710000Y9560000D01*
G75*
G02*
X16570000Y9420000I-140000J0D01*
G01*
G37*
G36*
G01*
X13800000Y11080000D02*
X13800000Y11420000D01*
G75*
G02*
X13940000Y11560000I140000J0D01*
G01*
X14220000Y11560000D01*
G75*
G02*
X14360000Y11420000I0J-140000D01*
G01*
X14360000Y11080000D01*
G75*
G02*
X14220000Y10940000I-140000J0D01*
G01*
X13940000Y10940000D01*
G75*
G02*
X13800000Y11080000I0J140000D01*
G01*
G37*
G36*
G01*
X12840000Y11080000D02*
X12840000Y11420000D01*
G75*
G02*
X12980000Y11560000I140000J0D01*
G01*
X13260000Y11560000D01*
G75*
G02*
X13400000Y11420000I0J-140000D01*
G01*
X13400000Y11080000D01*
G75*
G02*
X13260000Y10940000I-140000J0D01*
G01*
X12980000Y10940000D01*
G75*
G02*
X12840000Y11080000I0J140000D01*
G01*
G37*
G36*
G01*
X10020000Y5020000D02*
X10020000Y4680000D01*
G75*
G02*
X9880000Y4540000I-140000J0D01*
G01*
X9600000Y4540000D01*
G75*
G02*
X9460000Y4680000I0J140000D01*
G01*
X9460000Y5020000D01*
G75*
G02*
X9600000Y5160000I140000J0D01*
G01*
X9880000Y5160000D01*
G75*
G02*
X10020000Y5020000I0J-140000D01*
G01*
G37*
G36*
G01*
X10980000Y5020000D02*
X10980000Y4680000D01*
G75*
G02*
X10840000Y4540000I-140000J0D01*
G01*
X10560000Y4540000D01*
G75*
G02*
X10420000Y4680000I0J140000D01*
G01*
X10420000Y5020000D01*
G75*
G02*
X10560000Y5160000I140000J0D01*
G01*
X10840000Y5160000D01*
G75*
G02*
X10980000Y5020000I0J-140000D01*
G01*
G37*
G36*
G01*
X15480000Y5650000D02*
X15820000Y5650000D01*
G75*
G02*
X15960000Y5510000I0J-140000D01*
G01*
X15960000Y5230000D01*
G75*
G02*
X15820000Y5090000I-140000J0D01*
G01*
X15480000Y5090000D01*
G75*
G02*
X15340000Y5230000I0J140000D01*
G01*
X15340000Y5510000D01*
G75*
G02*
X15480000Y5650000I140000J0D01*
G01*
G37*
G36*
G01*
X15480000Y6610000D02*
X15820000Y6610000D01*
G75*
G02*
X15960000Y6470000I0J-140000D01*
G01*
X15960000Y6190000D01*
G75*
G02*
X15820000Y6050000I-140000J0D01*
G01*
X15480000Y6050000D01*
G75*
G02*
X15340000Y6190000I0J140000D01*
G01*
X15340000Y6470000D01*
G75*
G02*
X15480000Y6610000I140000J0D01*
G01*
G37*
G36*
G01*
X10170000Y18300000D02*
X9830000Y18300000D01*
G75*
G02*
X9690000Y18440000I0J140000D01*
G01*
X9690000Y18720000D01*
G75*
G02*
X9830000Y18860000I140000J0D01*
G01*
X10170000Y18860000D01*
G75*
G02*
X10310000Y18720000I0J-140000D01*
G01*
X10310000Y18440000D01*
G75*
G02*
X10170000Y18300000I-140000J0D01*
G01*
G37*
G36*
G01*
X10170000Y17340000D02*
X9830000Y17340000D01*
G75*
G02*
X9690000Y17480000I0J140000D01*
G01*
X9690000Y17760000D01*
G75*
G02*
X9830000Y17900000I140000J0D01*
G01*
X10170000Y17900000D01*
G75*
G02*
X10310000Y17760000I0J-140000D01*
G01*
X10310000Y17480000D01*
G75*
G02*
X10170000Y17340000I-140000J0D01*
G01*
G37*
G36*
G01*
X-5670000Y-16400000D02*
X-5330000Y-16400000D01*
G75*
G02*
X-5190000Y-16540000I0J-140000D01*
G01*
X-5190000Y-16820000D01*
G75*
G02*
X-5330000Y-16960000I-140000J0D01*
G01*
X-5670000Y-16960000D01*
G75*
G02*
X-5810000Y-16820000I0J140000D01*
G01*
X-5810000Y-16540000D01*
G75*
G02*
X-5670000Y-16400000I140000J0D01*
G01*
G37*
G36*
G01*
X-5670000Y-15440000D02*
X-5330000Y-15440000D01*
G75*
G02*
X-5190000Y-15580000I0J-140000D01*
G01*
X-5190000Y-15860000D01*
G75*
G02*
X-5330000Y-16000000I-140000J0D01*
G01*
X-5670000Y-16000000D01*
G75*
G02*
X-5810000Y-15860000I0J140000D01*
G01*
X-5810000Y-15580000D01*
G75*
G02*
X-5670000Y-15440000I140000J0D01*
G01*
G37*
G36*
G01*
X-7520000Y-16420000D02*
X-7180000Y-16420000D01*
G75*
G02*
X-7040000Y-16560000I0J-140000D01*
G01*
X-7040000Y-16840000D01*
G75*
G02*
X-7180000Y-16980000I-140000J0D01*
G01*
X-7520000Y-16980000D01*
G75*
G02*
X-7660000Y-16840000I0J140000D01*
G01*
X-7660000Y-16560000D01*
G75*
G02*
X-7520000Y-16420000I140000J0D01*
G01*
G37*
G36*
G01*
X-7520000Y-15460000D02*
X-7180000Y-15460000D01*
G75*
G02*
X-7040000Y-15600000I0J-140000D01*
G01*
X-7040000Y-15880000D01*
G75*
G02*
X-7180000Y-16020000I-140000J0D01*
G01*
X-7520000Y-16020000D01*
G75*
G02*
X-7660000Y-15880000I0J140000D01*
G01*
X-7660000Y-15600000D01*
G75*
G02*
X-7520000Y-15460000I140000J0D01*
G01*
G37*
M02*
